%TF.GenerationSoftware,KiCad,Pcbnew,6.0.11+dfsg-1*%
%TF.ProjectId,project,70726f6a-6563-4742-9e6b-696361645f70,rev?*%
%TF.SameCoordinates,Original*%
%TF.FileFunction,Drillmap*%
%TF.FilePolarity,Positive*%
%FSLAX45Y45*%
G04 Gerber Fmt 4.5, Leading zero omitted, Abs format (unit mm)*
%MOMM*%
%LPD*%
G01*
G04 APERTURE LIST*
%ADD10C,0.100000*%
%ADD11C,0.200000*%
%ADD12C,0.030000*%
%ADD13C,0.420000*%
G04 APERTURE END LIST*
D10*
X12776250Y-7053750D02*
G75*
G03*
X12626250Y-7203750I0J-150000D01*
G01*
X17116250Y-10923750D02*
G75*
G03*
X17116250Y-10583750I300J170000D01*
G01*
X17346250Y-10283750D02*
X16306250Y-10283750D01*
X16536250Y-10583750D02*
G75*
G03*
X16536250Y-10923750I-300J-170000D01*
G01*
X21026250Y-7203750D02*
G75*
G03*
X20876250Y-7053750I-150000J0D01*
G01*
X12626250Y-9953750D02*
X12626250Y-11003750D01*
X20826250Y-11153750D02*
X12826250Y-11153750D01*
X20026250Y-9853750D02*
X20026250Y-8353750D01*
X20076250Y-8303750D02*
X20976250Y-8303750D01*
X20876250Y-7053750D02*
X12776250Y-7053750D01*
X18006250Y-9803750D02*
G75*
G03*
X18006250Y-9803750I-180000J0D01*
G01*
X16256250Y-10233750D02*
X16256250Y-9673750D01*
X17396250Y-9673750D02*
G75*
G03*
X17346250Y-9623750I-50000J0D01*
G01*
X20976250Y-9903750D02*
X20076250Y-9903750D01*
X16306250Y-9623750D02*
G75*
G03*
X16256250Y-9673750I0J-50000D01*
G01*
X16006250Y-9803750D02*
G75*
G03*
X16006250Y-9803750I-180000J0D01*
G01*
X13576250Y-9903750D02*
G75*
G03*
X13626250Y-9853750I0J50000D01*
G01*
X17346250Y-10283750D02*
G75*
G03*
X17396250Y-10233750I0J50000D01*
G01*
X16536250Y-10583750D02*
X17116250Y-10583750D01*
X20026250Y-9853750D02*
G75*
G03*
X20076250Y-9903750I50000J0D01*
G01*
X13576250Y-9903750D02*
X12676250Y-9903750D01*
X12626250Y-11003750D02*
G75*
G03*
X12776250Y-11153750I150000J0D01*
G01*
X21026250Y-8253750D02*
X21026250Y-7203750D01*
X12626250Y-8253750D02*
G75*
G03*
X12676250Y-8303750I50000J0D01*
G01*
X20876250Y-11153750D02*
X20826250Y-11153750D01*
X17116250Y-10923750D02*
X16536250Y-10923750D01*
X12676250Y-9903750D02*
G75*
G03*
X12626250Y-9953750I0J-50000D01*
G01*
X20076250Y-8303750D02*
G75*
G03*
X20026250Y-8353750I0J-50000D01*
G01*
X17396250Y-9673750D02*
X17396250Y-10233750D01*
X20876250Y-11153750D02*
G75*
G03*
X21026250Y-11003750I0J150000D01*
G01*
X13626250Y-8353750D02*
X13626250Y-9853750D01*
X12626250Y-7203750D02*
X12626250Y-8253750D01*
X20976250Y-8303750D02*
G75*
G03*
X21026250Y-8253750I0J50000D01*
G01*
X13626250Y-8353750D02*
G75*
G03*
X13576250Y-8303750I-50000J0D01*
G01*
X21026250Y-9953750D02*
X21026250Y-11003750D01*
X16306250Y-9623750D02*
X17346250Y-9623750D01*
X12776250Y-11153750D02*
X12826250Y-11153750D01*
X12676250Y-8303750D02*
X13576250Y-8303750D01*
X16256250Y-10233750D02*
G75*
G03*
X16306250Y-10283750I50000J0D01*
G01*
X21026250Y-9953750D02*
G75*
G03*
X20976250Y-9903750I-50000J0D01*
G01*
D11*
D12*
X12711250Y-7288750D02*
X12741250Y-7318750D01*
X12741250Y-7288750D02*
X12711250Y-7318750D01*
X12711250Y-7488750D02*
X12741250Y-7518750D01*
X12741250Y-7488750D02*
X12711250Y-7518750D01*
X12711250Y-7688750D02*
X12741250Y-7718750D01*
X12741250Y-7688750D02*
X12711250Y-7718750D01*
X12711250Y-7888750D02*
X12741250Y-7918750D01*
X12741250Y-7888750D02*
X12711250Y-7918750D01*
X12711250Y-8088750D02*
X12741250Y-8118750D01*
X12741250Y-8088750D02*
X12711250Y-8118750D01*
X12711250Y-8188750D02*
X12741250Y-8218750D01*
X12741250Y-8188750D02*
X12711250Y-8218750D01*
X12711250Y-9988750D02*
X12741250Y-10018750D01*
X12741250Y-9988750D02*
X12711250Y-10018750D01*
X12711250Y-10088750D02*
X12741250Y-10118750D01*
X12741250Y-10088750D02*
X12711250Y-10118750D01*
X12711250Y-10288750D02*
X12741250Y-10318750D01*
X12741250Y-10288750D02*
X12711250Y-10318750D01*
X12711250Y-10488750D02*
X12741250Y-10518750D01*
X12741250Y-10488750D02*
X12711250Y-10518750D01*
X12711250Y-10688750D02*
X12741250Y-10718750D01*
X12741250Y-10688750D02*
X12711250Y-10718750D01*
X12711250Y-10888750D02*
X12741250Y-10918750D01*
X12741250Y-10888750D02*
X12711250Y-10918750D01*
X12811250Y-7188750D02*
X12841250Y-7218750D01*
X12841250Y-7188750D02*
X12811250Y-7218750D01*
X12811250Y-8188750D02*
X12841250Y-8218750D01*
X12841250Y-8188750D02*
X12811250Y-8218750D01*
X12811250Y-9988750D02*
X12841250Y-10018750D01*
X12841250Y-9988750D02*
X12811250Y-10018750D01*
X12811250Y-10988750D02*
X12841250Y-11018750D01*
X12841250Y-10988750D02*
X12811250Y-11018750D01*
X13011250Y-8188750D02*
X13041250Y-8218750D01*
X13041250Y-8188750D02*
X13011250Y-8218750D01*
X13011250Y-9988750D02*
X13041250Y-10018750D01*
X13041250Y-9988750D02*
X13011250Y-10018750D01*
X13211250Y-7188750D02*
X13241250Y-7218750D01*
X13241250Y-7188750D02*
X13211250Y-7218750D01*
X13211250Y-7588750D02*
X13241250Y-7618750D01*
X13241250Y-7588750D02*
X13211250Y-7618750D01*
X13211250Y-8188750D02*
X13241250Y-8218750D01*
X13241250Y-8188750D02*
X13211250Y-8218750D01*
X13211250Y-9988750D02*
X13241250Y-10018750D01*
X13241250Y-9988750D02*
X13211250Y-10018750D01*
X13211250Y-10388750D02*
X13241250Y-10418750D01*
X13241250Y-10388750D02*
X13211250Y-10418750D01*
X13211250Y-10988750D02*
X13241250Y-11018750D01*
X13241250Y-10988750D02*
X13211250Y-11018750D01*
X13411250Y-8188750D02*
X13441250Y-8218750D01*
X13441250Y-8188750D02*
X13411250Y-8218750D01*
X13411250Y-9988750D02*
X13441250Y-10018750D01*
X13441250Y-9988750D02*
X13411250Y-10018750D01*
X13611250Y-7188750D02*
X13641250Y-7218750D01*
X13641250Y-7188750D02*
X13611250Y-7218750D01*
X13611250Y-7788750D02*
X13641250Y-7818750D01*
X13641250Y-7788750D02*
X13611250Y-7818750D01*
X13611250Y-8188750D02*
X13641250Y-8218750D01*
X13641250Y-8188750D02*
X13611250Y-8218750D01*
X13611250Y-9988750D02*
X13641250Y-10018750D01*
X13641250Y-9988750D02*
X13611250Y-10018750D01*
X13611250Y-10288750D02*
X13641250Y-10318750D01*
X13641250Y-10288750D02*
X13611250Y-10318750D01*
X13611250Y-10988750D02*
X13641250Y-11018750D01*
X13641250Y-10988750D02*
X13611250Y-11018750D01*
X13711250Y-8188750D02*
X13741250Y-8218750D01*
X13741250Y-8188750D02*
X13711250Y-8218750D01*
X13711250Y-8288750D02*
X13741250Y-8318750D01*
X13741250Y-8288750D02*
X13711250Y-8318750D01*
X13711250Y-9888750D02*
X13741250Y-9918750D01*
X13741250Y-9888750D02*
X13711250Y-9918750D01*
X13711250Y-9988750D02*
X13741250Y-10018750D01*
X13741250Y-9988750D02*
X13711250Y-10018750D01*
X13761250Y-10188750D02*
X13791250Y-10218750D01*
X13791250Y-10188750D02*
X13761250Y-10218750D01*
X13911250Y-7988750D02*
X13941250Y-8018750D01*
X13941250Y-7988750D02*
X13911250Y-8018750D01*
X13911250Y-9788750D02*
X13941250Y-9818750D01*
X13941250Y-9788750D02*
X13911250Y-9818750D01*
X13911250Y-10038750D02*
X13941250Y-10068750D01*
X13941250Y-10038750D02*
X13911250Y-10068750D01*
X14011250Y-7188750D02*
X14041250Y-7218750D01*
X14041250Y-7188750D02*
X14011250Y-7218750D01*
X14011250Y-10988750D02*
X14041250Y-11018750D01*
X14041250Y-10988750D02*
X14011250Y-11018750D01*
X14111250Y-9588750D02*
X14141250Y-9618750D01*
X14141250Y-9588750D02*
X14111250Y-9618750D01*
X14121250Y-8318750D02*
X14151250Y-8348750D01*
X14151250Y-8318750D02*
X14121250Y-8348750D01*
X14134950Y-9845786D02*
X14164950Y-9875786D01*
X14164950Y-9845786D02*
X14134950Y-9875786D01*
X14177438Y-10104938D02*
X14207438Y-10134938D01*
X14207438Y-10104938D02*
X14177438Y-10134938D01*
X14217708Y-10358124D02*
X14247708Y-10388124D01*
X14247708Y-10358124D02*
X14217708Y-10388124D01*
X14221250Y-8318750D02*
X14251250Y-8348750D01*
X14251250Y-8318750D02*
X14221250Y-8348750D01*
X14311250Y-9388750D02*
X14341250Y-9418750D01*
X14341250Y-9388750D02*
X14311250Y-9418750D01*
X14411250Y-7188750D02*
X14441250Y-7218750D01*
X14441250Y-7188750D02*
X14411250Y-7218750D01*
X14411250Y-8588750D02*
X14441250Y-8618750D01*
X14441250Y-8588750D02*
X14411250Y-8618750D01*
X14411250Y-10988750D02*
X14441250Y-11018750D01*
X14441250Y-10988750D02*
X14411250Y-11018750D01*
X14601250Y-9858750D02*
X14631250Y-9888750D01*
X14631250Y-9858750D02*
X14601250Y-9888750D01*
X14691250Y-9858750D02*
X14721250Y-9888750D01*
X14721250Y-9858750D02*
X14691250Y-9888750D01*
X14711250Y-8588750D02*
X14741250Y-8618750D01*
X14741250Y-8588750D02*
X14711250Y-8618750D01*
X14711250Y-9388750D02*
X14741250Y-9418750D01*
X14741250Y-9388750D02*
X14711250Y-9418750D01*
X14811250Y-7188750D02*
X14841250Y-7218750D01*
X14841250Y-7188750D02*
X14811250Y-7218750D01*
X14811250Y-10988750D02*
X14841250Y-11018750D01*
X14841250Y-10988750D02*
X14811250Y-11018750D01*
X14841250Y-8206300D02*
X14871250Y-8236300D01*
X14871250Y-8206300D02*
X14841250Y-8236300D01*
X14881250Y-7938750D02*
X14911250Y-7968750D01*
X14911250Y-7938750D02*
X14881250Y-7968750D01*
X14911250Y-8488750D02*
X14941250Y-8518750D01*
X14941250Y-8488750D02*
X14911250Y-8518750D01*
X14911250Y-9588750D02*
X14941250Y-9618750D01*
X14941250Y-9588750D02*
X14911250Y-9618750D01*
X15011250Y-9688750D02*
X15041250Y-9718750D01*
X15041250Y-9688750D02*
X15011250Y-9718750D01*
X15033616Y-10211800D02*
X15063616Y-10241800D01*
X15063616Y-10211800D02*
X15033616Y-10241800D01*
X15111250Y-7988750D02*
X15141250Y-8018750D01*
X15141250Y-7988750D02*
X15111250Y-8018750D01*
X15111250Y-8488750D02*
X15141250Y-8518750D01*
X15141250Y-8488750D02*
X15111250Y-8518750D01*
X15111250Y-9388750D02*
X15141250Y-9418750D01*
X15141250Y-9388750D02*
X15111250Y-9418750D01*
X15111250Y-10088750D02*
X15141250Y-10118750D01*
X15141250Y-10088750D02*
X15111250Y-10118750D01*
X15211250Y-7188750D02*
X15241250Y-7218750D01*
X15241250Y-7188750D02*
X15211250Y-7218750D01*
X15211250Y-7988750D02*
X15241250Y-8018750D01*
X15241250Y-7988750D02*
X15211250Y-8018750D01*
X15211250Y-10988750D02*
X15241250Y-11018750D01*
X15241250Y-10988750D02*
X15211250Y-11018750D01*
X15311250Y-8488750D02*
X15341250Y-8518750D01*
X15341250Y-8488750D02*
X15311250Y-8518750D01*
X15311250Y-9711875D02*
X15341250Y-9741875D01*
X15341250Y-9711875D02*
X15311250Y-9741875D01*
X15311250Y-10088750D02*
X15341250Y-10118750D01*
X15341250Y-10088750D02*
X15311250Y-10118750D01*
X15311250Y-10188750D02*
X15341250Y-10218750D01*
X15341250Y-10188750D02*
X15311250Y-10218750D01*
X15561250Y-9538750D02*
X15591250Y-9568750D01*
X15591250Y-9538750D02*
X15561250Y-9568750D01*
X15611250Y-7188750D02*
X15641250Y-7218750D01*
X15641250Y-7188750D02*
X15611250Y-7218750D01*
X15611250Y-7788750D02*
X15641250Y-7818750D01*
X15641250Y-7788750D02*
X15611250Y-7818750D01*
X15611250Y-10188750D02*
X15641250Y-10218750D01*
X15641250Y-10188750D02*
X15611250Y-10218750D01*
X15611250Y-10388750D02*
X15641250Y-10418750D01*
X15641250Y-10388750D02*
X15611250Y-10418750D01*
X15611250Y-10988750D02*
X15641250Y-11018750D01*
X15641250Y-10988750D02*
X15611250Y-11018750D01*
X15631250Y-8308750D02*
X15661250Y-8338750D01*
X15661250Y-8308750D02*
X15631250Y-8338750D01*
X15631250Y-8458750D02*
X15661250Y-8488750D01*
X15661250Y-8458750D02*
X15631250Y-8488750D01*
X15631250Y-8608750D02*
X15661250Y-8638750D01*
X15661250Y-8608750D02*
X15631250Y-8638750D01*
X15661250Y-8388750D02*
X15691250Y-8418750D01*
X15691250Y-8388750D02*
X15661250Y-8418750D01*
X15661250Y-8538750D02*
X15691250Y-8568750D01*
X15691250Y-8538750D02*
X15661250Y-8568750D01*
X15661250Y-8688750D02*
X15691250Y-8718750D01*
X15691250Y-8688750D02*
X15661250Y-8718750D01*
X15711250Y-8888750D02*
X15741250Y-8918750D01*
X15741250Y-8888750D02*
X15711250Y-8918750D01*
X15741250Y-8368750D02*
X15771250Y-8398750D01*
X15771250Y-8368750D02*
X15741250Y-8398750D01*
X15811250Y-8332337D02*
X15841250Y-8362337D01*
X15841250Y-8332337D02*
X15811250Y-8362337D01*
X15811250Y-9288750D02*
X15841250Y-9318750D01*
X15841250Y-9288750D02*
X15811250Y-9318750D01*
X15811250Y-10088750D02*
X15841250Y-10118750D01*
X15841250Y-10088750D02*
X15811250Y-10118750D01*
X15848390Y-7835890D02*
X15878390Y-7865890D01*
X15878390Y-7835890D02*
X15848390Y-7865890D01*
X15911250Y-7988750D02*
X15941250Y-8018750D01*
X15941250Y-7988750D02*
X15911250Y-8018750D01*
X16011250Y-7188750D02*
X16041250Y-7218750D01*
X16041250Y-7188750D02*
X16011250Y-7218750D01*
X16011250Y-9388750D02*
X16041250Y-9418750D01*
X16041250Y-9388750D02*
X16011250Y-9418750D01*
X16011250Y-10188750D02*
X16041250Y-10218750D01*
X16041250Y-10188750D02*
X16011250Y-10218750D01*
X16011250Y-10988750D02*
X16041250Y-11018750D01*
X16041250Y-10988750D02*
X16011250Y-11018750D01*
X16061250Y-8338750D02*
X16091250Y-8368750D01*
X16091250Y-8338750D02*
X16061250Y-8368750D01*
X16061250Y-8438750D02*
X16091250Y-8468750D01*
X16091250Y-8438750D02*
X16061250Y-8468750D01*
X16061250Y-8538750D02*
X16091250Y-8568750D01*
X16091250Y-8538750D02*
X16061250Y-8568750D01*
X16061250Y-8638750D02*
X16091250Y-8668750D01*
X16091250Y-8638750D02*
X16061250Y-8668750D01*
X16111250Y-7188750D02*
X16141250Y-7218750D01*
X16141250Y-7188750D02*
X16111250Y-7218750D01*
X16111250Y-10988750D02*
X16141250Y-11018750D01*
X16141250Y-10988750D02*
X16111250Y-11018750D01*
X16171250Y-8108750D02*
X16201250Y-8138750D01*
X16201250Y-8108750D02*
X16171250Y-8138750D01*
X16211250Y-7188750D02*
X16241250Y-7218750D01*
X16241250Y-7188750D02*
X16211250Y-7218750D01*
X16211250Y-10488750D02*
X16241250Y-10518750D01*
X16241250Y-10488750D02*
X16211250Y-10518750D01*
X16211250Y-10588750D02*
X16241250Y-10618750D01*
X16241250Y-10588750D02*
X16211250Y-10618750D01*
X16231250Y-7948750D02*
X16261250Y-7978750D01*
X16261250Y-7948750D02*
X16231250Y-7978750D01*
X16261250Y-8338750D02*
X16291250Y-8368750D01*
X16291250Y-8338750D02*
X16261250Y-8368750D01*
X16261250Y-8438750D02*
X16291250Y-8468750D01*
X16291250Y-8438750D02*
X16261250Y-8468750D01*
X16261250Y-8538750D02*
X16291250Y-8568750D01*
X16291250Y-8538750D02*
X16261250Y-8568750D01*
X16261250Y-8638750D02*
X16291250Y-8668750D01*
X16291250Y-8638750D02*
X16261250Y-8668750D01*
X16291250Y-8108750D02*
X16321250Y-8138750D01*
X16321250Y-8108750D02*
X16291250Y-8138750D01*
X16387394Y-8142606D02*
X16417394Y-8172606D01*
X16417394Y-8142606D02*
X16387394Y-8172606D01*
X16391250Y-7918750D02*
X16421250Y-7948750D01*
X16421250Y-7918750D02*
X16391250Y-7948750D01*
X16491250Y-8148750D02*
X16521250Y-8178750D01*
X16521250Y-8148750D02*
X16491250Y-8178750D01*
X16600831Y-8152468D02*
X16630831Y-8182468D01*
X16630831Y-8152468D02*
X16600831Y-8182468D01*
X16611250Y-7188750D02*
X16641250Y-7218750D01*
X16641250Y-7188750D02*
X16611250Y-7218750D01*
X16611250Y-7538750D02*
X16641250Y-7568750D01*
X16641250Y-7538750D02*
X16611250Y-7568750D01*
X16711250Y-7918750D02*
X16741250Y-7948750D01*
X16741250Y-7918750D02*
X16711250Y-7948750D01*
X16711250Y-8158750D02*
X16741250Y-8188750D01*
X16741250Y-8158750D02*
X16711250Y-8188750D01*
X16791250Y-7918750D02*
X16821250Y-7948750D01*
X16821250Y-7918750D02*
X16791250Y-7948750D01*
X16791250Y-8208750D02*
X16821250Y-8238750D01*
X16821250Y-8208750D02*
X16791250Y-8238750D01*
X16811250Y-8278750D02*
X16841250Y-8308750D01*
X16841250Y-8278750D02*
X16811250Y-8308750D01*
X16861250Y-7918750D02*
X16891250Y-7948750D01*
X16891250Y-7918750D02*
X16861250Y-7948750D01*
X16861250Y-8338750D02*
X16891250Y-8368750D01*
X16891250Y-8338750D02*
X16861250Y-8368750D01*
X16861250Y-8438750D02*
X16891250Y-8468750D01*
X16891250Y-8438750D02*
X16861250Y-8468750D01*
X16861250Y-8538750D02*
X16891250Y-8568750D01*
X16891250Y-8538750D02*
X16861250Y-8568750D01*
X16861250Y-8638750D02*
X16891250Y-8668750D01*
X16891250Y-8638750D02*
X16861250Y-8668750D01*
X16991250Y-7988750D02*
X17021250Y-8018750D01*
X17021250Y-7988750D02*
X16991250Y-8018750D01*
X16991250Y-8108750D02*
X17021250Y-8138750D01*
X17021250Y-8108750D02*
X16991250Y-8138750D01*
X17011250Y-7188750D02*
X17041250Y-7218750D01*
X17041250Y-7188750D02*
X17011250Y-7218750D01*
X17061250Y-8338750D02*
X17091250Y-8368750D01*
X17091250Y-8338750D02*
X17061250Y-8368750D01*
X17061250Y-8438750D02*
X17091250Y-8468750D01*
X17091250Y-8438750D02*
X17061250Y-8468750D01*
X17061250Y-8538750D02*
X17091250Y-8568750D01*
X17091250Y-8538750D02*
X17061250Y-8568750D01*
X17061250Y-8638750D02*
X17091250Y-8668750D01*
X17091250Y-8638750D02*
X17061250Y-8668750D01*
X17091250Y-8108750D02*
X17121250Y-8138750D01*
X17121250Y-8108750D02*
X17091250Y-8138750D01*
X17301300Y-8408750D02*
X17331300Y-8438750D01*
X17331300Y-8408750D02*
X17301300Y-8438750D01*
X17344141Y-8275859D02*
X17374141Y-8305859D01*
X17374141Y-8275859D02*
X17344141Y-8305859D01*
X17391250Y-7988750D02*
X17421250Y-8018750D01*
X17421250Y-7988750D02*
X17391250Y-8018750D01*
X17391250Y-8108750D02*
X17421250Y-8138750D01*
X17421250Y-8108750D02*
X17391250Y-8138750D01*
X17411250Y-7188750D02*
X17441250Y-7218750D01*
X17441250Y-7188750D02*
X17411250Y-7218750D01*
X17411250Y-10488750D02*
X17441250Y-10518750D01*
X17441250Y-10488750D02*
X17411250Y-10518750D01*
X17411250Y-10588750D02*
X17441250Y-10618750D01*
X17441250Y-10588750D02*
X17411250Y-10618750D01*
X17511250Y-7188750D02*
X17541250Y-7218750D01*
X17541250Y-7188750D02*
X17511250Y-7218750D01*
X17511250Y-8108750D02*
X17541250Y-8138750D01*
X17541250Y-8108750D02*
X17511250Y-8138750D01*
X17511250Y-9588750D02*
X17541250Y-9618750D01*
X17541250Y-9588750D02*
X17511250Y-9618750D01*
X17511250Y-10088750D02*
X17541250Y-10118750D01*
X17541250Y-10088750D02*
X17511250Y-10118750D01*
X17511250Y-10988750D02*
X17541250Y-11018750D01*
X17541250Y-10988750D02*
X17511250Y-11018750D01*
X17561250Y-8338750D02*
X17591250Y-8368750D01*
X17591250Y-8338750D02*
X17561250Y-8368750D01*
X17561250Y-8638750D02*
X17591250Y-8668750D01*
X17591250Y-8638750D02*
X17561250Y-8668750D01*
X17611250Y-7188750D02*
X17641250Y-7218750D01*
X17641250Y-7188750D02*
X17611250Y-7218750D01*
X17611250Y-7538750D02*
X17641250Y-7568750D01*
X17641250Y-7538750D02*
X17611250Y-7568750D01*
X17611250Y-8138750D02*
X17641250Y-8168750D01*
X17641250Y-8138750D02*
X17611250Y-8168750D01*
X17611250Y-10388750D02*
X17641250Y-10418750D01*
X17641250Y-10388750D02*
X17611250Y-10418750D01*
X17611250Y-10988750D02*
X17641250Y-11018750D01*
X17641250Y-10988750D02*
X17611250Y-11018750D01*
X17811250Y-10088750D02*
X17841250Y-10118750D01*
X17841250Y-10088750D02*
X17811250Y-10118750D01*
X17861250Y-7988750D02*
X17891250Y-8018750D01*
X17891250Y-7988750D02*
X17861250Y-8018750D01*
X17961250Y-7888750D02*
X17991250Y-7918750D01*
X17991250Y-7888750D02*
X17961250Y-7918750D01*
X17961250Y-8388750D02*
X17991250Y-8418750D01*
X17991250Y-8388750D02*
X17961250Y-8418750D01*
X17961250Y-8538750D02*
X17991250Y-8568750D01*
X17991250Y-8538750D02*
X17961250Y-8568750D01*
X17961250Y-8688750D02*
X17991250Y-8718750D01*
X17991250Y-8688750D02*
X17961250Y-8718750D01*
X17991250Y-8308750D02*
X18021250Y-8338750D01*
X18021250Y-8308750D02*
X17991250Y-8338750D01*
X17991250Y-8458750D02*
X18021250Y-8488750D01*
X18021250Y-8458750D02*
X17991250Y-8488750D01*
X17991250Y-8608750D02*
X18021250Y-8638750D01*
X18021250Y-8608750D02*
X17991250Y-8638750D01*
X18011250Y-7188750D02*
X18041250Y-7218750D01*
X18041250Y-7188750D02*
X18011250Y-7218750D01*
X18011250Y-7588750D02*
X18041250Y-7618750D01*
X18041250Y-7588750D02*
X18011250Y-7618750D01*
X18011250Y-7688750D02*
X18041250Y-7718750D01*
X18041250Y-7688750D02*
X18011250Y-7718750D01*
X18011250Y-10988750D02*
X18041250Y-11018750D01*
X18041250Y-10988750D02*
X18011250Y-11018750D01*
X18211250Y-10088750D02*
X18241250Y-10118750D01*
X18241250Y-10088750D02*
X18211250Y-10118750D01*
X18291250Y-8068750D02*
X18321250Y-8098750D01*
X18321250Y-8068750D02*
X18291250Y-8098750D01*
X18291250Y-8208750D02*
X18321250Y-8238750D01*
X18321250Y-8208750D02*
X18291250Y-8238750D01*
X18291250Y-8358750D02*
X18321250Y-8388750D01*
X18321250Y-8358750D02*
X18291250Y-8388750D01*
X18291250Y-8508750D02*
X18321250Y-8538750D01*
X18321250Y-8508750D02*
X18291250Y-8538750D01*
X18361250Y-7938750D02*
X18391250Y-7968750D01*
X18391250Y-7938750D02*
X18361250Y-7968750D01*
X18411250Y-7188750D02*
X18441250Y-7218750D01*
X18441250Y-7188750D02*
X18411250Y-7218750D01*
X18411250Y-8508750D02*
X18441250Y-8538750D01*
X18441250Y-8508750D02*
X18411250Y-8538750D01*
X18411250Y-10988750D02*
X18441250Y-11018750D01*
X18441250Y-10988750D02*
X18411250Y-11018750D01*
X18491250Y-9718750D02*
X18521250Y-9748750D01*
X18521250Y-9718750D02*
X18491250Y-9748750D01*
X18511250Y-7988750D02*
X18541250Y-8018750D01*
X18541250Y-7988750D02*
X18511250Y-8018750D01*
X18601250Y-10048750D02*
X18631250Y-10078750D01*
X18631250Y-10048750D02*
X18601250Y-10078750D01*
X18611250Y-8208750D02*
X18641250Y-8238750D01*
X18641250Y-8208750D02*
X18611250Y-8238750D01*
X18661250Y-8138750D02*
X18691250Y-8168750D01*
X18691250Y-8138750D02*
X18661250Y-8168750D01*
X18661250Y-8288750D02*
X18691250Y-8318750D01*
X18691250Y-8288750D02*
X18661250Y-8318750D01*
X18661250Y-8638750D02*
X18691250Y-8668750D01*
X18691250Y-8638750D02*
X18661250Y-8668750D01*
X18671250Y-8508750D02*
X18701250Y-8538750D01*
X18701250Y-8508750D02*
X18671250Y-8538750D01*
X18671250Y-10048750D02*
X18701250Y-10078750D01*
X18701250Y-10048750D02*
X18671250Y-10078750D01*
X18711250Y-9188750D02*
X18741250Y-9218750D01*
X18741250Y-9188750D02*
X18711250Y-9218750D01*
X18711250Y-9851300D02*
X18741250Y-9881300D01*
X18741250Y-9851300D02*
X18711250Y-9881300D01*
X18741250Y-8328750D02*
X18771250Y-8358750D01*
X18771250Y-8328750D02*
X18741250Y-8358750D01*
X18751250Y-8128750D02*
X18781250Y-8158750D01*
X18781250Y-8128750D02*
X18751250Y-8158750D01*
X18756300Y-10033869D02*
X18786300Y-10063869D01*
X18786300Y-10033869D02*
X18756300Y-10063869D01*
X18771250Y-10168750D02*
X18801250Y-10198750D01*
X18801250Y-10168750D02*
X18771250Y-10198750D01*
X18811250Y-7188750D02*
X18841250Y-7218750D01*
X18841250Y-7188750D02*
X18811250Y-7218750D01*
X18811250Y-10988750D02*
X18841250Y-11018750D01*
X18841250Y-10988750D02*
X18811250Y-11018750D01*
X18831250Y-9718750D02*
X18861250Y-9748750D01*
X18861250Y-9718750D02*
X18831250Y-9748750D01*
X18861250Y-9188750D02*
X18891250Y-9218750D01*
X18891250Y-9188750D02*
X18861250Y-9218750D01*
X18941250Y-8318750D02*
X18971250Y-8348750D01*
X18971250Y-8318750D02*
X18941250Y-8348750D01*
X19011250Y-9538750D02*
X19041250Y-9568750D01*
X19041250Y-9538750D02*
X19011250Y-9568750D01*
X19021250Y-8318750D02*
X19051250Y-8348750D01*
X19051250Y-8318750D02*
X19021250Y-8348750D01*
X19028257Y-10366250D02*
X19058257Y-10396250D01*
X19058257Y-10366250D02*
X19028257Y-10396250D01*
X19211250Y-7188750D02*
X19241250Y-7218750D01*
X19241250Y-7188750D02*
X19211250Y-7218750D01*
X19211250Y-9088750D02*
X19241250Y-9118750D01*
X19241250Y-9088750D02*
X19211250Y-9118750D01*
X19211250Y-10988750D02*
X19241250Y-11018750D01*
X19241250Y-10988750D02*
X19211250Y-11018750D01*
X19261250Y-9788750D02*
X19291250Y-9818750D01*
X19291250Y-9788750D02*
X19261250Y-9818750D01*
X19311250Y-8388750D02*
X19341250Y-8418750D01*
X19341250Y-8388750D02*
X19311250Y-8418750D01*
X19324352Y-8201852D02*
X19354352Y-8231852D01*
X19354352Y-8201852D02*
X19324352Y-8231852D01*
X19401250Y-9858750D02*
X19431250Y-9888750D01*
X19431250Y-9858750D02*
X19401250Y-9888750D01*
X19411250Y-9088750D02*
X19441250Y-9118750D01*
X19441250Y-9088750D02*
X19411250Y-9118750D01*
X19416743Y-8194243D02*
X19446743Y-8224243D01*
X19446743Y-8194243D02*
X19416743Y-8224243D01*
X19491250Y-9858750D02*
X19521250Y-9888750D01*
X19521250Y-9858750D02*
X19491250Y-9888750D01*
X19511250Y-8388750D02*
X19541250Y-8418750D01*
X19541250Y-8388750D02*
X19511250Y-8418750D01*
X19611250Y-7188750D02*
X19641250Y-7218750D01*
X19641250Y-7188750D02*
X19611250Y-7218750D01*
X19611250Y-9088750D02*
X19641250Y-9118750D01*
X19641250Y-9088750D02*
X19611250Y-9118750D01*
X19611250Y-9788750D02*
X19641250Y-9818750D01*
X19641250Y-9788750D02*
X19611250Y-9818750D01*
X19611250Y-10988750D02*
X19641250Y-11018750D01*
X19641250Y-10988750D02*
X19611250Y-11018750D01*
X19681250Y-8118750D02*
X19711250Y-8148750D01*
X19711250Y-8118750D02*
X19681250Y-8148750D01*
X19711250Y-10188750D02*
X19741250Y-10218750D01*
X19741250Y-10188750D02*
X19711250Y-10218750D01*
X19811250Y-8388750D02*
X19841250Y-8418750D01*
X19841250Y-8388750D02*
X19811250Y-8418750D01*
X19811250Y-9088750D02*
X19841250Y-9118750D01*
X19841250Y-9088750D02*
X19811250Y-9118750D01*
X19811250Y-9788750D02*
X19841250Y-9818750D01*
X19841250Y-9788750D02*
X19811250Y-9818750D01*
X19861250Y-7988750D02*
X19891250Y-8018750D01*
X19891250Y-7988750D02*
X19861250Y-8018750D01*
X19911250Y-8188750D02*
X19941250Y-8218750D01*
X19941250Y-8188750D02*
X19911250Y-8218750D01*
X19911250Y-8288750D02*
X19941250Y-8318750D01*
X19941250Y-8288750D02*
X19911250Y-8318750D01*
X19911250Y-9888750D02*
X19941250Y-9918750D01*
X19941250Y-9888750D02*
X19911250Y-9918750D01*
X19911250Y-9988750D02*
X19941250Y-10018750D01*
X19941250Y-9988750D02*
X19911250Y-10018750D01*
X20011250Y-7188750D02*
X20041250Y-7218750D01*
X20041250Y-7188750D02*
X20011250Y-7218750D01*
X20011250Y-7888750D02*
X20041250Y-7918750D01*
X20041250Y-7888750D02*
X20011250Y-7918750D01*
X20011250Y-8188750D02*
X20041250Y-8218750D01*
X20041250Y-8188750D02*
X20011250Y-8218750D01*
X20011250Y-9988750D02*
X20041250Y-10018750D01*
X20041250Y-9988750D02*
X20011250Y-10018750D01*
X20011250Y-10188750D02*
X20041250Y-10218750D01*
X20041250Y-10188750D02*
X20011250Y-10218750D01*
X20011250Y-10388750D02*
X20041250Y-10418750D01*
X20041250Y-10388750D02*
X20011250Y-10418750D01*
X20011250Y-10988750D02*
X20041250Y-11018750D01*
X20041250Y-10988750D02*
X20011250Y-11018750D01*
X20211250Y-8188750D02*
X20241250Y-8218750D01*
X20241250Y-8188750D02*
X20211250Y-8218750D01*
X20211250Y-9988750D02*
X20241250Y-10018750D01*
X20241250Y-9988750D02*
X20211250Y-10018750D01*
X20411250Y-7188750D02*
X20441250Y-7218750D01*
X20441250Y-7188750D02*
X20411250Y-7218750D01*
X20411250Y-7788750D02*
X20441250Y-7818750D01*
X20441250Y-7788750D02*
X20411250Y-7818750D01*
X20411250Y-8188750D02*
X20441250Y-8218750D01*
X20441250Y-8188750D02*
X20411250Y-8218750D01*
X20411250Y-9988750D02*
X20441250Y-10018750D01*
X20441250Y-9988750D02*
X20411250Y-10018750D01*
X20411250Y-10488750D02*
X20441250Y-10518750D01*
X20441250Y-10488750D02*
X20411250Y-10518750D01*
X20411250Y-10988750D02*
X20441250Y-11018750D01*
X20441250Y-10988750D02*
X20411250Y-11018750D01*
X20611250Y-8188750D02*
X20641250Y-8218750D01*
X20641250Y-8188750D02*
X20611250Y-8218750D01*
X20611250Y-9988750D02*
X20641250Y-10018750D01*
X20641250Y-9988750D02*
X20611250Y-10018750D01*
X20811250Y-7188750D02*
X20841250Y-7218750D01*
X20841250Y-7188750D02*
X20811250Y-7218750D01*
X20811250Y-8188750D02*
X20841250Y-8218750D01*
X20841250Y-8188750D02*
X20811250Y-8218750D01*
X20811250Y-9988750D02*
X20841250Y-10018750D01*
X20841250Y-9988750D02*
X20811250Y-10018750D01*
X20811250Y-10988750D02*
X20841250Y-11018750D01*
X20841250Y-10988750D02*
X20811250Y-11018750D01*
X20911250Y-7288750D02*
X20941250Y-7318750D01*
X20941250Y-7288750D02*
X20911250Y-7318750D01*
X20911250Y-7488750D02*
X20941250Y-7518750D01*
X20941250Y-7488750D02*
X20911250Y-7518750D01*
X20911250Y-7688750D02*
X20941250Y-7718750D01*
X20941250Y-7688750D02*
X20911250Y-7718750D01*
X20911250Y-7888750D02*
X20941250Y-7918750D01*
X20941250Y-7888750D02*
X20911250Y-7918750D01*
X20911250Y-8088750D02*
X20941250Y-8118750D01*
X20941250Y-8088750D02*
X20911250Y-8118750D01*
X20911250Y-8188750D02*
X20941250Y-8218750D01*
X20941250Y-8188750D02*
X20911250Y-8218750D01*
X20911250Y-9988750D02*
X20941250Y-10018750D01*
X20941250Y-9988750D02*
X20911250Y-10018750D01*
X20911250Y-10088750D02*
X20941250Y-10118750D01*
X20941250Y-10088750D02*
X20911250Y-10118750D01*
X20911250Y-10288750D02*
X20941250Y-10318750D01*
X20941250Y-10288750D02*
X20911250Y-10318750D01*
X20911250Y-10488750D02*
X20941250Y-10518750D01*
X20941250Y-10488750D02*
X20911250Y-10518750D01*
X20911250Y-10688750D02*
X20941250Y-10718750D01*
X20941250Y-10688750D02*
X20911250Y-10718750D01*
X20911250Y-10888750D02*
X20941250Y-10918750D01*
X20941250Y-10888750D02*
X20911250Y-10918750D01*
D13*
X15536250Y-9003750D02*
G75*
G03*
X15536250Y-9003750I-210000J0D01*
G01*
X18536250Y-9003750D02*
G75*
G03*
X18536250Y-9003750I-210000J0D01*
G01*
D11*
X12878869Y-11469226D02*
X12878869Y-11269226D01*
X12926488Y-11269226D01*
X12955059Y-11278750D01*
X12974107Y-11297798D01*
X12983631Y-11316845D01*
X12993155Y-11354940D01*
X12993155Y-11383512D01*
X12983631Y-11421607D01*
X12974107Y-11440655D01*
X12955059Y-11459702D01*
X12926488Y-11469226D01*
X12878869Y-11469226D01*
X13078869Y-11469226D02*
X13078869Y-11335893D01*
X13078869Y-11373988D02*
X13088393Y-11354940D01*
X13097917Y-11345417D01*
X13116964Y-11335893D01*
X13136012Y-11335893D01*
X13202678Y-11469226D02*
X13202678Y-11335893D01*
X13202678Y-11269226D02*
X13193155Y-11278750D01*
X13202678Y-11288274D01*
X13212202Y-11278750D01*
X13202678Y-11269226D01*
X13202678Y-11288274D01*
X13326488Y-11469226D02*
X13307440Y-11459702D01*
X13297917Y-11440655D01*
X13297917Y-11269226D01*
X13431250Y-11469226D02*
X13412202Y-11459702D01*
X13402678Y-11440655D01*
X13402678Y-11269226D01*
X13659821Y-11469226D02*
X13659821Y-11269226D01*
X13726488Y-11412083D01*
X13793155Y-11269226D01*
X13793155Y-11469226D01*
X13974107Y-11469226D02*
X13974107Y-11364464D01*
X13964583Y-11345417D01*
X13945536Y-11335893D01*
X13907440Y-11335893D01*
X13888393Y-11345417D01*
X13974107Y-11459702D02*
X13955059Y-11469226D01*
X13907440Y-11469226D01*
X13888393Y-11459702D01*
X13878869Y-11440655D01*
X13878869Y-11421607D01*
X13888393Y-11402559D01*
X13907440Y-11393036D01*
X13955059Y-11393036D01*
X13974107Y-11383512D01*
X14069345Y-11335893D02*
X14069345Y-11535893D01*
X14069345Y-11345417D02*
X14088393Y-11335893D01*
X14126488Y-11335893D01*
X14145536Y-11345417D01*
X14155059Y-11354940D01*
X14164583Y-11373988D01*
X14164583Y-11431131D01*
X14155059Y-11450178D01*
X14145536Y-11459702D01*
X14126488Y-11469226D01*
X14088393Y-11469226D01*
X14069345Y-11459702D01*
X14250298Y-11450178D02*
X14259821Y-11459702D01*
X14250298Y-11469226D01*
X14240774Y-11459702D01*
X14250298Y-11450178D01*
X14250298Y-11469226D01*
X14250298Y-11345417D02*
X14259821Y-11354940D01*
X14250298Y-11364464D01*
X14240774Y-11354940D01*
X14250298Y-11345417D01*
X14250298Y-11364464D01*
D12*
X12591250Y-11783750D02*
X12621250Y-11813750D01*
X12621250Y-11783750D02*
X12591250Y-11813750D01*
D11*
X12916964Y-11689226D02*
X12936012Y-11689226D01*
X12955059Y-11698750D01*
X12964583Y-11708274D01*
X12974107Y-11727321D01*
X12983631Y-11765417D01*
X12983631Y-11813036D01*
X12974107Y-11851131D01*
X12964583Y-11870178D01*
X12955059Y-11879702D01*
X12936012Y-11889226D01*
X12916964Y-11889226D01*
X12897917Y-11879702D01*
X12888393Y-11870178D01*
X12878869Y-11851131D01*
X12869345Y-11813036D01*
X12869345Y-11765417D01*
X12878869Y-11727321D01*
X12888393Y-11708274D01*
X12897917Y-11698750D01*
X12916964Y-11689226D01*
X13069345Y-11870178D02*
X13078869Y-11879702D01*
X13069345Y-11889226D01*
X13059821Y-11879702D01*
X13069345Y-11870178D01*
X13069345Y-11889226D01*
X13145536Y-11689226D02*
X13269345Y-11689226D01*
X13202678Y-11765417D01*
X13231250Y-11765417D01*
X13250298Y-11774940D01*
X13259821Y-11784464D01*
X13269345Y-11803512D01*
X13269345Y-11851131D01*
X13259821Y-11870178D01*
X13250298Y-11879702D01*
X13231250Y-11889226D01*
X13174107Y-11889226D01*
X13155059Y-11879702D01*
X13145536Y-11870178D01*
X13393155Y-11689226D02*
X13412202Y-11689226D01*
X13431250Y-11698750D01*
X13440774Y-11708274D01*
X13450298Y-11727321D01*
X13459821Y-11765417D01*
X13459821Y-11813036D01*
X13450298Y-11851131D01*
X13440774Y-11870178D01*
X13431250Y-11879702D01*
X13412202Y-11889226D01*
X13393155Y-11889226D01*
X13374107Y-11879702D01*
X13364583Y-11870178D01*
X13355059Y-11851131D01*
X13345536Y-11813036D01*
X13345536Y-11765417D01*
X13355059Y-11727321D01*
X13364583Y-11708274D01*
X13374107Y-11698750D01*
X13393155Y-11689226D01*
X13583631Y-11689226D02*
X13602678Y-11689226D01*
X13621726Y-11698750D01*
X13631250Y-11708274D01*
X13640774Y-11727321D01*
X13650298Y-11765417D01*
X13650298Y-11813036D01*
X13640774Y-11851131D01*
X13631250Y-11870178D01*
X13621726Y-11879702D01*
X13602678Y-11889226D01*
X13583631Y-11889226D01*
X13564583Y-11879702D01*
X13555059Y-11870178D01*
X13545536Y-11851131D01*
X13536012Y-11813036D01*
X13536012Y-11765417D01*
X13545536Y-11727321D01*
X13555059Y-11708274D01*
X13564583Y-11698750D01*
X13583631Y-11689226D01*
X13736012Y-11889226D02*
X13736012Y-11755893D01*
X13736012Y-11774940D02*
X13745536Y-11765417D01*
X13764583Y-11755893D01*
X13793155Y-11755893D01*
X13812202Y-11765417D01*
X13821726Y-11784464D01*
X13821726Y-11889226D01*
X13821726Y-11784464D02*
X13831250Y-11765417D01*
X13850298Y-11755893D01*
X13878869Y-11755893D01*
X13897917Y-11765417D01*
X13907440Y-11784464D01*
X13907440Y-11889226D01*
X14002678Y-11889226D02*
X14002678Y-11755893D01*
X14002678Y-11774940D02*
X14012202Y-11765417D01*
X14031250Y-11755893D01*
X14059821Y-11755893D01*
X14078869Y-11765417D01*
X14088393Y-11784464D01*
X14088393Y-11889226D01*
X14088393Y-11784464D02*
X14097917Y-11765417D01*
X14116964Y-11755893D01*
X14145536Y-11755893D01*
X14164583Y-11765417D01*
X14174107Y-11784464D01*
X14174107Y-11889226D01*
X14564583Y-11679702D02*
X14393155Y-11936845D01*
X14821726Y-11689226D02*
X14840774Y-11689226D01*
X14859821Y-11698750D01*
X14869345Y-11708274D01*
X14878869Y-11727321D01*
X14888393Y-11765417D01*
X14888393Y-11813036D01*
X14878869Y-11851131D01*
X14869345Y-11870178D01*
X14859821Y-11879702D01*
X14840774Y-11889226D01*
X14821726Y-11889226D01*
X14802678Y-11879702D01*
X14793155Y-11870178D01*
X14783631Y-11851131D01*
X14774107Y-11813036D01*
X14774107Y-11765417D01*
X14783631Y-11727321D01*
X14793155Y-11708274D01*
X14802678Y-11698750D01*
X14821726Y-11689226D01*
X14974107Y-11870178D02*
X14983631Y-11879702D01*
X14974107Y-11889226D01*
X14964583Y-11879702D01*
X14974107Y-11870178D01*
X14974107Y-11889226D01*
X15107440Y-11689226D02*
X15126488Y-11689226D01*
X15145536Y-11698750D01*
X15155059Y-11708274D01*
X15164583Y-11727321D01*
X15174107Y-11765417D01*
X15174107Y-11813036D01*
X15164583Y-11851131D01*
X15155059Y-11870178D01*
X15145536Y-11879702D01*
X15126488Y-11889226D01*
X15107440Y-11889226D01*
X15088393Y-11879702D01*
X15078869Y-11870178D01*
X15069345Y-11851131D01*
X15059821Y-11813036D01*
X15059821Y-11765417D01*
X15069345Y-11727321D01*
X15078869Y-11708274D01*
X15088393Y-11698750D01*
X15107440Y-11689226D01*
X15364583Y-11889226D02*
X15250298Y-11889226D01*
X15307440Y-11889226D02*
X15307440Y-11689226D01*
X15288393Y-11717798D01*
X15269345Y-11736845D01*
X15250298Y-11746369D01*
X15555059Y-11889226D02*
X15440774Y-11889226D01*
X15497917Y-11889226D02*
X15497917Y-11689226D01*
X15478869Y-11717798D01*
X15459821Y-11736845D01*
X15440774Y-11746369D01*
X15669345Y-11774940D02*
X15650298Y-11765417D01*
X15640774Y-11755893D01*
X15631250Y-11736845D01*
X15631250Y-11727321D01*
X15640774Y-11708274D01*
X15650298Y-11698750D01*
X15669345Y-11689226D01*
X15707440Y-11689226D01*
X15726488Y-11698750D01*
X15736012Y-11708274D01*
X15745536Y-11727321D01*
X15745536Y-11736845D01*
X15736012Y-11755893D01*
X15726488Y-11765417D01*
X15707440Y-11774940D01*
X15669345Y-11774940D01*
X15650298Y-11784464D01*
X15640774Y-11793988D01*
X15631250Y-11813036D01*
X15631250Y-11851131D01*
X15640774Y-11870178D01*
X15650298Y-11879702D01*
X15669345Y-11889226D01*
X15707440Y-11889226D01*
X15726488Y-11879702D01*
X15736012Y-11870178D01*
X15745536Y-11851131D01*
X15745536Y-11813036D01*
X15736012Y-11793988D01*
X15726488Y-11784464D01*
X15707440Y-11774940D01*
X15821726Y-11689226D02*
X15821726Y-11727321D01*
X15897917Y-11689226D02*
X15897917Y-11727321D01*
X16193155Y-11965417D02*
X16183631Y-11955893D01*
X16164583Y-11927321D01*
X16155059Y-11908274D01*
X16145536Y-11879702D01*
X16136012Y-11832083D01*
X16136012Y-11793988D01*
X16145536Y-11746369D01*
X16155059Y-11717798D01*
X16164583Y-11698750D01*
X16183631Y-11670178D01*
X16193155Y-11660655D01*
X16259821Y-11708274D02*
X16269345Y-11698750D01*
X16288393Y-11689226D01*
X16336012Y-11689226D01*
X16355059Y-11698750D01*
X16364583Y-11708274D01*
X16374107Y-11727321D01*
X16374107Y-11746369D01*
X16364583Y-11774940D01*
X16250298Y-11889226D01*
X16374107Y-11889226D01*
X16545536Y-11689226D02*
X16507440Y-11689226D01*
X16488393Y-11698750D01*
X16478869Y-11708274D01*
X16459821Y-11736845D01*
X16450298Y-11774940D01*
X16450298Y-11851131D01*
X16459821Y-11870178D01*
X16469345Y-11879702D01*
X16488393Y-11889226D01*
X16526488Y-11889226D01*
X16545536Y-11879702D01*
X16555059Y-11870178D01*
X16564583Y-11851131D01*
X16564583Y-11803512D01*
X16555059Y-11784464D01*
X16545536Y-11774940D01*
X16526488Y-11765417D01*
X16488393Y-11765417D01*
X16469345Y-11774940D01*
X16459821Y-11784464D01*
X16450298Y-11803512D01*
X16688393Y-11689226D02*
X16707440Y-11689226D01*
X16726488Y-11698750D01*
X16736012Y-11708274D01*
X16745536Y-11727321D01*
X16755059Y-11765417D01*
X16755059Y-11813036D01*
X16745536Y-11851131D01*
X16736012Y-11870178D01*
X16726488Y-11879702D01*
X16707440Y-11889226D01*
X16688393Y-11889226D01*
X16669345Y-11879702D01*
X16659821Y-11870178D01*
X16650298Y-11851131D01*
X16640774Y-11813036D01*
X16640774Y-11765417D01*
X16650298Y-11727321D01*
X16659821Y-11708274D01*
X16669345Y-11698750D01*
X16688393Y-11689226D01*
X16993155Y-11889226D02*
X16993155Y-11689226D01*
X17078869Y-11889226D02*
X17078869Y-11784464D01*
X17069345Y-11765417D01*
X17050298Y-11755893D01*
X17021726Y-11755893D01*
X17002679Y-11765417D01*
X16993155Y-11774940D01*
X17202679Y-11889226D02*
X17183631Y-11879702D01*
X17174107Y-11870178D01*
X17164583Y-11851131D01*
X17164583Y-11793988D01*
X17174107Y-11774940D01*
X17183631Y-11765417D01*
X17202679Y-11755893D01*
X17231250Y-11755893D01*
X17250298Y-11765417D01*
X17259821Y-11774940D01*
X17269345Y-11793988D01*
X17269345Y-11851131D01*
X17259821Y-11870178D01*
X17250298Y-11879702D01*
X17231250Y-11889226D01*
X17202679Y-11889226D01*
X17383631Y-11889226D02*
X17364583Y-11879702D01*
X17355060Y-11860655D01*
X17355060Y-11689226D01*
X17536012Y-11879702D02*
X17516964Y-11889226D01*
X17478869Y-11889226D01*
X17459821Y-11879702D01*
X17450298Y-11860655D01*
X17450298Y-11784464D01*
X17459821Y-11765417D01*
X17478869Y-11755893D01*
X17516964Y-11755893D01*
X17536012Y-11765417D01*
X17545536Y-11784464D01*
X17545536Y-11803512D01*
X17450298Y-11822559D01*
X17621726Y-11879702D02*
X17640774Y-11889226D01*
X17678869Y-11889226D01*
X17697917Y-11879702D01*
X17707440Y-11860655D01*
X17707440Y-11851131D01*
X17697917Y-11832083D01*
X17678869Y-11822559D01*
X17650298Y-11822559D01*
X17631250Y-11813036D01*
X17621726Y-11793988D01*
X17621726Y-11784464D01*
X17631250Y-11765417D01*
X17650298Y-11755893D01*
X17678869Y-11755893D01*
X17697917Y-11765417D01*
X17774107Y-11965417D02*
X17783631Y-11955893D01*
X17802679Y-11927321D01*
X17812202Y-11908274D01*
X17821726Y-11879702D01*
X17831250Y-11832083D01*
X17831250Y-11793988D01*
X17821726Y-11746369D01*
X17812202Y-11717798D01*
X17802679Y-11698750D01*
X17783631Y-11670178D01*
X17774107Y-11660655D01*
X12621250Y-12062750D02*
G75*
G03*
X12621250Y-12062750I-100000J0D01*
G01*
X12964583Y-12019893D02*
X12964583Y-12153226D01*
X12916964Y-11943702D02*
X12869345Y-12086559D01*
X12993155Y-12086559D01*
X13069345Y-12134178D02*
X13078869Y-12143702D01*
X13069345Y-12153226D01*
X13059821Y-12143702D01*
X13069345Y-12134178D01*
X13069345Y-12153226D01*
X13155059Y-11972274D02*
X13164583Y-11962750D01*
X13183631Y-11953226D01*
X13231250Y-11953226D01*
X13250298Y-11962750D01*
X13259821Y-11972274D01*
X13269345Y-11991321D01*
X13269345Y-12010369D01*
X13259821Y-12038940D01*
X13145536Y-12153226D01*
X13269345Y-12153226D01*
X13393155Y-11953226D02*
X13412202Y-11953226D01*
X13431250Y-11962750D01*
X13440774Y-11972274D01*
X13450298Y-11991321D01*
X13459821Y-12029417D01*
X13459821Y-12077036D01*
X13450298Y-12115131D01*
X13440774Y-12134178D01*
X13431250Y-12143702D01*
X13412202Y-12153226D01*
X13393155Y-12153226D01*
X13374107Y-12143702D01*
X13364583Y-12134178D01*
X13355059Y-12115131D01*
X13345536Y-12077036D01*
X13345536Y-12029417D01*
X13355059Y-11991321D01*
X13364583Y-11972274D01*
X13374107Y-11962750D01*
X13393155Y-11953226D01*
X13583631Y-11953226D02*
X13602678Y-11953226D01*
X13621726Y-11962750D01*
X13631250Y-11972274D01*
X13640774Y-11991321D01*
X13650298Y-12029417D01*
X13650298Y-12077036D01*
X13640774Y-12115131D01*
X13631250Y-12134178D01*
X13621726Y-12143702D01*
X13602678Y-12153226D01*
X13583631Y-12153226D01*
X13564583Y-12143702D01*
X13555059Y-12134178D01*
X13545536Y-12115131D01*
X13536012Y-12077036D01*
X13536012Y-12029417D01*
X13545536Y-11991321D01*
X13555059Y-11972274D01*
X13564583Y-11962750D01*
X13583631Y-11953226D01*
X13736012Y-12153226D02*
X13736012Y-12019893D01*
X13736012Y-12038940D02*
X13745536Y-12029417D01*
X13764583Y-12019893D01*
X13793155Y-12019893D01*
X13812202Y-12029417D01*
X13821726Y-12048464D01*
X13821726Y-12153226D01*
X13821726Y-12048464D02*
X13831250Y-12029417D01*
X13850298Y-12019893D01*
X13878869Y-12019893D01*
X13897917Y-12029417D01*
X13907440Y-12048464D01*
X13907440Y-12153226D01*
X14002678Y-12153226D02*
X14002678Y-12019893D01*
X14002678Y-12038940D02*
X14012202Y-12029417D01*
X14031250Y-12019893D01*
X14059821Y-12019893D01*
X14078869Y-12029417D01*
X14088393Y-12048464D01*
X14088393Y-12153226D01*
X14088393Y-12048464D02*
X14097917Y-12029417D01*
X14116964Y-12019893D01*
X14145536Y-12019893D01*
X14164583Y-12029417D01*
X14174107Y-12048464D01*
X14174107Y-12153226D01*
X14564583Y-11943702D02*
X14393155Y-12200845D01*
X14821726Y-11953226D02*
X14840774Y-11953226D01*
X14859821Y-11962750D01*
X14869345Y-11972274D01*
X14878869Y-11991321D01*
X14888393Y-12029417D01*
X14888393Y-12077036D01*
X14878869Y-12115131D01*
X14869345Y-12134178D01*
X14859821Y-12143702D01*
X14840774Y-12153226D01*
X14821726Y-12153226D01*
X14802678Y-12143702D01*
X14793155Y-12134178D01*
X14783631Y-12115131D01*
X14774107Y-12077036D01*
X14774107Y-12029417D01*
X14783631Y-11991321D01*
X14793155Y-11972274D01*
X14802678Y-11962750D01*
X14821726Y-11953226D01*
X14974107Y-12134178D02*
X14983631Y-12143702D01*
X14974107Y-12153226D01*
X14964583Y-12143702D01*
X14974107Y-12134178D01*
X14974107Y-12153226D01*
X15174107Y-12153226D02*
X15059821Y-12153226D01*
X15116964Y-12153226D02*
X15116964Y-11953226D01*
X15097917Y-11981798D01*
X15078869Y-12000845D01*
X15059821Y-12010369D01*
X15345536Y-11953226D02*
X15307440Y-11953226D01*
X15288393Y-11962750D01*
X15278869Y-11972274D01*
X15259821Y-12000845D01*
X15250298Y-12038940D01*
X15250298Y-12115131D01*
X15259821Y-12134178D01*
X15269345Y-12143702D01*
X15288393Y-12153226D01*
X15326488Y-12153226D01*
X15345536Y-12143702D01*
X15355059Y-12134178D01*
X15364583Y-12115131D01*
X15364583Y-12067512D01*
X15355059Y-12048464D01*
X15345536Y-12038940D01*
X15326488Y-12029417D01*
X15288393Y-12029417D01*
X15269345Y-12038940D01*
X15259821Y-12048464D01*
X15250298Y-12067512D01*
X15545536Y-11953226D02*
X15450298Y-11953226D01*
X15440774Y-12048464D01*
X15450298Y-12038940D01*
X15469345Y-12029417D01*
X15516964Y-12029417D01*
X15536012Y-12038940D01*
X15545536Y-12048464D01*
X15555059Y-12067512D01*
X15555059Y-12115131D01*
X15545536Y-12134178D01*
X15536012Y-12143702D01*
X15516964Y-12153226D01*
X15469345Y-12153226D01*
X15450298Y-12143702D01*
X15440774Y-12134178D01*
X15726488Y-12019893D02*
X15726488Y-12153226D01*
X15678869Y-11943702D02*
X15631250Y-12086559D01*
X15755059Y-12086559D01*
X15821726Y-11953226D02*
X15821726Y-11991321D01*
X15897917Y-11953226D02*
X15897917Y-11991321D01*
X16193155Y-12229417D02*
X16183631Y-12219893D01*
X16164583Y-12191321D01*
X16155059Y-12172274D01*
X16145536Y-12143702D01*
X16136012Y-12096083D01*
X16136012Y-12057988D01*
X16145536Y-12010369D01*
X16155059Y-11981798D01*
X16164583Y-11962750D01*
X16183631Y-11934178D01*
X16193155Y-11924655D01*
X16259821Y-11972274D02*
X16269345Y-11962750D01*
X16288393Y-11953226D01*
X16336012Y-11953226D01*
X16355059Y-11962750D01*
X16364583Y-11972274D01*
X16374107Y-11991321D01*
X16374107Y-12010369D01*
X16364583Y-12038940D01*
X16250298Y-12153226D01*
X16374107Y-12153226D01*
X16612202Y-12153226D02*
X16612202Y-11953226D01*
X16697917Y-12153226D02*
X16697917Y-12048464D01*
X16688393Y-12029417D01*
X16669345Y-12019893D01*
X16640774Y-12019893D01*
X16621726Y-12029417D01*
X16612202Y-12038940D01*
X16821726Y-12153226D02*
X16802679Y-12143702D01*
X16793155Y-12134178D01*
X16783631Y-12115131D01*
X16783631Y-12057988D01*
X16793155Y-12038940D01*
X16802679Y-12029417D01*
X16821726Y-12019893D01*
X16850298Y-12019893D01*
X16869345Y-12029417D01*
X16878869Y-12038940D01*
X16888393Y-12057988D01*
X16888393Y-12115131D01*
X16878869Y-12134178D01*
X16869345Y-12143702D01*
X16850298Y-12153226D01*
X16821726Y-12153226D01*
X17002679Y-12153226D02*
X16983631Y-12143702D01*
X16974107Y-12124655D01*
X16974107Y-11953226D01*
X17155060Y-12143702D02*
X17136012Y-12153226D01*
X17097917Y-12153226D01*
X17078869Y-12143702D01*
X17069345Y-12124655D01*
X17069345Y-12048464D01*
X17078869Y-12029417D01*
X17097917Y-12019893D01*
X17136012Y-12019893D01*
X17155060Y-12029417D01*
X17164583Y-12048464D01*
X17164583Y-12067512D01*
X17069345Y-12086559D01*
X17240774Y-12143702D02*
X17259821Y-12153226D01*
X17297917Y-12153226D01*
X17316964Y-12143702D01*
X17326488Y-12124655D01*
X17326488Y-12115131D01*
X17316964Y-12096083D01*
X17297917Y-12086559D01*
X17269345Y-12086559D01*
X17250298Y-12077036D01*
X17240774Y-12057988D01*
X17240774Y-12048464D01*
X17250298Y-12029417D01*
X17269345Y-12019893D01*
X17297917Y-12019893D01*
X17316964Y-12029417D01*
X17393155Y-12229417D02*
X17402679Y-12219893D01*
X17421726Y-12191321D01*
X17431250Y-12172274D01*
X17440774Y-12143702D01*
X17450298Y-12096083D01*
X17450298Y-12057988D01*
X17440774Y-12010369D01*
X17431250Y-11981798D01*
X17421726Y-11962750D01*
X17402679Y-11934178D01*
X17393155Y-11924655D01*
M02*
