M48
; FORMAT={-:-/ absolute / metric / decimal}
; #@! TF.GenerationSoftware,Kicad,Pcbnew,6.0.10+dfsg-1~bpo11+1
; #@! TF.FileFunction,NonPlated,1,4,NPTH
FMAT,2
METRIC
; #@! TA.AperFunction,NonPlated,NPTH,ComponentDrill
T1C1.152
; #@! TA.AperFunction,NonPlated,NPTH,ComponentDrill
T2C2.000
%
G90
G05
T1
X132.262Y-102.037
X204.262Y-80.037
X204.262Y-102.037
T2
G00X130.762Y-73.537
M15
G01X129.762Y-73.537
M16
G05
G00X129.762Y-108.537
M15
G01X130.762Y-108.537
M16
G05
G00X134.762Y-73.537
M15
G01X133.762Y-73.537
M16
G05
G00X133.762Y-108.537
M15
G01X134.762Y-108.537
M16
G05
G00X138.762Y-73.537
M15
G01X137.762Y-73.537
M16
G05
G00X137.762Y-108.537
M15
G01X138.762Y-108.537
M16
G05
G00X142.762Y-73.537
M15
G01X141.762Y-73.537
M16
G05
G00X141.762Y-108.537
M15
G01X142.762Y-108.537
M16
G05
G00X146.762Y-73.537
M15
G01X145.762Y-73.537
M16
G05
G00X145.762Y-108.537
M15
G01X146.762Y-108.537
M16
G05
G00X150.762Y-73.537
M15
G01X149.762Y-73.537
M16
G05
G00X149.762Y-108.537
M15
G01X150.762Y-108.537
M16
G05
G00X154.762Y-73.537
M15
G01X153.762Y-73.537
M16
G05
G00X153.762Y-108.537
M15
G01X154.762Y-108.537
M16
G05
G00X158.762Y-73.537
M15
G01X157.762Y-73.537
M16
G05
G00X157.762Y-108.537
M15
G01X158.762Y-108.537
M16
G05
G00X164.762Y-73.537
M15
G01X163.762Y-73.537
M16
G05
G00X168.762Y-73.537
M15
G01X167.762Y-73.537
M16
G05
G00X172.762Y-73.537
M15
G01X171.762Y-73.537
M16
G05
G00X178.762Y-73.537
M15
G01X177.762Y-73.537
M16
G05
G00X177.762Y-108.537
M15
G01X178.762Y-108.537
M16
G05
G00X182.762Y-73.537
M15
G01X181.762Y-73.537
M16
G05
G00X181.762Y-108.537
M15
G01X182.762Y-108.537
M16
G05
G00X186.762Y-73.537
M15
G01X185.762Y-73.537
M16
G05
G00X185.762Y-108.537
M15
G01X186.762Y-108.537
M16
G05
G00X190.762Y-73.537
M15
G01X189.762Y-73.537
M16
G05
G00X189.762Y-108.537
M15
G01X190.762Y-108.537
M16
G05
G00X194.0Y-88.0
M15
G01X194.0Y-87.0
M16
G05
G00X194.0Y-95.0
M15
G01X194.0Y-94.0
M16
G05
G00X194.762Y-73.537
M15
G01X193.762Y-73.537
M16
G05
G00X193.762Y-108.537
M15
G01X194.762Y-108.537
M16
G05
G00X198.762Y-73.537
M15
G01X197.762Y-73.537
M16
G05
G00X197.762Y-108.537
M15
G01X198.762Y-108.537
M16
G05
G00X202.762Y-73.537
M15
G01X201.762Y-73.537
M16
G05
G00X201.762Y-108.537
M15
G01X202.762Y-108.537
M16
G05
G00X206.762Y-73.537
M15
G01X205.762Y-73.537
M16
G05
G00X205.762Y-108.537
M15
G01X206.762Y-108.537
M16
G05
T0
M30
