G04 #@! TF.GenerationSoftware,KiCad,Pcbnew,6.0.10+dfsg-1~bpo11+1*
G04 #@! TF.ProjectId,project,70726f6a-6563-4742-9e6b-696361645f70,rev?*
G04 #@! TF.SameCoordinates,Original*
G04 #@! TF.FileFunction,Copper,L2,Inr*
G04 #@! TF.FilePolarity,Positive*
%FSLAX46Y46*%
G04 Gerber Fmt 4.6, Leading zero omitted, Abs format (unit mm)*
%MOMM*%
%LPD*%
G01*
G04 APERTURE LIST*
G04 #@! TA.AperFunction,Profile*
%ADD10C,0.100000*%
G04 #@! TD*
G04 #@! TA.AperFunction,ComponentPad*
%ADD11C,5.000000*%
G04 #@! TD*
G04 #@! TA.AperFunction,ViaPad*
%ADD12C,0.500000*%
G04 #@! TD*
G04 APERTURE END LIST*
D10*
X127762500Y-70537500D02*
G75*
G03*
X126262500Y-72037500I0J-1500000D01*
G01*
X171162500Y-109237500D02*
G75*
G03*
X171162500Y-105837500I3000J1700000D01*
G01*
X173462500Y-102837500D02*
X163062500Y-102837500D01*
X165362500Y-105837500D02*
G75*
G03*
X165362500Y-109237500I-3000J-1700000D01*
G01*
X210262500Y-72037500D02*
G75*
G03*
X208762500Y-70537500I-1500000J0D01*
G01*
X126262500Y-99537500D02*
X126262500Y-110037500D01*
X208262500Y-111537500D02*
X128262500Y-111537500D01*
X200262500Y-98537500D02*
X200262500Y-83537500D01*
X200762500Y-83037500D02*
X209762500Y-83037500D01*
X208762500Y-70537500D02*
X127762500Y-70537500D01*
X180062500Y-98037500D02*
G75*
G03*
X180062500Y-98037500I-1800000J0D01*
G01*
X162562500Y-102337500D02*
X162562500Y-96737500D01*
X173962500Y-96737500D02*
G75*
G03*
X173462500Y-96237500I-500000J0D01*
G01*
X209762500Y-99037500D02*
X200762500Y-99037500D01*
X163062500Y-96237500D02*
G75*
G03*
X162562500Y-96737500I0J-500000D01*
G01*
X160062500Y-98037500D02*
G75*
G03*
X160062500Y-98037500I-1800000J0D01*
G01*
X135762500Y-99037500D02*
G75*
G03*
X136262500Y-98537500I0J500000D01*
G01*
X173462500Y-102837500D02*
G75*
G03*
X173962500Y-102337500I0J500000D01*
G01*
X165362500Y-105837500D02*
X171162500Y-105837500D01*
X200262500Y-98537500D02*
G75*
G03*
X200762500Y-99037500I500000J0D01*
G01*
X135762500Y-99037500D02*
X126762500Y-99037500D01*
X126262500Y-110037500D02*
G75*
G03*
X127762500Y-111537500I1500000J0D01*
G01*
X210262500Y-82537500D02*
X210262500Y-72037500D01*
X126262500Y-82537500D02*
G75*
G03*
X126762500Y-83037500I500000J0D01*
G01*
X208762500Y-111537500D02*
X208262500Y-111537500D01*
X171162500Y-109237500D02*
X165362500Y-109237500D01*
X126762500Y-99037500D02*
G75*
G03*
X126262500Y-99537500I0J-500000D01*
G01*
X200762500Y-83037500D02*
G75*
G03*
X200262500Y-83537500I0J-500000D01*
G01*
X173962500Y-96737500D02*
X173962500Y-102337500D01*
X208762500Y-111537500D02*
G75*
G03*
X210262500Y-110037500I0J1500000D01*
G01*
X136262500Y-83537500D02*
X136262500Y-98537500D01*
X126262500Y-72037500D02*
X126262500Y-82537500D01*
X209762500Y-83037500D02*
G75*
G03*
X210262500Y-82537500I0J500000D01*
G01*
X136262500Y-83537500D02*
G75*
G03*
X135762500Y-83037500I-500000J0D01*
G01*
X210262500Y-99537500D02*
X210262500Y-110037500D01*
X163062500Y-96237500D02*
X173462500Y-96237500D01*
X127762500Y-111537500D02*
X128262500Y-111537500D01*
X126762500Y-83037500D02*
X135762500Y-83037500D01*
X162562500Y-102337500D02*
G75*
G03*
X163062500Y-102837500I500000J0D01*
G01*
X210262500Y-99537500D02*
G75*
G03*
X209762500Y-99037500I-500000J0D01*
G01*
D11*
X183262500Y-90037500D03*
X153262500Y-90037500D03*
D12*
X190262500Y-95537500D03*
X183762500Y-79537500D03*
X186762500Y-86537500D03*
X142327079Y-103731236D03*
X153262500Y-97268750D03*
X148962500Y-79537500D03*
X150486161Y-102268000D03*
X192762500Y-98037500D03*
X148562500Y-82213000D03*
X188762500Y-92037500D03*
X153262500Y-101037500D03*
X190432572Y-103812500D03*
X186862500Y-100637500D03*
X161262500Y-110037500D03*
X170262500Y-72037500D03*
X136262500Y-103037500D03*
X158262500Y-101037500D03*
X163062500Y-81237500D03*
X193262500Y-84037500D03*
X200262500Y-110037500D03*
X176262500Y-104037500D03*
X141362500Y-83337500D03*
X204262500Y-100037500D03*
X137262500Y-82037500D03*
X188462500Y-97337500D03*
X162762500Y-85537500D03*
X161262500Y-72037500D03*
X152262500Y-110037500D03*
X204262500Y-105037500D03*
X127262500Y-105037500D03*
X174062500Y-80037500D03*
X204262500Y-78037500D03*
X136262500Y-100037500D03*
X149262500Y-85037500D03*
X132262500Y-82037500D03*
X180062500Y-83237500D03*
X188262500Y-110037500D03*
X152262500Y-80037500D03*
X198262500Y-84037500D03*
X134262500Y-100037500D03*
X209262500Y-101037500D03*
X137762500Y-102037500D03*
X196262500Y-72037500D03*
X180062500Y-84737500D03*
X150262500Y-97037500D03*
X206262500Y-82037500D03*
X196262500Y-98037500D03*
X192262500Y-72037500D03*
X206262500Y-100037500D03*
X175262500Y-72037500D03*
X159262500Y-80037500D03*
X146162500Y-98737500D03*
X195062500Y-98737500D03*
X144262500Y-86037500D03*
X139262500Y-100537500D03*
X199262500Y-100037500D03*
X183062500Y-80837500D03*
X156462500Y-83237500D03*
X180262500Y-77037500D03*
X127262500Y-81037500D03*
X185262500Y-80037500D03*
X143262500Y-94037500D03*
X208262500Y-82037500D03*
X197262500Y-102037500D03*
X162262500Y-72037500D03*
X199262500Y-83037500D03*
X204262500Y-110037500D03*
X209262500Y-75037500D03*
X148262500Y-110037500D03*
X209262500Y-81037500D03*
X168762500Y-83537500D03*
X160762500Y-86537500D03*
X160762500Y-85537500D03*
X128262500Y-100037500D03*
X184262500Y-85237500D03*
X127262500Y-79037500D03*
X127262500Y-103037500D03*
X198262500Y-91037500D03*
X208262500Y-110037500D03*
X186162500Y-100637500D03*
X190362500Y-83337500D03*
X187262500Y-92037500D03*
X196262500Y-91037500D03*
X187862500Y-101837500D03*
X196962500Y-81337500D03*
X168762500Y-86537500D03*
X184262500Y-72037500D03*
X187562500Y-83437500D03*
X137262500Y-99037500D03*
X136262500Y-78037500D03*
X162762500Y-86537500D03*
X180062500Y-86237500D03*
X175762500Y-86537500D03*
X158262500Y-93037500D03*
X149262500Y-96037500D03*
X160762500Y-84537500D03*
X156262500Y-78037500D03*
X128262500Y-82037500D03*
X209262500Y-73037500D03*
X200262500Y-102037500D03*
X134262500Y-82037500D03*
X165062500Y-81637500D03*
X168762500Y-84537500D03*
X162262500Y-105037500D03*
X209262500Y-79037500D03*
X147262500Y-94037500D03*
X156462500Y-84737500D03*
X141262500Y-96037500D03*
X200262500Y-82037500D03*
X170762500Y-86537500D03*
X140262500Y-72037500D03*
X161862500Y-81237500D03*
X204262500Y-72037500D03*
X128262500Y-72037500D03*
X132262500Y-110037500D03*
X139262500Y-98037500D03*
X192262500Y-110037500D03*
X162262500Y-106037500D03*
X184262500Y-110037500D03*
X174062500Y-81237500D03*
X127262500Y-82037500D03*
X204262500Y-82037500D03*
X127262500Y-100037500D03*
X136262500Y-110037500D03*
X147062500Y-98737500D03*
X199262500Y-99037500D03*
X147262500Y-86037500D03*
X209262500Y-107037500D03*
X142362500Y-83337500D03*
X156462500Y-86237500D03*
X151262500Y-101037500D03*
X198762500Y-80037500D03*
X127262500Y-77037500D03*
X195262500Y-84037500D03*
X160262500Y-72037500D03*
X187662500Y-81437500D03*
X186262500Y-82237500D03*
X151262500Y-80037500D03*
X156262500Y-110037500D03*
X137262500Y-83037500D03*
X170762500Y-85537500D03*
X166262500Y-72037500D03*
X132262500Y-72037500D03*
X127262500Y-101037500D03*
X200262500Y-72037500D03*
X200262500Y-79037500D03*
X160262500Y-110037500D03*
X209262500Y-77037500D03*
X157562500Y-83837500D03*
X209262500Y-82037500D03*
X194162500Y-98737500D03*
X176262500Y-72037500D03*
X196262500Y-110037500D03*
X132262500Y-100037500D03*
X127262500Y-73037500D03*
X202262500Y-100037500D03*
X132262500Y-76037500D03*
X160762500Y-83537500D03*
X151262500Y-94037500D03*
X139262500Y-80037500D03*
X171062500Y-81237500D03*
X140262500Y-110037500D03*
X155762500Y-95537500D03*
X183062500Y-82237500D03*
X178262500Y-101037500D03*
X130262500Y-100037500D03*
X208262500Y-100037500D03*
X136262500Y-82037500D03*
X176262500Y-110037500D03*
X175262500Y-110037500D03*
X180262500Y-110037500D03*
X175262500Y-96037500D03*
X208262500Y-72037500D03*
X192262500Y-91037500D03*
X156262500Y-102037500D03*
X153262500Y-85037500D03*
X186862500Y-85237500D03*
X132262500Y-104037500D03*
X199262500Y-82037500D03*
X209262500Y-105037500D03*
X180262500Y-76037500D03*
X188262500Y-72037500D03*
X174262500Y-105037500D03*
X160262500Y-94037500D03*
X182262500Y-101037500D03*
X152262500Y-72037500D03*
X180262500Y-72037500D03*
X183062500Y-83737500D03*
X178762500Y-80037500D03*
X179762500Y-79037500D03*
X202262500Y-82037500D03*
X168762500Y-85537500D03*
X183062500Y-85237500D03*
X175262500Y-101037500D03*
X127262500Y-109037500D03*
X170762500Y-83537500D03*
X162762500Y-84537500D03*
X162762500Y-83537500D03*
X130262500Y-82037500D03*
X170062500Y-80037500D03*
X170762500Y-84537500D03*
X144262500Y-72037500D03*
X137262500Y-100037500D03*
X156262500Y-104037500D03*
X127262500Y-107037500D03*
X175762500Y-83537500D03*
X148262500Y-72037500D03*
X156262500Y-72037500D03*
X189562500Y-83337500D03*
X209262500Y-103037500D03*
X151262500Y-85037500D03*
X194262500Y-91037500D03*
X174262500Y-72037500D03*
X200262500Y-100037500D03*
X185062500Y-97337500D03*
X153262500Y-102037500D03*
X136262500Y-72037500D03*
X198262500Y-98037500D03*
X157262500Y-89037500D03*
X209262500Y-109037500D03*
X160262500Y-102037500D03*
X174262500Y-106037500D03*
X162462500Y-79637500D03*
X170062500Y-81237500D03*
X200262500Y-104037500D03*
X144262500Y-110037500D03*
X128262500Y-110037500D03*
X175262500Y-81237500D03*
X209262500Y-100037500D03*
X127262500Y-75037500D03*
X176262500Y-75537500D03*
X176262500Y-81537500D03*
X166262500Y-75537500D03*
X166158312Y-81674676D03*
X158633898Y-78508898D03*
X158262500Y-83473373D03*
X164023944Y-81576056D03*
X164062500Y-79337500D03*
X168262500Y-82937500D03*
X168762500Y-79337500D03*
X194317428Y-82092428D03*
X167262500Y-79337500D03*
X179762500Y-85537500D03*
X167262500Y-81737500D03*
X186762500Y-83037500D03*
X156762500Y-85537500D03*
X186762500Y-81537500D03*
X141499500Y-98607858D03*
X156762500Y-84037500D03*
X168062500Y-79337500D03*
X179762500Y-84037500D03*
X168062500Y-82237500D03*
X141924376Y-101199376D03*
X173591411Y-82908589D03*
X187262500Y-98663000D03*
X193393517Y-82168517D03*
X187713000Y-100488685D03*
X173163000Y-84237500D03*
X179762500Y-87037500D03*
X156762500Y-87037500D03*
G04 #@! TA.AperFunction,Conductor*
G36*
X208737234Y-70839613D02*
G01*
X208745356Y-70839613D01*
X208762500Y-70842636D01*
X208778830Y-70839757D01*
X208790779Y-70840226D01*
X208934531Y-70851539D01*
X208965372Y-70856425D01*
X209117940Y-70893054D01*
X209147638Y-70902703D01*
X209292595Y-70962746D01*
X209320417Y-70976922D01*
X209454198Y-71058903D01*
X209479449Y-71077249D01*
X209598772Y-71179159D01*
X209620841Y-71201228D01*
X209722751Y-71320551D01*
X209741097Y-71345802D01*
X209819146Y-71473166D01*
X209823078Y-71479583D01*
X209837254Y-71507405D01*
X209897297Y-71652362D01*
X209906946Y-71682060D01*
X209943575Y-71834628D01*
X209948461Y-71865471D01*
X209959774Y-72009220D01*
X209960243Y-72021170D01*
X209957364Y-72037500D01*
X209960387Y-72054644D01*
X209960387Y-72062766D01*
X209962000Y-72081204D01*
X209962000Y-82493796D01*
X209960387Y-82512234D01*
X209960387Y-82520356D01*
X209957364Y-82537500D01*
X209959155Y-82547661D01*
X209957934Y-82563172D01*
X209957337Y-82566939D01*
X209924358Y-82649133D01*
X209858982Y-82708878D01*
X209791939Y-82732337D01*
X209789567Y-82732713D01*
X209788170Y-82732934D01*
X209772661Y-82734155D01*
X209762500Y-82732364D01*
X209745356Y-82735387D01*
X209737234Y-82735387D01*
X209718796Y-82737000D01*
X200806204Y-82737000D01*
X200787770Y-82735387D01*
X200779646Y-82735387D01*
X200762500Y-82732364D01*
X200752697Y-82734093D01*
X200605575Y-82748583D01*
X200546355Y-82766547D01*
X200464035Y-82791518D01*
X200464033Y-82791519D01*
X200454680Y-82794356D01*
X200446065Y-82798961D01*
X200446062Y-82798962D01*
X200385147Y-82831522D01*
X200315614Y-82868688D01*
X200193722Y-82968722D01*
X200093688Y-83090614D01*
X200056522Y-83160147D01*
X200027136Y-83215125D01*
X200019356Y-83229680D01*
X199973583Y-83380575D01*
X199965258Y-83465102D01*
X199964891Y-83468830D01*
X199963826Y-83475091D01*
X199962617Y-83478122D01*
X199962000Y-83484415D01*
X199962000Y-83489270D01*
X199961762Y-83494139D01*
X199961718Y-83494137D01*
X199961042Y-83507907D01*
X199959093Y-83527697D01*
X199957364Y-83537500D01*
X199960387Y-83554646D01*
X199960387Y-83562770D01*
X199962000Y-83581204D01*
X199962000Y-98493796D01*
X199960387Y-98512230D01*
X199960387Y-98520354D01*
X199957364Y-98537500D01*
X199959093Y-98547303D01*
X199973583Y-98694425D01*
X200019356Y-98845320D01*
X200093688Y-98984386D01*
X200193722Y-99106278D01*
X200315614Y-99206312D01*
X200337949Y-99218250D01*
X200446062Y-99276038D01*
X200446065Y-99276039D01*
X200454680Y-99280644D01*
X200464033Y-99283481D01*
X200464035Y-99283482D01*
X200519017Y-99300160D01*
X200605575Y-99326417D01*
X200693833Y-99335109D01*
X200700091Y-99336174D01*
X200703122Y-99337383D01*
X200709415Y-99338000D01*
X200714270Y-99338000D01*
X200719139Y-99338238D01*
X200719137Y-99338282D01*
X200732907Y-99338958D01*
X200752697Y-99340907D01*
X200762500Y-99342636D01*
X200779646Y-99339613D01*
X200787770Y-99339613D01*
X200806204Y-99338000D01*
X209718796Y-99338000D01*
X209737234Y-99339613D01*
X209745356Y-99339613D01*
X209762500Y-99342636D01*
X209772661Y-99340845D01*
X209788170Y-99342066D01*
X209789567Y-99342287D01*
X209791939Y-99342663D01*
X209874133Y-99375642D01*
X209933878Y-99441018D01*
X209957337Y-99508061D01*
X209957934Y-99511828D01*
X209959155Y-99527339D01*
X209957364Y-99537500D01*
X209960387Y-99554644D01*
X209960387Y-99562766D01*
X209962000Y-99581204D01*
X209962000Y-109993796D01*
X209960387Y-110012234D01*
X209960387Y-110020356D01*
X209957364Y-110037500D01*
X209960243Y-110053830D01*
X209959774Y-110065780D01*
X209948461Y-110209529D01*
X209943575Y-110240372D01*
X209906946Y-110392940D01*
X209897297Y-110422638D01*
X209837254Y-110567595D01*
X209823078Y-110595417D01*
X209741097Y-110729198D01*
X209722751Y-110754449D01*
X209620841Y-110873772D01*
X209598772Y-110895841D01*
X209479449Y-110997751D01*
X209454198Y-111016097D01*
X209326834Y-111094146D01*
X209320417Y-111098078D01*
X209292595Y-111112254D01*
X209147638Y-111172297D01*
X209117940Y-111181946D01*
X208965372Y-111218575D01*
X208934531Y-111223461D01*
X208790780Y-111234774D01*
X208778830Y-111235243D01*
X208762500Y-111232364D01*
X208745356Y-111235387D01*
X208737234Y-111235387D01*
X208718796Y-111237000D01*
X127806204Y-111237000D01*
X127787766Y-111235387D01*
X127779644Y-111235387D01*
X127762500Y-111232364D01*
X127746170Y-111235243D01*
X127734220Y-111234774D01*
X127590469Y-111223461D01*
X127559628Y-111218575D01*
X127407060Y-111181946D01*
X127377362Y-111172297D01*
X127232405Y-111112254D01*
X127204583Y-111098078D01*
X127198166Y-111094146D01*
X127070802Y-111016097D01*
X127045551Y-110997751D01*
X126926228Y-110895841D01*
X126904159Y-110873772D01*
X126802249Y-110754449D01*
X126783903Y-110729198D01*
X126701922Y-110595417D01*
X126687746Y-110567595D01*
X126627703Y-110422638D01*
X126618054Y-110392940D01*
X126581425Y-110240372D01*
X126576539Y-110209529D01*
X126565226Y-110065780D01*
X126564757Y-110053830D01*
X126567636Y-110037500D01*
X126564613Y-110020356D01*
X126564613Y-110012234D01*
X126563000Y-109993796D01*
X126563000Y-108537500D01*
X128457032Y-108537500D01*
X128476865Y-108764192D01*
X128479112Y-108772577D01*
X128479113Y-108772584D01*
X128533511Y-108975599D01*
X128535761Y-108983996D01*
X128631932Y-109190234D01*
X128636916Y-109197352D01*
X128757469Y-109369522D01*
X128757473Y-109369527D01*
X128762453Y-109376639D01*
X128923361Y-109537547D01*
X128930473Y-109542527D01*
X128930478Y-109542531D01*
X129102648Y-109663084D01*
X129109766Y-109668068D01*
X129316004Y-109764239D01*
X129324401Y-109766489D01*
X129527416Y-109820887D01*
X129527423Y-109820888D01*
X129535808Y-109823135D01*
X129544459Y-109823892D01*
X129544460Y-109823892D01*
X129560363Y-109825283D01*
X129705716Y-109838000D01*
X130819284Y-109838000D01*
X130964637Y-109825283D01*
X130980540Y-109823892D01*
X130980541Y-109823892D01*
X130989192Y-109823135D01*
X130997577Y-109820888D01*
X130997584Y-109820887D01*
X131200599Y-109766489D01*
X131208996Y-109764239D01*
X131415234Y-109668068D01*
X131422352Y-109663084D01*
X131594522Y-109542531D01*
X131594527Y-109542527D01*
X131601639Y-109537547D01*
X131762547Y-109376639D01*
X131767527Y-109369527D01*
X131767531Y-109369522D01*
X131888084Y-109197352D01*
X131893068Y-109190234D01*
X131989239Y-108983996D01*
X131991489Y-108975599D01*
X132045887Y-108772584D01*
X132045888Y-108772577D01*
X132048135Y-108764192D01*
X132064257Y-108579917D01*
X132075591Y-108544738D01*
X132072287Y-108530262D01*
X132449409Y-108530262D01*
X132460743Y-108579917D01*
X132476865Y-108764192D01*
X132479112Y-108772577D01*
X132479113Y-108772584D01*
X132533511Y-108975599D01*
X132535761Y-108983996D01*
X132631932Y-109190234D01*
X132636916Y-109197352D01*
X132757469Y-109369522D01*
X132757473Y-109369527D01*
X132762453Y-109376639D01*
X132923361Y-109537547D01*
X132930473Y-109542527D01*
X132930478Y-109542531D01*
X133102648Y-109663084D01*
X133109766Y-109668068D01*
X133316004Y-109764239D01*
X133324401Y-109766489D01*
X133527416Y-109820887D01*
X133527423Y-109820888D01*
X133535808Y-109823135D01*
X133544459Y-109823892D01*
X133544460Y-109823892D01*
X133560363Y-109825283D01*
X133705716Y-109838000D01*
X134819284Y-109838000D01*
X134964637Y-109825283D01*
X134980540Y-109823892D01*
X134980541Y-109823892D01*
X134989192Y-109823135D01*
X134997577Y-109820888D01*
X134997584Y-109820887D01*
X135200599Y-109766489D01*
X135208996Y-109764239D01*
X135415234Y-109668068D01*
X135422352Y-109663084D01*
X135594522Y-109542531D01*
X135594527Y-109542527D01*
X135601639Y-109537547D01*
X135762547Y-109376639D01*
X135767527Y-109369527D01*
X135767531Y-109369522D01*
X135888084Y-109197352D01*
X135893068Y-109190234D01*
X135989239Y-108983996D01*
X135991489Y-108975599D01*
X136045887Y-108772584D01*
X136045888Y-108772577D01*
X136048135Y-108764192D01*
X136064257Y-108579917D01*
X136075591Y-108544738D01*
X136072287Y-108530262D01*
X136449409Y-108530262D01*
X136460743Y-108579917D01*
X136476865Y-108764192D01*
X136479112Y-108772577D01*
X136479113Y-108772584D01*
X136533511Y-108975599D01*
X136535761Y-108983996D01*
X136631932Y-109190234D01*
X136636916Y-109197352D01*
X136757469Y-109369522D01*
X136757473Y-109369527D01*
X136762453Y-109376639D01*
X136923361Y-109537547D01*
X136930473Y-109542527D01*
X136930478Y-109542531D01*
X137102648Y-109663084D01*
X137109766Y-109668068D01*
X137316004Y-109764239D01*
X137324401Y-109766489D01*
X137527416Y-109820887D01*
X137527423Y-109820888D01*
X137535808Y-109823135D01*
X137544459Y-109823892D01*
X137544460Y-109823892D01*
X137560363Y-109825283D01*
X137705716Y-109838000D01*
X138819284Y-109838000D01*
X138964637Y-109825283D01*
X138980540Y-109823892D01*
X138980541Y-109823892D01*
X138989192Y-109823135D01*
X138997577Y-109820888D01*
X138997584Y-109820887D01*
X139200599Y-109766489D01*
X139208996Y-109764239D01*
X139415234Y-109668068D01*
X139422352Y-109663084D01*
X139594522Y-109542531D01*
X139594527Y-109542527D01*
X139601639Y-109537547D01*
X139762547Y-109376639D01*
X139767527Y-109369527D01*
X139767531Y-109369522D01*
X139888084Y-109197352D01*
X139893068Y-109190234D01*
X139989239Y-108983996D01*
X139991489Y-108975599D01*
X140045887Y-108772584D01*
X140045888Y-108772577D01*
X140048135Y-108764192D01*
X140064257Y-108579917D01*
X140075591Y-108544738D01*
X140072287Y-108530262D01*
X140449409Y-108530262D01*
X140460743Y-108579917D01*
X140476865Y-108764192D01*
X140479112Y-108772577D01*
X140479113Y-108772584D01*
X140533511Y-108975599D01*
X140535761Y-108983996D01*
X140631932Y-109190234D01*
X140636916Y-109197352D01*
X140757469Y-109369522D01*
X140757473Y-109369527D01*
X140762453Y-109376639D01*
X140923361Y-109537547D01*
X140930473Y-109542527D01*
X140930478Y-109542531D01*
X141102648Y-109663084D01*
X141109766Y-109668068D01*
X141316004Y-109764239D01*
X141324401Y-109766489D01*
X141527416Y-109820887D01*
X141527423Y-109820888D01*
X141535808Y-109823135D01*
X141544459Y-109823892D01*
X141544460Y-109823892D01*
X141560363Y-109825283D01*
X141705716Y-109838000D01*
X142819284Y-109838000D01*
X142964637Y-109825283D01*
X142980540Y-109823892D01*
X142980541Y-109823892D01*
X142989192Y-109823135D01*
X142997577Y-109820888D01*
X142997584Y-109820887D01*
X143200599Y-109766489D01*
X143208996Y-109764239D01*
X143415234Y-109668068D01*
X143422352Y-109663084D01*
X143594522Y-109542531D01*
X143594527Y-109542527D01*
X143601639Y-109537547D01*
X143762547Y-109376639D01*
X143767527Y-109369527D01*
X143767531Y-109369522D01*
X143888084Y-109197352D01*
X143893068Y-109190234D01*
X143989239Y-108983996D01*
X143991489Y-108975599D01*
X144045887Y-108772584D01*
X144045888Y-108772577D01*
X144048135Y-108764192D01*
X144064257Y-108579917D01*
X144075591Y-108544738D01*
X144072287Y-108530262D01*
X144449409Y-108530262D01*
X144460743Y-108579917D01*
X144476865Y-108764192D01*
X144479112Y-108772577D01*
X144479113Y-108772584D01*
X144533511Y-108975599D01*
X144535761Y-108983996D01*
X144631932Y-109190234D01*
X144636916Y-109197352D01*
X144757469Y-109369522D01*
X144757473Y-109369527D01*
X144762453Y-109376639D01*
X144923361Y-109537547D01*
X144930473Y-109542527D01*
X144930478Y-109542531D01*
X145102648Y-109663084D01*
X145109766Y-109668068D01*
X145316004Y-109764239D01*
X145324401Y-109766489D01*
X145527416Y-109820887D01*
X145527423Y-109820888D01*
X145535808Y-109823135D01*
X145544459Y-109823892D01*
X145544460Y-109823892D01*
X145560363Y-109825283D01*
X145705716Y-109838000D01*
X146819284Y-109838000D01*
X146964637Y-109825283D01*
X146980540Y-109823892D01*
X146980541Y-109823892D01*
X146989192Y-109823135D01*
X146997577Y-109820888D01*
X146997584Y-109820887D01*
X147200599Y-109766489D01*
X147208996Y-109764239D01*
X147415234Y-109668068D01*
X147422352Y-109663084D01*
X147594522Y-109542531D01*
X147594527Y-109542527D01*
X147601639Y-109537547D01*
X147762547Y-109376639D01*
X147767527Y-109369527D01*
X147767531Y-109369522D01*
X147888084Y-109197352D01*
X147893068Y-109190234D01*
X147989239Y-108983996D01*
X147991489Y-108975599D01*
X148045887Y-108772584D01*
X148045888Y-108772577D01*
X148048135Y-108764192D01*
X148064257Y-108579917D01*
X148075591Y-108544738D01*
X148072287Y-108530262D01*
X148449409Y-108530262D01*
X148460743Y-108579917D01*
X148476865Y-108764192D01*
X148479112Y-108772577D01*
X148479113Y-108772584D01*
X148533511Y-108975599D01*
X148535761Y-108983996D01*
X148631932Y-109190234D01*
X148636916Y-109197352D01*
X148757469Y-109369522D01*
X148757473Y-109369527D01*
X148762453Y-109376639D01*
X148923361Y-109537547D01*
X148930473Y-109542527D01*
X148930478Y-109542531D01*
X149102648Y-109663084D01*
X149109766Y-109668068D01*
X149316004Y-109764239D01*
X149324401Y-109766489D01*
X149527416Y-109820887D01*
X149527423Y-109820888D01*
X149535808Y-109823135D01*
X149544459Y-109823892D01*
X149544460Y-109823892D01*
X149560363Y-109825283D01*
X149705716Y-109838000D01*
X150819284Y-109838000D01*
X150964637Y-109825283D01*
X150980540Y-109823892D01*
X150980541Y-109823892D01*
X150989192Y-109823135D01*
X150997577Y-109820888D01*
X150997584Y-109820887D01*
X151200599Y-109766489D01*
X151208996Y-109764239D01*
X151415234Y-109668068D01*
X151422352Y-109663084D01*
X151594522Y-109542531D01*
X151594527Y-109542527D01*
X151601639Y-109537547D01*
X151762547Y-109376639D01*
X151767527Y-109369527D01*
X151767531Y-109369522D01*
X151888084Y-109197352D01*
X151893068Y-109190234D01*
X151989239Y-108983996D01*
X151991489Y-108975599D01*
X152045887Y-108772584D01*
X152045888Y-108772577D01*
X152048135Y-108764192D01*
X152064257Y-108579917D01*
X152075591Y-108544738D01*
X152072287Y-108530262D01*
X152449409Y-108530262D01*
X152460743Y-108579917D01*
X152476865Y-108764192D01*
X152479112Y-108772577D01*
X152479113Y-108772584D01*
X152533511Y-108975599D01*
X152535761Y-108983996D01*
X152631932Y-109190234D01*
X152636916Y-109197352D01*
X152757469Y-109369522D01*
X152757473Y-109369527D01*
X152762453Y-109376639D01*
X152923361Y-109537547D01*
X152930473Y-109542527D01*
X152930478Y-109542531D01*
X153102648Y-109663084D01*
X153109766Y-109668068D01*
X153316004Y-109764239D01*
X153324401Y-109766489D01*
X153527416Y-109820887D01*
X153527423Y-109820888D01*
X153535808Y-109823135D01*
X153544459Y-109823892D01*
X153544460Y-109823892D01*
X153560363Y-109825283D01*
X153705716Y-109838000D01*
X154819284Y-109838000D01*
X154964637Y-109825283D01*
X154980540Y-109823892D01*
X154980541Y-109823892D01*
X154989192Y-109823135D01*
X154997577Y-109820888D01*
X154997584Y-109820887D01*
X155200599Y-109766489D01*
X155208996Y-109764239D01*
X155415234Y-109668068D01*
X155422352Y-109663084D01*
X155594522Y-109542531D01*
X155594527Y-109542527D01*
X155601639Y-109537547D01*
X155762547Y-109376639D01*
X155767527Y-109369527D01*
X155767531Y-109369522D01*
X155888084Y-109197352D01*
X155893068Y-109190234D01*
X155989239Y-108983996D01*
X155991489Y-108975599D01*
X156045887Y-108772584D01*
X156045888Y-108772577D01*
X156048135Y-108764192D01*
X156064257Y-108579917D01*
X156075591Y-108544738D01*
X156072287Y-108530262D01*
X156449409Y-108530262D01*
X156460743Y-108579917D01*
X156476865Y-108764192D01*
X156479112Y-108772577D01*
X156479113Y-108772584D01*
X156533511Y-108975599D01*
X156535761Y-108983996D01*
X156631932Y-109190234D01*
X156636916Y-109197352D01*
X156757469Y-109369522D01*
X156757473Y-109369527D01*
X156762453Y-109376639D01*
X156923361Y-109537547D01*
X156930473Y-109542527D01*
X156930478Y-109542531D01*
X157102648Y-109663084D01*
X157109766Y-109668068D01*
X157316004Y-109764239D01*
X157324401Y-109766489D01*
X157527416Y-109820887D01*
X157527423Y-109820888D01*
X157535808Y-109823135D01*
X157544459Y-109823892D01*
X157544460Y-109823892D01*
X157560363Y-109825283D01*
X157705716Y-109838000D01*
X158819284Y-109838000D01*
X158964637Y-109825283D01*
X158980540Y-109823892D01*
X158980541Y-109823892D01*
X158989192Y-109823135D01*
X158997577Y-109820888D01*
X158997584Y-109820887D01*
X159200599Y-109766489D01*
X159208996Y-109764239D01*
X159415234Y-109668068D01*
X159422352Y-109663084D01*
X159594522Y-109542531D01*
X159594527Y-109542527D01*
X159601639Y-109537547D01*
X159762547Y-109376639D01*
X159767527Y-109369527D01*
X159767531Y-109369522D01*
X159888084Y-109197352D01*
X159893068Y-109190234D01*
X159989239Y-108983996D01*
X159991489Y-108975599D01*
X160045887Y-108772584D01*
X160045888Y-108772577D01*
X160048135Y-108764192D01*
X160067968Y-108537500D01*
X160048135Y-108310808D01*
X160045888Y-108302423D01*
X160045887Y-108302416D01*
X159991489Y-108099401D01*
X159989239Y-108091004D01*
X159893068Y-107884766D01*
X159803378Y-107756674D01*
X159767531Y-107705478D01*
X159767527Y-107705473D01*
X159762547Y-107698361D01*
X159738678Y-107674492D01*
X163359008Y-107674492D01*
X163396357Y-107945917D01*
X163398196Y-107952472D01*
X163398196Y-107952473D01*
X163468517Y-108203157D01*
X163468519Y-108203164D01*
X163470358Y-108209718D01*
X163579629Y-108460968D01*
X163583167Y-108466777D01*
X163583168Y-108466780D01*
X163630641Y-108544738D01*
X163722130Y-108694977D01*
X163895200Y-108907376D01*
X164095609Y-109094200D01*
X164319615Y-109251960D01*
X164325668Y-109255087D01*
X164325673Y-109255090D01*
X164533946Y-109362684D01*
X164563035Y-109377711D01*
X164569447Y-109379980D01*
X164569452Y-109379982D01*
X164814914Y-109466838D01*
X164814921Y-109466840D01*
X164821325Y-109469106D01*
X164955494Y-109496772D01*
X165083004Y-109523065D01*
X165083005Y-109523065D01*
X165089663Y-109524438D01*
X165096442Y-109524890D01*
X165096448Y-109524891D01*
X165340667Y-109541182D01*
X165340669Y-109541182D01*
X165363039Y-109542674D01*
X165363039Y-109542636D01*
X165378675Y-109539850D01*
X165382687Y-109540118D01*
X165389061Y-109539555D01*
X165389061Y-109538000D01*
X165397667Y-109538000D01*
X165400174Y-109538572D01*
X165406649Y-109538000D01*
X171118351Y-109538000D01*
X171127664Y-109538823D01*
X171141794Y-109539043D01*
X171161961Y-109542636D01*
X171161961Y-109542674D01*
X171176429Y-109541709D01*
X171176430Y-109541709D01*
X171428552Y-109524891D01*
X171428558Y-109524890D01*
X171435337Y-109524438D01*
X171441995Y-109523065D01*
X171441996Y-109523065D01*
X171569506Y-109496772D01*
X171703675Y-109469106D01*
X171710079Y-109466840D01*
X171710086Y-109466838D01*
X171955548Y-109379982D01*
X171955553Y-109379980D01*
X171961965Y-109377711D01*
X171991054Y-109362684D01*
X172199327Y-109255090D01*
X172199332Y-109255087D01*
X172205385Y-109251960D01*
X172429391Y-109094200D01*
X172629800Y-108907376D01*
X172802870Y-108694977D01*
X172894359Y-108544738D01*
X172898767Y-108537500D01*
X176457032Y-108537500D01*
X176476865Y-108764192D01*
X176479112Y-108772577D01*
X176479113Y-108772584D01*
X176533511Y-108975599D01*
X176535761Y-108983996D01*
X176631932Y-109190234D01*
X176636916Y-109197352D01*
X176757469Y-109369522D01*
X176757473Y-109369527D01*
X176762453Y-109376639D01*
X176923361Y-109537547D01*
X176930473Y-109542527D01*
X176930478Y-109542531D01*
X177102648Y-109663084D01*
X177109766Y-109668068D01*
X177316004Y-109764239D01*
X177324401Y-109766489D01*
X177527416Y-109820887D01*
X177527423Y-109820888D01*
X177535808Y-109823135D01*
X177544459Y-109823892D01*
X177544460Y-109823892D01*
X177560363Y-109825283D01*
X177705716Y-109838000D01*
X178819284Y-109838000D01*
X178964637Y-109825283D01*
X178980540Y-109823892D01*
X178980541Y-109823892D01*
X178989192Y-109823135D01*
X178997577Y-109820888D01*
X178997584Y-109820887D01*
X179200599Y-109766489D01*
X179208996Y-109764239D01*
X179415234Y-109668068D01*
X179422352Y-109663084D01*
X179594522Y-109542531D01*
X179594527Y-109542527D01*
X179601639Y-109537547D01*
X179762547Y-109376639D01*
X179767527Y-109369527D01*
X179767531Y-109369522D01*
X179888084Y-109197352D01*
X179893068Y-109190234D01*
X179989239Y-108983996D01*
X179991489Y-108975599D01*
X180045887Y-108772584D01*
X180045888Y-108772577D01*
X180048135Y-108764192D01*
X180064257Y-108579917D01*
X180075591Y-108544738D01*
X180072287Y-108530262D01*
X180449409Y-108530262D01*
X180460743Y-108579917D01*
X180476865Y-108764192D01*
X180479112Y-108772577D01*
X180479113Y-108772584D01*
X180533511Y-108975599D01*
X180535761Y-108983996D01*
X180631932Y-109190234D01*
X180636916Y-109197352D01*
X180757469Y-109369522D01*
X180757473Y-109369527D01*
X180762453Y-109376639D01*
X180923361Y-109537547D01*
X180930473Y-109542527D01*
X180930478Y-109542531D01*
X181102648Y-109663084D01*
X181109766Y-109668068D01*
X181316004Y-109764239D01*
X181324401Y-109766489D01*
X181527416Y-109820887D01*
X181527423Y-109820888D01*
X181535808Y-109823135D01*
X181544459Y-109823892D01*
X181544460Y-109823892D01*
X181560363Y-109825283D01*
X181705716Y-109838000D01*
X182819284Y-109838000D01*
X182964637Y-109825283D01*
X182980540Y-109823892D01*
X182980541Y-109823892D01*
X182989192Y-109823135D01*
X182997577Y-109820888D01*
X182997584Y-109820887D01*
X183200599Y-109766489D01*
X183208996Y-109764239D01*
X183415234Y-109668068D01*
X183422352Y-109663084D01*
X183594522Y-109542531D01*
X183594527Y-109542527D01*
X183601639Y-109537547D01*
X183762547Y-109376639D01*
X183767527Y-109369527D01*
X183767531Y-109369522D01*
X183888084Y-109197352D01*
X183893068Y-109190234D01*
X183989239Y-108983996D01*
X183991489Y-108975599D01*
X184045887Y-108772584D01*
X184045888Y-108772577D01*
X184048135Y-108764192D01*
X184064257Y-108579917D01*
X184075591Y-108544738D01*
X184072287Y-108530262D01*
X184449409Y-108530262D01*
X184460743Y-108579917D01*
X184476865Y-108764192D01*
X184479112Y-108772577D01*
X184479113Y-108772584D01*
X184533511Y-108975599D01*
X184535761Y-108983996D01*
X184631932Y-109190234D01*
X184636916Y-109197352D01*
X184757469Y-109369522D01*
X184757473Y-109369527D01*
X184762453Y-109376639D01*
X184923361Y-109537547D01*
X184930473Y-109542527D01*
X184930478Y-109542531D01*
X185102648Y-109663084D01*
X185109766Y-109668068D01*
X185316004Y-109764239D01*
X185324401Y-109766489D01*
X185527416Y-109820887D01*
X185527423Y-109820888D01*
X185535808Y-109823135D01*
X185544459Y-109823892D01*
X185544460Y-109823892D01*
X185560363Y-109825283D01*
X185705716Y-109838000D01*
X186819284Y-109838000D01*
X186964637Y-109825283D01*
X186980540Y-109823892D01*
X186980541Y-109823892D01*
X186989192Y-109823135D01*
X186997577Y-109820888D01*
X186997584Y-109820887D01*
X187200599Y-109766489D01*
X187208996Y-109764239D01*
X187415234Y-109668068D01*
X187422352Y-109663084D01*
X187594522Y-109542531D01*
X187594527Y-109542527D01*
X187601639Y-109537547D01*
X187762547Y-109376639D01*
X187767527Y-109369527D01*
X187767531Y-109369522D01*
X187888084Y-109197352D01*
X187893068Y-109190234D01*
X187989239Y-108983996D01*
X187991489Y-108975599D01*
X188045887Y-108772584D01*
X188045888Y-108772577D01*
X188048135Y-108764192D01*
X188064257Y-108579917D01*
X188075591Y-108544738D01*
X188072287Y-108530262D01*
X188449409Y-108530262D01*
X188460743Y-108579917D01*
X188476865Y-108764192D01*
X188479112Y-108772577D01*
X188479113Y-108772584D01*
X188533511Y-108975599D01*
X188535761Y-108983996D01*
X188631932Y-109190234D01*
X188636916Y-109197352D01*
X188757469Y-109369522D01*
X188757473Y-109369527D01*
X188762453Y-109376639D01*
X188923361Y-109537547D01*
X188930473Y-109542527D01*
X188930478Y-109542531D01*
X189102648Y-109663084D01*
X189109766Y-109668068D01*
X189316004Y-109764239D01*
X189324401Y-109766489D01*
X189527416Y-109820887D01*
X189527423Y-109820888D01*
X189535808Y-109823135D01*
X189544459Y-109823892D01*
X189544460Y-109823892D01*
X189560363Y-109825283D01*
X189705716Y-109838000D01*
X190819284Y-109838000D01*
X190964637Y-109825283D01*
X190980540Y-109823892D01*
X190980541Y-109823892D01*
X190989192Y-109823135D01*
X190997577Y-109820888D01*
X190997584Y-109820887D01*
X191200599Y-109766489D01*
X191208996Y-109764239D01*
X191415234Y-109668068D01*
X191422352Y-109663084D01*
X191594522Y-109542531D01*
X191594527Y-109542527D01*
X191601639Y-109537547D01*
X191762547Y-109376639D01*
X191767527Y-109369527D01*
X191767531Y-109369522D01*
X191888084Y-109197352D01*
X191893068Y-109190234D01*
X191989239Y-108983996D01*
X191991489Y-108975599D01*
X192045887Y-108772584D01*
X192045888Y-108772577D01*
X192048135Y-108764192D01*
X192064257Y-108579917D01*
X192075591Y-108544738D01*
X192072287Y-108530262D01*
X192449409Y-108530262D01*
X192460743Y-108579917D01*
X192476865Y-108764192D01*
X192479112Y-108772577D01*
X192479113Y-108772584D01*
X192533511Y-108975599D01*
X192535761Y-108983996D01*
X192631932Y-109190234D01*
X192636916Y-109197352D01*
X192757469Y-109369522D01*
X192757473Y-109369527D01*
X192762453Y-109376639D01*
X192923361Y-109537547D01*
X192930473Y-109542527D01*
X192930478Y-109542531D01*
X193102648Y-109663084D01*
X193109766Y-109668068D01*
X193316004Y-109764239D01*
X193324401Y-109766489D01*
X193527416Y-109820887D01*
X193527423Y-109820888D01*
X193535808Y-109823135D01*
X193544459Y-109823892D01*
X193544460Y-109823892D01*
X193560363Y-109825283D01*
X193705716Y-109838000D01*
X194819284Y-109838000D01*
X194964637Y-109825283D01*
X194980540Y-109823892D01*
X194980541Y-109823892D01*
X194989192Y-109823135D01*
X194997577Y-109820888D01*
X194997584Y-109820887D01*
X195200599Y-109766489D01*
X195208996Y-109764239D01*
X195415234Y-109668068D01*
X195422352Y-109663084D01*
X195594522Y-109542531D01*
X195594527Y-109542527D01*
X195601639Y-109537547D01*
X195762547Y-109376639D01*
X195767527Y-109369527D01*
X195767531Y-109369522D01*
X195888084Y-109197352D01*
X195893068Y-109190234D01*
X195989239Y-108983996D01*
X195991489Y-108975599D01*
X196045887Y-108772584D01*
X196045888Y-108772577D01*
X196048135Y-108764192D01*
X196064257Y-108579917D01*
X196075591Y-108544738D01*
X196072287Y-108530262D01*
X196449409Y-108530262D01*
X196460743Y-108579917D01*
X196476865Y-108764192D01*
X196479112Y-108772577D01*
X196479113Y-108772584D01*
X196533511Y-108975599D01*
X196535761Y-108983996D01*
X196631932Y-109190234D01*
X196636916Y-109197352D01*
X196757469Y-109369522D01*
X196757473Y-109369527D01*
X196762453Y-109376639D01*
X196923361Y-109537547D01*
X196930473Y-109542527D01*
X196930478Y-109542531D01*
X197102648Y-109663084D01*
X197109766Y-109668068D01*
X197316004Y-109764239D01*
X197324401Y-109766489D01*
X197527416Y-109820887D01*
X197527423Y-109820888D01*
X197535808Y-109823135D01*
X197544459Y-109823892D01*
X197544460Y-109823892D01*
X197560363Y-109825283D01*
X197705716Y-109838000D01*
X198819284Y-109838000D01*
X198964637Y-109825283D01*
X198980540Y-109823892D01*
X198980541Y-109823892D01*
X198989192Y-109823135D01*
X198997577Y-109820888D01*
X198997584Y-109820887D01*
X199200599Y-109766489D01*
X199208996Y-109764239D01*
X199415234Y-109668068D01*
X199422352Y-109663084D01*
X199594522Y-109542531D01*
X199594527Y-109542527D01*
X199601639Y-109537547D01*
X199762547Y-109376639D01*
X199767527Y-109369527D01*
X199767531Y-109369522D01*
X199888084Y-109197352D01*
X199893068Y-109190234D01*
X199989239Y-108983996D01*
X199991489Y-108975599D01*
X200045887Y-108772584D01*
X200045888Y-108772577D01*
X200048135Y-108764192D01*
X200064257Y-108579917D01*
X200075591Y-108544738D01*
X200072287Y-108530262D01*
X200449409Y-108530262D01*
X200460743Y-108579917D01*
X200476865Y-108764192D01*
X200479112Y-108772577D01*
X200479113Y-108772584D01*
X200533511Y-108975599D01*
X200535761Y-108983996D01*
X200631932Y-109190234D01*
X200636916Y-109197352D01*
X200757469Y-109369522D01*
X200757473Y-109369527D01*
X200762453Y-109376639D01*
X200923361Y-109537547D01*
X200930473Y-109542527D01*
X200930478Y-109542531D01*
X201102648Y-109663084D01*
X201109766Y-109668068D01*
X201316004Y-109764239D01*
X201324401Y-109766489D01*
X201527416Y-109820887D01*
X201527423Y-109820888D01*
X201535808Y-109823135D01*
X201544459Y-109823892D01*
X201544460Y-109823892D01*
X201560363Y-109825283D01*
X201705716Y-109838000D01*
X202819284Y-109838000D01*
X202964637Y-109825283D01*
X202980540Y-109823892D01*
X202980541Y-109823892D01*
X202989192Y-109823135D01*
X202997577Y-109820888D01*
X202997584Y-109820887D01*
X203200599Y-109766489D01*
X203208996Y-109764239D01*
X203415234Y-109668068D01*
X203422352Y-109663084D01*
X203594522Y-109542531D01*
X203594527Y-109542527D01*
X203601639Y-109537547D01*
X203762547Y-109376639D01*
X203767527Y-109369527D01*
X203767531Y-109369522D01*
X203888084Y-109197352D01*
X203893068Y-109190234D01*
X203989239Y-108983996D01*
X203991489Y-108975599D01*
X204045887Y-108772584D01*
X204045888Y-108772577D01*
X204048135Y-108764192D01*
X204064257Y-108579917D01*
X204075591Y-108544738D01*
X204072287Y-108530262D01*
X204449409Y-108530262D01*
X204460743Y-108579917D01*
X204476865Y-108764192D01*
X204479112Y-108772577D01*
X204479113Y-108772584D01*
X204533511Y-108975599D01*
X204535761Y-108983996D01*
X204631932Y-109190234D01*
X204636916Y-109197352D01*
X204757469Y-109369522D01*
X204757473Y-109369527D01*
X204762453Y-109376639D01*
X204923361Y-109537547D01*
X204930473Y-109542527D01*
X204930478Y-109542531D01*
X205102648Y-109663084D01*
X205109766Y-109668068D01*
X205316004Y-109764239D01*
X205324401Y-109766489D01*
X205527416Y-109820887D01*
X205527423Y-109820888D01*
X205535808Y-109823135D01*
X205544459Y-109823892D01*
X205544460Y-109823892D01*
X205560363Y-109825283D01*
X205705716Y-109838000D01*
X206819284Y-109838000D01*
X206964637Y-109825283D01*
X206980540Y-109823892D01*
X206980541Y-109823892D01*
X206989192Y-109823135D01*
X206997577Y-109820888D01*
X206997584Y-109820887D01*
X207200599Y-109766489D01*
X207208996Y-109764239D01*
X207415234Y-109668068D01*
X207422352Y-109663084D01*
X207594522Y-109542531D01*
X207594527Y-109542527D01*
X207601639Y-109537547D01*
X207762547Y-109376639D01*
X207767527Y-109369527D01*
X207767531Y-109369522D01*
X207888084Y-109197352D01*
X207893068Y-109190234D01*
X207989239Y-108983996D01*
X207991489Y-108975599D01*
X208045887Y-108772584D01*
X208045888Y-108772577D01*
X208048135Y-108764192D01*
X208067968Y-108537500D01*
X208048135Y-108310808D01*
X208045888Y-108302423D01*
X208045887Y-108302416D01*
X207991489Y-108099401D01*
X207989239Y-108091004D01*
X207893068Y-107884766D01*
X207803378Y-107756674D01*
X207767531Y-107705478D01*
X207767527Y-107705473D01*
X207762547Y-107698361D01*
X207601639Y-107537453D01*
X207594527Y-107532473D01*
X207594522Y-107532469D01*
X207422352Y-107411916D01*
X207415234Y-107406932D01*
X207208996Y-107310761D01*
X207200599Y-107308511D01*
X206997584Y-107254113D01*
X206997577Y-107254112D01*
X206989192Y-107251865D01*
X206980541Y-107251108D01*
X206980540Y-107251108D01*
X206964637Y-107249717D01*
X206819284Y-107237000D01*
X205705716Y-107237000D01*
X205560363Y-107249717D01*
X205544460Y-107251108D01*
X205544459Y-107251108D01*
X205535808Y-107251865D01*
X205527423Y-107254112D01*
X205527416Y-107254113D01*
X205324401Y-107308511D01*
X205316004Y-107310761D01*
X205109766Y-107406932D01*
X205102648Y-107411916D01*
X204930478Y-107532469D01*
X204930473Y-107532473D01*
X204923361Y-107537453D01*
X204762453Y-107698361D01*
X204757473Y-107705473D01*
X204757469Y-107705478D01*
X204721622Y-107756674D01*
X204631932Y-107884766D01*
X204535761Y-108091004D01*
X204533511Y-108099401D01*
X204479113Y-108302416D01*
X204479112Y-108302423D01*
X204476865Y-108310808D01*
X204476108Y-108319459D01*
X204476108Y-108319460D01*
X204460743Y-108495083D01*
X204449409Y-108530262D01*
X204072287Y-108530262D01*
X204064257Y-108495083D01*
X204048892Y-108319460D01*
X204048892Y-108319459D01*
X204048135Y-108310808D01*
X204045888Y-108302423D01*
X204045887Y-108302416D01*
X203991489Y-108099401D01*
X203989239Y-108091004D01*
X203893068Y-107884766D01*
X203803378Y-107756674D01*
X203767531Y-107705478D01*
X203767527Y-107705473D01*
X203762547Y-107698361D01*
X203601639Y-107537453D01*
X203594527Y-107532473D01*
X203594522Y-107532469D01*
X203422352Y-107411916D01*
X203415234Y-107406932D01*
X203208996Y-107310761D01*
X203200599Y-107308511D01*
X202997584Y-107254113D01*
X202997577Y-107254112D01*
X202989192Y-107251865D01*
X202980541Y-107251108D01*
X202980540Y-107251108D01*
X202964637Y-107249717D01*
X202819284Y-107237000D01*
X201705716Y-107237000D01*
X201560363Y-107249717D01*
X201544460Y-107251108D01*
X201544459Y-107251108D01*
X201535808Y-107251865D01*
X201527423Y-107254112D01*
X201527416Y-107254113D01*
X201324401Y-107308511D01*
X201316004Y-107310761D01*
X201109766Y-107406932D01*
X201102648Y-107411916D01*
X200930478Y-107532469D01*
X200930473Y-107532473D01*
X200923361Y-107537453D01*
X200762453Y-107698361D01*
X200757473Y-107705473D01*
X200757469Y-107705478D01*
X200721622Y-107756674D01*
X200631932Y-107884766D01*
X200535761Y-108091004D01*
X200533511Y-108099401D01*
X200479113Y-108302416D01*
X200479112Y-108302423D01*
X200476865Y-108310808D01*
X200476108Y-108319459D01*
X200476108Y-108319460D01*
X200460743Y-108495083D01*
X200449409Y-108530262D01*
X200072287Y-108530262D01*
X200064257Y-108495083D01*
X200048892Y-108319460D01*
X200048892Y-108319459D01*
X200048135Y-108310808D01*
X200045888Y-108302423D01*
X200045887Y-108302416D01*
X199991489Y-108099401D01*
X199989239Y-108091004D01*
X199893068Y-107884766D01*
X199803378Y-107756674D01*
X199767531Y-107705478D01*
X199767527Y-107705473D01*
X199762547Y-107698361D01*
X199601639Y-107537453D01*
X199594527Y-107532473D01*
X199594522Y-107532469D01*
X199422352Y-107411916D01*
X199415234Y-107406932D01*
X199208996Y-107310761D01*
X199200599Y-107308511D01*
X198997584Y-107254113D01*
X198997577Y-107254112D01*
X198989192Y-107251865D01*
X198980541Y-107251108D01*
X198980540Y-107251108D01*
X198964637Y-107249717D01*
X198819284Y-107237000D01*
X197705716Y-107237000D01*
X197560363Y-107249717D01*
X197544460Y-107251108D01*
X197544459Y-107251108D01*
X197535808Y-107251865D01*
X197527423Y-107254112D01*
X197527416Y-107254113D01*
X197324401Y-107308511D01*
X197316004Y-107310761D01*
X197109766Y-107406932D01*
X197102648Y-107411916D01*
X196930478Y-107532469D01*
X196930473Y-107532473D01*
X196923361Y-107537453D01*
X196762453Y-107698361D01*
X196757473Y-107705473D01*
X196757469Y-107705478D01*
X196721622Y-107756674D01*
X196631932Y-107884766D01*
X196535761Y-108091004D01*
X196533511Y-108099401D01*
X196479113Y-108302416D01*
X196479112Y-108302423D01*
X196476865Y-108310808D01*
X196476108Y-108319459D01*
X196476108Y-108319460D01*
X196460743Y-108495083D01*
X196449409Y-108530262D01*
X196072287Y-108530262D01*
X196064257Y-108495083D01*
X196048892Y-108319460D01*
X196048892Y-108319459D01*
X196048135Y-108310808D01*
X196045888Y-108302423D01*
X196045887Y-108302416D01*
X195991489Y-108099401D01*
X195989239Y-108091004D01*
X195893068Y-107884766D01*
X195803378Y-107756674D01*
X195767531Y-107705478D01*
X195767527Y-107705473D01*
X195762547Y-107698361D01*
X195601639Y-107537453D01*
X195594527Y-107532473D01*
X195594522Y-107532469D01*
X195422352Y-107411916D01*
X195415234Y-107406932D01*
X195208996Y-107310761D01*
X195200599Y-107308511D01*
X194997584Y-107254113D01*
X194997577Y-107254112D01*
X194989192Y-107251865D01*
X194980541Y-107251108D01*
X194980540Y-107251108D01*
X194964637Y-107249717D01*
X194819284Y-107237000D01*
X193705716Y-107237000D01*
X193560363Y-107249717D01*
X193544460Y-107251108D01*
X193544459Y-107251108D01*
X193535808Y-107251865D01*
X193527423Y-107254112D01*
X193527416Y-107254113D01*
X193324401Y-107308511D01*
X193316004Y-107310761D01*
X193109766Y-107406932D01*
X193102648Y-107411916D01*
X192930478Y-107532469D01*
X192930473Y-107532473D01*
X192923361Y-107537453D01*
X192762453Y-107698361D01*
X192757473Y-107705473D01*
X192757469Y-107705478D01*
X192721622Y-107756674D01*
X192631932Y-107884766D01*
X192535761Y-108091004D01*
X192533511Y-108099401D01*
X192479113Y-108302416D01*
X192479112Y-108302423D01*
X192476865Y-108310808D01*
X192476108Y-108319459D01*
X192476108Y-108319460D01*
X192460743Y-108495083D01*
X192449409Y-108530262D01*
X192072287Y-108530262D01*
X192064257Y-108495083D01*
X192048892Y-108319460D01*
X192048892Y-108319459D01*
X192048135Y-108310808D01*
X192045888Y-108302423D01*
X192045887Y-108302416D01*
X191991489Y-108099401D01*
X191989239Y-108091004D01*
X191893068Y-107884766D01*
X191803378Y-107756674D01*
X191767531Y-107705478D01*
X191767527Y-107705473D01*
X191762547Y-107698361D01*
X191601639Y-107537453D01*
X191594527Y-107532473D01*
X191594522Y-107532469D01*
X191422352Y-107411916D01*
X191415234Y-107406932D01*
X191208996Y-107310761D01*
X191200599Y-107308511D01*
X190997584Y-107254113D01*
X190997577Y-107254112D01*
X190989192Y-107251865D01*
X190980541Y-107251108D01*
X190980540Y-107251108D01*
X190964637Y-107249717D01*
X190819284Y-107237000D01*
X189705716Y-107237000D01*
X189560363Y-107249717D01*
X189544460Y-107251108D01*
X189544459Y-107251108D01*
X189535808Y-107251865D01*
X189527423Y-107254112D01*
X189527416Y-107254113D01*
X189324401Y-107308511D01*
X189316004Y-107310761D01*
X189109766Y-107406932D01*
X189102648Y-107411916D01*
X188930478Y-107532469D01*
X188930473Y-107532473D01*
X188923361Y-107537453D01*
X188762453Y-107698361D01*
X188757473Y-107705473D01*
X188757469Y-107705478D01*
X188721622Y-107756674D01*
X188631932Y-107884766D01*
X188535761Y-108091004D01*
X188533511Y-108099401D01*
X188479113Y-108302416D01*
X188479112Y-108302423D01*
X188476865Y-108310808D01*
X188476108Y-108319459D01*
X188476108Y-108319460D01*
X188460743Y-108495083D01*
X188449409Y-108530262D01*
X188072287Y-108530262D01*
X188064257Y-108495083D01*
X188048892Y-108319460D01*
X188048892Y-108319459D01*
X188048135Y-108310808D01*
X188045888Y-108302423D01*
X188045887Y-108302416D01*
X187991489Y-108099401D01*
X187989239Y-108091004D01*
X187893068Y-107884766D01*
X187803378Y-107756674D01*
X187767531Y-107705478D01*
X187767527Y-107705473D01*
X187762547Y-107698361D01*
X187601639Y-107537453D01*
X187594527Y-107532473D01*
X187594522Y-107532469D01*
X187422352Y-107411916D01*
X187415234Y-107406932D01*
X187208996Y-107310761D01*
X187200599Y-107308511D01*
X186997584Y-107254113D01*
X186997577Y-107254112D01*
X186989192Y-107251865D01*
X186980541Y-107251108D01*
X186980540Y-107251108D01*
X186964637Y-107249717D01*
X186819284Y-107237000D01*
X185705716Y-107237000D01*
X185560363Y-107249717D01*
X185544460Y-107251108D01*
X185544459Y-107251108D01*
X185535808Y-107251865D01*
X185527423Y-107254112D01*
X185527416Y-107254113D01*
X185324401Y-107308511D01*
X185316004Y-107310761D01*
X185109766Y-107406932D01*
X185102648Y-107411916D01*
X184930478Y-107532469D01*
X184930473Y-107532473D01*
X184923361Y-107537453D01*
X184762453Y-107698361D01*
X184757473Y-107705473D01*
X184757469Y-107705478D01*
X184721622Y-107756674D01*
X184631932Y-107884766D01*
X184535761Y-108091004D01*
X184533511Y-108099401D01*
X184479113Y-108302416D01*
X184479112Y-108302423D01*
X184476865Y-108310808D01*
X184476108Y-108319459D01*
X184476108Y-108319460D01*
X184460743Y-108495083D01*
X184449409Y-108530262D01*
X184072287Y-108530262D01*
X184064257Y-108495083D01*
X184048892Y-108319460D01*
X184048892Y-108319459D01*
X184048135Y-108310808D01*
X184045888Y-108302423D01*
X184045887Y-108302416D01*
X183991489Y-108099401D01*
X183989239Y-108091004D01*
X183893068Y-107884766D01*
X183803378Y-107756674D01*
X183767531Y-107705478D01*
X183767527Y-107705473D01*
X183762547Y-107698361D01*
X183601639Y-107537453D01*
X183594527Y-107532473D01*
X183594522Y-107532469D01*
X183422352Y-107411916D01*
X183415234Y-107406932D01*
X183208996Y-107310761D01*
X183200599Y-107308511D01*
X182997584Y-107254113D01*
X182997577Y-107254112D01*
X182989192Y-107251865D01*
X182980541Y-107251108D01*
X182980540Y-107251108D01*
X182964637Y-107249717D01*
X182819284Y-107237000D01*
X181705716Y-107237000D01*
X181560363Y-107249717D01*
X181544460Y-107251108D01*
X181544459Y-107251108D01*
X181535808Y-107251865D01*
X181527423Y-107254112D01*
X181527416Y-107254113D01*
X181324401Y-107308511D01*
X181316004Y-107310761D01*
X181109766Y-107406932D01*
X181102648Y-107411916D01*
X180930478Y-107532469D01*
X180930473Y-107532473D01*
X180923361Y-107537453D01*
X180762453Y-107698361D01*
X180757473Y-107705473D01*
X180757469Y-107705478D01*
X180721622Y-107756674D01*
X180631932Y-107884766D01*
X180535761Y-108091004D01*
X180533511Y-108099401D01*
X180479113Y-108302416D01*
X180479112Y-108302423D01*
X180476865Y-108310808D01*
X180476108Y-108319459D01*
X180476108Y-108319460D01*
X180460743Y-108495083D01*
X180449409Y-108530262D01*
X180072287Y-108530262D01*
X180064257Y-108495083D01*
X180048892Y-108319460D01*
X180048892Y-108319459D01*
X180048135Y-108310808D01*
X180045888Y-108302423D01*
X180045887Y-108302416D01*
X179991489Y-108099401D01*
X179989239Y-108091004D01*
X179893068Y-107884766D01*
X179803378Y-107756674D01*
X179767531Y-107705478D01*
X179767527Y-107705473D01*
X179762547Y-107698361D01*
X179601639Y-107537453D01*
X179594527Y-107532473D01*
X179594522Y-107532469D01*
X179422352Y-107411916D01*
X179415234Y-107406932D01*
X179208996Y-107310761D01*
X179200599Y-107308511D01*
X178997584Y-107254113D01*
X178997577Y-107254112D01*
X178989192Y-107251865D01*
X178980541Y-107251108D01*
X178980540Y-107251108D01*
X178964637Y-107249717D01*
X178819284Y-107237000D01*
X177705716Y-107237000D01*
X177560363Y-107249717D01*
X177544460Y-107251108D01*
X177544459Y-107251108D01*
X177535808Y-107251865D01*
X177527423Y-107254112D01*
X177527416Y-107254113D01*
X177324401Y-107308511D01*
X177316004Y-107310761D01*
X177109766Y-107406932D01*
X177102648Y-107411916D01*
X176930478Y-107532469D01*
X176930473Y-107532473D01*
X176923361Y-107537453D01*
X176762453Y-107698361D01*
X176757473Y-107705473D01*
X176757469Y-107705478D01*
X176721622Y-107756674D01*
X176631932Y-107884766D01*
X176535761Y-108091004D01*
X176533511Y-108099401D01*
X176479113Y-108302416D01*
X176479112Y-108302423D01*
X176476865Y-108310808D01*
X176457032Y-108537500D01*
X172898767Y-108537500D01*
X172941832Y-108466780D01*
X172941833Y-108466777D01*
X172945371Y-108460968D01*
X173054642Y-108209718D01*
X173056481Y-108203164D01*
X173056483Y-108203157D01*
X173126804Y-107952473D01*
X173126804Y-107952472D01*
X173128643Y-107945917D01*
X173165992Y-107674492D01*
X173165992Y-107400508D01*
X173128643Y-107129083D01*
X173064796Y-106901479D01*
X173056483Y-106871843D01*
X173056481Y-106871836D01*
X173054642Y-106865282D01*
X172945371Y-106614032D01*
X172802870Y-106380023D01*
X172629800Y-106167624D01*
X172429391Y-105980800D01*
X172205385Y-105823040D01*
X172199332Y-105819913D01*
X172199327Y-105819910D01*
X171968016Y-105700415D01*
X171968017Y-105700415D01*
X171961965Y-105697289D01*
X171955553Y-105695020D01*
X171955548Y-105695018D01*
X171710086Y-105608162D01*
X171710079Y-105608160D01*
X171703675Y-105605894D01*
X171569506Y-105578228D01*
X171441996Y-105551935D01*
X171441995Y-105551935D01*
X171435337Y-105550562D01*
X171428558Y-105550110D01*
X171428552Y-105550109D01*
X171184333Y-105533818D01*
X171184331Y-105533818D01*
X171161961Y-105532326D01*
X171161961Y-105532364D01*
X171146325Y-105535150D01*
X171142313Y-105534882D01*
X171135939Y-105535445D01*
X171135939Y-105537000D01*
X171127333Y-105537000D01*
X171124826Y-105536428D01*
X171118351Y-105537000D01*
X165406649Y-105537000D01*
X165397336Y-105536177D01*
X165383206Y-105535957D01*
X165363039Y-105532364D01*
X165363039Y-105532326D01*
X165348571Y-105533291D01*
X165348570Y-105533291D01*
X165096448Y-105550109D01*
X165096442Y-105550110D01*
X165089663Y-105550562D01*
X165083005Y-105551935D01*
X165083004Y-105551935D01*
X164955494Y-105578228D01*
X164821325Y-105605894D01*
X164814921Y-105608160D01*
X164814914Y-105608162D01*
X164569452Y-105695018D01*
X164569447Y-105695020D01*
X164563035Y-105697289D01*
X164556983Y-105700415D01*
X164556984Y-105700415D01*
X164325673Y-105819910D01*
X164325668Y-105819913D01*
X164319615Y-105823040D01*
X164095609Y-105980800D01*
X163895200Y-106167624D01*
X163722130Y-106380023D01*
X163579629Y-106614032D01*
X163470358Y-106865282D01*
X163468519Y-106871836D01*
X163468517Y-106871843D01*
X163460204Y-106901479D01*
X163396357Y-107129083D01*
X163359008Y-107400508D01*
X163359008Y-107674492D01*
X159738678Y-107674492D01*
X159601639Y-107537453D01*
X159594527Y-107532473D01*
X159594522Y-107532469D01*
X159422352Y-107411916D01*
X159415234Y-107406932D01*
X159208996Y-107310761D01*
X159200599Y-107308511D01*
X158997584Y-107254113D01*
X158997577Y-107254112D01*
X158989192Y-107251865D01*
X158980541Y-107251108D01*
X158980540Y-107251108D01*
X158964637Y-107249717D01*
X158819284Y-107237000D01*
X157705716Y-107237000D01*
X157560363Y-107249717D01*
X157544460Y-107251108D01*
X157544459Y-107251108D01*
X157535808Y-107251865D01*
X157527423Y-107254112D01*
X157527416Y-107254113D01*
X157324401Y-107308511D01*
X157316004Y-107310761D01*
X157109766Y-107406932D01*
X157102648Y-107411916D01*
X156930478Y-107532469D01*
X156930473Y-107532473D01*
X156923361Y-107537453D01*
X156762453Y-107698361D01*
X156757473Y-107705473D01*
X156757469Y-107705478D01*
X156721622Y-107756674D01*
X156631932Y-107884766D01*
X156535761Y-108091004D01*
X156533511Y-108099401D01*
X156479113Y-108302416D01*
X156479112Y-108302423D01*
X156476865Y-108310808D01*
X156476108Y-108319459D01*
X156476108Y-108319460D01*
X156460743Y-108495083D01*
X156449409Y-108530262D01*
X156072287Y-108530262D01*
X156064257Y-108495083D01*
X156048892Y-108319460D01*
X156048892Y-108319459D01*
X156048135Y-108310808D01*
X156045888Y-108302423D01*
X156045887Y-108302416D01*
X155991489Y-108099401D01*
X155989239Y-108091004D01*
X155893068Y-107884766D01*
X155803378Y-107756674D01*
X155767531Y-107705478D01*
X155767527Y-107705473D01*
X155762547Y-107698361D01*
X155601639Y-107537453D01*
X155594527Y-107532473D01*
X155594522Y-107532469D01*
X155422352Y-107411916D01*
X155415234Y-107406932D01*
X155208996Y-107310761D01*
X155200599Y-107308511D01*
X154997584Y-107254113D01*
X154997577Y-107254112D01*
X154989192Y-107251865D01*
X154980541Y-107251108D01*
X154980540Y-107251108D01*
X154964637Y-107249717D01*
X154819284Y-107237000D01*
X153705716Y-107237000D01*
X153560363Y-107249717D01*
X153544460Y-107251108D01*
X153544459Y-107251108D01*
X153535808Y-107251865D01*
X153527423Y-107254112D01*
X153527416Y-107254113D01*
X153324401Y-107308511D01*
X153316004Y-107310761D01*
X153109766Y-107406932D01*
X153102648Y-107411916D01*
X152930478Y-107532469D01*
X152930473Y-107532473D01*
X152923361Y-107537453D01*
X152762453Y-107698361D01*
X152757473Y-107705473D01*
X152757469Y-107705478D01*
X152721622Y-107756674D01*
X152631932Y-107884766D01*
X152535761Y-108091004D01*
X152533511Y-108099401D01*
X152479113Y-108302416D01*
X152479112Y-108302423D01*
X152476865Y-108310808D01*
X152476108Y-108319459D01*
X152476108Y-108319460D01*
X152460743Y-108495083D01*
X152449409Y-108530262D01*
X152072287Y-108530262D01*
X152064257Y-108495083D01*
X152048892Y-108319460D01*
X152048892Y-108319459D01*
X152048135Y-108310808D01*
X152045888Y-108302423D01*
X152045887Y-108302416D01*
X151991489Y-108099401D01*
X151989239Y-108091004D01*
X151893068Y-107884766D01*
X151803378Y-107756674D01*
X151767531Y-107705478D01*
X151767527Y-107705473D01*
X151762547Y-107698361D01*
X151601639Y-107537453D01*
X151594527Y-107532473D01*
X151594522Y-107532469D01*
X151422352Y-107411916D01*
X151415234Y-107406932D01*
X151208996Y-107310761D01*
X151200599Y-107308511D01*
X150997584Y-107254113D01*
X150997577Y-107254112D01*
X150989192Y-107251865D01*
X150980541Y-107251108D01*
X150980540Y-107251108D01*
X150964637Y-107249717D01*
X150819284Y-107237000D01*
X149705716Y-107237000D01*
X149560363Y-107249717D01*
X149544460Y-107251108D01*
X149544459Y-107251108D01*
X149535808Y-107251865D01*
X149527423Y-107254112D01*
X149527416Y-107254113D01*
X149324401Y-107308511D01*
X149316004Y-107310761D01*
X149109766Y-107406932D01*
X149102648Y-107411916D01*
X148930478Y-107532469D01*
X148930473Y-107532473D01*
X148923361Y-107537453D01*
X148762453Y-107698361D01*
X148757473Y-107705473D01*
X148757469Y-107705478D01*
X148721622Y-107756674D01*
X148631932Y-107884766D01*
X148535761Y-108091004D01*
X148533511Y-108099401D01*
X148479113Y-108302416D01*
X148479112Y-108302423D01*
X148476865Y-108310808D01*
X148476108Y-108319459D01*
X148476108Y-108319460D01*
X148460743Y-108495083D01*
X148449409Y-108530262D01*
X148072287Y-108530262D01*
X148064257Y-108495083D01*
X148048892Y-108319460D01*
X148048892Y-108319459D01*
X148048135Y-108310808D01*
X148045888Y-108302423D01*
X148045887Y-108302416D01*
X147991489Y-108099401D01*
X147989239Y-108091004D01*
X147893068Y-107884766D01*
X147803378Y-107756674D01*
X147767531Y-107705478D01*
X147767527Y-107705473D01*
X147762547Y-107698361D01*
X147601639Y-107537453D01*
X147594527Y-107532473D01*
X147594522Y-107532469D01*
X147422352Y-107411916D01*
X147415234Y-107406932D01*
X147208996Y-107310761D01*
X147200599Y-107308511D01*
X146997584Y-107254113D01*
X146997577Y-107254112D01*
X146989192Y-107251865D01*
X146980541Y-107251108D01*
X146980540Y-107251108D01*
X146964637Y-107249717D01*
X146819284Y-107237000D01*
X145705716Y-107237000D01*
X145560363Y-107249717D01*
X145544460Y-107251108D01*
X145544459Y-107251108D01*
X145535808Y-107251865D01*
X145527423Y-107254112D01*
X145527416Y-107254113D01*
X145324401Y-107308511D01*
X145316004Y-107310761D01*
X145109766Y-107406932D01*
X145102648Y-107411916D01*
X144930478Y-107532469D01*
X144930473Y-107532473D01*
X144923361Y-107537453D01*
X144762453Y-107698361D01*
X144757473Y-107705473D01*
X144757469Y-107705478D01*
X144721622Y-107756674D01*
X144631932Y-107884766D01*
X144535761Y-108091004D01*
X144533511Y-108099401D01*
X144479113Y-108302416D01*
X144479112Y-108302423D01*
X144476865Y-108310808D01*
X144476108Y-108319459D01*
X144476108Y-108319460D01*
X144460743Y-108495083D01*
X144449409Y-108530262D01*
X144072287Y-108530262D01*
X144064257Y-108495083D01*
X144048892Y-108319460D01*
X144048892Y-108319459D01*
X144048135Y-108310808D01*
X144045888Y-108302423D01*
X144045887Y-108302416D01*
X143991489Y-108099401D01*
X143989239Y-108091004D01*
X143893068Y-107884766D01*
X143803378Y-107756674D01*
X143767531Y-107705478D01*
X143767527Y-107705473D01*
X143762547Y-107698361D01*
X143601639Y-107537453D01*
X143594527Y-107532473D01*
X143594522Y-107532469D01*
X143422352Y-107411916D01*
X143415234Y-107406932D01*
X143208996Y-107310761D01*
X143200599Y-107308511D01*
X142997584Y-107254113D01*
X142997577Y-107254112D01*
X142989192Y-107251865D01*
X142980541Y-107251108D01*
X142980540Y-107251108D01*
X142964637Y-107249717D01*
X142819284Y-107237000D01*
X141705716Y-107237000D01*
X141560363Y-107249717D01*
X141544460Y-107251108D01*
X141544459Y-107251108D01*
X141535808Y-107251865D01*
X141527423Y-107254112D01*
X141527416Y-107254113D01*
X141324401Y-107308511D01*
X141316004Y-107310761D01*
X141109766Y-107406932D01*
X141102648Y-107411916D01*
X140930478Y-107532469D01*
X140930473Y-107532473D01*
X140923361Y-107537453D01*
X140762453Y-107698361D01*
X140757473Y-107705473D01*
X140757469Y-107705478D01*
X140721622Y-107756674D01*
X140631932Y-107884766D01*
X140535761Y-108091004D01*
X140533511Y-108099401D01*
X140479113Y-108302416D01*
X140479112Y-108302423D01*
X140476865Y-108310808D01*
X140476108Y-108319459D01*
X140476108Y-108319460D01*
X140460743Y-108495083D01*
X140449409Y-108530262D01*
X140072287Y-108530262D01*
X140064257Y-108495083D01*
X140048892Y-108319460D01*
X140048892Y-108319459D01*
X140048135Y-108310808D01*
X140045888Y-108302423D01*
X140045887Y-108302416D01*
X139991489Y-108099401D01*
X139989239Y-108091004D01*
X139893068Y-107884766D01*
X139803378Y-107756674D01*
X139767531Y-107705478D01*
X139767527Y-107705473D01*
X139762547Y-107698361D01*
X139601639Y-107537453D01*
X139594527Y-107532473D01*
X139594522Y-107532469D01*
X139422352Y-107411916D01*
X139415234Y-107406932D01*
X139208996Y-107310761D01*
X139200599Y-107308511D01*
X138997584Y-107254113D01*
X138997577Y-107254112D01*
X138989192Y-107251865D01*
X138980541Y-107251108D01*
X138980540Y-107251108D01*
X138964637Y-107249717D01*
X138819284Y-107237000D01*
X137705716Y-107237000D01*
X137560363Y-107249717D01*
X137544460Y-107251108D01*
X137544459Y-107251108D01*
X137535808Y-107251865D01*
X137527423Y-107254112D01*
X137527416Y-107254113D01*
X137324401Y-107308511D01*
X137316004Y-107310761D01*
X137109766Y-107406932D01*
X137102648Y-107411916D01*
X136930478Y-107532469D01*
X136930473Y-107532473D01*
X136923361Y-107537453D01*
X136762453Y-107698361D01*
X136757473Y-107705473D01*
X136757469Y-107705478D01*
X136721622Y-107756674D01*
X136631932Y-107884766D01*
X136535761Y-108091004D01*
X136533511Y-108099401D01*
X136479113Y-108302416D01*
X136479112Y-108302423D01*
X136476865Y-108310808D01*
X136476108Y-108319459D01*
X136476108Y-108319460D01*
X136460743Y-108495083D01*
X136449409Y-108530262D01*
X136072287Y-108530262D01*
X136064257Y-108495083D01*
X136048892Y-108319460D01*
X136048892Y-108319459D01*
X136048135Y-108310808D01*
X136045888Y-108302423D01*
X136045887Y-108302416D01*
X135991489Y-108099401D01*
X135989239Y-108091004D01*
X135893068Y-107884766D01*
X135803378Y-107756674D01*
X135767531Y-107705478D01*
X135767527Y-107705473D01*
X135762547Y-107698361D01*
X135601639Y-107537453D01*
X135594527Y-107532473D01*
X135594522Y-107532469D01*
X135422352Y-107411916D01*
X135415234Y-107406932D01*
X135208996Y-107310761D01*
X135200599Y-107308511D01*
X134997584Y-107254113D01*
X134997577Y-107254112D01*
X134989192Y-107251865D01*
X134980541Y-107251108D01*
X134980540Y-107251108D01*
X134964637Y-107249717D01*
X134819284Y-107237000D01*
X133705716Y-107237000D01*
X133560363Y-107249717D01*
X133544460Y-107251108D01*
X133544459Y-107251108D01*
X133535808Y-107251865D01*
X133527423Y-107254112D01*
X133527416Y-107254113D01*
X133324401Y-107308511D01*
X133316004Y-107310761D01*
X133109766Y-107406932D01*
X133102648Y-107411916D01*
X132930478Y-107532469D01*
X132930473Y-107532473D01*
X132923361Y-107537453D01*
X132762453Y-107698361D01*
X132757473Y-107705473D01*
X132757469Y-107705478D01*
X132721622Y-107756674D01*
X132631932Y-107884766D01*
X132535761Y-108091004D01*
X132533511Y-108099401D01*
X132479113Y-108302416D01*
X132479112Y-108302423D01*
X132476865Y-108310808D01*
X132476108Y-108319459D01*
X132476108Y-108319460D01*
X132460743Y-108495083D01*
X132449409Y-108530262D01*
X132072287Y-108530262D01*
X132064257Y-108495083D01*
X132048892Y-108319460D01*
X132048892Y-108319459D01*
X132048135Y-108310808D01*
X132045888Y-108302423D01*
X132045887Y-108302416D01*
X131991489Y-108099401D01*
X131989239Y-108091004D01*
X131893068Y-107884766D01*
X131803378Y-107756674D01*
X131767531Y-107705478D01*
X131767527Y-107705473D01*
X131762547Y-107698361D01*
X131601639Y-107537453D01*
X131594527Y-107532473D01*
X131594522Y-107532469D01*
X131422352Y-107411916D01*
X131415234Y-107406932D01*
X131208996Y-107310761D01*
X131200599Y-107308511D01*
X130997584Y-107254113D01*
X130997577Y-107254112D01*
X130989192Y-107251865D01*
X130980541Y-107251108D01*
X130980540Y-107251108D01*
X130964637Y-107249717D01*
X130819284Y-107237000D01*
X129705716Y-107237000D01*
X129560363Y-107249717D01*
X129544460Y-107251108D01*
X129544459Y-107251108D01*
X129535808Y-107251865D01*
X129527423Y-107254112D01*
X129527416Y-107254113D01*
X129324401Y-107308511D01*
X129316004Y-107310761D01*
X129109766Y-107406932D01*
X129102648Y-107411916D01*
X128930478Y-107532469D01*
X128930473Y-107532473D01*
X128923361Y-107537453D01*
X128762453Y-107698361D01*
X128757473Y-107705473D01*
X128757469Y-107705478D01*
X128721622Y-107756674D01*
X128631932Y-107884766D01*
X128535761Y-108091004D01*
X128533511Y-108099401D01*
X128479113Y-108302416D01*
X128479112Y-108302423D01*
X128476865Y-108310808D01*
X128457032Y-108537500D01*
X126563000Y-108537500D01*
X126563000Y-103731236D01*
X141771829Y-103731236D01*
X141790749Y-103874945D01*
X141846218Y-104008861D01*
X141934458Y-104123857D01*
X142049454Y-104212097D01*
X142061503Y-104217088D01*
X142061505Y-104217089D01*
X142171320Y-104262575D01*
X142183370Y-104267566D01*
X142327079Y-104286486D01*
X142470788Y-104267566D01*
X142482838Y-104262575D01*
X142592653Y-104217089D01*
X142592655Y-104217088D01*
X142604704Y-104212097D01*
X142719700Y-104123857D01*
X142807940Y-104008861D01*
X142863409Y-103874945D01*
X142871630Y-103812500D01*
X189877322Y-103812500D01*
X189896242Y-103956209D01*
X189901233Y-103968258D01*
X189901233Y-103968259D01*
X189922337Y-104019208D01*
X189951711Y-104090125D01*
X190039951Y-104205121D01*
X190154947Y-104293361D01*
X190166996Y-104298352D01*
X190166998Y-104298353D01*
X190276813Y-104343839D01*
X190288863Y-104348830D01*
X190432572Y-104367750D01*
X190576281Y-104348830D01*
X190588331Y-104343839D01*
X190698146Y-104298353D01*
X190698148Y-104298352D01*
X190710197Y-104293361D01*
X190825193Y-104205121D01*
X190913433Y-104090125D01*
X190942808Y-104019208D01*
X190963911Y-103968259D01*
X190963911Y-103968258D01*
X190968902Y-103956209D01*
X190987822Y-103812500D01*
X190968902Y-103668791D01*
X190913433Y-103534875D01*
X190825193Y-103419879D01*
X190710197Y-103331639D01*
X190698148Y-103326648D01*
X190698146Y-103326647D01*
X190588331Y-103281161D01*
X190588330Y-103281161D01*
X190576281Y-103276170D01*
X190432572Y-103257250D01*
X190288863Y-103276170D01*
X190276814Y-103281161D01*
X190276813Y-103281161D01*
X190166998Y-103326647D01*
X190166996Y-103326648D01*
X190154947Y-103331639D01*
X190039951Y-103419879D01*
X189951711Y-103534875D01*
X189896242Y-103668791D01*
X189877322Y-103812500D01*
X142871630Y-103812500D01*
X142882329Y-103731236D01*
X142863409Y-103587527D01*
X142841600Y-103534875D01*
X142812932Y-103465662D01*
X142812931Y-103465660D01*
X142807940Y-103453611D01*
X142719700Y-103338615D01*
X142604704Y-103250375D01*
X142592655Y-103245384D01*
X142592653Y-103245383D01*
X142482838Y-103199897D01*
X142482837Y-103199897D01*
X142470788Y-103194906D01*
X142327079Y-103175986D01*
X142183370Y-103194906D01*
X142171321Y-103199897D01*
X142171320Y-103199897D01*
X142061505Y-103245383D01*
X142061503Y-103245384D01*
X142049454Y-103250375D01*
X141934458Y-103338615D01*
X141846218Y-103453611D01*
X141841227Y-103465660D01*
X141841226Y-103465662D01*
X141812558Y-103534875D01*
X141790749Y-103587527D01*
X141771829Y-103731236D01*
X126563000Y-103731236D01*
X126563000Y-102032045D01*
X131481106Y-102032045D01*
X131499316Y-102205297D01*
X131555456Y-102370209D01*
X131646738Y-102518586D01*
X131654522Y-102526535D01*
X131654523Y-102526536D01*
X131683349Y-102555972D01*
X131768624Y-102643052D01*
X131915056Y-102737421D01*
X131925509Y-102741226D01*
X131925510Y-102741226D01*
X132068304Y-102793199D01*
X132068309Y-102793200D01*
X132078757Y-102797003D01*
X132213301Y-102814000D01*
X132306300Y-102814000D01*
X132382079Y-102805500D01*
X132424569Y-102800734D01*
X132424572Y-102800733D01*
X132435621Y-102799494D01*
X132600137Y-102742204D01*
X132747873Y-102649888D01*
X132871485Y-102527136D01*
X132964829Y-102380049D01*
X133004728Y-102268000D01*
X149930911Y-102268000D01*
X149949831Y-102411709D01*
X149954822Y-102423758D01*
X149954822Y-102423759D01*
X149997642Y-102527136D01*
X150005300Y-102545625D01*
X150093540Y-102660621D01*
X150208536Y-102748861D01*
X150220585Y-102753852D01*
X150220587Y-102753853D01*
X150328128Y-102798397D01*
X150342452Y-102804330D01*
X150486161Y-102823250D01*
X150629870Y-102804330D01*
X150644194Y-102798397D01*
X150751735Y-102753853D01*
X150751737Y-102753852D01*
X150763786Y-102748861D01*
X150878782Y-102660621D01*
X150967022Y-102545625D01*
X150974681Y-102527136D01*
X151017500Y-102423759D01*
X151017500Y-102423758D01*
X151022491Y-102411709D01*
X151032261Y-102337500D01*
X162257364Y-102337500D01*
X162259093Y-102347303D01*
X162273583Y-102494425D01*
X162319356Y-102645320D01*
X162323961Y-102653935D01*
X162323962Y-102653938D01*
X162331777Y-102668559D01*
X162393688Y-102784386D01*
X162493722Y-102906278D01*
X162615614Y-103006312D01*
X162685147Y-103043478D01*
X162746062Y-103076038D01*
X162746065Y-103076039D01*
X162754680Y-103080644D01*
X162764033Y-103083481D01*
X162764035Y-103083482D01*
X162819017Y-103100160D01*
X162905575Y-103126417D01*
X162993833Y-103135109D01*
X163000091Y-103136174D01*
X163003122Y-103137383D01*
X163009415Y-103138000D01*
X163014270Y-103138000D01*
X163019139Y-103138238D01*
X163019137Y-103138282D01*
X163032907Y-103138958D01*
X163052697Y-103140907D01*
X163062500Y-103142636D01*
X163079646Y-103139613D01*
X163087770Y-103139613D01*
X163106204Y-103138000D01*
X173418796Y-103138000D01*
X173437230Y-103139613D01*
X173445354Y-103139613D01*
X173462500Y-103142636D01*
X173472303Y-103140907D01*
X173619425Y-103126417D01*
X173705983Y-103100160D01*
X173760965Y-103083482D01*
X173760967Y-103083481D01*
X173770320Y-103080644D01*
X173778935Y-103076039D01*
X173778938Y-103076038D01*
X173839853Y-103043478D01*
X173909386Y-103006312D01*
X174031278Y-102906278D01*
X174131312Y-102784386D01*
X174193223Y-102668559D01*
X174201038Y-102653938D01*
X174201039Y-102653935D01*
X174205644Y-102645320D01*
X174251417Y-102494425D01*
X174260109Y-102406167D01*
X174261174Y-102399909D01*
X174262383Y-102396878D01*
X174263000Y-102390585D01*
X174263000Y-102385730D01*
X174263238Y-102380861D01*
X174263282Y-102380863D01*
X174263958Y-102367091D01*
X174264611Y-102360459D01*
X174265907Y-102347303D01*
X174267636Y-102337500D01*
X174264613Y-102320354D01*
X174264613Y-102312230D01*
X174263000Y-102293796D01*
X174263000Y-102032045D01*
X203481106Y-102032045D01*
X203499316Y-102205297D01*
X203555456Y-102370209D01*
X203646738Y-102518586D01*
X203654522Y-102526535D01*
X203654523Y-102526536D01*
X203683349Y-102555972D01*
X203768624Y-102643052D01*
X203915056Y-102737421D01*
X203925509Y-102741226D01*
X203925510Y-102741226D01*
X204068304Y-102793199D01*
X204068309Y-102793200D01*
X204078757Y-102797003D01*
X204213301Y-102814000D01*
X204306300Y-102814000D01*
X204382079Y-102805500D01*
X204424569Y-102800734D01*
X204424572Y-102800733D01*
X204435621Y-102799494D01*
X204600137Y-102742204D01*
X204747873Y-102649888D01*
X204871485Y-102527136D01*
X204964829Y-102380049D01*
X205023267Y-102215936D01*
X205043894Y-102042955D01*
X205025684Y-101869703D01*
X204969544Y-101704791D01*
X204900153Y-101591997D01*
X204884092Y-101565890D01*
X204884090Y-101565888D01*
X204878262Y-101556414D01*
X204756376Y-101431948D01*
X204609944Y-101337579D01*
X204586747Y-101329136D01*
X204456696Y-101281801D01*
X204456691Y-101281800D01*
X204446243Y-101277997D01*
X204311699Y-101261000D01*
X204218700Y-101261000D01*
X204142921Y-101269500D01*
X204100431Y-101274266D01*
X204100428Y-101274267D01*
X204089379Y-101275506D01*
X203924863Y-101332796D01*
X203777127Y-101425112D01*
X203653515Y-101547864D01*
X203560171Y-101694951D01*
X203501733Y-101859064D01*
X203500415Y-101870113D01*
X203500415Y-101870115D01*
X203487309Y-101980028D01*
X203481106Y-102032045D01*
X174263000Y-102032045D01*
X174263000Y-100488685D01*
X187157750Y-100488685D01*
X187176670Y-100632394D01*
X187181661Y-100644443D01*
X187181661Y-100644444D01*
X187225188Y-100749528D01*
X187232139Y-100766310D01*
X187320379Y-100881306D01*
X187435375Y-100969546D01*
X187447424Y-100974537D01*
X187447426Y-100974538D01*
X187557241Y-101020024D01*
X187569291Y-101025015D01*
X187713000Y-101043935D01*
X187856709Y-101025015D01*
X187868759Y-101020024D01*
X187978574Y-100974538D01*
X187978576Y-100974537D01*
X187990625Y-100969546D01*
X188105621Y-100881306D01*
X188193861Y-100766310D01*
X188200813Y-100749528D01*
X188244339Y-100644444D01*
X188244339Y-100644443D01*
X188249330Y-100632394D01*
X188268250Y-100488685D01*
X188249330Y-100344976D01*
X188193861Y-100211060D01*
X188105621Y-100096064D01*
X187990625Y-100007824D01*
X187978576Y-100002833D01*
X187978574Y-100002832D01*
X187868759Y-99957346D01*
X187868758Y-99957346D01*
X187856709Y-99952355D01*
X187713000Y-99933435D01*
X187569291Y-99952355D01*
X187557242Y-99957346D01*
X187557241Y-99957346D01*
X187447426Y-100002832D01*
X187447424Y-100002833D01*
X187435375Y-100007824D01*
X187320379Y-100096064D01*
X187232139Y-100211060D01*
X187176670Y-100344976D01*
X187157750Y-100488685D01*
X174263000Y-100488685D01*
X174263000Y-98015453D01*
X176157207Y-98015453D01*
X176173694Y-98301378D01*
X176228832Y-98582420D01*
X176231026Y-98588828D01*
X176231027Y-98588832D01*
X176256421Y-98663000D01*
X176321602Y-98853378D01*
X176324648Y-98859434D01*
X176435973Y-99080779D01*
X176450287Y-99109240D01*
X176612506Y-99345270D01*
X176617063Y-99350278D01*
X176800693Y-99552086D01*
X176800698Y-99552091D01*
X176805256Y-99557100D01*
X176810454Y-99561446D01*
X176810458Y-99561450D01*
X177019774Y-99736465D01*
X177024972Y-99740811D01*
X177030713Y-99744412D01*
X177261845Y-99889401D01*
X177261851Y-99889404D01*
X177267588Y-99893003D01*
X177273760Y-99895790D01*
X177273766Y-99895793D01*
X177438999Y-99970398D01*
X177528614Y-100010861D01*
X177803219Y-100092203D01*
X177962154Y-100116523D01*
X178079624Y-100134499D01*
X178079627Y-100134499D01*
X178086324Y-100135524D01*
X178372689Y-100140023D01*
X178379413Y-100139209D01*
X178379419Y-100139209D01*
X178557267Y-100117686D01*
X178657014Y-100105615D01*
X178934039Y-100032939D01*
X178975504Y-100015764D01*
X179192371Y-99925935D01*
X179192373Y-99925934D01*
X179198638Y-99923339D01*
X179204489Y-99919920D01*
X179204493Y-99919918D01*
X179440071Y-99782257D01*
X179445915Y-99778842D01*
X179671293Y-99602123D01*
X179870602Y-99396452D01*
X180019069Y-99194339D01*
X180036148Y-99171089D01*
X180036149Y-99171088D01*
X180040155Y-99165634D01*
X180176813Y-98913941D01*
X180187567Y-98885483D01*
X180271636Y-98663000D01*
X186707250Y-98663000D01*
X186726170Y-98806709D01*
X186731161Y-98818758D01*
X186731161Y-98818759D01*
X186763085Y-98895830D01*
X186781639Y-98940625D01*
X186869879Y-99055621D01*
X186984875Y-99143861D01*
X186996924Y-99148852D01*
X186996926Y-99148853D01*
X187078912Y-99182812D01*
X187118791Y-99199330D01*
X187262500Y-99218250D01*
X187406209Y-99199330D01*
X187446088Y-99182812D01*
X187528074Y-99148853D01*
X187528076Y-99148852D01*
X187540125Y-99143861D01*
X187655121Y-99055621D01*
X187743361Y-98940625D01*
X187761916Y-98895830D01*
X187793839Y-98818759D01*
X187793839Y-98818758D01*
X187798830Y-98806709D01*
X187817750Y-98663000D01*
X187798830Y-98519291D01*
X187743361Y-98385375D01*
X187655121Y-98270379D01*
X187540125Y-98182139D01*
X187528076Y-98177148D01*
X187528074Y-98177147D01*
X187418259Y-98131661D01*
X187418258Y-98131661D01*
X187406209Y-98126670D01*
X187262500Y-98107750D01*
X187118791Y-98126670D01*
X187106742Y-98131661D01*
X187106741Y-98131661D01*
X186996926Y-98177147D01*
X186996924Y-98177148D01*
X186984875Y-98182139D01*
X186869879Y-98270379D01*
X186781639Y-98385375D01*
X186726170Y-98519291D01*
X186707250Y-98663000D01*
X180271636Y-98663000D01*
X180275653Y-98652369D01*
X180275654Y-98652365D01*
X180278048Y-98646030D01*
X180290995Y-98589503D01*
X180337746Y-98385375D01*
X180341987Y-98366858D01*
X180364960Y-98109453D01*
X180367098Y-98085493D01*
X180367098Y-98085489D01*
X180367446Y-98081592D01*
X180367908Y-98037500D01*
X192207250Y-98037500D01*
X192226170Y-98181209D01*
X192231161Y-98193258D01*
X192231161Y-98193259D01*
X192273141Y-98294608D01*
X192281639Y-98315125D01*
X192369879Y-98430121D01*
X192484875Y-98518361D01*
X192496924Y-98523352D01*
X192496926Y-98523353D01*
X192586510Y-98560459D01*
X192618791Y-98573830D01*
X192762500Y-98592750D01*
X192906209Y-98573830D01*
X192938490Y-98560459D01*
X193028074Y-98523353D01*
X193028076Y-98523352D01*
X193040125Y-98518361D01*
X193155121Y-98430121D01*
X193243361Y-98315125D01*
X193251860Y-98294608D01*
X193293839Y-98193259D01*
X193293839Y-98193258D01*
X193298830Y-98181209D01*
X193317750Y-98037500D01*
X193298830Y-97893791D01*
X193269217Y-97822297D01*
X193248353Y-97771926D01*
X193248352Y-97771924D01*
X193243361Y-97759875D01*
X193155121Y-97644879D01*
X193040125Y-97556639D01*
X193028076Y-97551648D01*
X193028074Y-97551647D01*
X192918259Y-97506161D01*
X192918258Y-97506161D01*
X192906209Y-97501170D01*
X192762500Y-97482250D01*
X192618791Y-97501170D01*
X192606742Y-97506161D01*
X192606741Y-97506161D01*
X192496926Y-97551647D01*
X192496924Y-97551648D01*
X192484875Y-97556639D01*
X192369879Y-97644879D01*
X192281639Y-97759875D01*
X192276648Y-97771924D01*
X192276647Y-97771926D01*
X192255783Y-97822297D01*
X192226170Y-97893791D01*
X192207250Y-98037500D01*
X180367908Y-98037500D01*
X180365411Y-98000864D01*
X180353353Y-97824000D01*
X180348428Y-97751763D01*
X180300375Y-97519725D01*
X180291725Y-97477953D01*
X180291724Y-97477951D01*
X180290350Y-97471314D01*
X180282842Y-97450110D01*
X180197008Y-97207723D01*
X180197006Y-97207718D01*
X180194748Y-97201342D01*
X180063391Y-96946842D01*
X180054390Y-96934034D01*
X179957257Y-96795829D01*
X179898709Y-96712524D01*
X179894103Y-96707567D01*
X179894097Y-96707560D01*
X179708368Y-96507692D01*
X179708364Y-96507689D01*
X179703751Y-96502724D01*
X179482123Y-96321323D01*
X179237927Y-96171680D01*
X178975682Y-96056562D01*
X178700239Y-95978100D01*
X178416696Y-95937746D01*
X178276435Y-95937012D01*
X178137082Y-95936282D01*
X178137075Y-95936282D01*
X178130300Y-95936247D01*
X177846351Y-95973629D01*
X177839818Y-95975416D01*
X177839814Y-95975417D01*
X177576633Y-96047415D01*
X177576629Y-96047417D01*
X177570102Y-96049202D01*
X177563872Y-96051859D01*
X177563870Y-96051860D01*
X177471998Y-96091047D01*
X177306665Y-96161568D01*
X177300847Y-96165050D01*
X177300845Y-96165051D01*
X177076645Y-96299232D01*
X177060915Y-96308646D01*
X176837400Y-96487715D01*
X176794654Y-96532760D01*
X176650713Y-96684442D01*
X176640255Y-96695462D01*
X176636305Y-96700959D01*
X176481656Y-96916177D01*
X176473129Y-96928043D01*
X176339114Y-97181153D01*
X176240690Y-97450110D01*
X176179678Y-97729936D01*
X176179147Y-97736688D01*
X176179146Y-97736692D01*
X176173764Y-97805080D01*
X176158355Y-98000864D01*
X176157207Y-98015453D01*
X174263000Y-98015453D01*
X174263000Y-96781204D01*
X174264613Y-96762770D01*
X174264613Y-96754646D01*
X174267636Y-96737500D01*
X174265907Y-96727697D01*
X174251417Y-96580575D01*
X174205644Y-96429680D01*
X174131312Y-96290614D01*
X174031278Y-96168722D01*
X173909386Y-96068688D01*
X173824570Y-96023353D01*
X173778938Y-95998962D01*
X173778935Y-95998961D01*
X173770320Y-95994356D01*
X173760967Y-95991519D01*
X173760965Y-95991518D01*
X173699077Y-95972745D01*
X173619425Y-95948583D01*
X173531167Y-95939891D01*
X173524909Y-95938826D01*
X173521878Y-95937617D01*
X173515585Y-95937000D01*
X173510730Y-95937000D01*
X173505861Y-95936762D01*
X173505863Y-95936718D01*
X173492093Y-95936042D01*
X173472303Y-95934093D01*
X173462500Y-95932364D01*
X173445354Y-95935387D01*
X173437230Y-95935387D01*
X173418796Y-95937000D01*
X163106204Y-95937000D01*
X163087770Y-95935387D01*
X163079646Y-95935387D01*
X163062500Y-95932364D01*
X163052697Y-95934093D01*
X162905575Y-95948583D01*
X162825923Y-95972745D01*
X162764035Y-95991518D01*
X162764033Y-95991519D01*
X162754680Y-95994356D01*
X162746065Y-95998961D01*
X162746062Y-95998962D01*
X162700430Y-96023353D01*
X162615614Y-96068688D01*
X162493722Y-96168722D01*
X162393688Y-96290614D01*
X162319356Y-96429680D01*
X162273583Y-96580575D01*
X162272625Y-96590305D01*
X162264891Y-96668830D01*
X162263826Y-96675091D01*
X162262617Y-96678122D01*
X162262000Y-96684415D01*
X162262000Y-96689270D01*
X162261762Y-96694139D01*
X162261718Y-96694137D01*
X162261042Y-96707907D01*
X162259093Y-96727697D01*
X162257364Y-96737500D01*
X162260387Y-96754646D01*
X162260387Y-96762770D01*
X162262000Y-96781204D01*
X162262000Y-102293796D01*
X162260387Y-102312230D01*
X162260387Y-102320354D01*
X162257364Y-102337500D01*
X151032261Y-102337500D01*
X151041411Y-102268000D01*
X151022491Y-102124291D01*
X150993377Y-102054002D01*
X150972014Y-102002426D01*
X150972013Y-102002424D01*
X150967022Y-101990375D01*
X150878782Y-101875379D01*
X150763786Y-101787139D01*
X150751737Y-101782148D01*
X150751735Y-101782147D01*
X150641920Y-101736661D01*
X150641919Y-101736661D01*
X150629870Y-101731670D01*
X150486161Y-101712750D01*
X150342452Y-101731670D01*
X150330403Y-101736661D01*
X150330402Y-101736661D01*
X150220587Y-101782147D01*
X150220585Y-101782148D01*
X150208536Y-101787139D01*
X150093540Y-101875379D01*
X150005300Y-101990375D01*
X150000309Y-102002424D01*
X150000308Y-102002426D01*
X149978945Y-102054002D01*
X149949831Y-102124291D01*
X149930911Y-102268000D01*
X133004728Y-102268000D01*
X133023267Y-102215936D01*
X133043894Y-102042955D01*
X133025684Y-101869703D01*
X132969544Y-101704791D01*
X132900153Y-101591997D01*
X132884092Y-101565890D01*
X132884090Y-101565888D01*
X132878262Y-101556414D01*
X132756376Y-101431948D01*
X132609944Y-101337579D01*
X132586747Y-101329136D01*
X132456696Y-101281801D01*
X132456691Y-101281800D01*
X132446243Y-101277997D01*
X132311699Y-101261000D01*
X132218700Y-101261000D01*
X132142921Y-101269500D01*
X132100431Y-101274266D01*
X132100428Y-101274267D01*
X132089379Y-101275506D01*
X131924863Y-101332796D01*
X131777127Y-101425112D01*
X131653515Y-101547864D01*
X131560171Y-101694951D01*
X131501733Y-101859064D01*
X131500415Y-101870113D01*
X131500415Y-101870115D01*
X131487309Y-101980028D01*
X131481106Y-102032045D01*
X126563000Y-102032045D01*
X126563000Y-101199376D01*
X141369126Y-101199376D01*
X141388046Y-101343085D01*
X141393037Y-101355134D01*
X141393037Y-101355135D01*
X141425270Y-101432952D01*
X141443515Y-101477001D01*
X141531755Y-101591997D01*
X141646751Y-101680237D01*
X141658800Y-101685228D01*
X141658802Y-101685229D01*
X141766814Y-101729968D01*
X141780667Y-101735706D01*
X141924376Y-101754626D01*
X142068085Y-101735706D01*
X142081938Y-101729968D01*
X142189950Y-101685229D01*
X142189952Y-101685228D01*
X142202001Y-101680237D01*
X142316997Y-101591997D01*
X142405237Y-101477001D01*
X142423483Y-101432952D01*
X142455715Y-101355135D01*
X142455715Y-101355134D01*
X142460706Y-101343085D01*
X142479626Y-101199376D01*
X142460706Y-101055667D01*
X142453181Y-101037500D01*
X152707250Y-101037500D01*
X152726170Y-101181209D01*
X152731161Y-101193258D01*
X152731161Y-101193259D01*
X152766744Y-101279164D01*
X152781639Y-101315125D01*
X152869879Y-101430121D01*
X152984875Y-101518361D01*
X152996924Y-101523352D01*
X152996926Y-101523353D01*
X153106741Y-101568839D01*
X153118791Y-101573830D01*
X153262500Y-101592750D01*
X153406209Y-101573830D01*
X153418259Y-101568839D01*
X153528074Y-101523353D01*
X153528076Y-101523352D01*
X153540125Y-101518361D01*
X153655121Y-101430121D01*
X153743361Y-101315125D01*
X153758257Y-101279164D01*
X153793839Y-101193259D01*
X153793839Y-101193258D01*
X153798830Y-101181209D01*
X153817750Y-101037500D01*
X153798830Y-100893791D01*
X153759491Y-100798817D01*
X153748353Y-100771926D01*
X153748352Y-100771924D01*
X153743361Y-100759875D01*
X153655121Y-100644879D01*
X153540125Y-100556639D01*
X153528076Y-100551648D01*
X153528074Y-100551647D01*
X153418259Y-100506161D01*
X153418258Y-100506161D01*
X153406209Y-100501170D01*
X153262500Y-100482250D01*
X153118791Y-100501170D01*
X153106742Y-100506161D01*
X153106741Y-100506161D01*
X152996926Y-100551647D01*
X152996924Y-100551648D01*
X152984875Y-100556639D01*
X152869879Y-100644879D01*
X152781639Y-100759875D01*
X152776648Y-100771924D01*
X152776647Y-100771926D01*
X152765509Y-100798817D01*
X152726170Y-100893791D01*
X152707250Y-101037500D01*
X142453181Y-101037500D01*
X142448010Y-101025015D01*
X142410229Y-100933802D01*
X142410228Y-100933800D01*
X142405237Y-100921751D01*
X142316997Y-100806755D01*
X142202001Y-100718515D01*
X142189952Y-100713524D01*
X142189950Y-100713523D01*
X142080135Y-100668037D01*
X142080134Y-100668037D01*
X142068085Y-100663046D01*
X141924376Y-100644126D01*
X141780667Y-100663046D01*
X141768618Y-100668037D01*
X141768617Y-100668037D01*
X141658802Y-100713523D01*
X141658800Y-100713524D01*
X141646751Y-100718515D01*
X141531755Y-100806755D01*
X141443515Y-100921751D01*
X141438524Y-100933800D01*
X141438523Y-100933802D01*
X141400742Y-101025015D01*
X141388046Y-101055667D01*
X141369126Y-101199376D01*
X126563000Y-101199376D01*
X126563000Y-99581204D01*
X126564613Y-99562766D01*
X126564613Y-99554644D01*
X126567636Y-99537500D01*
X126565845Y-99527339D01*
X126567066Y-99511828D01*
X126567663Y-99508061D01*
X126600642Y-99425867D01*
X126666018Y-99366122D01*
X126733061Y-99342663D01*
X126735433Y-99342287D01*
X126736830Y-99342066D01*
X126752339Y-99340845D01*
X126762500Y-99342636D01*
X126779644Y-99339613D01*
X126787766Y-99339613D01*
X126806204Y-99338000D01*
X135718796Y-99338000D01*
X135737230Y-99339613D01*
X135745354Y-99339613D01*
X135762500Y-99342636D01*
X135772303Y-99340907D01*
X135919425Y-99326417D01*
X136005983Y-99300160D01*
X136060965Y-99283482D01*
X136060967Y-99283481D01*
X136070320Y-99280644D01*
X136078935Y-99276039D01*
X136078938Y-99276038D01*
X136187051Y-99218250D01*
X136209386Y-99206312D01*
X136331278Y-99106278D01*
X136431312Y-98984386D01*
X136505644Y-98845320D01*
X136551417Y-98694425D01*
X136559942Y-98607858D01*
X140944250Y-98607858D01*
X140963170Y-98751567D01*
X140968161Y-98763616D01*
X140968161Y-98763617D01*
X141005573Y-98853938D01*
X141018639Y-98885483D01*
X141106879Y-99000479D01*
X141221875Y-99088719D01*
X141233924Y-99093710D01*
X141233926Y-99093711D01*
X141284889Y-99114820D01*
X141355791Y-99144188D01*
X141499500Y-99163108D01*
X141643209Y-99144188D01*
X141714111Y-99114820D01*
X141765074Y-99093711D01*
X141765076Y-99093710D01*
X141777125Y-99088719D01*
X141892121Y-99000479D01*
X141980361Y-98885483D01*
X141993428Y-98853938D01*
X142030839Y-98763617D01*
X142030839Y-98763616D01*
X142035830Y-98751567D01*
X142054750Y-98607858D01*
X142035830Y-98464149D01*
X142030839Y-98452099D01*
X141985353Y-98342284D01*
X141985352Y-98342282D01*
X141980361Y-98330233D01*
X141892121Y-98215237D01*
X141777125Y-98126997D01*
X141765076Y-98122006D01*
X141765074Y-98122005D01*
X141655259Y-98076519D01*
X141655258Y-98076519D01*
X141643209Y-98071528D01*
X141499500Y-98052608D01*
X141355791Y-98071528D01*
X141343742Y-98076519D01*
X141343741Y-98076519D01*
X141233926Y-98122005D01*
X141233924Y-98122006D01*
X141221875Y-98126997D01*
X141106879Y-98215237D01*
X141018639Y-98330233D01*
X141013648Y-98342282D01*
X141013647Y-98342284D01*
X140968161Y-98452099D01*
X140963170Y-98464149D01*
X140944250Y-98607858D01*
X136559942Y-98607858D01*
X136560109Y-98606167D01*
X136561174Y-98599909D01*
X136562383Y-98596878D01*
X136563000Y-98590585D01*
X136563000Y-98585730D01*
X136563238Y-98580861D01*
X136563282Y-98580863D01*
X136563958Y-98567091D01*
X136564611Y-98560459D01*
X136565907Y-98547303D01*
X136567636Y-98537500D01*
X136564613Y-98520354D01*
X136564613Y-98512230D01*
X136563000Y-98493796D01*
X136563000Y-98015453D01*
X156157207Y-98015453D01*
X156173694Y-98301378D01*
X156228832Y-98582420D01*
X156231026Y-98588828D01*
X156231027Y-98588832D01*
X156256421Y-98663000D01*
X156321602Y-98853378D01*
X156324648Y-98859434D01*
X156435973Y-99080779D01*
X156450287Y-99109240D01*
X156612506Y-99345270D01*
X156617063Y-99350278D01*
X156800693Y-99552086D01*
X156800698Y-99552091D01*
X156805256Y-99557100D01*
X156810454Y-99561446D01*
X156810458Y-99561450D01*
X157019774Y-99736465D01*
X157024972Y-99740811D01*
X157030713Y-99744412D01*
X157261845Y-99889401D01*
X157261851Y-99889404D01*
X157267588Y-99893003D01*
X157273760Y-99895790D01*
X157273766Y-99895793D01*
X157438999Y-99970398D01*
X157528614Y-100010861D01*
X157803219Y-100092203D01*
X157962154Y-100116523D01*
X158079624Y-100134499D01*
X158079627Y-100134499D01*
X158086324Y-100135524D01*
X158372689Y-100140023D01*
X158379413Y-100139209D01*
X158379419Y-100139209D01*
X158557267Y-100117686D01*
X158657014Y-100105615D01*
X158934039Y-100032939D01*
X158975504Y-100015764D01*
X159192371Y-99925935D01*
X159192373Y-99925934D01*
X159198638Y-99923339D01*
X159204489Y-99919920D01*
X159204493Y-99919918D01*
X159440071Y-99782257D01*
X159445915Y-99778842D01*
X159671293Y-99602123D01*
X159870602Y-99396452D01*
X160019069Y-99194339D01*
X160036148Y-99171089D01*
X160036149Y-99171088D01*
X160040155Y-99165634D01*
X160176813Y-98913941D01*
X160187567Y-98885483D01*
X160275653Y-98652369D01*
X160275654Y-98652365D01*
X160278048Y-98646030D01*
X160290995Y-98589503D01*
X160337746Y-98385375D01*
X160341987Y-98366858D01*
X160364960Y-98109453D01*
X160367098Y-98085493D01*
X160367098Y-98085489D01*
X160367446Y-98081592D01*
X160367908Y-98037500D01*
X160365411Y-98000864D01*
X160353353Y-97824000D01*
X160348428Y-97751763D01*
X160300375Y-97519725D01*
X160291725Y-97477953D01*
X160291724Y-97477951D01*
X160290350Y-97471314D01*
X160282842Y-97450110D01*
X160197008Y-97207723D01*
X160197006Y-97207718D01*
X160194748Y-97201342D01*
X160063391Y-96946842D01*
X160054390Y-96934034D01*
X159957257Y-96795829D01*
X159898709Y-96712524D01*
X159894103Y-96707567D01*
X159894097Y-96707560D01*
X159708368Y-96507692D01*
X159708364Y-96507689D01*
X159703751Y-96502724D01*
X159482123Y-96321323D01*
X159237927Y-96171680D01*
X158975682Y-96056562D01*
X158700239Y-95978100D01*
X158416696Y-95937746D01*
X158276435Y-95937012D01*
X158137082Y-95936282D01*
X158137075Y-95936282D01*
X158130300Y-95936247D01*
X157846351Y-95973629D01*
X157839818Y-95975416D01*
X157839814Y-95975417D01*
X157576633Y-96047415D01*
X157576629Y-96047417D01*
X157570102Y-96049202D01*
X157563872Y-96051859D01*
X157563870Y-96051860D01*
X157471998Y-96091047D01*
X157306665Y-96161568D01*
X157300847Y-96165050D01*
X157300845Y-96165051D01*
X157076645Y-96299232D01*
X157060915Y-96308646D01*
X156837400Y-96487715D01*
X156794654Y-96532760D01*
X156650713Y-96684442D01*
X156640255Y-96695462D01*
X156636305Y-96700959D01*
X156481656Y-96916177D01*
X156473129Y-96928043D01*
X156339114Y-97181153D01*
X156240690Y-97450110D01*
X156179678Y-97729936D01*
X156179147Y-97736688D01*
X156179146Y-97736692D01*
X156173764Y-97805080D01*
X156158355Y-98000864D01*
X156157207Y-98015453D01*
X136563000Y-98015453D01*
X136563000Y-97268750D01*
X152707250Y-97268750D01*
X152726170Y-97412459D01*
X152731161Y-97424508D01*
X152731161Y-97424509D01*
X152762915Y-97501170D01*
X152781639Y-97546375D01*
X152869879Y-97661371D01*
X152984875Y-97749611D01*
X152996924Y-97754602D01*
X152996926Y-97754603D01*
X153088644Y-97792593D01*
X153118791Y-97805080D01*
X153262500Y-97824000D01*
X153406209Y-97805080D01*
X153436356Y-97792593D01*
X153528074Y-97754603D01*
X153528076Y-97754602D01*
X153540125Y-97749611D01*
X153655121Y-97661371D01*
X153743361Y-97546375D01*
X153762086Y-97501170D01*
X153793839Y-97424509D01*
X153793839Y-97424508D01*
X153798830Y-97412459D01*
X153817750Y-97268750D01*
X153798830Y-97125041D01*
X153743361Y-96991125D01*
X153655121Y-96876129D01*
X153540125Y-96787889D01*
X153528076Y-96782898D01*
X153528074Y-96782897D01*
X153418259Y-96737411D01*
X153418258Y-96737411D01*
X153406209Y-96732420D01*
X153262500Y-96713500D01*
X153118791Y-96732420D01*
X153106742Y-96737411D01*
X153106741Y-96737411D01*
X152996926Y-96782897D01*
X152996924Y-96782898D01*
X152984875Y-96787889D01*
X152869879Y-96876129D01*
X152781639Y-96991125D01*
X152726170Y-97125041D01*
X152707250Y-97268750D01*
X136563000Y-97268750D01*
X136563000Y-95537500D01*
X189707250Y-95537500D01*
X189726170Y-95681209D01*
X189781639Y-95815125D01*
X189869879Y-95930121D01*
X189984875Y-96018361D01*
X189996924Y-96023352D01*
X189996926Y-96023353D01*
X190106741Y-96068839D01*
X190118791Y-96073830D01*
X190262500Y-96092750D01*
X190406209Y-96073830D01*
X190418259Y-96068839D01*
X190528074Y-96023353D01*
X190528076Y-96023352D01*
X190540125Y-96018361D01*
X190655121Y-95930121D01*
X190743361Y-95815125D01*
X190798830Y-95681209D01*
X190817750Y-95537500D01*
X190798830Y-95393791D01*
X190743361Y-95259875D01*
X190655121Y-95144879D01*
X190540314Y-95056784D01*
X192699500Y-95056784D01*
X192714365Y-95226692D01*
X192716612Y-95235077D01*
X192716613Y-95235084D01*
X192723256Y-95259875D01*
X192773261Y-95446496D01*
X192869432Y-95652734D01*
X192874416Y-95659852D01*
X192994969Y-95832022D01*
X192994973Y-95832027D01*
X192999953Y-95839139D01*
X193160861Y-96000047D01*
X193167973Y-96005027D01*
X193167978Y-96005031D01*
X193293256Y-96092750D01*
X193347266Y-96130568D01*
X193553504Y-96226739D01*
X193561901Y-96228989D01*
X193764916Y-96283387D01*
X193764923Y-96283388D01*
X193773308Y-96285635D01*
X193781959Y-96286392D01*
X193781960Y-96286392D01*
X193991347Y-96304711D01*
X194000000Y-96305468D01*
X194008653Y-96304711D01*
X194218040Y-96286392D01*
X194218041Y-96286392D01*
X194226692Y-96285635D01*
X194235077Y-96283388D01*
X194235084Y-96283387D01*
X194438099Y-96228989D01*
X194446496Y-96226739D01*
X194652734Y-96130568D01*
X194706744Y-96092750D01*
X194832022Y-96005031D01*
X194832027Y-96005027D01*
X194839139Y-96000047D01*
X195000047Y-95839139D01*
X195005027Y-95832027D01*
X195005031Y-95832022D01*
X195125584Y-95659852D01*
X195130568Y-95652734D01*
X195226739Y-95446496D01*
X195276744Y-95259875D01*
X195283387Y-95235084D01*
X195283388Y-95235077D01*
X195285635Y-95226692D01*
X195300500Y-95056784D01*
X195300500Y-93943216D01*
X195285635Y-93773308D01*
X195283388Y-93764923D01*
X195283387Y-93764916D01*
X195228989Y-93561901D01*
X195226739Y-93553504D01*
X195130568Y-93347266D01*
X195125584Y-93340148D01*
X195005031Y-93167978D01*
X195005027Y-93167973D01*
X195000047Y-93160861D01*
X194839139Y-92999953D01*
X194832027Y-92994973D01*
X194832022Y-92994969D01*
X194659852Y-92874416D01*
X194652734Y-92869432D01*
X194446496Y-92773261D01*
X194438099Y-92771011D01*
X194235084Y-92716613D01*
X194235077Y-92716612D01*
X194226692Y-92714365D01*
X194218041Y-92713608D01*
X194218040Y-92713608D01*
X194008653Y-92695289D01*
X194000000Y-92694532D01*
X193991347Y-92695289D01*
X193781960Y-92713608D01*
X193781959Y-92713608D01*
X193773308Y-92714365D01*
X193764923Y-92716612D01*
X193764916Y-92716613D01*
X193561901Y-92771011D01*
X193553504Y-92773261D01*
X193347266Y-92869432D01*
X193340148Y-92874416D01*
X193167978Y-92994969D01*
X193167973Y-92994973D01*
X193160861Y-92999953D01*
X192999953Y-93160861D01*
X192994973Y-93167973D01*
X192994969Y-93167978D01*
X192874416Y-93340148D01*
X192869432Y-93347266D01*
X192773261Y-93553504D01*
X192771011Y-93561901D01*
X192716613Y-93764916D01*
X192716612Y-93764923D01*
X192714365Y-93773308D01*
X192699500Y-93943216D01*
X192699500Y-95056784D01*
X190540314Y-95056784D01*
X190540125Y-95056639D01*
X190528076Y-95051648D01*
X190528074Y-95051647D01*
X190418259Y-95006161D01*
X190418258Y-95006161D01*
X190406209Y-95001170D01*
X190262500Y-94982250D01*
X190118791Y-95001170D01*
X190106742Y-95006161D01*
X190106741Y-95006161D01*
X189996926Y-95051647D01*
X189996924Y-95051648D01*
X189984875Y-95056639D01*
X189869879Y-95144879D01*
X189781639Y-95259875D01*
X189726170Y-95393791D01*
X189707250Y-95537500D01*
X136563000Y-95537500D01*
X136563000Y-92037500D01*
X188207250Y-92037500D01*
X188226170Y-92181209D01*
X188281639Y-92315125D01*
X188369879Y-92430121D01*
X188484875Y-92518361D01*
X188496924Y-92523352D01*
X188496926Y-92523353D01*
X188606741Y-92568839D01*
X188618791Y-92573830D01*
X188762500Y-92592750D01*
X188906209Y-92573830D01*
X188918259Y-92568839D01*
X189028074Y-92523353D01*
X189028076Y-92523352D01*
X189040125Y-92518361D01*
X189155121Y-92430121D01*
X189243361Y-92315125D01*
X189298830Y-92181209D01*
X189317750Y-92037500D01*
X189298830Y-91893791D01*
X189243361Y-91759875D01*
X189155121Y-91644879D01*
X189040125Y-91556639D01*
X189028076Y-91551648D01*
X189028074Y-91551647D01*
X188918259Y-91506161D01*
X188918258Y-91506161D01*
X188906209Y-91501170D01*
X188762500Y-91482250D01*
X188618791Y-91501170D01*
X188606742Y-91506161D01*
X188606741Y-91506161D01*
X188496926Y-91551647D01*
X188496924Y-91551648D01*
X188484875Y-91556639D01*
X188369879Y-91644879D01*
X188281639Y-91759875D01*
X188226170Y-91893791D01*
X188207250Y-92037500D01*
X136563000Y-92037500D01*
X136563000Y-88056784D01*
X192699500Y-88056784D01*
X192714365Y-88226692D01*
X192716612Y-88235077D01*
X192716613Y-88235084D01*
X192771011Y-88438099D01*
X192773261Y-88446496D01*
X192869432Y-88652734D01*
X192874416Y-88659852D01*
X192994969Y-88832022D01*
X192994973Y-88832027D01*
X192999953Y-88839139D01*
X193160861Y-89000047D01*
X193167973Y-89005027D01*
X193167978Y-89005031D01*
X193340148Y-89125584D01*
X193347266Y-89130568D01*
X193553504Y-89226739D01*
X193561901Y-89228989D01*
X193764916Y-89283387D01*
X193764923Y-89283388D01*
X193773308Y-89285635D01*
X193781959Y-89286392D01*
X193781960Y-89286392D01*
X193991347Y-89304711D01*
X194000000Y-89305468D01*
X194008653Y-89304711D01*
X194218040Y-89286392D01*
X194218041Y-89286392D01*
X194226692Y-89285635D01*
X194235077Y-89283388D01*
X194235084Y-89283387D01*
X194438099Y-89228989D01*
X194446496Y-89226739D01*
X194652734Y-89130568D01*
X194659852Y-89125584D01*
X194832022Y-89005031D01*
X194832027Y-89005027D01*
X194839139Y-89000047D01*
X195000047Y-88839139D01*
X195005027Y-88832027D01*
X195005031Y-88832022D01*
X195125584Y-88659852D01*
X195130568Y-88652734D01*
X195226739Y-88446496D01*
X195228989Y-88438099D01*
X195283387Y-88235084D01*
X195283388Y-88235077D01*
X195285635Y-88226692D01*
X195300500Y-88056784D01*
X195300500Y-86943216D01*
X195285635Y-86773308D01*
X195283388Y-86764923D01*
X195283387Y-86764916D01*
X195228989Y-86561901D01*
X195226739Y-86553504D01*
X195130568Y-86347266D01*
X195062132Y-86249528D01*
X195005031Y-86167978D01*
X195005027Y-86167973D01*
X195000047Y-86160861D01*
X194839139Y-85999953D01*
X194832027Y-85994973D01*
X194832022Y-85994969D01*
X194659852Y-85874416D01*
X194652734Y-85869432D01*
X194446496Y-85773261D01*
X194438099Y-85771011D01*
X194235084Y-85716613D01*
X194235077Y-85716612D01*
X194226692Y-85714365D01*
X194218041Y-85713608D01*
X194218040Y-85713608D01*
X194008653Y-85695289D01*
X194000000Y-85694532D01*
X193991347Y-85695289D01*
X193781960Y-85713608D01*
X193781959Y-85713608D01*
X193773308Y-85714365D01*
X193764923Y-85716612D01*
X193764916Y-85716613D01*
X193561901Y-85771011D01*
X193553504Y-85773261D01*
X193347266Y-85869432D01*
X193340148Y-85874416D01*
X193167978Y-85994969D01*
X193167973Y-85994973D01*
X193160861Y-85999953D01*
X192999953Y-86160861D01*
X192994973Y-86167973D01*
X192994969Y-86167978D01*
X192937868Y-86249528D01*
X192869432Y-86347266D01*
X192773261Y-86553504D01*
X192771011Y-86561901D01*
X192716613Y-86764916D01*
X192716612Y-86764923D01*
X192714365Y-86773308D01*
X192699500Y-86943216D01*
X192699500Y-88056784D01*
X136563000Y-88056784D01*
X136563000Y-87037500D01*
X156207250Y-87037500D01*
X156226170Y-87181209D01*
X156281639Y-87315125D01*
X156369879Y-87430121D01*
X156484875Y-87518361D01*
X156496924Y-87523352D01*
X156496926Y-87523353D01*
X156606741Y-87568839D01*
X156618791Y-87573830D01*
X156762500Y-87592750D01*
X156906209Y-87573830D01*
X156918259Y-87568839D01*
X157028074Y-87523353D01*
X157028076Y-87523352D01*
X157040125Y-87518361D01*
X157155121Y-87430121D01*
X157243361Y-87315125D01*
X157298830Y-87181209D01*
X157317750Y-87037500D01*
X179207250Y-87037500D01*
X179226170Y-87181209D01*
X179281639Y-87315125D01*
X179369879Y-87430121D01*
X179484875Y-87518361D01*
X179496924Y-87523352D01*
X179496926Y-87523353D01*
X179606741Y-87568839D01*
X179618791Y-87573830D01*
X179762500Y-87592750D01*
X179906209Y-87573830D01*
X179918259Y-87568839D01*
X180028074Y-87523353D01*
X180028076Y-87523352D01*
X180040125Y-87518361D01*
X180155121Y-87430121D01*
X180243361Y-87315125D01*
X180298830Y-87181209D01*
X180317750Y-87037500D01*
X180298830Y-86893791D01*
X180266246Y-86815125D01*
X180248353Y-86771926D01*
X180248352Y-86771924D01*
X180243361Y-86759875D01*
X180155121Y-86644879D01*
X180040125Y-86556639D01*
X180028076Y-86551648D01*
X180028074Y-86551647D01*
X179993919Y-86537500D01*
X186207250Y-86537500D01*
X186226170Y-86681209D01*
X186231161Y-86693258D01*
X186231161Y-86693259D01*
X186267902Y-86781960D01*
X186281639Y-86815125D01*
X186369879Y-86930121D01*
X186484875Y-87018361D01*
X186496924Y-87023352D01*
X186496926Y-87023353D01*
X186606741Y-87068839D01*
X186618791Y-87073830D01*
X186762500Y-87092750D01*
X186906209Y-87073830D01*
X186918259Y-87068839D01*
X187028074Y-87023353D01*
X187028076Y-87023352D01*
X187040125Y-87018361D01*
X187155121Y-86930121D01*
X187243361Y-86815125D01*
X187257099Y-86781960D01*
X187293839Y-86693259D01*
X187293839Y-86693258D01*
X187298830Y-86681209D01*
X187317750Y-86537500D01*
X187298830Y-86393791D01*
X187243361Y-86259875D01*
X187155121Y-86144879D01*
X187040125Y-86056639D01*
X187028076Y-86051648D01*
X187028074Y-86051647D01*
X186918259Y-86006161D01*
X186918258Y-86006161D01*
X186906209Y-86001170D01*
X186762500Y-85982250D01*
X186618791Y-86001170D01*
X186606742Y-86006161D01*
X186606741Y-86006161D01*
X186496926Y-86051647D01*
X186496924Y-86051648D01*
X186484875Y-86056639D01*
X186369879Y-86144879D01*
X186281639Y-86259875D01*
X186226170Y-86393791D01*
X186207250Y-86537500D01*
X179993919Y-86537500D01*
X179918259Y-86506161D01*
X179918258Y-86506161D01*
X179906209Y-86501170D01*
X179781846Y-86484797D01*
X179767110Y-86479329D01*
X179743154Y-86484797D01*
X179618791Y-86501170D01*
X179606742Y-86506161D01*
X179606741Y-86506161D01*
X179496926Y-86551647D01*
X179496924Y-86551648D01*
X179484875Y-86556639D01*
X179369879Y-86644879D01*
X179281639Y-86759875D01*
X179276648Y-86771924D01*
X179276647Y-86771926D01*
X179258754Y-86815125D01*
X179226170Y-86893791D01*
X179207250Y-87037500D01*
X157317750Y-87037500D01*
X157298830Y-86893791D01*
X157266246Y-86815125D01*
X157248353Y-86771926D01*
X157248352Y-86771924D01*
X157243361Y-86759875D01*
X157155121Y-86644879D01*
X157040125Y-86556639D01*
X157028076Y-86551648D01*
X157028074Y-86551647D01*
X156918259Y-86506161D01*
X156918258Y-86506161D01*
X156906209Y-86501170D01*
X156781846Y-86484797D01*
X156767110Y-86479329D01*
X156743154Y-86484797D01*
X156618791Y-86501170D01*
X156606742Y-86506161D01*
X156606741Y-86506161D01*
X156496926Y-86551647D01*
X156496924Y-86551648D01*
X156484875Y-86556639D01*
X156369879Y-86644879D01*
X156281639Y-86759875D01*
X156276648Y-86771924D01*
X156276647Y-86771926D01*
X156258754Y-86815125D01*
X156226170Y-86893791D01*
X156207250Y-87037500D01*
X136563000Y-87037500D01*
X136563000Y-85537500D01*
X156207250Y-85537500D01*
X156226170Y-85681209D01*
X156231161Y-85693258D01*
X156231161Y-85693259D01*
X156264299Y-85773261D01*
X156281639Y-85815125D01*
X156369879Y-85930121D01*
X156484875Y-86018361D01*
X156496924Y-86023352D01*
X156496926Y-86023353D01*
X156606741Y-86068839D01*
X156618791Y-86073830D01*
X156743154Y-86090203D01*
X156757890Y-86095671D01*
X156781846Y-86090203D01*
X156906209Y-86073830D01*
X156918259Y-86068839D01*
X157028074Y-86023353D01*
X157028076Y-86023352D01*
X157040125Y-86018361D01*
X157155121Y-85930121D01*
X157243361Y-85815125D01*
X157260702Y-85773261D01*
X157293839Y-85693259D01*
X157293839Y-85693258D01*
X157298830Y-85681209D01*
X157317750Y-85537500D01*
X179207250Y-85537500D01*
X179226170Y-85681209D01*
X179231161Y-85693258D01*
X179231161Y-85693259D01*
X179264299Y-85773261D01*
X179281639Y-85815125D01*
X179369879Y-85930121D01*
X179484875Y-86018361D01*
X179496924Y-86023352D01*
X179496926Y-86023353D01*
X179606741Y-86068839D01*
X179618791Y-86073830D01*
X179743154Y-86090203D01*
X179757890Y-86095671D01*
X179781846Y-86090203D01*
X179906209Y-86073830D01*
X179918259Y-86068839D01*
X180028074Y-86023353D01*
X180028076Y-86023352D01*
X180040125Y-86018361D01*
X180155121Y-85930121D01*
X180243361Y-85815125D01*
X180260702Y-85773261D01*
X180293839Y-85693259D01*
X180293839Y-85693258D01*
X180298830Y-85681209D01*
X180317750Y-85537500D01*
X180298830Y-85393791D01*
X180243361Y-85259875D01*
X180155121Y-85144879D01*
X180040125Y-85056639D01*
X180028076Y-85051648D01*
X180028074Y-85051647D01*
X179918259Y-85006161D01*
X179918258Y-85006161D01*
X179906209Y-85001170D01*
X179781846Y-84984797D01*
X179767110Y-84979329D01*
X179743154Y-84984797D01*
X179618791Y-85001170D01*
X179606742Y-85006161D01*
X179606741Y-85006161D01*
X179496926Y-85051647D01*
X179496924Y-85051648D01*
X179484875Y-85056639D01*
X179369879Y-85144879D01*
X179281639Y-85259875D01*
X179226170Y-85393791D01*
X179207250Y-85537500D01*
X157317750Y-85537500D01*
X157298830Y-85393791D01*
X157243361Y-85259875D01*
X157155121Y-85144879D01*
X157040125Y-85056639D01*
X157028076Y-85051648D01*
X157028074Y-85051647D01*
X156918259Y-85006161D01*
X156918258Y-85006161D01*
X156906209Y-85001170D01*
X156781846Y-84984797D01*
X156767110Y-84979329D01*
X156743154Y-84984797D01*
X156618791Y-85001170D01*
X156606742Y-85006161D01*
X156606741Y-85006161D01*
X156496926Y-85051647D01*
X156496924Y-85051648D01*
X156484875Y-85056639D01*
X156369879Y-85144879D01*
X156281639Y-85259875D01*
X156226170Y-85393791D01*
X156207250Y-85537500D01*
X136563000Y-85537500D01*
X136563000Y-84037500D01*
X156207250Y-84037500D01*
X156226170Y-84181209D01*
X156281639Y-84315125D01*
X156369879Y-84430121D01*
X156484875Y-84518361D01*
X156496924Y-84523352D01*
X156496926Y-84523353D01*
X156606741Y-84568839D01*
X156618791Y-84573830D01*
X156743154Y-84590203D01*
X156757890Y-84595671D01*
X156781846Y-84590203D01*
X156906209Y-84573830D01*
X156918259Y-84568839D01*
X157028074Y-84523353D01*
X157028076Y-84523352D01*
X157040125Y-84518361D01*
X157155121Y-84430121D01*
X157243361Y-84315125D01*
X157275514Y-84237500D01*
X172607750Y-84237500D01*
X172626670Y-84381209D01*
X172631661Y-84393258D01*
X172631661Y-84393259D01*
X172650218Y-84438059D01*
X172682139Y-84515125D01*
X172770379Y-84630121D01*
X172885375Y-84718361D01*
X172897424Y-84723352D01*
X172897426Y-84723353D01*
X173007241Y-84768839D01*
X173019291Y-84773830D01*
X173163000Y-84792750D01*
X173306709Y-84773830D01*
X173318759Y-84768839D01*
X173428574Y-84723353D01*
X173428576Y-84723352D01*
X173440625Y-84718361D01*
X173555621Y-84630121D01*
X173643861Y-84515125D01*
X173675783Y-84438059D01*
X173694339Y-84393259D01*
X173694339Y-84393258D01*
X173699330Y-84381209D01*
X173718250Y-84237500D01*
X173699330Y-84093791D01*
X173676014Y-84037500D01*
X179207250Y-84037500D01*
X179226170Y-84181209D01*
X179281639Y-84315125D01*
X179369879Y-84430121D01*
X179484875Y-84518361D01*
X179496924Y-84523352D01*
X179496926Y-84523353D01*
X179606741Y-84568839D01*
X179618791Y-84573830D01*
X179743154Y-84590203D01*
X179757890Y-84595671D01*
X179781846Y-84590203D01*
X179906209Y-84573830D01*
X179918259Y-84568839D01*
X180028074Y-84523353D01*
X180028076Y-84523352D01*
X180040125Y-84518361D01*
X180155121Y-84430121D01*
X180243361Y-84315125D01*
X180298830Y-84181209D01*
X180317750Y-84037500D01*
X180298830Y-83893791D01*
X180290604Y-83873932D01*
X180248353Y-83771926D01*
X180248352Y-83771924D01*
X180243361Y-83759875D01*
X180155121Y-83644879D01*
X180040125Y-83556639D01*
X180028076Y-83551648D01*
X180028074Y-83551647D01*
X179918259Y-83506161D01*
X179918258Y-83506161D01*
X179906209Y-83501170D01*
X179762500Y-83482250D01*
X179618791Y-83501170D01*
X179606742Y-83506161D01*
X179606741Y-83506161D01*
X179496926Y-83551647D01*
X179496924Y-83551648D01*
X179484875Y-83556639D01*
X179369879Y-83644879D01*
X179281639Y-83759875D01*
X179276648Y-83771924D01*
X179276647Y-83771926D01*
X179234396Y-83873932D01*
X179226170Y-83893791D01*
X179207250Y-84037500D01*
X173676014Y-84037500D01*
X173643861Y-83959875D01*
X173555621Y-83844879D01*
X173518151Y-83816127D01*
X173461649Y-83747929D01*
X173440332Y-83661969D01*
X173458422Y-83575273D01*
X173512337Y-83505012D01*
X173591398Y-83465102D01*
X173613299Y-83460957D01*
X173735120Y-83444919D01*
X173751682Y-83438059D01*
X173856985Y-83394442D01*
X173856987Y-83394441D01*
X173869036Y-83389450D01*
X173984032Y-83301210D01*
X174072272Y-83186214D01*
X174079702Y-83168278D01*
X174122750Y-83064348D01*
X174122750Y-83064347D01*
X174127741Y-83052298D01*
X174129689Y-83037500D01*
X186207250Y-83037500D01*
X186226170Y-83181209D01*
X186231161Y-83193258D01*
X186231161Y-83193259D01*
X186267357Y-83280644D01*
X186281639Y-83315125D01*
X186369879Y-83430121D01*
X186484875Y-83518361D01*
X186496924Y-83523352D01*
X186496926Y-83523353D01*
X186606741Y-83568839D01*
X186618791Y-83573830D01*
X186762500Y-83592750D01*
X186906209Y-83573830D01*
X186918259Y-83568839D01*
X187028074Y-83523353D01*
X187028076Y-83523352D01*
X187040125Y-83518361D01*
X187155121Y-83430121D01*
X187243361Y-83315125D01*
X187257644Y-83280644D01*
X187293839Y-83193259D01*
X187293839Y-83193258D01*
X187298830Y-83181209D01*
X187317750Y-83037500D01*
X187298830Y-82893791D01*
X187288432Y-82868688D01*
X187248353Y-82771926D01*
X187248352Y-82771924D01*
X187243361Y-82759875D01*
X187155121Y-82644879D01*
X187040125Y-82556639D01*
X187028076Y-82551648D01*
X187028074Y-82551647D01*
X186918259Y-82506161D01*
X186918258Y-82506161D01*
X186906209Y-82501170D01*
X186781846Y-82484797D01*
X186767110Y-82479329D01*
X186743154Y-82484797D01*
X186618791Y-82501170D01*
X186606742Y-82506161D01*
X186606741Y-82506161D01*
X186496926Y-82551647D01*
X186496924Y-82551648D01*
X186484875Y-82556639D01*
X186369879Y-82644879D01*
X186281639Y-82759875D01*
X186276648Y-82771924D01*
X186276647Y-82771926D01*
X186236568Y-82868688D01*
X186226170Y-82893791D01*
X186207250Y-83037500D01*
X174129689Y-83037500D01*
X174146661Y-82908589D01*
X174127741Y-82764880D01*
X174119233Y-82744339D01*
X174077264Y-82643015D01*
X174077263Y-82643013D01*
X174072272Y-82630964D01*
X173984032Y-82515968D01*
X173869036Y-82427728D01*
X173856987Y-82422737D01*
X173856985Y-82422736D01*
X173747170Y-82377250D01*
X173747169Y-82377250D01*
X173735120Y-82372259D01*
X173591411Y-82353339D01*
X173447702Y-82372259D01*
X173435653Y-82377250D01*
X173435652Y-82377250D01*
X173325837Y-82422736D01*
X173325835Y-82422737D01*
X173313786Y-82427728D01*
X173198790Y-82515968D01*
X173110550Y-82630964D01*
X173105559Y-82643013D01*
X173105558Y-82643015D01*
X173063589Y-82744339D01*
X173055081Y-82764880D01*
X173036161Y-82908589D01*
X173055081Y-83052298D01*
X173060072Y-83064347D01*
X173060072Y-83064348D01*
X173103121Y-83168278D01*
X173110550Y-83186214D01*
X173198790Y-83301210D01*
X173209134Y-83309147D01*
X173236260Y-83329962D01*
X173292762Y-83398160D01*
X173314079Y-83484120D01*
X173295989Y-83570816D01*
X173242074Y-83641077D01*
X173163013Y-83680987D01*
X173141112Y-83685132D01*
X173019291Y-83701170D01*
X173007242Y-83706161D01*
X173007241Y-83706161D01*
X172897426Y-83751647D01*
X172897424Y-83751648D01*
X172885375Y-83756639D01*
X172770379Y-83844879D01*
X172682139Y-83959875D01*
X172626670Y-84093791D01*
X172607750Y-84237500D01*
X157275514Y-84237500D01*
X157298830Y-84181209D01*
X157317750Y-84037500D01*
X157298830Y-83893791D01*
X157290604Y-83873932D01*
X157248353Y-83771926D01*
X157248352Y-83771924D01*
X157243361Y-83759875D01*
X157155121Y-83644879D01*
X157040125Y-83556639D01*
X157028076Y-83551648D01*
X157028074Y-83551647D01*
X156918259Y-83506161D01*
X156918258Y-83506161D01*
X156906209Y-83501170D01*
X156762500Y-83482250D01*
X156618791Y-83501170D01*
X156606742Y-83506161D01*
X156606741Y-83506161D01*
X156496926Y-83551647D01*
X156496924Y-83551648D01*
X156484875Y-83556639D01*
X156369879Y-83644879D01*
X156281639Y-83759875D01*
X156276648Y-83771924D01*
X156276647Y-83771926D01*
X156234396Y-83873932D01*
X156226170Y-83893791D01*
X156207250Y-84037500D01*
X136563000Y-84037500D01*
X136563000Y-83581204D01*
X136564613Y-83562770D01*
X136564613Y-83554646D01*
X136567636Y-83537500D01*
X136565907Y-83527697D01*
X136560557Y-83473373D01*
X157707250Y-83473373D01*
X157726170Y-83617082D01*
X157731161Y-83629131D01*
X157731161Y-83629132D01*
X157760296Y-83699470D01*
X157781639Y-83750998D01*
X157869879Y-83865994D01*
X157984875Y-83954234D01*
X157996924Y-83959225D01*
X157996926Y-83959226D01*
X158106741Y-84004712D01*
X158118791Y-84009703D01*
X158262500Y-84028623D01*
X158406209Y-84009703D01*
X158418259Y-84004712D01*
X158528074Y-83959226D01*
X158528076Y-83959225D01*
X158540125Y-83954234D01*
X158655121Y-83865994D01*
X158743361Y-83750998D01*
X158764705Y-83699470D01*
X158793839Y-83629132D01*
X158793839Y-83629131D01*
X158798830Y-83617082D01*
X158817750Y-83473373D01*
X158798830Y-83329664D01*
X158755673Y-83225472D01*
X158748353Y-83207799D01*
X158748352Y-83207797D01*
X158743361Y-83195748D01*
X158655121Y-83080752D01*
X158540125Y-82992512D01*
X158528076Y-82987521D01*
X158528074Y-82987520D01*
X158418259Y-82942034D01*
X158418258Y-82942034D01*
X158406209Y-82937043D01*
X158262500Y-82918123D01*
X158118791Y-82937043D01*
X158106742Y-82942034D01*
X158106741Y-82942034D01*
X157996926Y-82987520D01*
X157996924Y-82987521D01*
X157984875Y-82992512D01*
X157869879Y-83080752D01*
X157781639Y-83195748D01*
X157776648Y-83207797D01*
X157776647Y-83207799D01*
X157769327Y-83225472D01*
X157726170Y-83329664D01*
X157707250Y-83473373D01*
X136560557Y-83473373D01*
X136551417Y-83380575D01*
X136505644Y-83229680D01*
X136497865Y-83215125D01*
X136468478Y-83160147D01*
X136431312Y-83090614D01*
X136331278Y-82968722D01*
X136209386Y-82868688D01*
X136139853Y-82831522D01*
X136078938Y-82798962D01*
X136078935Y-82798961D01*
X136070320Y-82794356D01*
X136060967Y-82791519D01*
X136060965Y-82791518D01*
X135978645Y-82766547D01*
X135919425Y-82748583D01*
X135831167Y-82739891D01*
X135824909Y-82738826D01*
X135821878Y-82737617D01*
X135815585Y-82737000D01*
X135810730Y-82737000D01*
X135805861Y-82736762D01*
X135805863Y-82736718D01*
X135792093Y-82736042D01*
X135772303Y-82734093D01*
X135762500Y-82732364D01*
X135745354Y-82735387D01*
X135737230Y-82735387D01*
X135718796Y-82737000D01*
X126806204Y-82737000D01*
X126787766Y-82735387D01*
X126779644Y-82735387D01*
X126762500Y-82732364D01*
X126752339Y-82734155D01*
X126736830Y-82732934D01*
X126735433Y-82732713D01*
X126733061Y-82732337D01*
X126650867Y-82699358D01*
X126591122Y-82633982D01*
X126567663Y-82566939D01*
X126567066Y-82563172D01*
X126565845Y-82547661D01*
X126567636Y-82537500D01*
X126564613Y-82520356D01*
X126564613Y-82512234D01*
X126563000Y-82493796D01*
X126563000Y-82213000D01*
X148007250Y-82213000D01*
X148026170Y-82356709D01*
X148031161Y-82368758D01*
X148031161Y-82368759D01*
X148067500Y-82456489D01*
X148081639Y-82490625D01*
X148169879Y-82605621D01*
X148284875Y-82693861D01*
X148296924Y-82698852D01*
X148296926Y-82698853D01*
X148406741Y-82744339D01*
X148418791Y-82749330D01*
X148562500Y-82768250D01*
X148706209Y-82749330D01*
X148718259Y-82744339D01*
X148828074Y-82698853D01*
X148828076Y-82698852D01*
X148840125Y-82693861D01*
X148955121Y-82605621D01*
X149043361Y-82490625D01*
X149057501Y-82456489D01*
X149093839Y-82368759D01*
X149093839Y-82368758D01*
X149098830Y-82356709D01*
X149117750Y-82213000D01*
X149098830Y-82069291D01*
X149079802Y-82023353D01*
X149048353Y-81947426D01*
X149048352Y-81947424D01*
X149043361Y-81935375D01*
X148955121Y-81820379D01*
X148840125Y-81732139D01*
X148828076Y-81727148D01*
X148828074Y-81727147D01*
X148718259Y-81681661D01*
X148718258Y-81681661D01*
X148706209Y-81676670D01*
X148562500Y-81657750D01*
X148418791Y-81676670D01*
X148406742Y-81681661D01*
X148406741Y-81681661D01*
X148296926Y-81727147D01*
X148296924Y-81727148D01*
X148284875Y-81732139D01*
X148169879Y-81820379D01*
X148081639Y-81935375D01*
X148076648Y-81947424D01*
X148076647Y-81947426D01*
X148045198Y-82023353D01*
X148026170Y-82069291D01*
X148007250Y-82213000D01*
X126563000Y-82213000D01*
X126563000Y-81576056D01*
X163468694Y-81576056D01*
X163487614Y-81719765D01*
X163492605Y-81731814D01*
X163492605Y-81731815D01*
X163531399Y-81825472D01*
X163543083Y-81853681D01*
X163631323Y-81968677D01*
X163746319Y-82056917D01*
X163758368Y-82061908D01*
X163758370Y-82061909D01*
X163868185Y-82107395D01*
X163880235Y-82112386D01*
X164023944Y-82131306D01*
X164167653Y-82112386D01*
X164179703Y-82107395D01*
X164289518Y-82061909D01*
X164289520Y-82061908D01*
X164301569Y-82056917D01*
X164416565Y-81968677D01*
X164504805Y-81853681D01*
X164516490Y-81825472D01*
X164555283Y-81731815D01*
X164555283Y-81731814D01*
X164560274Y-81719765D01*
X164566210Y-81674676D01*
X165603062Y-81674676D01*
X165621982Y-81818385D01*
X165626973Y-81830434D01*
X165626973Y-81830435D01*
X165671552Y-81938059D01*
X165677451Y-81952301D01*
X165765691Y-82067297D01*
X165880687Y-82155537D01*
X165892736Y-82160528D01*
X165892738Y-82160529D01*
X166002553Y-82206015D01*
X166014603Y-82211006D01*
X166158312Y-82229926D01*
X166302021Y-82211006D01*
X166314071Y-82206015D01*
X166423886Y-82160529D01*
X166423888Y-82160528D01*
X166435937Y-82155537D01*
X166550933Y-82067297D01*
X166551285Y-82067756D01*
X166617614Y-82026078D01*
X166705621Y-82016162D01*
X166789214Y-82045413D01*
X166841215Y-82092765D01*
X166869879Y-82130121D01*
X166984875Y-82218361D01*
X166996924Y-82223352D01*
X166996926Y-82223353D01*
X167031081Y-82237500D01*
X167118791Y-82273830D01*
X167262500Y-82292750D01*
X167326400Y-82284337D01*
X167414574Y-82292606D01*
X167490431Y-82338315D01*
X167536224Y-82405482D01*
X167575859Y-82501170D01*
X167581639Y-82515125D01*
X167669879Y-82630121D01*
X167672564Y-82632181D01*
X167716669Y-82702373D01*
X167726133Y-82794073D01*
X167707250Y-82937500D01*
X167726170Y-83081209D01*
X167731161Y-83093258D01*
X167731161Y-83093259D01*
X167773950Y-83196561D01*
X167781639Y-83215125D01*
X167869879Y-83330121D01*
X167984875Y-83418361D01*
X167996924Y-83423352D01*
X167996926Y-83423353D01*
X168106741Y-83468839D01*
X168118791Y-83473830D01*
X168262500Y-83492750D01*
X168406209Y-83473830D01*
X168418259Y-83468839D01*
X168528074Y-83423353D01*
X168528076Y-83423352D01*
X168540125Y-83418361D01*
X168655121Y-83330121D01*
X168743361Y-83215125D01*
X168751051Y-83196561D01*
X168793839Y-83093259D01*
X168793839Y-83093258D01*
X168798830Y-83081209D01*
X168817750Y-82937500D01*
X168798830Y-82793791D01*
X168792211Y-82777811D01*
X168748353Y-82671926D01*
X168748352Y-82671924D01*
X168743361Y-82659875D01*
X168655121Y-82544879D01*
X168652436Y-82542819D01*
X168608331Y-82472627D01*
X168598867Y-82380925D01*
X168598937Y-82380400D01*
X168617750Y-82237500D01*
X168608668Y-82168517D01*
X192838267Y-82168517D01*
X192857187Y-82312226D01*
X192862178Y-82324275D01*
X192862178Y-82324276D01*
X192905029Y-82427728D01*
X192912656Y-82446142D01*
X193000896Y-82561138D01*
X193115892Y-82649378D01*
X193127941Y-82654369D01*
X193127943Y-82654370D01*
X193235448Y-82698899D01*
X193249808Y-82704847D01*
X193393517Y-82723767D01*
X193537226Y-82704847D01*
X193551586Y-82698899D01*
X193659091Y-82654370D01*
X193659093Y-82654369D01*
X193671142Y-82649378D01*
X193681487Y-82641440D01*
X193681494Y-82641436D01*
X193783910Y-82562849D01*
X193864407Y-82525921D01*
X193952955Y-82527577D01*
X194018089Y-82558943D01*
X194018157Y-82558826D01*
X194019725Y-82559731D01*
X194026194Y-82562847D01*
X194039803Y-82573289D01*
X194051852Y-82578280D01*
X194051854Y-82578281D01*
X194161669Y-82623767D01*
X194173719Y-82628758D01*
X194317428Y-82647678D01*
X194461137Y-82628758D01*
X194473187Y-82623767D01*
X194583002Y-82578281D01*
X194583004Y-82578280D01*
X194595053Y-82573289D01*
X194710049Y-82485049D01*
X194798289Y-82370053D01*
X194803817Y-82356709D01*
X194848767Y-82248187D01*
X194848767Y-82248186D01*
X194853758Y-82236137D01*
X194872678Y-82092428D01*
X194853758Y-81948719D01*
X194825520Y-81880545D01*
X194803281Y-81826854D01*
X194803280Y-81826852D01*
X194798289Y-81814803D01*
X194710049Y-81699807D01*
X194595053Y-81611567D01*
X194583004Y-81606576D01*
X194583002Y-81606575D01*
X194473187Y-81561089D01*
X194473186Y-81561089D01*
X194461137Y-81556098D01*
X194317428Y-81537178D01*
X194173719Y-81556098D01*
X194161670Y-81561089D01*
X194161669Y-81561089D01*
X194051854Y-81606575D01*
X194051852Y-81606576D01*
X194039803Y-81611567D01*
X194029458Y-81619505D01*
X194029451Y-81619509D01*
X193927035Y-81698096D01*
X193846538Y-81735024D01*
X193757990Y-81733368D01*
X193692856Y-81702002D01*
X193692788Y-81702119D01*
X193691220Y-81701214D01*
X193684750Y-81698098D01*
X193671142Y-81687656D01*
X193659093Y-81682665D01*
X193659091Y-81682664D01*
X193549276Y-81637178D01*
X193549275Y-81637178D01*
X193537226Y-81632187D01*
X193393517Y-81613267D01*
X193249808Y-81632187D01*
X193237759Y-81637178D01*
X193237758Y-81637178D01*
X193127943Y-81682664D01*
X193127941Y-81682665D01*
X193115892Y-81687656D01*
X193000896Y-81775896D01*
X192912656Y-81890892D01*
X192907665Y-81902941D01*
X192907664Y-81902943D01*
X192882934Y-81962648D01*
X192857187Y-82024808D01*
X192838267Y-82168517D01*
X168608668Y-82168517D01*
X168598830Y-82093791D01*
X168580268Y-82048977D01*
X168548353Y-81971926D01*
X168548352Y-81971924D01*
X168543361Y-81959875D01*
X168455121Y-81844879D01*
X168340125Y-81756639D01*
X168328076Y-81751648D01*
X168328074Y-81751647D01*
X168218259Y-81706161D01*
X168218258Y-81706161D01*
X168206209Y-81701170D01*
X168062500Y-81682250D01*
X167998600Y-81690663D01*
X167910426Y-81682394D01*
X167834569Y-81636685D01*
X167788776Y-81569518D01*
X167775514Y-81537500D01*
X175707250Y-81537500D01*
X175726170Y-81681209D01*
X175731161Y-81693258D01*
X175731161Y-81693259D01*
X175757414Y-81756639D01*
X175781639Y-81815125D01*
X175869879Y-81930121D01*
X175984875Y-82018361D01*
X175996924Y-82023352D01*
X175996926Y-82023353D01*
X176106741Y-82068839D01*
X176118791Y-82073830D01*
X176262500Y-82092750D01*
X176406209Y-82073830D01*
X176418259Y-82068839D01*
X176528074Y-82023353D01*
X176528076Y-82023352D01*
X176540125Y-82018361D01*
X176655121Y-81930121D01*
X176743361Y-81815125D01*
X176767587Y-81756639D01*
X176793839Y-81693259D01*
X176793839Y-81693258D01*
X176798830Y-81681209D01*
X176817750Y-81537500D01*
X186207250Y-81537500D01*
X186226170Y-81681209D01*
X186231161Y-81693258D01*
X186231161Y-81693259D01*
X186257414Y-81756639D01*
X186281639Y-81815125D01*
X186369879Y-81930121D01*
X186484875Y-82018361D01*
X186496924Y-82023352D01*
X186496926Y-82023353D01*
X186606741Y-82068839D01*
X186618791Y-82073830D01*
X186743154Y-82090203D01*
X186757890Y-82095671D01*
X186781846Y-82090203D01*
X186906209Y-82073830D01*
X186918259Y-82068839D01*
X187028074Y-82023353D01*
X187028076Y-82023352D01*
X187040125Y-82018361D01*
X187155121Y-81930121D01*
X187243361Y-81815125D01*
X187267587Y-81756639D01*
X187293839Y-81693259D01*
X187293839Y-81693258D01*
X187298830Y-81681209D01*
X187317750Y-81537500D01*
X187298830Y-81393791D01*
X187287635Y-81366763D01*
X187248353Y-81271926D01*
X187248352Y-81271924D01*
X187243361Y-81259875D01*
X187155121Y-81144879D01*
X187040125Y-81056639D01*
X187028076Y-81051648D01*
X187028074Y-81051647D01*
X186918259Y-81006161D01*
X186918258Y-81006161D01*
X186906209Y-81001170D01*
X186762500Y-80982250D01*
X186618791Y-81001170D01*
X186606742Y-81006161D01*
X186606741Y-81006161D01*
X186496926Y-81051647D01*
X186496924Y-81051648D01*
X186484875Y-81056639D01*
X186369879Y-81144879D01*
X186281639Y-81259875D01*
X186276648Y-81271924D01*
X186276647Y-81271926D01*
X186237365Y-81366763D01*
X186226170Y-81393791D01*
X186207250Y-81537500D01*
X176817750Y-81537500D01*
X176798830Y-81393791D01*
X176787635Y-81366763D01*
X176748353Y-81271926D01*
X176748352Y-81271924D01*
X176743361Y-81259875D01*
X176655121Y-81144879D01*
X176540125Y-81056639D01*
X176528076Y-81051648D01*
X176528074Y-81051647D01*
X176418259Y-81006161D01*
X176418258Y-81006161D01*
X176406209Y-81001170D01*
X176262500Y-80982250D01*
X176118791Y-81001170D01*
X176106742Y-81006161D01*
X176106741Y-81006161D01*
X175996926Y-81051647D01*
X175996924Y-81051648D01*
X175984875Y-81056639D01*
X175869879Y-81144879D01*
X175781639Y-81259875D01*
X175776648Y-81271924D01*
X175776647Y-81271926D01*
X175737365Y-81366763D01*
X175726170Y-81393791D01*
X175707250Y-81537500D01*
X167775514Y-81537500D01*
X167748353Y-81471926D01*
X167748352Y-81471924D01*
X167743361Y-81459875D01*
X167655121Y-81344879D01*
X167540125Y-81256639D01*
X167528076Y-81251648D01*
X167528074Y-81251647D01*
X167418259Y-81206161D01*
X167418258Y-81206161D01*
X167406209Y-81201170D01*
X167262500Y-81182250D01*
X167118791Y-81201170D01*
X167106742Y-81206161D01*
X167106741Y-81206161D01*
X166996926Y-81251647D01*
X166996924Y-81251648D01*
X166984875Y-81256639D01*
X166869879Y-81344879D01*
X166869527Y-81344420D01*
X166803198Y-81386098D01*
X166715191Y-81396014D01*
X166631598Y-81366763D01*
X166579597Y-81319411D01*
X166550933Y-81282055D01*
X166435937Y-81193815D01*
X166423888Y-81188824D01*
X166423886Y-81188823D01*
X166314071Y-81143337D01*
X166314070Y-81143337D01*
X166302021Y-81138346D01*
X166158312Y-81119426D01*
X166014603Y-81138346D01*
X166002554Y-81143337D01*
X166002553Y-81143337D01*
X165892738Y-81188823D01*
X165892736Y-81188824D01*
X165880687Y-81193815D01*
X165765691Y-81282055D01*
X165677451Y-81397051D01*
X165672460Y-81409100D01*
X165672459Y-81409102D01*
X165651429Y-81459875D01*
X165621982Y-81530967D01*
X165603062Y-81674676D01*
X164566210Y-81674676D01*
X164579194Y-81576056D01*
X164560274Y-81432347D01*
X164544304Y-81393791D01*
X164509797Y-81310482D01*
X164509796Y-81310480D01*
X164504805Y-81298431D01*
X164416565Y-81183435D01*
X164301569Y-81095195D01*
X164289520Y-81090204D01*
X164289518Y-81090203D01*
X164179703Y-81044717D01*
X164179702Y-81044717D01*
X164167653Y-81039726D01*
X164023944Y-81020806D01*
X163880235Y-81039726D01*
X163868186Y-81044717D01*
X163868185Y-81044717D01*
X163758370Y-81090203D01*
X163758368Y-81090204D01*
X163746319Y-81095195D01*
X163631323Y-81183435D01*
X163543083Y-81298431D01*
X163538092Y-81310480D01*
X163538091Y-81310482D01*
X163503584Y-81393791D01*
X163487614Y-81432347D01*
X163468694Y-81576056D01*
X126563000Y-81576056D01*
X126563000Y-79537500D01*
X148407250Y-79537500D01*
X148426170Y-79681209D01*
X148431161Y-79693258D01*
X148431161Y-79693259D01*
X148467296Y-79780497D01*
X148481639Y-79815125D01*
X148569879Y-79930121D01*
X148684875Y-80018361D01*
X148696924Y-80023352D01*
X148696926Y-80023353D01*
X148744620Y-80043108D01*
X148818791Y-80073830D01*
X148962500Y-80092750D01*
X149106209Y-80073830D01*
X149180380Y-80043108D01*
X149228074Y-80023353D01*
X149228076Y-80023352D01*
X149240125Y-80018361D01*
X149355121Y-79930121D01*
X149443361Y-79815125D01*
X149457705Y-79780497D01*
X149493839Y-79693259D01*
X149493839Y-79693258D01*
X149498830Y-79681209D01*
X149517750Y-79537500D01*
X149498830Y-79393791D01*
X149475514Y-79337500D01*
X163507250Y-79337500D01*
X163526170Y-79481209D01*
X163531161Y-79493258D01*
X163531161Y-79493259D01*
X163554028Y-79548464D01*
X163581639Y-79615125D01*
X163669879Y-79730121D01*
X163784875Y-79818361D01*
X163796924Y-79823352D01*
X163796926Y-79823353D01*
X163857826Y-79848578D01*
X163918791Y-79873830D01*
X164062500Y-79892750D01*
X164206209Y-79873830D01*
X164267174Y-79848578D01*
X164328074Y-79823353D01*
X164328076Y-79823352D01*
X164340125Y-79818361D01*
X164455121Y-79730121D01*
X164543361Y-79615125D01*
X164570973Y-79548464D01*
X164593839Y-79493259D01*
X164593839Y-79493258D01*
X164598830Y-79481209D01*
X164617750Y-79337500D01*
X166707250Y-79337500D01*
X166726170Y-79481209D01*
X166731161Y-79493258D01*
X166731161Y-79493259D01*
X166754028Y-79548464D01*
X166781639Y-79615125D01*
X166869879Y-79730121D01*
X166984875Y-79818361D01*
X166996924Y-79823352D01*
X166996926Y-79823353D01*
X167057826Y-79848578D01*
X167118791Y-79873830D01*
X167262500Y-79892750D01*
X167406209Y-79873830D01*
X167467174Y-79848578D01*
X167528074Y-79823353D01*
X167528076Y-79823352D01*
X167540125Y-79818361D01*
X167550473Y-79810421D01*
X167561771Y-79803898D01*
X167563669Y-79807185D01*
X167621812Y-79780497D01*
X167710360Y-79782134D01*
X167761559Y-79806790D01*
X167763229Y-79803898D01*
X167774527Y-79810421D01*
X167784875Y-79818361D01*
X167796924Y-79823352D01*
X167796926Y-79823353D01*
X167857826Y-79848578D01*
X167918791Y-79873830D01*
X168062500Y-79892750D01*
X168206209Y-79873830D01*
X168322958Y-79825472D01*
X168336347Y-79819926D01*
X168423659Y-79805091D01*
X168488653Y-79819926D01*
X168502043Y-79825472D01*
X168618791Y-79873830D01*
X168762500Y-79892750D01*
X168906209Y-79873830D01*
X168967174Y-79848578D01*
X169028074Y-79823353D01*
X169028076Y-79823352D01*
X169040125Y-79818361D01*
X169155121Y-79730121D01*
X169243361Y-79615125D01*
X169270973Y-79548464D01*
X169275514Y-79537500D01*
X183207250Y-79537500D01*
X183226170Y-79681209D01*
X183231161Y-79693258D01*
X183231161Y-79693259D01*
X183267296Y-79780497D01*
X183281639Y-79815125D01*
X183369879Y-79930121D01*
X183484875Y-80018361D01*
X183496924Y-80023352D01*
X183496926Y-80023353D01*
X183544620Y-80043108D01*
X183618791Y-80073830D01*
X183762500Y-80092750D01*
X183906209Y-80073830D01*
X183980380Y-80043108D01*
X184007089Y-80032045D01*
X203481106Y-80032045D01*
X203499316Y-80205297D01*
X203555456Y-80370209D01*
X203646738Y-80518586D01*
X203768624Y-80643052D01*
X203915056Y-80737421D01*
X203925509Y-80741226D01*
X203925510Y-80741226D01*
X204068304Y-80793199D01*
X204068309Y-80793200D01*
X204078757Y-80797003D01*
X204213301Y-80814000D01*
X204306300Y-80814000D01*
X204382079Y-80805500D01*
X204424569Y-80800734D01*
X204424572Y-80800733D01*
X204435621Y-80799494D01*
X204600137Y-80742204D01*
X204747873Y-80649888D01*
X204871485Y-80527136D01*
X204964829Y-80380049D01*
X205023267Y-80215936D01*
X205025855Y-80194235D01*
X205042577Y-80054002D01*
X205042577Y-80053999D01*
X205043894Y-80042955D01*
X205030947Y-79919776D01*
X205026847Y-79880765D01*
X205026846Y-79880762D01*
X205025684Y-79869703D01*
X204969544Y-79704791D01*
X204914381Y-79615125D01*
X204884092Y-79565890D01*
X204884090Y-79565888D01*
X204878262Y-79556414D01*
X204756376Y-79431948D01*
X204609944Y-79337579D01*
X204586747Y-79329136D01*
X204456696Y-79281801D01*
X204456691Y-79281800D01*
X204446243Y-79277997D01*
X204311699Y-79261000D01*
X204218700Y-79261000D01*
X204142921Y-79269500D01*
X204100431Y-79274266D01*
X204100428Y-79274267D01*
X204089379Y-79275506D01*
X203924863Y-79332796D01*
X203777127Y-79425112D01*
X203653515Y-79547864D01*
X203560171Y-79694951D01*
X203501733Y-79859064D01*
X203500415Y-79870113D01*
X203500415Y-79870115D01*
X203482738Y-80018361D01*
X203481106Y-80032045D01*
X184007089Y-80032045D01*
X184028074Y-80023353D01*
X184028076Y-80023352D01*
X184040125Y-80018361D01*
X184155121Y-79930121D01*
X184243361Y-79815125D01*
X184257705Y-79780497D01*
X184293839Y-79693259D01*
X184293839Y-79693258D01*
X184298830Y-79681209D01*
X184317750Y-79537500D01*
X184298830Y-79393791D01*
X184273971Y-79333774D01*
X184248353Y-79271926D01*
X184248352Y-79271924D01*
X184243361Y-79259875D01*
X184155121Y-79144879D01*
X184040125Y-79056639D01*
X184028076Y-79051648D01*
X184028074Y-79051647D01*
X183918259Y-79006161D01*
X183918258Y-79006161D01*
X183906209Y-79001170D01*
X183762500Y-78982250D01*
X183618791Y-79001170D01*
X183606742Y-79006161D01*
X183606741Y-79006161D01*
X183496926Y-79051647D01*
X183496924Y-79051648D01*
X183484875Y-79056639D01*
X183369879Y-79144879D01*
X183281639Y-79259875D01*
X183276648Y-79271924D01*
X183276647Y-79271926D01*
X183251029Y-79333774D01*
X183226170Y-79393791D01*
X183207250Y-79537500D01*
X169275514Y-79537500D01*
X169293839Y-79493259D01*
X169293839Y-79493258D01*
X169298830Y-79481209D01*
X169317750Y-79337500D01*
X169298830Y-79193791D01*
X169293839Y-79181741D01*
X169248353Y-79071926D01*
X169248352Y-79071924D01*
X169243361Y-79059875D01*
X169155121Y-78944879D01*
X169040125Y-78856639D01*
X169028076Y-78851648D01*
X169028074Y-78851647D01*
X168918259Y-78806161D01*
X168918258Y-78806161D01*
X168906209Y-78801170D01*
X168762500Y-78782250D01*
X168618791Y-78801170D01*
X168606742Y-78806161D01*
X168606741Y-78806161D01*
X168488653Y-78855074D01*
X168401341Y-78869909D01*
X168336347Y-78855074D01*
X168218259Y-78806161D01*
X168218258Y-78806161D01*
X168206209Y-78801170D01*
X168062500Y-78782250D01*
X167918791Y-78801170D01*
X167906742Y-78806161D01*
X167906741Y-78806161D01*
X167796926Y-78851647D01*
X167796924Y-78851648D01*
X167784875Y-78856639D01*
X167774528Y-78864578D01*
X167763229Y-78871102D01*
X167761331Y-78867815D01*
X167703188Y-78894503D01*
X167614640Y-78892866D01*
X167563441Y-78868210D01*
X167561771Y-78871102D01*
X167550472Y-78864578D01*
X167540125Y-78856639D01*
X167528076Y-78851648D01*
X167528074Y-78851647D01*
X167418259Y-78806161D01*
X167418258Y-78806161D01*
X167406209Y-78801170D01*
X167262500Y-78782250D01*
X167118791Y-78801170D01*
X167106742Y-78806161D01*
X167106741Y-78806161D01*
X166996926Y-78851647D01*
X166996924Y-78851648D01*
X166984875Y-78856639D01*
X166869879Y-78944879D01*
X166781639Y-79059875D01*
X166776648Y-79071924D01*
X166776647Y-79071926D01*
X166731161Y-79181741D01*
X166726170Y-79193791D01*
X166707250Y-79337500D01*
X164617750Y-79337500D01*
X164598830Y-79193791D01*
X164593839Y-79181741D01*
X164548353Y-79071926D01*
X164548352Y-79071924D01*
X164543361Y-79059875D01*
X164455121Y-78944879D01*
X164340125Y-78856639D01*
X164328076Y-78851648D01*
X164328074Y-78851647D01*
X164218259Y-78806161D01*
X164218258Y-78806161D01*
X164206209Y-78801170D01*
X164062500Y-78782250D01*
X163918791Y-78801170D01*
X163906742Y-78806161D01*
X163906741Y-78806161D01*
X163796926Y-78851647D01*
X163796924Y-78851648D01*
X163784875Y-78856639D01*
X163669879Y-78944879D01*
X163581639Y-79059875D01*
X163576648Y-79071924D01*
X163576647Y-79071926D01*
X163531161Y-79181741D01*
X163526170Y-79193791D01*
X163507250Y-79337500D01*
X149475514Y-79337500D01*
X149473971Y-79333774D01*
X149448353Y-79271926D01*
X149448352Y-79271924D01*
X149443361Y-79259875D01*
X149355121Y-79144879D01*
X149240125Y-79056639D01*
X149228076Y-79051648D01*
X149228074Y-79051647D01*
X149118259Y-79006161D01*
X149118258Y-79006161D01*
X149106209Y-79001170D01*
X148962500Y-78982250D01*
X148818791Y-79001170D01*
X148806742Y-79006161D01*
X148806741Y-79006161D01*
X148696926Y-79051647D01*
X148696924Y-79051648D01*
X148684875Y-79056639D01*
X148569879Y-79144879D01*
X148481639Y-79259875D01*
X148476648Y-79271924D01*
X148476647Y-79271926D01*
X148451029Y-79333774D01*
X148426170Y-79393791D01*
X148407250Y-79537500D01*
X126563000Y-79537500D01*
X126563000Y-78508898D01*
X158078648Y-78508898D01*
X158097568Y-78652607D01*
X158153037Y-78786523D01*
X158241277Y-78901519D01*
X158356273Y-78989759D01*
X158368322Y-78994750D01*
X158368324Y-78994751D01*
X158478139Y-79040237D01*
X158490189Y-79045228D01*
X158633898Y-79064148D01*
X158777607Y-79045228D01*
X158789657Y-79040237D01*
X158899472Y-78994751D01*
X158899474Y-78994750D01*
X158911523Y-78989759D01*
X159026519Y-78901519D01*
X159114759Y-78786523D01*
X159170228Y-78652607D01*
X159189148Y-78508898D01*
X159170228Y-78365189D01*
X159114759Y-78231273D01*
X159026519Y-78116277D01*
X158911523Y-78028037D01*
X158899474Y-78023046D01*
X158899472Y-78023045D01*
X158789657Y-77977559D01*
X158789656Y-77977559D01*
X158777607Y-77972568D01*
X158633898Y-77953648D01*
X158490189Y-77972568D01*
X158478140Y-77977559D01*
X158478139Y-77977559D01*
X158368324Y-78023045D01*
X158368322Y-78023046D01*
X158356273Y-78028037D01*
X158241277Y-78116277D01*
X158153037Y-78231273D01*
X158097568Y-78365189D01*
X158078648Y-78508898D01*
X126563000Y-78508898D01*
X126563000Y-75537500D01*
X165707250Y-75537500D01*
X165726170Y-75681209D01*
X165781639Y-75815125D01*
X165869879Y-75930121D01*
X165984875Y-76018361D01*
X165996924Y-76023352D01*
X165996926Y-76023353D01*
X166106741Y-76068839D01*
X166118791Y-76073830D01*
X166262500Y-76092750D01*
X166406209Y-76073830D01*
X166418259Y-76068839D01*
X166528074Y-76023353D01*
X166528076Y-76023352D01*
X166540125Y-76018361D01*
X166655121Y-75930121D01*
X166743361Y-75815125D01*
X166798830Y-75681209D01*
X166817750Y-75537500D01*
X175707250Y-75537500D01*
X175726170Y-75681209D01*
X175781639Y-75815125D01*
X175869879Y-75930121D01*
X175984875Y-76018361D01*
X175996924Y-76023352D01*
X175996926Y-76023353D01*
X176106741Y-76068839D01*
X176118791Y-76073830D01*
X176262500Y-76092750D01*
X176406209Y-76073830D01*
X176418259Y-76068839D01*
X176528074Y-76023353D01*
X176528076Y-76023352D01*
X176540125Y-76018361D01*
X176655121Y-75930121D01*
X176743361Y-75815125D01*
X176798830Y-75681209D01*
X176817750Y-75537500D01*
X176798830Y-75393791D01*
X176743361Y-75259875D01*
X176655121Y-75144879D01*
X176540125Y-75056639D01*
X176528076Y-75051648D01*
X176528074Y-75051647D01*
X176418259Y-75006161D01*
X176418258Y-75006161D01*
X176406209Y-75001170D01*
X176262500Y-74982250D01*
X176118791Y-75001170D01*
X176106742Y-75006161D01*
X176106741Y-75006161D01*
X175996926Y-75051647D01*
X175996924Y-75051648D01*
X175984875Y-75056639D01*
X175869879Y-75144879D01*
X175781639Y-75259875D01*
X175726170Y-75393791D01*
X175707250Y-75537500D01*
X166817750Y-75537500D01*
X166798830Y-75393791D01*
X166743361Y-75259875D01*
X166655121Y-75144879D01*
X166540125Y-75056639D01*
X166528076Y-75051648D01*
X166528074Y-75051647D01*
X166418259Y-75006161D01*
X166418258Y-75006161D01*
X166406209Y-75001170D01*
X166262500Y-74982250D01*
X166118791Y-75001170D01*
X166106742Y-75006161D01*
X166106741Y-75006161D01*
X165996926Y-75051647D01*
X165996924Y-75051648D01*
X165984875Y-75056639D01*
X165869879Y-75144879D01*
X165781639Y-75259875D01*
X165726170Y-75393791D01*
X165707250Y-75537500D01*
X126563000Y-75537500D01*
X126563000Y-73537500D01*
X128457032Y-73537500D01*
X128476865Y-73764192D01*
X128479112Y-73772577D01*
X128479113Y-73772584D01*
X128533511Y-73975599D01*
X128535761Y-73983996D01*
X128631932Y-74190234D01*
X128636916Y-74197352D01*
X128757469Y-74369522D01*
X128757473Y-74369527D01*
X128762453Y-74376639D01*
X128923361Y-74537547D01*
X128930473Y-74542527D01*
X128930478Y-74542531D01*
X129102648Y-74663084D01*
X129109766Y-74668068D01*
X129316004Y-74764239D01*
X129324401Y-74766489D01*
X129527416Y-74820887D01*
X129527423Y-74820888D01*
X129535808Y-74823135D01*
X129544459Y-74823892D01*
X129544460Y-74823892D01*
X129560363Y-74825283D01*
X129705716Y-74838000D01*
X130819284Y-74838000D01*
X130964637Y-74825283D01*
X130980540Y-74823892D01*
X130980541Y-74823892D01*
X130989192Y-74823135D01*
X130997577Y-74820888D01*
X130997584Y-74820887D01*
X131200599Y-74766489D01*
X131208996Y-74764239D01*
X131415234Y-74668068D01*
X131422352Y-74663084D01*
X131594522Y-74542531D01*
X131594527Y-74542527D01*
X131601639Y-74537547D01*
X131762547Y-74376639D01*
X131767527Y-74369527D01*
X131767531Y-74369522D01*
X131888084Y-74197352D01*
X131893068Y-74190234D01*
X131989239Y-73983996D01*
X131991489Y-73975599D01*
X132045887Y-73772584D01*
X132045888Y-73772577D01*
X132048135Y-73764192D01*
X132064257Y-73579917D01*
X132075591Y-73544738D01*
X132072287Y-73530262D01*
X132449409Y-73530262D01*
X132460743Y-73579917D01*
X132476865Y-73764192D01*
X132479112Y-73772577D01*
X132479113Y-73772584D01*
X132533511Y-73975599D01*
X132535761Y-73983996D01*
X132631932Y-74190234D01*
X132636916Y-74197352D01*
X132757469Y-74369522D01*
X132757473Y-74369527D01*
X132762453Y-74376639D01*
X132923361Y-74537547D01*
X132930473Y-74542527D01*
X132930478Y-74542531D01*
X133102648Y-74663084D01*
X133109766Y-74668068D01*
X133316004Y-74764239D01*
X133324401Y-74766489D01*
X133527416Y-74820887D01*
X133527423Y-74820888D01*
X133535808Y-74823135D01*
X133544459Y-74823892D01*
X133544460Y-74823892D01*
X133560363Y-74825283D01*
X133705716Y-74838000D01*
X134819284Y-74838000D01*
X134964637Y-74825283D01*
X134980540Y-74823892D01*
X134980541Y-74823892D01*
X134989192Y-74823135D01*
X134997577Y-74820888D01*
X134997584Y-74820887D01*
X135200599Y-74766489D01*
X135208996Y-74764239D01*
X135415234Y-74668068D01*
X135422352Y-74663084D01*
X135594522Y-74542531D01*
X135594527Y-74542527D01*
X135601639Y-74537547D01*
X135762547Y-74376639D01*
X135767527Y-74369527D01*
X135767531Y-74369522D01*
X135888084Y-74197352D01*
X135893068Y-74190234D01*
X135989239Y-73983996D01*
X135991489Y-73975599D01*
X136045887Y-73772584D01*
X136045888Y-73772577D01*
X136048135Y-73764192D01*
X136064257Y-73579917D01*
X136075591Y-73544738D01*
X136072287Y-73530262D01*
X136449409Y-73530262D01*
X136460743Y-73579917D01*
X136476865Y-73764192D01*
X136479112Y-73772577D01*
X136479113Y-73772584D01*
X136533511Y-73975599D01*
X136535761Y-73983996D01*
X136631932Y-74190234D01*
X136636916Y-74197352D01*
X136757469Y-74369522D01*
X136757473Y-74369527D01*
X136762453Y-74376639D01*
X136923361Y-74537547D01*
X136930473Y-74542527D01*
X136930478Y-74542531D01*
X137102648Y-74663084D01*
X137109766Y-74668068D01*
X137316004Y-74764239D01*
X137324401Y-74766489D01*
X137527416Y-74820887D01*
X137527423Y-74820888D01*
X137535808Y-74823135D01*
X137544459Y-74823892D01*
X137544460Y-74823892D01*
X137560363Y-74825283D01*
X137705716Y-74838000D01*
X138819284Y-74838000D01*
X138964637Y-74825283D01*
X138980540Y-74823892D01*
X138980541Y-74823892D01*
X138989192Y-74823135D01*
X138997577Y-74820888D01*
X138997584Y-74820887D01*
X139200599Y-74766489D01*
X139208996Y-74764239D01*
X139415234Y-74668068D01*
X139422352Y-74663084D01*
X139594522Y-74542531D01*
X139594527Y-74542527D01*
X139601639Y-74537547D01*
X139762547Y-74376639D01*
X139767527Y-74369527D01*
X139767531Y-74369522D01*
X139888084Y-74197352D01*
X139893068Y-74190234D01*
X139989239Y-73983996D01*
X139991489Y-73975599D01*
X140045887Y-73772584D01*
X140045888Y-73772577D01*
X140048135Y-73764192D01*
X140064257Y-73579917D01*
X140075591Y-73544738D01*
X140072287Y-73530262D01*
X140449409Y-73530262D01*
X140460743Y-73579917D01*
X140476865Y-73764192D01*
X140479112Y-73772577D01*
X140479113Y-73772584D01*
X140533511Y-73975599D01*
X140535761Y-73983996D01*
X140631932Y-74190234D01*
X140636916Y-74197352D01*
X140757469Y-74369522D01*
X140757473Y-74369527D01*
X140762453Y-74376639D01*
X140923361Y-74537547D01*
X140930473Y-74542527D01*
X140930478Y-74542531D01*
X141102648Y-74663084D01*
X141109766Y-74668068D01*
X141316004Y-74764239D01*
X141324401Y-74766489D01*
X141527416Y-74820887D01*
X141527423Y-74820888D01*
X141535808Y-74823135D01*
X141544459Y-74823892D01*
X141544460Y-74823892D01*
X141560363Y-74825283D01*
X141705716Y-74838000D01*
X142819284Y-74838000D01*
X142964637Y-74825283D01*
X142980540Y-74823892D01*
X142980541Y-74823892D01*
X142989192Y-74823135D01*
X142997577Y-74820888D01*
X142997584Y-74820887D01*
X143200599Y-74766489D01*
X143208996Y-74764239D01*
X143415234Y-74668068D01*
X143422352Y-74663084D01*
X143594522Y-74542531D01*
X143594527Y-74542527D01*
X143601639Y-74537547D01*
X143762547Y-74376639D01*
X143767527Y-74369527D01*
X143767531Y-74369522D01*
X143888084Y-74197352D01*
X143893068Y-74190234D01*
X143989239Y-73983996D01*
X143991489Y-73975599D01*
X144045887Y-73772584D01*
X144045888Y-73772577D01*
X144048135Y-73764192D01*
X144064257Y-73579917D01*
X144075591Y-73544738D01*
X144072287Y-73530262D01*
X144449409Y-73530262D01*
X144460743Y-73579917D01*
X144476865Y-73764192D01*
X144479112Y-73772577D01*
X144479113Y-73772584D01*
X144533511Y-73975599D01*
X144535761Y-73983996D01*
X144631932Y-74190234D01*
X144636916Y-74197352D01*
X144757469Y-74369522D01*
X144757473Y-74369527D01*
X144762453Y-74376639D01*
X144923361Y-74537547D01*
X144930473Y-74542527D01*
X144930478Y-74542531D01*
X145102648Y-74663084D01*
X145109766Y-74668068D01*
X145316004Y-74764239D01*
X145324401Y-74766489D01*
X145527416Y-74820887D01*
X145527423Y-74820888D01*
X145535808Y-74823135D01*
X145544459Y-74823892D01*
X145544460Y-74823892D01*
X145560363Y-74825283D01*
X145705716Y-74838000D01*
X146819284Y-74838000D01*
X146964637Y-74825283D01*
X146980540Y-74823892D01*
X146980541Y-74823892D01*
X146989192Y-74823135D01*
X146997577Y-74820888D01*
X146997584Y-74820887D01*
X147200599Y-74766489D01*
X147208996Y-74764239D01*
X147415234Y-74668068D01*
X147422352Y-74663084D01*
X147594522Y-74542531D01*
X147594527Y-74542527D01*
X147601639Y-74537547D01*
X147762547Y-74376639D01*
X147767527Y-74369527D01*
X147767531Y-74369522D01*
X147888084Y-74197352D01*
X147893068Y-74190234D01*
X147989239Y-73983996D01*
X147991489Y-73975599D01*
X148045887Y-73772584D01*
X148045888Y-73772577D01*
X148048135Y-73764192D01*
X148064257Y-73579917D01*
X148075591Y-73544738D01*
X148072287Y-73530262D01*
X148449409Y-73530262D01*
X148460743Y-73579917D01*
X148476865Y-73764192D01*
X148479112Y-73772577D01*
X148479113Y-73772584D01*
X148533511Y-73975599D01*
X148535761Y-73983996D01*
X148631932Y-74190234D01*
X148636916Y-74197352D01*
X148757469Y-74369522D01*
X148757473Y-74369527D01*
X148762453Y-74376639D01*
X148923361Y-74537547D01*
X148930473Y-74542527D01*
X148930478Y-74542531D01*
X149102648Y-74663084D01*
X149109766Y-74668068D01*
X149316004Y-74764239D01*
X149324401Y-74766489D01*
X149527416Y-74820887D01*
X149527423Y-74820888D01*
X149535808Y-74823135D01*
X149544459Y-74823892D01*
X149544460Y-74823892D01*
X149560363Y-74825283D01*
X149705716Y-74838000D01*
X150819284Y-74838000D01*
X150964637Y-74825283D01*
X150980540Y-74823892D01*
X150980541Y-74823892D01*
X150989192Y-74823135D01*
X150997577Y-74820888D01*
X150997584Y-74820887D01*
X151200599Y-74766489D01*
X151208996Y-74764239D01*
X151415234Y-74668068D01*
X151422352Y-74663084D01*
X151594522Y-74542531D01*
X151594527Y-74542527D01*
X151601639Y-74537547D01*
X151762547Y-74376639D01*
X151767527Y-74369527D01*
X151767531Y-74369522D01*
X151888084Y-74197352D01*
X151893068Y-74190234D01*
X151989239Y-73983996D01*
X151991489Y-73975599D01*
X152045887Y-73772584D01*
X152045888Y-73772577D01*
X152048135Y-73764192D01*
X152064257Y-73579917D01*
X152075591Y-73544738D01*
X152072287Y-73530262D01*
X152449409Y-73530262D01*
X152460743Y-73579917D01*
X152476865Y-73764192D01*
X152479112Y-73772577D01*
X152479113Y-73772584D01*
X152533511Y-73975599D01*
X152535761Y-73983996D01*
X152631932Y-74190234D01*
X152636916Y-74197352D01*
X152757469Y-74369522D01*
X152757473Y-74369527D01*
X152762453Y-74376639D01*
X152923361Y-74537547D01*
X152930473Y-74542527D01*
X152930478Y-74542531D01*
X153102648Y-74663084D01*
X153109766Y-74668068D01*
X153316004Y-74764239D01*
X153324401Y-74766489D01*
X153527416Y-74820887D01*
X153527423Y-74820888D01*
X153535808Y-74823135D01*
X153544459Y-74823892D01*
X153544460Y-74823892D01*
X153560363Y-74825283D01*
X153705716Y-74838000D01*
X154819284Y-74838000D01*
X154964637Y-74825283D01*
X154980540Y-74823892D01*
X154980541Y-74823892D01*
X154989192Y-74823135D01*
X154997577Y-74820888D01*
X154997584Y-74820887D01*
X155200599Y-74766489D01*
X155208996Y-74764239D01*
X155415234Y-74668068D01*
X155422352Y-74663084D01*
X155594522Y-74542531D01*
X155594527Y-74542527D01*
X155601639Y-74537547D01*
X155762547Y-74376639D01*
X155767527Y-74369527D01*
X155767531Y-74369522D01*
X155888084Y-74197352D01*
X155893068Y-74190234D01*
X155989239Y-73983996D01*
X155991489Y-73975599D01*
X156045887Y-73772584D01*
X156045888Y-73772577D01*
X156048135Y-73764192D01*
X156064257Y-73579917D01*
X156075591Y-73544738D01*
X156072287Y-73530262D01*
X156449409Y-73530262D01*
X156460743Y-73579917D01*
X156476865Y-73764192D01*
X156479112Y-73772577D01*
X156479113Y-73772584D01*
X156533511Y-73975599D01*
X156535761Y-73983996D01*
X156631932Y-74190234D01*
X156636916Y-74197352D01*
X156757469Y-74369522D01*
X156757473Y-74369527D01*
X156762453Y-74376639D01*
X156923361Y-74537547D01*
X156930473Y-74542527D01*
X156930478Y-74542531D01*
X157102648Y-74663084D01*
X157109766Y-74668068D01*
X157316004Y-74764239D01*
X157324401Y-74766489D01*
X157527416Y-74820887D01*
X157527423Y-74820888D01*
X157535808Y-74823135D01*
X157544459Y-74823892D01*
X157544460Y-74823892D01*
X157560363Y-74825283D01*
X157705716Y-74838000D01*
X158819284Y-74838000D01*
X158964637Y-74825283D01*
X158980540Y-74823892D01*
X158980541Y-74823892D01*
X158989192Y-74823135D01*
X158997577Y-74820888D01*
X158997584Y-74820887D01*
X159200599Y-74766489D01*
X159208996Y-74764239D01*
X159415234Y-74668068D01*
X159422352Y-74663084D01*
X159594522Y-74542531D01*
X159594527Y-74542527D01*
X159601639Y-74537547D01*
X159762547Y-74376639D01*
X159767527Y-74369527D01*
X159767531Y-74369522D01*
X159888084Y-74197352D01*
X159893068Y-74190234D01*
X159989239Y-73983996D01*
X159991489Y-73975599D01*
X160045887Y-73772584D01*
X160045888Y-73772577D01*
X160048135Y-73764192D01*
X160067968Y-73537500D01*
X162457032Y-73537500D01*
X162476865Y-73764192D01*
X162479112Y-73772577D01*
X162479113Y-73772584D01*
X162533511Y-73975599D01*
X162535761Y-73983996D01*
X162631932Y-74190234D01*
X162636916Y-74197352D01*
X162757469Y-74369522D01*
X162757473Y-74369527D01*
X162762453Y-74376639D01*
X162923361Y-74537547D01*
X162930473Y-74542527D01*
X162930478Y-74542531D01*
X163102648Y-74663084D01*
X163109766Y-74668068D01*
X163316004Y-74764239D01*
X163324401Y-74766489D01*
X163527416Y-74820887D01*
X163527423Y-74820888D01*
X163535808Y-74823135D01*
X163544459Y-74823892D01*
X163544460Y-74823892D01*
X163560363Y-74825283D01*
X163705716Y-74838000D01*
X164819284Y-74838000D01*
X164964637Y-74825283D01*
X164980540Y-74823892D01*
X164980541Y-74823892D01*
X164989192Y-74823135D01*
X164997577Y-74820888D01*
X164997584Y-74820887D01*
X165200599Y-74766489D01*
X165208996Y-74764239D01*
X165415234Y-74668068D01*
X165422352Y-74663084D01*
X165594522Y-74542531D01*
X165594527Y-74542527D01*
X165601639Y-74537547D01*
X165762547Y-74376639D01*
X165767527Y-74369527D01*
X165767531Y-74369522D01*
X165888084Y-74197352D01*
X165893068Y-74190234D01*
X165989239Y-73983996D01*
X165991489Y-73975599D01*
X166045887Y-73772584D01*
X166045888Y-73772577D01*
X166048135Y-73764192D01*
X166064257Y-73579917D01*
X166075591Y-73544738D01*
X166072287Y-73530262D01*
X166449409Y-73530262D01*
X166460743Y-73579917D01*
X166476865Y-73764192D01*
X166479112Y-73772577D01*
X166479113Y-73772584D01*
X166533511Y-73975599D01*
X166535761Y-73983996D01*
X166631932Y-74190234D01*
X166636916Y-74197352D01*
X166757469Y-74369522D01*
X166757473Y-74369527D01*
X166762453Y-74376639D01*
X166923361Y-74537547D01*
X166930473Y-74542527D01*
X166930478Y-74542531D01*
X167102648Y-74663084D01*
X167109766Y-74668068D01*
X167316004Y-74764239D01*
X167324401Y-74766489D01*
X167527416Y-74820887D01*
X167527423Y-74820888D01*
X167535808Y-74823135D01*
X167544459Y-74823892D01*
X167544460Y-74823892D01*
X167560363Y-74825283D01*
X167705716Y-74838000D01*
X168819284Y-74838000D01*
X168964637Y-74825283D01*
X168980540Y-74823892D01*
X168980541Y-74823892D01*
X168989192Y-74823135D01*
X168997577Y-74820888D01*
X168997584Y-74820887D01*
X169200599Y-74766489D01*
X169208996Y-74764239D01*
X169415234Y-74668068D01*
X169422352Y-74663084D01*
X169594522Y-74542531D01*
X169594527Y-74542527D01*
X169601639Y-74537547D01*
X169762547Y-74376639D01*
X169767527Y-74369527D01*
X169767531Y-74369522D01*
X169888084Y-74197352D01*
X169893068Y-74190234D01*
X169989239Y-73983996D01*
X169991489Y-73975599D01*
X170045887Y-73772584D01*
X170045888Y-73772577D01*
X170048135Y-73764192D01*
X170064257Y-73579917D01*
X170075591Y-73544738D01*
X170072287Y-73530262D01*
X170449409Y-73530262D01*
X170460743Y-73579917D01*
X170476865Y-73764192D01*
X170479112Y-73772577D01*
X170479113Y-73772584D01*
X170533511Y-73975599D01*
X170535761Y-73983996D01*
X170631932Y-74190234D01*
X170636916Y-74197352D01*
X170757469Y-74369522D01*
X170757473Y-74369527D01*
X170762453Y-74376639D01*
X170923361Y-74537547D01*
X170930473Y-74542527D01*
X170930478Y-74542531D01*
X171102648Y-74663084D01*
X171109766Y-74668068D01*
X171316004Y-74764239D01*
X171324401Y-74766489D01*
X171527416Y-74820887D01*
X171527423Y-74820888D01*
X171535808Y-74823135D01*
X171544459Y-74823892D01*
X171544460Y-74823892D01*
X171560363Y-74825283D01*
X171705716Y-74838000D01*
X172819284Y-74838000D01*
X172964637Y-74825283D01*
X172980540Y-74823892D01*
X172980541Y-74823892D01*
X172989192Y-74823135D01*
X172997577Y-74820888D01*
X172997584Y-74820887D01*
X173200599Y-74766489D01*
X173208996Y-74764239D01*
X173415234Y-74668068D01*
X173422352Y-74663084D01*
X173594522Y-74542531D01*
X173594527Y-74542527D01*
X173601639Y-74537547D01*
X173762547Y-74376639D01*
X173767527Y-74369527D01*
X173767531Y-74369522D01*
X173888084Y-74197352D01*
X173893068Y-74190234D01*
X173989239Y-73983996D01*
X173991489Y-73975599D01*
X174045887Y-73772584D01*
X174045888Y-73772577D01*
X174048135Y-73764192D01*
X174067968Y-73537500D01*
X176457032Y-73537500D01*
X176476865Y-73764192D01*
X176479112Y-73772577D01*
X176479113Y-73772584D01*
X176533511Y-73975599D01*
X176535761Y-73983996D01*
X176631932Y-74190234D01*
X176636916Y-74197352D01*
X176757469Y-74369522D01*
X176757473Y-74369527D01*
X176762453Y-74376639D01*
X176923361Y-74537547D01*
X176930473Y-74542527D01*
X176930478Y-74542531D01*
X177102648Y-74663084D01*
X177109766Y-74668068D01*
X177316004Y-74764239D01*
X177324401Y-74766489D01*
X177527416Y-74820887D01*
X177527423Y-74820888D01*
X177535808Y-74823135D01*
X177544459Y-74823892D01*
X177544460Y-74823892D01*
X177560363Y-74825283D01*
X177705716Y-74838000D01*
X178819284Y-74838000D01*
X178964637Y-74825283D01*
X178980540Y-74823892D01*
X178980541Y-74823892D01*
X178989192Y-74823135D01*
X178997577Y-74820888D01*
X178997584Y-74820887D01*
X179200599Y-74766489D01*
X179208996Y-74764239D01*
X179415234Y-74668068D01*
X179422352Y-74663084D01*
X179594522Y-74542531D01*
X179594527Y-74542527D01*
X179601639Y-74537547D01*
X179762547Y-74376639D01*
X179767527Y-74369527D01*
X179767531Y-74369522D01*
X179888084Y-74197352D01*
X179893068Y-74190234D01*
X179989239Y-73983996D01*
X179991489Y-73975599D01*
X180045887Y-73772584D01*
X180045888Y-73772577D01*
X180048135Y-73764192D01*
X180064257Y-73579917D01*
X180075591Y-73544738D01*
X180072287Y-73530262D01*
X180449409Y-73530262D01*
X180460743Y-73579917D01*
X180476865Y-73764192D01*
X180479112Y-73772577D01*
X180479113Y-73772584D01*
X180533511Y-73975599D01*
X180535761Y-73983996D01*
X180631932Y-74190234D01*
X180636916Y-74197352D01*
X180757469Y-74369522D01*
X180757473Y-74369527D01*
X180762453Y-74376639D01*
X180923361Y-74537547D01*
X180930473Y-74542527D01*
X180930478Y-74542531D01*
X181102648Y-74663084D01*
X181109766Y-74668068D01*
X181316004Y-74764239D01*
X181324401Y-74766489D01*
X181527416Y-74820887D01*
X181527423Y-74820888D01*
X181535808Y-74823135D01*
X181544459Y-74823892D01*
X181544460Y-74823892D01*
X181560363Y-74825283D01*
X181705716Y-74838000D01*
X182819284Y-74838000D01*
X182964637Y-74825283D01*
X182980540Y-74823892D01*
X182980541Y-74823892D01*
X182989192Y-74823135D01*
X182997577Y-74820888D01*
X182997584Y-74820887D01*
X183200599Y-74766489D01*
X183208996Y-74764239D01*
X183415234Y-74668068D01*
X183422352Y-74663084D01*
X183594522Y-74542531D01*
X183594527Y-74542527D01*
X183601639Y-74537547D01*
X183762547Y-74376639D01*
X183767527Y-74369527D01*
X183767531Y-74369522D01*
X183888084Y-74197352D01*
X183893068Y-74190234D01*
X183989239Y-73983996D01*
X183991489Y-73975599D01*
X184045887Y-73772584D01*
X184045888Y-73772577D01*
X184048135Y-73764192D01*
X184064257Y-73579917D01*
X184075591Y-73544738D01*
X184072287Y-73530262D01*
X184449409Y-73530262D01*
X184460743Y-73579917D01*
X184476865Y-73764192D01*
X184479112Y-73772577D01*
X184479113Y-73772584D01*
X184533511Y-73975599D01*
X184535761Y-73983996D01*
X184631932Y-74190234D01*
X184636916Y-74197352D01*
X184757469Y-74369522D01*
X184757473Y-74369527D01*
X184762453Y-74376639D01*
X184923361Y-74537547D01*
X184930473Y-74542527D01*
X184930478Y-74542531D01*
X185102648Y-74663084D01*
X185109766Y-74668068D01*
X185316004Y-74764239D01*
X185324401Y-74766489D01*
X185527416Y-74820887D01*
X185527423Y-74820888D01*
X185535808Y-74823135D01*
X185544459Y-74823892D01*
X185544460Y-74823892D01*
X185560363Y-74825283D01*
X185705716Y-74838000D01*
X186819284Y-74838000D01*
X186964637Y-74825283D01*
X186980540Y-74823892D01*
X186980541Y-74823892D01*
X186989192Y-74823135D01*
X186997577Y-74820888D01*
X186997584Y-74820887D01*
X187200599Y-74766489D01*
X187208996Y-74764239D01*
X187415234Y-74668068D01*
X187422352Y-74663084D01*
X187594522Y-74542531D01*
X187594527Y-74542527D01*
X187601639Y-74537547D01*
X187762547Y-74376639D01*
X187767527Y-74369527D01*
X187767531Y-74369522D01*
X187888084Y-74197352D01*
X187893068Y-74190234D01*
X187989239Y-73983996D01*
X187991489Y-73975599D01*
X188045887Y-73772584D01*
X188045888Y-73772577D01*
X188048135Y-73764192D01*
X188064257Y-73579917D01*
X188075591Y-73544738D01*
X188072287Y-73530262D01*
X188449409Y-73530262D01*
X188460743Y-73579917D01*
X188476865Y-73764192D01*
X188479112Y-73772577D01*
X188479113Y-73772584D01*
X188533511Y-73975599D01*
X188535761Y-73983996D01*
X188631932Y-74190234D01*
X188636916Y-74197352D01*
X188757469Y-74369522D01*
X188757473Y-74369527D01*
X188762453Y-74376639D01*
X188923361Y-74537547D01*
X188930473Y-74542527D01*
X188930478Y-74542531D01*
X189102648Y-74663084D01*
X189109766Y-74668068D01*
X189316004Y-74764239D01*
X189324401Y-74766489D01*
X189527416Y-74820887D01*
X189527423Y-74820888D01*
X189535808Y-74823135D01*
X189544459Y-74823892D01*
X189544460Y-74823892D01*
X189560363Y-74825283D01*
X189705716Y-74838000D01*
X190819284Y-74838000D01*
X190964637Y-74825283D01*
X190980540Y-74823892D01*
X190980541Y-74823892D01*
X190989192Y-74823135D01*
X190997577Y-74820888D01*
X190997584Y-74820887D01*
X191200599Y-74766489D01*
X191208996Y-74764239D01*
X191415234Y-74668068D01*
X191422352Y-74663084D01*
X191594522Y-74542531D01*
X191594527Y-74542527D01*
X191601639Y-74537547D01*
X191762547Y-74376639D01*
X191767527Y-74369527D01*
X191767531Y-74369522D01*
X191888084Y-74197352D01*
X191893068Y-74190234D01*
X191989239Y-73983996D01*
X191991489Y-73975599D01*
X192045887Y-73772584D01*
X192045888Y-73772577D01*
X192048135Y-73764192D01*
X192064257Y-73579917D01*
X192075591Y-73544738D01*
X192072287Y-73530262D01*
X192449409Y-73530262D01*
X192460743Y-73579917D01*
X192476865Y-73764192D01*
X192479112Y-73772577D01*
X192479113Y-73772584D01*
X192533511Y-73975599D01*
X192535761Y-73983996D01*
X192631932Y-74190234D01*
X192636916Y-74197352D01*
X192757469Y-74369522D01*
X192757473Y-74369527D01*
X192762453Y-74376639D01*
X192923361Y-74537547D01*
X192930473Y-74542527D01*
X192930478Y-74542531D01*
X193102648Y-74663084D01*
X193109766Y-74668068D01*
X193316004Y-74764239D01*
X193324401Y-74766489D01*
X193527416Y-74820887D01*
X193527423Y-74820888D01*
X193535808Y-74823135D01*
X193544459Y-74823892D01*
X193544460Y-74823892D01*
X193560363Y-74825283D01*
X193705716Y-74838000D01*
X194819284Y-74838000D01*
X194964637Y-74825283D01*
X194980540Y-74823892D01*
X194980541Y-74823892D01*
X194989192Y-74823135D01*
X194997577Y-74820888D01*
X194997584Y-74820887D01*
X195200599Y-74766489D01*
X195208996Y-74764239D01*
X195415234Y-74668068D01*
X195422352Y-74663084D01*
X195594522Y-74542531D01*
X195594527Y-74542527D01*
X195601639Y-74537547D01*
X195762547Y-74376639D01*
X195767527Y-74369527D01*
X195767531Y-74369522D01*
X195888084Y-74197352D01*
X195893068Y-74190234D01*
X195989239Y-73983996D01*
X195991489Y-73975599D01*
X196045887Y-73772584D01*
X196045888Y-73772577D01*
X196048135Y-73764192D01*
X196064257Y-73579917D01*
X196075591Y-73544738D01*
X196072287Y-73530262D01*
X196449409Y-73530262D01*
X196460743Y-73579917D01*
X196476865Y-73764192D01*
X196479112Y-73772577D01*
X196479113Y-73772584D01*
X196533511Y-73975599D01*
X196535761Y-73983996D01*
X196631932Y-74190234D01*
X196636916Y-74197352D01*
X196757469Y-74369522D01*
X196757473Y-74369527D01*
X196762453Y-74376639D01*
X196923361Y-74537547D01*
X196930473Y-74542527D01*
X196930478Y-74542531D01*
X197102648Y-74663084D01*
X197109766Y-74668068D01*
X197316004Y-74764239D01*
X197324401Y-74766489D01*
X197527416Y-74820887D01*
X197527423Y-74820888D01*
X197535808Y-74823135D01*
X197544459Y-74823892D01*
X197544460Y-74823892D01*
X197560363Y-74825283D01*
X197705716Y-74838000D01*
X198819284Y-74838000D01*
X198964637Y-74825283D01*
X198980540Y-74823892D01*
X198980541Y-74823892D01*
X198989192Y-74823135D01*
X198997577Y-74820888D01*
X198997584Y-74820887D01*
X199200599Y-74766489D01*
X199208996Y-74764239D01*
X199415234Y-74668068D01*
X199422352Y-74663084D01*
X199594522Y-74542531D01*
X199594527Y-74542527D01*
X199601639Y-74537547D01*
X199762547Y-74376639D01*
X199767527Y-74369527D01*
X199767531Y-74369522D01*
X199888084Y-74197352D01*
X199893068Y-74190234D01*
X199989239Y-73983996D01*
X199991489Y-73975599D01*
X200045887Y-73772584D01*
X200045888Y-73772577D01*
X200048135Y-73764192D01*
X200064257Y-73579917D01*
X200075591Y-73544738D01*
X200072287Y-73530262D01*
X200449409Y-73530262D01*
X200460743Y-73579917D01*
X200476865Y-73764192D01*
X200479112Y-73772577D01*
X200479113Y-73772584D01*
X200533511Y-73975599D01*
X200535761Y-73983996D01*
X200631932Y-74190234D01*
X200636916Y-74197352D01*
X200757469Y-74369522D01*
X200757473Y-74369527D01*
X200762453Y-74376639D01*
X200923361Y-74537547D01*
X200930473Y-74542527D01*
X200930478Y-74542531D01*
X201102648Y-74663084D01*
X201109766Y-74668068D01*
X201316004Y-74764239D01*
X201324401Y-74766489D01*
X201527416Y-74820887D01*
X201527423Y-74820888D01*
X201535808Y-74823135D01*
X201544459Y-74823892D01*
X201544460Y-74823892D01*
X201560363Y-74825283D01*
X201705716Y-74838000D01*
X202819284Y-74838000D01*
X202964637Y-74825283D01*
X202980540Y-74823892D01*
X202980541Y-74823892D01*
X202989192Y-74823135D01*
X202997577Y-74820888D01*
X202997584Y-74820887D01*
X203200599Y-74766489D01*
X203208996Y-74764239D01*
X203415234Y-74668068D01*
X203422352Y-74663084D01*
X203594522Y-74542531D01*
X203594527Y-74542527D01*
X203601639Y-74537547D01*
X203762547Y-74376639D01*
X203767527Y-74369527D01*
X203767531Y-74369522D01*
X203888084Y-74197352D01*
X203893068Y-74190234D01*
X203989239Y-73983996D01*
X203991489Y-73975599D01*
X204045887Y-73772584D01*
X204045888Y-73772577D01*
X204048135Y-73764192D01*
X204064257Y-73579917D01*
X204075591Y-73544738D01*
X204072287Y-73530262D01*
X204449409Y-73530262D01*
X204460743Y-73579917D01*
X204476865Y-73764192D01*
X204479112Y-73772577D01*
X204479113Y-73772584D01*
X204533511Y-73975599D01*
X204535761Y-73983996D01*
X204631932Y-74190234D01*
X204636916Y-74197352D01*
X204757469Y-74369522D01*
X204757473Y-74369527D01*
X204762453Y-74376639D01*
X204923361Y-74537547D01*
X204930473Y-74542527D01*
X204930478Y-74542531D01*
X205102648Y-74663084D01*
X205109766Y-74668068D01*
X205316004Y-74764239D01*
X205324401Y-74766489D01*
X205527416Y-74820887D01*
X205527423Y-74820888D01*
X205535808Y-74823135D01*
X205544459Y-74823892D01*
X205544460Y-74823892D01*
X205560363Y-74825283D01*
X205705716Y-74838000D01*
X206819284Y-74838000D01*
X206964637Y-74825283D01*
X206980540Y-74823892D01*
X206980541Y-74823892D01*
X206989192Y-74823135D01*
X206997577Y-74820888D01*
X206997584Y-74820887D01*
X207200599Y-74766489D01*
X207208996Y-74764239D01*
X207415234Y-74668068D01*
X207422352Y-74663084D01*
X207594522Y-74542531D01*
X207594527Y-74542527D01*
X207601639Y-74537547D01*
X207762547Y-74376639D01*
X207767527Y-74369527D01*
X207767531Y-74369522D01*
X207888084Y-74197352D01*
X207893068Y-74190234D01*
X207989239Y-73983996D01*
X207991489Y-73975599D01*
X208045887Y-73772584D01*
X208045888Y-73772577D01*
X208048135Y-73764192D01*
X208067968Y-73537500D01*
X208048135Y-73310808D01*
X208045888Y-73302423D01*
X208045887Y-73302416D01*
X207991489Y-73099401D01*
X207989239Y-73091004D01*
X207893068Y-72884766D01*
X207888084Y-72877648D01*
X207767531Y-72705478D01*
X207767527Y-72705473D01*
X207762547Y-72698361D01*
X207601639Y-72537453D01*
X207594527Y-72532473D01*
X207594522Y-72532469D01*
X207422352Y-72411916D01*
X207415234Y-72406932D01*
X207208996Y-72310761D01*
X207200599Y-72308511D01*
X206997584Y-72254113D01*
X206997577Y-72254112D01*
X206989192Y-72251865D01*
X206980541Y-72251108D01*
X206980540Y-72251108D01*
X206964637Y-72249717D01*
X206819284Y-72237000D01*
X205705716Y-72237000D01*
X205560363Y-72249717D01*
X205544460Y-72251108D01*
X205544459Y-72251108D01*
X205535808Y-72251865D01*
X205527423Y-72254112D01*
X205527416Y-72254113D01*
X205324401Y-72308511D01*
X205316004Y-72310761D01*
X205109766Y-72406932D01*
X205102648Y-72411916D01*
X204930478Y-72532469D01*
X204930473Y-72532473D01*
X204923361Y-72537453D01*
X204762453Y-72698361D01*
X204757473Y-72705473D01*
X204757469Y-72705478D01*
X204636916Y-72877648D01*
X204631932Y-72884766D01*
X204535761Y-73091004D01*
X204533511Y-73099401D01*
X204479113Y-73302416D01*
X204479112Y-73302423D01*
X204476865Y-73310808D01*
X204476108Y-73319459D01*
X204476108Y-73319460D01*
X204460743Y-73495083D01*
X204449409Y-73530262D01*
X204072287Y-73530262D01*
X204064257Y-73495083D01*
X204048892Y-73319460D01*
X204048892Y-73319459D01*
X204048135Y-73310808D01*
X204045888Y-73302423D01*
X204045887Y-73302416D01*
X203991489Y-73099401D01*
X203989239Y-73091004D01*
X203893068Y-72884766D01*
X203888084Y-72877648D01*
X203767531Y-72705478D01*
X203767527Y-72705473D01*
X203762547Y-72698361D01*
X203601639Y-72537453D01*
X203594527Y-72532473D01*
X203594522Y-72532469D01*
X203422352Y-72411916D01*
X203415234Y-72406932D01*
X203208996Y-72310761D01*
X203200599Y-72308511D01*
X202997584Y-72254113D01*
X202997577Y-72254112D01*
X202989192Y-72251865D01*
X202980541Y-72251108D01*
X202980540Y-72251108D01*
X202964637Y-72249717D01*
X202819284Y-72237000D01*
X201705716Y-72237000D01*
X201560363Y-72249717D01*
X201544460Y-72251108D01*
X201544459Y-72251108D01*
X201535808Y-72251865D01*
X201527423Y-72254112D01*
X201527416Y-72254113D01*
X201324401Y-72308511D01*
X201316004Y-72310761D01*
X201109766Y-72406932D01*
X201102648Y-72411916D01*
X200930478Y-72532469D01*
X200930473Y-72532473D01*
X200923361Y-72537453D01*
X200762453Y-72698361D01*
X200757473Y-72705473D01*
X200757469Y-72705478D01*
X200636916Y-72877648D01*
X200631932Y-72884766D01*
X200535761Y-73091004D01*
X200533511Y-73099401D01*
X200479113Y-73302416D01*
X200479112Y-73302423D01*
X200476865Y-73310808D01*
X200476108Y-73319459D01*
X200476108Y-73319460D01*
X200460743Y-73495083D01*
X200449409Y-73530262D01*
X200072287Y-73530262D01*
X200064257Y-73495083D01*
X200048892Y-73319460D01*
X200048892Y-73319459D01*
X200048135Y-73310808D01*
X200045888Y-73302423D01*
X200045887Y-73302416D01*
X199991489Y-73099401D01*
X199989239Y-73091004D01*
X199893068Y-72884766D01*
X199888084Y-72877648D01*
X199767531Y-72705478D01*
X199767527Y-72705473D01*
X199762547Y-72698361D01*
X199601639Y-72537453D01*
X199594527Y-72532473D01*
X199594522Y-72532469D01*
X199422352Y-72411916D01*
X199415234Y-72406932D01*
X199208996Y-72310761D01*
X199200599Y-72308511D01*
X198997584Y-72254113D01*
X198997577Y-72254112D01*
X198989192Y-72251865D01*
X198980541Y-72251108D01*
X198980540Y-72251108D01*
X198964637Y-72249717D01*
X198819284Y-72237000D01*
X197705716Y-72237000D01*
X197560363Y-72249717D01*
X197544460Y-72251108D01*
X197544459Y-72251108D01*
X197535808Y-72251865D01*
X197527423Y-72254112D01*
X197527416Y-72254113D01*
X197324401Y-72308511D01*
X197316004Y-72310761D01*
X197109766Y-72406932D01*
X197102648Y-72411916D01*
X196930478Y-72532469D01*
X196930473Y-72532473D01*
X196923361Y-72537453D01*
X196762453Y-72698361D01*
X196757473Y-72705473D01*
X196757469Y-72705478D01*
X196636916Y-72877648D01*
X196631932Y-72884766D01*
X196535761Y-73091004D01*
X196533511Y-73099401D01*
X196479113Y-73302416D01*
X196479112Y-73302423D01*
X196476865Y-73310808D01*
X196476108Y-73319459D01*
X196476108Y-73319460D01*
X196460743Y-73495083D01*
X196449409Y-73530262D01*
X196072287Y-73530262D01*
X196064257Y-73495083D01*
X196048892Y-73319460D01*
X196048892Y-73319459D01*
X196048135Y-73310808D01*
X196045888Y-73302423D01*
X196045887Y-73302416D01*
X195991489Y-73099401D01*
X195989239Y-73091004D01*
X195893068Y-72884766D01*
X195888084Y-72877648D01*
X195767531Y-72705478D01*
X195767527Y-72705473D01*
X195762547Y-72698361D01*
X195601639Y-72537453D01*
X195594527Y-72532473D01*
X195594522Y-72532469D01*
X195422352Y-72411916D01*
X195415234Y-72406932D01*
X195208996Y-72310761D01*
X195200599Y-72308511D01*
X194997584Y-72254113D01*
X194997577Y-72254112D01*
X194989192Y-72251865D01*
X194980541Y-72251108D01*
X194980540Y-72251108D01*
X194964637Y-72249717D01*
X194819284Y-72237000D01*
X193705716Y-72237000D01*
X193560363Y-72249717D01*
X193544460Y-72251108D01*
X193544459Y-72251108D01*
X193535808Y-72251865D01*
X193527423Y-72254112D01*
X193527416Y-72254113D01*
X193324401Y-72308511D01*
X193316004Y-72310761D01*
X193109766Y-72406932D01*
X193102648Y-72411916D01*
X192930478Y-72532469D01*
X192930473Y-72532473D01*
X192923361Y-72537453D01*
X192762453Y-72698361D01*
X192757473Y-72705473D01*
X192757469Y-72705478D01*
X192636916Y-72877648D01*
X192631932Y-72884766D01*
X192535761Y-73091004D01*
X192533511Y-73099401D01*
X192479113Y-73302416D01*
X192479112Y-73302423D01*
X192476865Y-73310808D01*
X192476108Y-73319459D01*
X192476108Y-73319460D01*
X192460743Y-73495083D01*
X192449409Y-73530262D01*
X192072287Y-73530262D01*
X192064257Y-73495083D01*
X192048892Y-73319460D01*
X192048892Y-73319459D01*
X192048135Y-73310808D01*
X192045888Y-73302423D01*
X192045887Y-73302416D01*
X191991489Y-73099401D01*
X191989239Y-73091004D01*
X191893068Y-72884766D01*
X191888084Y-72877648D01*
X191767531Y-72705478D01*
X191767527Y-72705473D01*
X191762547Y-72698361D01*
X191601639Y-72537453D01*
X191594527Y-72532473D01*
X191594522Y-72532469D01*
X191422352Y-72411916D01*
X191415234Y-72406932D01*
X191208996Y-72310761D01*
X191200599Y-72308511D01*
X190997584Y-72254113D01*
X190997577Y-72254112D01*
X190989192Y-72251865D01*
X190980541Y-72251108D01*
X190980540Y-72251108D01*
X190964637Y-72249717D01*
X190819284Y-72237000D01*
X189705716Y-72237000D01*
X189560363Y-72249717D01*
X189544460Y-72251108D01*
X189544459Y-72251108D01*
X189535808Y-72251865D01*
X189527423Y-72254112D01*
X189527416Y-72254113D01*
X189324401Y-72308511D01*
X189316004Y-72310761D01*
X189109766Y-72406932D01*
X189102648Y-72411916D01*
X188930478Y-72532469D01*
X188930473Y-72532473D01*
X188923361Y-72537453D01*
X188762453Y-72698361D01*
X188757473Y-72705473D01*
X188757469Y-72705478D01*
X188636916Y-72877648D01*
X188631932Y-72884766D01*
X188535761Y-73091004D01*
X188533511Y-73099401D01*
X188479113Y-73302416D01*
X188479112Y-73302423D01*
X188476865Y-73310808D01*
X188476108Y-73319459D01*
X188476108Y-73319460D01*
X188460743Y-73495083D01*
X188449409Y-73530262D01*
X188072287Y-73530262D01*
X188064257Y-73495083D01*
X188048892Y-73319460D01*
X188048892Y-73319459D01*
X188048135Y-73310808D01*
X188045888Y-73302423D01*
X188045887Y-73302416D01*
X187991489Y-73099401D01*
X187989239Y-73091004D01*
X187893068Y-72884766D01*
X187888084Y-72877648D01*
X187767531Y-72705478D01*
X187767527Y-72705473D01*
X187762547Y-72698361D01*
X187601639Y-72537453D01*
X187594527Y-72532473D01*
X187594522Y-72532469D01*
X187422352Y-72411916D01*
X187415234Y-72406932D01*
X187208996Y-72310761D01*
X187200599Y-72308511D01*
X186997584Y-72254113D01*
X186997577Y-72254112D01*
X186989192Y-72251865D01*
X186980541Y-72251108D01*
X186980540Y-72251108D01*
X186964637Y-72249717D01*
X186819284Y-72237000D01*
X185705716Y-72237000D01*
X185560363Y-72249717D01*
X185544460Y-72251108D01*
X185544459Y-72251108D01*
X185535808Y-72251865D01*
X185527423Y-72254112D01*
X185527416Y-72254113D01*
X185324401Y-72308511D01*
X185316004Y-72310761D01*
X185109766Y-72406932D01*
X185102648Y-72411916D01*
X184930478Y-72532469D01*
X184930473Y-72532473D01*
X184923361Y-72537453D01*
X184762453Y-72698361D01*
X184757473Y-72705473D01*
X184757469Y-72705478D01*
X184636916Y-72877648D01*
X184631932Y-72884766D01*
X184535761Y-73091004D01*
X184533511Y-73099401D01*
X184479113Y-73302416D01*
X184479112Y-73302423D01*
X184476865Y-73310808D01*
X184476108Y-73319459D01*
X184476108Y-73319460D01*
X184460743Y-73495083D01*
X184449409Y-73530262D01*
X184072287Y-73530262D01*
X184064257Y-73495083D01*
X184048892Y-73319460D01*
X184048892Y-73319459D01*
X184048135Y-73310808D01*
X184045888Y-73302423D01*
X184045887Y-73302416D01*
X183991489Y-73099401D01*
X183989239Y-73091004D01*
X183893068Y-72884766D01*
X183888084Y-72877648D01*
X183767531Y-72705478D01*
X183767527Y-72705473D01*
X183762547Y-72698361D01*
X183601639Y-72537453D01*
X183594527Y-72532473D01*
X183594522Y-72532469D01*
X183422352Y-72411916D01*
X183415234Y-72406932D01*
X183208996Y-72310761D01*
X183200599Y-72308511D01*
X182997584Y-72254113D01*
X182997577Y-72254112D01*
X182989192Y-72251865D01*
X182980541Y-72251108D01*
X182980540Y-72251108D01*
X182964637Y-72249717D01*
X182819284Y-72237000D01*
X181705716Y-72237000D01*
X181560363Y-72249717D01*
X181544460Y-72251108D01*
X181544459Y-72251108D01*
X181535808Y-72251865D01*
X181527423Y-72254112D01*
X181527416Y-72254113D01*
X181324401Y-72308511D01*
X181316004Y-72310761D01*
X181109766Y-72406932D01*
X181102648Y-72411916D01*
X180930478Y-72532469D01*
X180930473Y-72532473D01*
X180923361Y-72537453D01*
X180762453Y-72698361D01*
X180757473Y-72705473D01*
X180757469Y-72705478D01*
X180636916Y-72877648D01*
X180631932Y-72884766D01*
X180535761Y-73091004D01*
X180533511Y-73099401D01*
X180479113Y-73302416D01*
X180479112Y-73302423D01*
X180476865Y-73310808D01*
X180476108Y-73319459D01*
X180476108Y-73319460D01*
X180460743Y-73495083D01*
X180449409Y-73530262D01*
X180072287Y-73530262D01*
X180064257Y-73495083D01*
X180048892Y-73319460D01*
X180048892Y-73319459D01*
X180048135Y-73310808D01*
X180045888Y-73302423D01*
X180045887Y-73302416D01*
X179991489Y-73099401D01*
X179989239Y-73091004D01*
X179893068Y-72884766D01*
X179888084Y-72877648D01*
X179767531Y-72705478D01*
X179767527Y-72705473D01*
X179762547Y-72698361D01*
X179601639Y-72537453D01*
X179594527Y-72532473D01*
X179594522Y-72532469D01*
X179422352Y-72411916D01*
X179415234Y-72406932D01*
X179208996Y-72310761D01*
X179200599Y-72308511D01*
X178997584Y-72254113D01*
X178997577Y-72254112D01*
X178989192Y-72251865D01*
X178980541Y-72251108D01*
X178980540Y-72251108D01*
X178964637Y-72249717D01*
X178819284Y-72237000D01*
X177705716Y-72237000D01*
X177560363Y-72249717D01*
X177544460Y-72251108D01*
X177544459Y-72251108D01*
X177535808Y-72251865D01*
X177527423Y-72254112D01*
X177527416Y-72254113D01*
X177324401Y-72308511D01*
X177316004Y-72310761D01*
X177109766Y-72406932D01*
X177102648Y-72411916D01*
X176930478Y-72532469D01*
X176930473Y-72532473D01*
X176923361Y-72537453D01*
X176762453Y-72698361D01*
X176757473Y-72705473D01*
X176757469Y-72705478D01*
X176636916Y-72877648D01*
X176631932Y-72884766D01*
X176535761Y-73091004D01*
X176533511Y-73099401D01*
X176479113Y-73302416D01*
X176479112Y-73302423D01*
X176476865Y-73310808D01*
X176457032Y-73537500D01*
X174067968Y-73537500D01*
X174048135Y-73310808D01*
X174045888Y-73302423D01*
X174045887Y-73302416D01*
X173991489Y-73099401D01*
X173989239Y-73091004D01*
X173893068Y-72884766D01*
X173888084Y-72877648D01*
X173767531Y-72705478D01*
X173767527Y-72705473D01*
X173762547Y-72698361D01*
X173601639Y-72537453D01*
X173594527Y-72532473D01*
X173594522Y-72532469D01*
X173422352Y-72411916D01*
X173415234Y-72406932D01*
X173208996Y-72310761D01*
X173200599Y-72308511D01*
X172997584Y-72254113D01*
X172997577Y-72254112D01*
X172989192Y-72251865D01*
X172980541Y-72251108D01*
X172980540Y-72251108D01*
X172964637Y-72249717D01*
X172819284Y-72237000D01*
X171705716Y-72237000D01*
X171560363Y-72249717D01*
X171544460Y-72251108D01*
X171544459Y-72251108D01*
X171535808Y-72251865D01*
X171527423Y-72254112D01*
X171527416Y-72254113D01*
X171324401Y-72308511D01*
X171316004Y-72310761D01*
X171109766Y-72406932D01*
X171102648Y-72411916D01*
X170930478Y-72532469D01*
X170930473Y-72532473D01*
X170923361Y-72537453D01*
X170762453Y-72698361D01*
X170757473Y-72705473D01*
X170757469Y-72705478D01*
X170636916Y-72877648D01*
X170631932Y-72884766D01*
X170535761Y-73091004D01*
X170533511Y-73099401D01*
X170479113Y-73302416D01*
X170479112Y-73302423D01*
X170476865Y-73310808D01*
X170476108Y-73319459D01*
X170476108Y-73319460D01*
X170460743Y-73495083D01*
X170449409Y-73530262D01*
X170072287Y-73530262D01*
X170064257Y-73495083D01*
X170048892Y-73319460D01*
X170048892Y-73319459D01*
X170048135Y-73310808D01*
X170045888Y-73302423D01*
X170045887Y-73302416D01*
X169991489Y-73099401D01*
X169989239Y-73091004D01*
X169893068Y-72884766D01*
X169888084Y-72877648D01*
X169767531Y-72705478D01*
X169767527Y-72705473D01*
X169762547Y-72698361D01*
X169601639Y-72537453D01*
X169594527Y-72532473D01*
X169594522Y-72532469D01*
X169422352Y-72411916D01*
X169415234Y-72406932D01*
X169208996Y-72310761D01*
X169200599Y-72308511D01*
X168997584Y-72254113D01*
X168997577Y-72254112D01*
X168989192Y-72251865D01*
X168980541Y-72251108D01*
X168980540Y-72251108D01*
X168964637Y-72249717D01*
X168819284Y-72237000D01*
X167705716Y-72237000D01*
X167560363Y-72249717D01*
X167544460Y-72251108D01*
X167544459Y-72251108D01*
X167535808Y-72251865D01*
X167527423Y-72254112D01*
X167527416Y-72254113D01*
X167324401Y-72308511D01*
X167316004Y-72310761D01*
X167109766Y-72406932D01*
X167102648Y-72411916D01*
X166930478Y-72532469D01*
X166930473Y-72532473D01*
X166923361Y-72537453D01*
X166762453Y-72698361D01*
X166757473Y-72705473D01*
X166757469Y-72705478D01*
X166636916Y-72877648D01*
X166631932Y-72884766D01*
X166535761Y-73091004D01*
X166533511Y-73099401D01*
X166479113Y-73302416D01*
X166479112Y-73302423D01*
X166476865Y-73310808D01*
X166476108Y-73319459D01*
X166476108Y-73319460D01*
X166460743Y-73495083D01*
X166449409Y-73530262D01*
X166072287Y-73530262D01*
X166064257Y-73495083D01*
X166048892Y-73319460D01*
X166048892Y-73319459D01*
X166048135Y-73310808D01*
X166045888Y-73302423D01*
X166045887Y-73302416D01*
X165991489Y-73099401D01*
X165989239Y-73091004D01*
X165893068Y-72884766D01*
X165888084Y-72877648D01*
X165767531Y-72705478D01*
X165767527Y-72705473D01*
X165762547Y-72698361D01*
X165601639Y-72537453D01*
X165594527Y-72532473D01*
X165594522Y-72532469D01*
X165422352Y-72411916D01*
X165415234Y-72406932D01*
X165208996Y-72310761D01*
X165200599Y-72308511D01*
X164997584Y-72254113D01*
X164997577Y-72254112D01*
X164989192Y-72251865D01*
X164980541Y-72251108D01*
X164980540Y-72251108D01*
X164964637Y-72249717D01*
X164819284Y-72237000D01*
X163705716Y-72237000D01*
X163560363Y-72249717D01*
X163544460Y-72251108D01*
X163544459Y-72251108D01*
X163535808Y-72251865D01*
X163527423Y-72254112D01*
X163527416Y-72254113D01*
X163324401Y-72308511D01*
X163316004Y-72310761D01*
X163109766Y-72406932D01*
X163102648Y-72411916D01*
X162930478Y-72532469D01*
X162930473Y-72532473D01*
X162923361Y-72537453D01*
X162762453Y-72698361D01*
X162757473Y-72705473D01*
X162757469Y-72705478D01*
X162636916Y-72877648D01*
X162631932Y-72884766D01*
X162535761Y-73091004D01*
X162533511Y-73099401D01*
X162479113Y-73302416D01*
X162479112Y-73302423D01*
X162476865Y-73310808D01*
X162457032Y-73537500D01*
X160067968Y-73537500D01*
X160048135Y-73310808D01*
X160045888Y-73302423D01*
X160045887Y-73302416D01*
X159991489Y-73099401D01*
X159989239Y-73091004D01*
X159893068Y-72884766D01*
X159888084Y-72877648D01*
X159767531Y-72705478D01*
X159767527Y-72705473D01*
X159762547Y-72698361D01*
X159601639Y-72537453D01*
X159594527Y-72532473D01*
X159594522Y-72532469D01*
X159422352Y-72411916D01*
X159415234Y-72406932D01*
X159208996Y-72310761D01*
X159200599Y-72308511D01*
X158997584Y-72254113D01*
X158997577Y-72254112D01*
X158989192Y-72251865D01*
X158980541Y-72251108D01*
X158980540Y-72251108D01*
X158964637Y-72249717D01*
X158819284Y-72237000D01*
X157705716Y-72237000D01*
X157560363Y-72249717D01*
X157544460Y-72251108D01*
X157544459Y-72251108D01*
X157535808Y-72251865D01*
X157527423Y-72254112D01*
X157527416Y-72254113D01*
X157324401Y-72308511D01*
X157316004Y-72310761D01*
X157109766Y-72406932D01*
X157102648Y-72411916D01*
X156930478Y-72532469D01*
X156930473Y-72532473D01*
X156923361Y-72537453D01*
X156762453Y-72698361D01*
X156757473Y-72705473D01*
X156757469Y-72705478D01*
X156636916Y-72877648D01*
X156631932Y-72884766D01*
X156535761Y-73091004D01*
X156533511Y-73099401D01*
X156479113Y-73302416D01*
X156479112Y-73302423D01*
X156476865Y-73310808D01*
X156476108Y-73319459D01*
X156476108Y-73319460D01*
X156460743Y-73495083D01*
X156449409Y-73530262D01*
X156072287Y-73530262D01*
X156064257Y-73495083D01*
X156048892Y-73319460D01*
X156048892Y-73319459D01*
X156048135Y-73310808D01*
X156045888Y-73302423D01*
X156045887Y-73302416D01*
X155991489Y-73099401D01*
X155989239Y-73091004D01*
X155893068Y-72884766D01*
X155888084Y-72877648D01*
X155767531Y-72705478D01*
X155767527Y-72705473D01*
X155762547Y-72698361D01*
X155601639Y-72537453D01*
X155594527Y-72532473D01*
X155594522Y-72532469D01*
X155422352Y-72411916D01*
X155415234Y-72406932D01*
X155208996Y-72310761D01*
X155200599Y-72308511D01*
X154997584Y-72254113D01*
X154997577Y-72254112D01*
X154989192Y-72251865D01*
X154980541Y-72251108D01*
X154980540Y-72251108D01*
X154964637Y-72249717D01*
X154819284Y-72237000D01*
X153705716Y-72237000D01*
X153560363Y-72249717D01*
X153544460Y-72251108D01*
X153544459Y-72251108D01*
X153535808Y-72251865D01*
X153527423Y-72254112D01*
X153527416Y-72254113D01*
X153324401Y-72308511D01*
X153316004Y-72310761D01*
X153109766Y-72406932D01*
X153102648Y-72411916D01*
X152930478Y-72532469D01*
X152930473Y-72532473D01*
X152923361Y-72537453D01*
X152762453Y-72698361D01*
X152757473Y-72705473D01*
X152757469Y-72705478D01*
X152636916Y-72877648D01*
X152631932Y-72884766D01*
X152535761Y-73091004D01*
X152533511Y-73099401D01*
X152479113Y-73302416D01*
X152479112Y-73302423D01*
X152476865Y-73310808D01*
X152476108Y-73319459D01*
X152476108Y-73319460D01*
X152460743Y-73495083D01*
X152449409Y-73530262D01*
X152072287Y-73530262D01*
X152064257Y-73495083D01*
X152048892Y-73319460D01*
X152048892Y-73319459D01*
X152048135Y-73310808D01*
X152045888Y-73302423D01*
X152045887Y-73302416D01*
X151991489Y-73099401D01*
X151989239Y-73091004D01*
X151893068Y-72884766D01*
X151888084Y-72877648D01*
X151767531Y-72705478D01*
X151767527Y-72705473D01*
X151762547Y-72698361D01*
X151601639Y-72537453D01*
X151594527Y-72532473D01*
X151594522Y-72532469D01*
X151422352Y-72411916D01*
X151415234Y-72406932D01*
X151208996Y-72310761D01*
X151200599Y-72308511D01*
X150997584Y-72254113D01*
X150997577Y-72254112D01*
X150989192Y-72251865D01*
X150980541Y-72251108D01*
X150980540Y-72251108D01*
X150964637Y-72249717D01*
X150819284Y-72237000D01*
X149705716Y-72237000D01*
X149560363Y-72249717D01*
X149544460Y-72251108D01*
X149544459Y-72251108D01*
X149535808Y-72251865D01*
X149527423Y-72254112D01*
X149527416Y-72254113D01*
X149324401Y-72308511D01*
X149316004Y-72310761D01*
X149109766Y-72406932D01*
X149102648Y-72411916D01*
X148930478Y-72532469D01*
X148930473Y-72532473D01*
X148923361Y-72537453D01*
X148762453Y-72698361D01*
X148757473Y-72705473D01*
X148757469Y-72705478D01*
X148636916Y-72877648D01*
X148631932Y-72884766D01*
X148535761Y-73091004D01*
X148533511Y-73099401D01*
X148479113Y-73302416D01*
X148479112Y-73302423D01*
X148476865Y-73310808D01*
X148476108Y-73319459D01*
X148476108Y-73319460D01*
X148460743Y-73495083D01*
X148449409Y-73530262D01*
X148072287Y-73530262D01*
X148064257Y-73495083D01*
X148048892Y-73319460D01*
X148048892Y-73319459D01*
X148048135Y-73310808D01*
X148045888Y-73302423D01*
X148045887Y-73302416D01*
X147991489Y-73099401D01*
X147989239Y-73091004D01*
X147893068Y-72884766D01*
X147888084Y-72877648D01*
X147767531Y-72705478D01*
X147767527Y-72705473D01*
X147762547Y-72698361D01*
X147601639Y-72537453D01*
X147594527Y-72532473D01*
X147594522Y-72532469D01*
X147422352Y-72411916D01*
X147415234Y-72406932D01*
X147208996Y-72310761D01*
X147200599Y-72308511D01*
X146997584Y-72254113D01*
X146997577Y-72254112D01*
X146989192Y-72251865D01*
X146980541Y-72251108D01*
X146980540Y-72251108D01*
X146964637Y-72249717D01*
X146819284Y-72237000D01*
X145705716Y-72237000D01*
X145560363Y-72249717D01*
X145544460Y-72251108D01*
X145544459Y-72251108D01*
X145535808Y-72251865D01*
X145527423Y-72254112D01*
X145527416Y-72254113D01*
X145324401Y-72308511D01*
X145316004Y-72310761D01*
X145109766Y-72406932D01*
X145102648Y-72411916D01*
X144930478Y-72532469D01*
X144930473Y-72532473D01*
X144923361Y-72537453D01*
X144762453Y-72698361D01*
X144757473Y-72705473D01*
X144757469Y-72705478D01*
X144636916Y-72877648D01*
X144631932Y-72884766D01*
X144535761Y-73091004D01*
X144533511Y-73099401D01*
X144479113Y-73302416D01*
X144479112Y-73302423D01*
X144476865Y-73310808D01*
X144476108Y-73319459D01*
X144476108Y-73319460D01*
X144460743Y-73495083D01*
X144449409Y-73530262D01*
X144072287Y-73530262D01*
X144064257Y-73495083D01*
X144048892Y-73319460D01*
X144048892Y-73319459D01*
X144048135Y-73310808D01*
X144045888Y-73302423D01*
X144045887Y-73302416D01*
X143991489Y-73099401D01*
X143989239Y-73091004D01*
X143893068Y-72884766D01*
X143888084Y-72877648D01*
X143767531Y-72705478D01*
X143767527Y-72705473D01*
X143762547Y-72698361D01*
X143601639Y-72537453D01*
X143594527Y-72532473D01*
X143594522Y-72532469D01*
X143422352Y-72411916D01*
X143415234Y-72406932D01*
X143208996Y-72310761D01*
X143200599Y-72308511D01*
X142997584Y-72254113D01*
X142997577Y-72254112D01*
X142989192Y-72251865D01*
X142980541Y-72251108D01*
X142980540Y-72251108D01*
X142964637Y-72249717D01*
X142819284Y-72237000D01*
X141705716Y-72237000D01*
X141560363Y-72249717D01*
X141544460Y-72251108D01*
X141544459Y-72251108D01*
X141535808Y-72251865D01*
X141527423Y-72254112D01*
X141527416Y-72254113D01*
X141324401Y-72308511D01*
X141316004Y-72310761D01*
X141109766Y-72406932D01*
X141102648Y-72411916D01*
X140930478Y-72532469D01*
X140930473Y-72532473D01*
X140923361Y-72537453D01*
X140762453Y-72698361D01*
X140757473Y-72705473D01*
X140757469Y-72705478D01*
X140636916Y-72877648D01*
X140631932Y-72884766D01*
X140535761Y-73091004D01*
X140533511Y-73099401D01*
X140479113Y-73302416D01*
X140479112Y-73302423D01*
X140476865Y-73310808D01*
X140476108Y-73319459D01*
X140476108Y-73319460D01*
X140460743Y-73495083D01*
X140449409Y-73530262D01*
X140072287Y-73530262D01*
X140064257Y-73495083D01*
X140048892Y-73319460D01*
X140048892Y-73319459D01*
X140048135Y-73310808D01*
X140045888Y-73302423D01*
X140045887Y-73302416D01*
X139991489Y-73099401D01*
X139989239Y-73091004D01*
X139893068Y-72884766D01*
X139888084Y-72877648D01*
X139767531Y-72705478D01*
X139767527Y-72705473D01*
X139762547Y-72698361D01*
X139601639Y-72537453D01*
X139594527Y-72532473D01*
X139594522Y-72532469D01*
X139422352Y-72411916D01*
X139415234Y-72406932D01*
X139208996Y-72310761D01*
X139200599Y-72308511D01*
X138997584Y-72254113D01*
X138997577Y-72254112D01*
X138989192Y-72251865D01*
X138980541Y-72251108D01*
X138980540Y-72251108D01*
X138964637Y-72249717D01*
X138819284Y-72237000D01*
X137705716Y-72237000D01*
X137560363Y-72249717D01*
X137544460Y-72251108D01*
X137544459Y-72251108D01*
X137535808Y-72251865D01*
X137527423Y-72254112D01*
X137527416Y-72254113D01*
X137324401Y-72308511D01*
X137316004Y-72310761D01*
X137109766Y-72406932D01*
X137102648Y-72411916D01*
X136930478Y-72532469D01*
X136930473Y-72532473D01*
X136923361Y-72537453D01*
X136762453Y-72698361D01*
X136757473Y-72705473D01*
X136757469Y-72705478D01*
X136636916Y-72877648D01*
X136631932Y-72884766D01*
X136535761Y-73091004D01*
X136533511Y-73099401D01*
X136479113Y-73302416D01*
X136479112Y-73302423D01*
X136476865Y-73310808D01*
X136476108Y-73319459D01*
X136476108Y-73319460D01*
X136460743Y-73495083D01*
X136449409Y-73530262D01*
X136072287Y-73530262D01*
X136064257Y-73495083D01*
X136048892Y-73319460D01*
X136048892Y-73319459D01*
X136048135Y-73310808D01*
X136045888Y-73302423D01*
X136045887Y-73302416D01*
X135991489Y-73099401D01*
X135989239Y-73091004D01*
X135893068Y-72884766D01*
X135888084Y-72877648D01*
X135767531Y-72705478D01*
X135767527Y-72705473D01*
X135762547Y-72698361D01*
X135601639Y-72537453D01*
X135594527Y-72532473D01*
X135594522Y-72532469D01*
X135422352Y-72411916D01*
X135415234Y-72406932D01*
X135208996Y-72310761D01*
X135200599Y-72308511D01*
X134997584Y-72254113D01*
X134997577Y-72254112D01*
X134989192Y-72251865D01*
X134980541Y-72251108D01*
X134980540Y-72251108D01*
X134964637Y-72249717D01*
X134819284Y-72237000D01*
X133705716Y-72237000D01*
X133560363Y-72249717D01*
X133544460Y-72251108D01*
X133544459Y-72251108D01*
X133535808Y-72251865D01*
X133527423Y-72254112D01*
X133527416Y-72254113D01*
X133324401Y-72308511D01*
X133316004Y-72310761D01*
X133109766Y-72406932D01*
X133102648Y-72411916D01*
X132930478Y-72532469D01*
X132930473Y-72532473D01*
X132923361Y-72537453D01*
X132762453Y-72698361D01*
X132757473Y-72705473D01*
X132757469Y-72705478D01*
X132636916Y-72877648D01*
X132631932Y-72884766D01*
X132535761Y-73091004D01*
X132533511Y-73099401D01*
X132479113Y-73302416D01*
X132479112Y-73302423D01*
X132476865Y-73310808D01*
X132476108Y-73319459D01*
X132476108Y-73319460D01*
X132460743Y-73495083D01*
X132449409Y-73530262D01*
X132072287Y-73530262D01*
X132064257Y-73495083D01*
X132048892Y-73319460D01*
X132048892Y-73319459D01*
X132048135Y-73310808D01*
X132045888Y-73302423D01*
X132045887Y-73302416D01*
X131991489Y-73099401D01*
X131989239Y-73091004D01*
X131893068Y-72884766D01*
X131888084Y-72877648D01*
X131767531Y-72705478D01*
X131767527Y-72705473D01*
X131762547Y-72698361D01*
X131601639Y-72537453D01*
X131594527Y-72532473D01*
X131594522Y-72532469D01*
X131422352Y-72411916D01*
X131415234Y-72406932D01*
X131208996Y-72310761D01*
X131200599Y-72308511D01*
X130997584Y-72254113D01*
X130997577Y-72254112D01*
X130989192Y-72251865D01*
X130980541Y-72251108D01*
X130980540Y-72251108D01*
X130964637Y-72249717D01*
X130819284Y-72237000D01*
X129705716Y-72237000D01*
X129560363Y-72249717D01*
X129544460Y-72251108D01*
X129544459Y-72251108D01*
X129535808Y-72251865D01*
X129527423Y-72254112D01*
X129527416Y-72254113D01*
X129324401Y-72308511D01*
X129316004Y-72310761D01*
X129109766Y-72406932D01*
X129102648Y-72411916D01*
X128930478Y-72532469D01*
X128930473Y-72532473D01*
X128923361Y-72537453D01*
X128762453Y-72698361D01*
X128757473Y-72705473D01*
X128757469Y-72705478D01*
X128636916Y-72877648D01*
X128631932Y-72884766D01*
X128535761Y-73091004D01*
X128533511Y-73099401D01*
X128479113Y-73302416D01*
X128479112Y-73302423D01*
X128476865Y-73310808D01*
X128457032Y-73537500D01*
X126563000Y-73537500D01*
X126563000Y-72081204D01*
X126564613Y-72062766D01*
X126564613Y-72054644D01*
X126567636Y-72037500D01*
X126564757Y-72021170D01*
X126565226Y-72009220D01*
X126576539Y-71865471D01*
X126581425Y-71834628D01*
X126618054Y-71682060D01*
X126627703Y-71652362D01*
X126687746Y-71507405D01*
X126701922Y-71479583D01*
X126705854Y-71473166D01*
X126783903Y-71345802D01*
X126802249Y-71320551D01*
X126904159Y-71201228D01*
X126926228Y-71179159D01*
X127045551Y-71077249D01*
X127070802Y-71058903D01*
X127204583Y-70976922D01*
X127232405Y-70962746D01*
X127377362Y-70902703D01*
X127407060Y-70893054D01*
X127559628Y-70856425D01*
X127590469Y-70851539D01*
X127734221Y-70840226D01*
X127746170Y-70839757D01*
X127762500Y-70842636D01*
X127779644Y-70839613D01*
X127787766Y-70839613D01*
X127806204Y-70838000D01*
X208718796Y-70838000D01*
X208737234Y-70839613D01*
G37*
G04 #@! TD.AperFunction*
M02*
