G04 #@! TF.GenerationSoftware,KiCad,Pcbnew,6.0.10+dfsg-1~bpo11+1*
G04 #@! TF.ProjectId,project,70726f6a-6563-4742-9e6b-696361645f70,rev?*
G04 #@! TF.SameCoordinates,Original*
G04 #@! TF.FileFunction,Profile,NP*
%FSLAX46Y46*%
G04 Gerber Fmt 4.6, Leading zero omitted, Abs format (unit mm)*
%MOMM*%
%LPD*%
G01*
G04 APERTURE LIST*
G04 #@! TA.AperFunction,Profile*
%ADD10C,0.100000*%
G04 #@! TD*
G04 APERTURE END LIST*
D10*
X127762500Y-70537500D02*
G75*
G03*
X126262500Y-72037500I0J-1500000D01*
G01*
X171162500Y-109237500D02*
G75*
G03*
X171162500Y-105837500I3000J1700000D01*
G01*
X173462500Y-102837500D02*
X163062500Y-102837500D01*
X165362500Y-105837500D02*
G75*
G03*
X165362500Y-109237500I-3000J-1700000D01*
G01*
X210262500Y-72037500D02*
G75*
G03*
X208762500Y-70537500I-1500000J0D01*
G01*
X126262500Y-99537500D02*
X126262500Y-110037500D01*
X208262500Y-111537500D02*
X128262500Y-111537500D01*
X200262500Y-98537500D02*
X200262500Y-83537500D01*
X200762500Y-83037500D02*
X209762500Y-83037500D01*
X208762500Y-70537500D02*
X127762500Y-70537500D01*
X180062500Y-98037500D02*
G75*
G03*
X180062500Y-98037500I-1800000J0D01*
G01*
X162562500Y-102337500D02*
X162562500Y-96737500D01*
X173962500Y-96737500D02*
G75*
G03*
X173462500Y-96237500I-500000J0D01*
G01*
X209762500Y-99037500D02*
X200762500Y-99037500D01*
X163062500Y-96237500D02*
G75*
G03*
X162562500Y-96737500I0J-500000D01*
G01*
X160062500Y-98037500D02*
G75*
G03*
X160062500Y-98037500I-1800000J0D01*
G01*
X135762500Y-99037500D02*
G75*
G03*
X136262500Y-98537500I0J500000D01*
G01*
X173462500Y-102837500D02*
G75*
G03*
X173962500Y-102337500I0J500000D01*
G01*
X165362500Y-105837500D02*
X171162500Y-105837500D01*
X200262500Y-98537500D02*
G75*
G03*
X200762500Y-99037500I500000J0D01*
G01*
X135762500Y-99037500D02*
X126762500Y-99037500D01*
X126262500Y-110037500D02*
G75*
G03*
X127762500Y-111537500I1500000J0D01*
G01*
X210262500Y-82537500D02*
X210262500Y-72037500D01*
X126262500Y-82537500D02*
G75*
G03*
X126762500Y-83037500I500000J0D01*
G01*
X208762500Y-111537500D02*
X208262500Y-111537500D01*
X171162500Y-109237500D02*
X165362500Y-109237500D01*
X126762500Y-99037500D02*
G75*
G03*
X126262500Y-99537500I0J-500000D01*
G01*
X200762500Y-83037500D02*
G75*
G03*
X200262500Y-83537500I0J-500000D01*
G01*
X173962500Y-96737500D02*
X173962500Y-102337500D01*
X208762500Y-111537500D02*
G75*
G03*
X210262500Y-110037500I0J1500000D01*
G01*
X136262500Y-83537500D02*
X136262500Y-98537500D01*
X126262500Y-72037500D02*
X126262500Y-82537500D01*
X209762500Y-83037500D02*
G75*
G03*
X210262500Y-82537500I0J500000D01*
G01*
X136262500Y-83537500D02*
G75*
G03*
X135762500Y-83037500I-500000J0D01*
G01*
X210262500Y-99537500D02*
X210262500Y-110037500D01*
X163062500Y-96237500D02*
X173462500Y-96237500D01*
X127762500Y-111537500D02*
X128262500Y-111537500D01*
X126762500Y-83037500D02*
X135762500Y-83037500D01*
X162562500Y-102337500D02*
G75*
G03*
X163062500Y-102837500I500000J0D01*
G01*
X210262500Y-99537500D02*
G75*
G03*
X209762500Y-99037500I-500000J0D01*
G01*
M02*
