G04 #@! TF.GenerationSoftware,KiCad,Pcbnew,6.0.10+dfsg-1~bpo11+1*
G04 #@! TF.ProjectId,project,70726f6a-6563-4742-9e6b-696361645f70,rev?*
G04 #@! TF.SameCoordinates,Original*
G04 #@! TF.FileFunction,Legend,Top*
G04 #@! TF.FilePolarity,Positive*
%FSLAX46Y46*%
G04 Gerber Fmt 4.6, Leading zero omitted, Abs format (unit mm)*
%MOMM*%
%LPD*%
G01*
G04 APERTURE LIST*
%ADD10C,0.150000*%
%ADD11C,0.750000*%
G04 #@! TA.AperFunction,Profile*
%ADD12C,0.100000*%
G04 #@! TD*
%ADD13C,0.120000*%
%ADD14R,1.500000X1.850000*%
%ADD15O,3.000000X2.000000*%
%ADD16C,1.552000*%
%ADD17R,1.000000X3.150000*%
%ADD18R,1.000000X1.000000*%
%ADD19C,7.000000*%
%ADD20C,5.000000*%
%ADD21O,2.000000X3.000000*%
G04 APERTURE END LIST*
D10*
X173512500Y-77537500D02*
X173512500Y-76787500D01*
X164012500Y-77287500D02*
X164012500Y-76787500D01*
X168262500Y-88537500D02*
X168262500Y-93537500D01*
X164012500Y-76787500D02*
X163012500Y-76787500D01*
X164512500Y-76787500D02*
X172012500Y-76787500D01*
D11*
X188512501Y-78287500D02*
G75*
G03*
X188512501Y-78287500I-1J0D01*
G01*
D10*
X163012500Y-77537500D02*
X173512500Y-77537500D01*
X173512500Y-76787500D02*
X172512500Y-76787500D01*
X172512500Y-77287500D02*
X164012500Y-77287500D01*
D11*
X148012501Y-103787500D02*
G75*
G03*
X148012501Y-103787500I-1J0D01*
G01*
X140512501Y-78287500D02*
G75*
G03*
X140512501Y-78287500I-1J0D01*
G01*
D10*
X171262500Y-91037500D02*
X165262500Y-91037500D01*
X163012500Y-76787500D02*
X163012500Y-77537500D01*
D11*
X174512501Y-77037500D02*
G75*
G03*
X174512501Y-77037500I-1J0D01*
G01*
X156262501Y-100037500D02*
G75*
G03*
X156262501Y-100037500I-1J0D01*
G01*
X196012501Y-103787500D02*
G75*
G03*
X196012501Y-103787500I-1J0D01*
G01*
D10*
X172512500Y-76787500D02*
X172512500Y-77287500D01*
D12*
X127762500Y-70537500D02*
G75*
G03*
X126262500Y-72037500I0J-1500000D01*
G01*
X171162500Y-109237500D02*
G75*
G03*
X171162500Y-105837500I3000J1700000D01*
G01*
X173462500Y-102837500D02*
X163062500Y-102837500D01*
X165362500Y-105837500D02*
G75*
G03*
X165362500Y-109237500I-3000J-1700000D01*
G01*
X210262500Y-72037500D02*
G75*
G03*
X208762500Y-70537500I-1500000J0D01*
G01*
X126262500Y-99537500D02*
X126262500Y-110037500D01*
X208262500Y-111537500D02*
X128262500Y-111537500D01*
X200262500Y-98537500D02*
X200262500Y-83537500D01*
X200762500Y-83037500D02*
X209762500Y-83037500D01*
X208762500Y-70537500D02*
X127762500Y-70537500D01*
X180062500Y-98037500D02*
G75*
G03*
X180062500Y-98037500I-1800000J0D01*
G01*
X162562500Y-102337500D02*
X162562500Y-96737500D01*
X173962500Y-96737500D02*
G75*
G03*
X173462500Y-96237500I-500000J0D01*
G01*
X209762500Y-99037500D02*
X200762500Y-99037500D01*
X163062500Y-96237500D02*
G75*
G03*
X162562500Y-96737500I0J-500000D01*
G01*
X160062500Y-98037500D02*
G75*
G03*
X160062500Y-98037500I-1800000J0D01*
G01*
X135762500Y-99037500D02*
G75*
G03*
X136262500Y-98537500I0J500000D01*
G01*
X173462500Y-102837500D02*
G75*
G03*
X173962500Y-102337500I0J500000D01*
G01*
X165362500Y-105837500D02*
X171162500Y-105837500D01*
X200262500Y-98537500D02*
G75*
G03*
X200762500Y-99037500I500000J0D01*
G01*
X135762500Y-99037500D02*
X126762500Y-99037500D01*
X126262500Y-110037500D02*
G75*
G03*
X127762500Y-111537500I1500000J0D01*
G01*
X210262500Y-82537500D02*
X210262500Y-72037500D01*
X126262500Y-82537500D02*
G75*
G03*
X126762500Y-83037500I500000J0D01*
G01*
X208762500Y-111537500D02*
X208262500Y-111537500D01*
X171162500Y-109237500D02*
X165362500Y-109237500D01*
X126762500Y-99037500D02*
G75*
G03*
X126262500Y-99537500I0J-500000D01*
G01*
X200762500Y-83037500D02*
G75*
G03*
X200262500Y-83537500I0J-500000D01*
G01*
X173962500Y-96737500D02*
X173962500Y-102337500D01*
X208762500Y-111537500D02*
G75*
G03*
X210262500Y-110037500I0J1500000D01*
G01*
X136262500Y-83537500D02*
X136262500Y-98537500D01*
X126262500Y-72037500D02*
X126262500Y-82537500D01*
X209762500Y-83037500D02*
G75*
G03*
X210262500Y-82537500I0J500000D01*
G01*
X136262500Y-83537500D02*
G75*
G03*
X135762500Y-83037500I-500000J0D01*
G01*
X210262500Y-99537500D02*
X210262500Y-110037500D01*
X163062500Y-96237500D02*
X173462500Y-96237500D01*
X127762500Y-111537500D02*
X128262500Y-111537500D01*
X126762500Y-83037500D02*
X135762500Y-83037500D01*
X162562500Y-102337500D02*
G75*
G03*
X163062500Y-102837500I500000J0D01*
G01*
X210262500Y-99537500D02*
G75*
G03*
X209762500Y-99037500I-500000J0D01*
G01*
D10*
X158808404Y-82825714D02*
X158808404Y-82330476D01*
X159113166Y-82597142D01*
X159113166Y-82482857D01*
X159151261Y-82406666D01*
X159189357Y-82368571D01*
X159265547Y-82330476D01*
X159456023Y-82330476D01*
X159532214Y-82368571D01*
X159570309Y-82406666D01*
X159608404Y-82482857D01*
X159608404Y-82711428D01*
X159570309Y-82787619D01*
X159532214Y-82825714D01*
X158808404Y-82101904D02*
X159608404Y-81835238D01*
X158808404Y-81568571D01*
X158808404Y-81378095D02*
X158808404Y-80882857D01*
X159113166Y-81149523D01*
X159113166Y-81035238D01*
X159151261Y-80959047D01*
X159189357Y-80920952D01*
X159265547Y-80882857D01*
X159456023Y-80882857D01*
X159532214Y-80920952D01*
X159570309Y-80959047D01*
X159608404Y-81035238D01*
X159608404Y-81263809D01*
X159570309Y-81340000D01*
X159532214Y-81378095D01*
X161422500Y-82330476D02*
X161384404Y-82406666D01*
X161384404Y-82520952D01*
X161422500Y-82635238D01*
X161498690Y-82711428D01*
X161574880Y-82749523D01*
X161727261Y-82787619D01*
X161841547Y-82787619D01*
X161993928Y-82749523D01*
X162070119Y-82711428D01*
X162146309Y-82635238D01*
X162184404Y-82520952D01*
X162184404Y-82444761D01*
X162146309Y-82330476D01*
X162108214Y-82292380D01*
X161841547Y-82292380D01*
X161841547Y-82444761D01*
X162184404Y-81949523D02*
X161384404Y-81949523D01*
X162184404Y-81492380D01*
X161384404Y-81492380D01*
X163960404Y-82749523D02*
X164608023Y-82749523D01*
X164684214Y-82711428D01*
X164722309Y-82673333D01*
X164760404Y-82597142D01*
X164760404Y-82444761D01*
X164722309Y-82368571D01*
X164684214Y-82330476D01*
X164608023Y-82292380D01*
X163960404Y-82292380D01*
X164722309Y-81949523D02*
X164760404Y-81835238D01*
X164760404Y-81644761D01*
X164722309Y-81568571D01*
X164684214Y-81530476D01*
X164608023Y-81492380D01*
X164531833Y-81492380D01*
X164455642Y-81530476D01*
X164417547Y-81568571D01*
X164379452Y-81644761D01*
X164341357Y-81797142D01*
X164303261Y-81873333D01*
X164265166Y-81911428D01*
X164188976Y-81949523D01*
X164112785Y-81949523D01*
X164036595Y-81911428D01*
X163998500Y-81873333D01*
X163960404Y-81797142D01*
X163960404Y-81606666D01*
X163998500Y-81492380D01*
X167336404Y-82749523D02*
X166536404Y-82749523D01*
X166536404Y-82559047D01*
X166574500Y-82444761D01*
X166650690Y-82368571D01*
X166726880Y-82330476D01*
X166879261Y-82292380D01*
X166993547Y-82292380D01*
X167145928Y-82330476D01*
X167222119Y-82368571D01*
X167298309Y-82444761D01*
X167336404Y-82559047D01*
X167336404Y-82749523D01*
X167107833Y-81987619D02*
X167107833Y-81606666D01*
X167336404Y-82063809D02*
X166536404Y-81797142D01*
X167336404Y-81530476D01*
X169150500Y-82330476D02*
X169112404Y-82406666D01*
X169112404Y-82520952D01*
X169150500Y-82635238D01*
X169226690Y-82711428D01*
X169302880Y-82749523D01*
X169455261Y-82787619D01*
X169569547Y-82787619D01*
X169721928Y-82749523D01*
X169798119Y-82711428D01*
X169874309Y-82635238D01*
X169912404Y-82520952D01*
X169912404Y-82444761D01*
X169874309Y-82330476D01*
X169836214Y-82292380D01*
X169569547Y-82292380D01*
X169569547Y-82444761D01*
X169912404Y-81949523D02*
X169112404Y-81949523D01*
X169912404Y-81492380D01*
X169112404Y-81492380D01*
X172412214Y-82292380D02*
X172450309Y-82330476D01*
X172488404Y-82444761D01*
X172488404Y-82520952D01*
X172450309Y-82635238D01*
X172374119Y-82711428D01*
X172297928Y-82749523D01*
X172145547Y-82787619D01*
X172031261Y-82787619D01*
X171878880Y-82749523D01*
X171802690Y-82711428D01*
X171726500Y-82635238D01*
X171688404Y-82520952D01*
X171688404Y-82444761D01*
X171726500Y-82330476D01*
X171764595Y-82292380D01*
X172488404Y-81568571D02*
X172488404Y-81949523D01*
X171688404Y-81949523D01*
X174264404Y-82368571D02*
X174264404Y-82749523D01*
X174645357Y-82787619D01*
X174607261Y-82749523D01*
X174569166Y-82673333D01*
X174569166Y-82482857D01*
X174607261Y-82406666D01*
X174645357Y-82368571D01*
X174721547Y-82330476D01*
X174912023Y-82330476D01*
X174988214Y-82368571D01*
X175026309Y-82406666D01*
X175064404Y-82482857D01*
X175064404Y-82673333D01*
X175026309Y-82749523D01*
X174988214Y-82787619D01*
X174264404Y-82101904D02*
X175064404Y-81835238D01*
X174264404Y-81568571D01*
X176916595Y-82787619D02*
X176878500Y-82749523D01*
X176840404Y-82673333D01*
X176840404Y-82482857D01*
X176878500Y-82406666D01*
X176916595Y-82368571D01*
X176992785Y-82330476D01*
X177068976Y-82330476D01*
X177183261Y-82368571D01*
X177640404Y-82825714D01*
X177640404Y-82330476D01*
X177107071Y-81644761D02*
X177640404Y-81644761D01*
X176802309Y-81835238D02*
X177373738Y-82025714D01*
X177373738Y-81530476D01*
X176840404Y-81340000D02*
X177640404Y-81073333D01*
X176840404Y-80806666D01*
X139576785Y-88380357D02*
X139576785Y-89351785D01*
X139633928Y-89466071D01*
X139691071Y-89523214D01*
X139805357Y-89580357D01*
X140033928Y-89580357D01*
X140148214Y-89523214D01*
X140205357Y-89466071D01*
X140262500Y-89351785D01*
X140262500Y-88380357D01*
X140833928Y-89580357D02*
X140833928Y-88380357D01*
X142719642Y-88951785D02*
X142891071Y-89008928D01*
X142948214Y-89066071D01*
X143005357Y-89180357D01*
X143005357Y-89351785D01*
X142948214Y-89466071D01*
X142891071Y-89523214D01*
X142776785Y-89580357D01*
X142319642Y-89580357D01*
X142319642Y-88380357D01*
X142719642Y-88380357D01*
X142833928Y-88437500D01*
X142891071Y-88494642D01*
X142948214Y-88608928D01*
X142948214Y-88723214D01*
X142891071Y-88837500D01*
X142833928Y-88894642D01*
X142719642Y-88951785D01*
X142319642Y-88951785D01*
X143691071Y-89580357D02*
X143576785Y-89523214D01*
X143519642Y-89466071D01*
X143462500Y-89351785D01*
X143462500Y-89008928D01*
X143519642Y-88894642D01*
X143576785Y-88837500D01*
X143691071Y-88780357D01*
X143862500Y-88780357D01*
X143976785Y-88837500D01*
X144033928Y-88894642D01*
X144091071Y-89008928D01*
X144091071Y-89351785D01*
X144033928Y-89466071D01*
X143976785Y-89523214D01*
X143862500Y-89580357D01*
X143691071Y-89580357D01*
X145119642Y-89580357D02*
X145119642Y-88951785D01*
X145062500Y-88837500D01*
X144948214Y-88780357D01*
X144719642Y-88780357D01*
X144605357Y-88837500D01*
X145119642Y-89523214D02*
X145005357Y-89580357D01*
X144719642Y-89580357D01*
X144605357Y-89523214D01*
X144548214Y-89408928D01*
X144548214Y-89294642D01*
X144605357Y-89180357D01*
X144719642Y-89123214D01*
X145005357Y-89123214D01*
X145119642Y-89066071D01*
X145691071Y-89580357D02*
X145691071Y-88780357D01*
X145691071Y-89008928D02*
X145748214Y-88894642D01*
X145805357Y-88837500D01*
X145919642Y-88780357D01*
X146033928Y-88780357D01*
X146948214Y-89580357D02*
X146948214Y-88380357D01*
X146948214Y-89523214D02*
X146833928Y-89580357D01*
X146605357Y-89580357D01*
X146491071Y-89523214D01*
X146433928Y-89466071D01*
X146376785Y-89351785D01*
X146376785Y-89008928D01*
X146433928Y-88894642D01*
X146491071Y-88837500D01*
X146605357Y-88780357D01*
X146833928Y-88780357D01*
X146948214Y-88837500D01*
X159570309Y-94230238D02*
X159608404Y-94115952D01*
X159608404Y-93925476D01*
X159570309Y-93849285D01*
X159532214Y-93811190D01*
X159456023Y-93773095D01*
X159379833Y-93773095D01*
X159303642Y-93811190D01*
X159265547Y-93849285D01*
X159227452Y-93925476D01*
X159189357Y-94077857D01*
X159151261Y-94154047D01*
X159113166Y-94192142D01*
X159036976Y-94230238D01*
X158960785Y-94230238D01*
X158884595Y-94192142D01*
X158846500Y-94154047D01*
X158808404Y-94077857D01*
X158808404Y-93887380D01*
X158846500Y-93773095D01*
X159608404Y-93430238D02*
X158808404Y-93430238D01*
X158808404Y-93239761D01*
X158846500Y-93125476D01*
X158922690Y-93049285D01*
X158998880Y-93011190D01*
X159151261Y-92973095D01*
X159265547Y-92973095D01*
X159417928Y-93011190D01*
X159494119Y-93049285D01*
X159570309Y-93125476D01*
X159608404Y-93239761D01*
X159608404Y-93430238D01*
X159379833Y-92668333D02*
X159379833Y-92287380D01*
X159608404Y-92744523D02*
X158808404Y-92477857D01*
X159608404Y-92211190D01*
X162146309Y-94192142D02*
X162184404Y-94077857D01*
X162184404Y-93887380D01*
X162146309Y-93811190D01*
X162108214Y-93773095D01*
X162032023Y-93735000D01*
X161955833Y-93735000D01*
X161879642Y-93773095D01*
X161841547Y-93811190D01*
X161803452Y-93887380D01*
X161765357Y-94039761D01*
X161727261Y-94115952D01*
X161689166Y-94154047D01*
X161612976Y-94192142D01*
X161536785Y-94192142D01*
X161460595Y-94154047D01*
X161422500Y-94115952D01*
X161384404Y-94039761D01*
X161384404Y-93849285D01*
X161422500Y-93735000D01*
X162108214Y-92935000D02*
X162146309Y-92973095D01*
X162184404Y-93087380D01*
X162184404Y-93163571D01*
X162146309Y-93277857D01*
X162070119Y-93354047D01*
X161993928Y-93392142D01*
X161841547Y-93430238D01*
X161727261Y-93430238D01*
X161574880Y-93392142D01*
X161498690Y-93354047D01*
X161422500Y-93277857D01*
X161384404Y-93163571D01*
X161384404Y-93087380D01*
X161422500Y-92973095D01*
X161460595Y-92935000D01*
X162184404Y-92211190D02*
X162184404Y-92592142D01*
X161384404Y-92592142D01*
X164760404Y-93887380D02*
X163960404Y-93887380D01*
X164760404Y-93506428D02*
X163960404Y-93506428D01*
X163960404Y-93315952D01*
X163998500Y-93201666D01*
X164074690Y-93125476D01*
X164150880Y-93087380D01*
X164303261Y-93049285D01*
X164417547Y-93049285D01*
X164569928Y-93087380D01*
X164646119Y-93125476D01*
X164722309Y-93201666D01*
X164760404Y-93315952D01*
X164760404Y-93506428D01*
X164227071Y-92363571D02*
X164760404Y-92363571D01*
X163922309Y-92554047D02*
X164493738Y-92744523D01*
X164493738Y-92249285D01*
X167336404Y-93887380D02*
X166536404Y-93887380D01*
X167336404Y-93506428D02*
X166536404Y-93506428D01*
X166536404Y-93315952D01*
X166574500Y-93201666D01*
X166650690Y-93125476D01*
X166726880Y-93087380D01*
X166879261Y-93049285D01*
X166993547Y-93049285D01*
X167145928Y-93087380D01*
X167222119Y-93125476D01*
X167298309Y-93201666D01*
X167336404Y-93315952D01*
X167336404Y-93506428D01*
X166536404Y-92782619D02*
X166536404Y-92287380D01*
X166841166Y-92554047D01*
X166841166Y-92439761D01*
X166879261Y-92363571D01*
X166917357Y-92325476D01*
X166993547Y-92287380D01*
X167184023Y-92287380D01*
X167260214Y-92325476D01*
X167298309Y-92363571D01*
X167336404Y-92439761D01*
X167336404Y-92668333D01*
X167298309Y-92744523D01*
X167260214Y-92782619D01*
X169912404Y-93887380D02*
X169112404Y-93887380D01*
X169912404Y-93506428D02*
X169112404Y-93506428D01*
X169112404Y-93315952D01*
X169150500Y-93201666D01*
X169226690Y-93125476D01*
X169302880Y-93087380D01*
X169455261Y-93049285D01*
X169569547Y-93049285D01*
X169721928Y-93087380D01*
X169798119Y-93125476D01*
X169874309Y-93201666D01*
X169912404Y-93315952D01*
X169912404Y-93506428D01*
X169188595Y-92744523D02*
X169150500Y-92706428D01*
X169112404Y-92630238D01*
X169112404Y-92439761D01*
X169150500Y-92363571D01*
X169188595Y-92325476D01*
X169264785Y-92287380D01*
X169340976Y-92287380D01*
X169455261Y-92325476D01*
X169912404Y-92782619D01*
X169912404Y-92287380D01*
X172488404Y-93887380D02*
X171688404Y-93887380D01*
X172488404Y-93506428D02*
X171688404Y-93506428D01*
X171688404Y-93315952D01*
X171726500Y-93201666D01*
X171802690Y-93125476D01*
X171878880Y-93087380D01*
X172031261Y-93049285D01*
X172145547Y-93049285D01*
X172297928Y-93087380D01*
X172374119Y-93125476D01*
X172450309Y-93201666D01*
X172488404Y-93315952D01*
X172488404Y-93506428D01*
X172488404Y-92287380D02*
X172488404Y-92744523D01*
X172488404Y-92515952D02*
X171688404Y-92515952D01*
X171802690Y-92592142D01*
X171878880Y-92668333D01*
X171916976Y-92744523D01*
X175064404Y-95144523D02*
X175064404Y-95525476D01*
X174264404Y-95525476D01*
X174835833Y-94915952D02*
X174835833Y-94535000D01*
X175064404Y-94992142D02*
X174264404Y-94725476D01*
X175064404Y-94458809D01*
X174264404Y-94306428D02*
X174264404Y-93849285D01*
X175064404Y-94077857D02*
X174264404Y-94077857D01*
X174988214Y-93125476D02*
X175026309Y-93163571D01*
X175064404Y-93277857D01*
X175064404Y-93354047D01*
X175026309Y-93468333D01*
X174950119Y-93544523D01*
X174873928Y-93582619D01*
X174721547Y-93620714D01*
X174607261Y-93620714D01*
X174454880Y-93582619D01*
X174378690Y-93544523D01*
X174302500Y-93468333D01*
X174264404Y-93354047D01*
X174264404Y-93277857D01*
X174302500Y-93163571D01*
X174340595Y-93125476D01*
X175064404Y-92782619D02*
X174264404Y-92782619D01*
X174645357Y-92782619D02*
X174645357Y-92325476D01*
X175064404Y-92325476D02*
X174264404Y-92325476D01*
X177564214Y-93811190D02*
X177602309Y-93849285D01*
X177640404Y-93963571D01*
X177640404Y-94039761D01*
X177602309Y-94154047D01*
X177526119Y-94230238D01*
X177449928Y-94268333D01*
X177297547Y-94306428D01*
X177183261Y-94306428D01*
X177030880Y-94268333D01*
X176954690Y-94230238D01*
X176878500Y-94154047D01*
X176840404Y-94039761D01*
X176840404Y-93963571D01*
X176878500Y-93849285D01*
X176916595Y-93811190D01*
X177411833Y-93506428D02*
X177411833Y-93125476D01*
X177640404Y-93582619D02*
X176840404Y-93315952D01*
X177640404Y-93049285D01*
X177640404Y-92782619D02*
X176840404Y-92782619D01*
X177640404Y-92325476D01*
X176840404Y-92325476D01*
D13*
X162342500Y-96127500D02*
X162342500Y-102947500D01*
X166192500Y-96127500D02*
X165252500Y-96127500D01*
X166192500Y-102947500D02*
X165252500Y-102947500D01*
X174182500Y-96127500D02*
X172872500Y-96127500D01*
X163652500Y-96127500D02*
X162342500Y-96127500D01*
X163652500Y-102947500D02*
X162342500Y-102947500D01*
X171272500Y-96127500D02*
X170332500Y-96127500D01*
X174422500Y-95887500D02*
X173039500Y-95887500D01*
X168732500Y-96127500D02*
X167792500Y-96127500D01*
X174422500Y-95887500D02*
X174422500Y-97270500D01*
X174182500Y-96127500D02*
X174182500Y-102947500D01*
X168732500Y-102947500D02*
X167792500Y-102947500D01*
X171272500Y-102947500D02*
X170332500Y-102947500D01*
X174182500Y-102947500D02*
X172872500Y-102947500D01*
X187722500Y-75137500D02*
X187722500Y-71252500D01*
X187722500Y-71252500D02*
X184802500Y-71252500D01*
X184802500Y-71252500D02*
X184802500Y-75137500D01*
X155722500Y-71252500D02*
X152802500Y-71252500D01*
X152802500Y-71252500D02*
X152802500Y-75137500D01*
X155722500Y-75137500D02*
X155722500Y-71252500D01*
X197027500Y-79276248D02*
X197027500Y-79798752D01*
X198497500Y-79276248D02*
X198497500Y-79798752D01*
X140802500Y-110822500D02*
X143722500Y-110822500D01*
X143722500Y-110822500D02*
X143722500Y-106937500D01*
X140802500Y-106937500D02*
X140802500Y-110822500D01*
X192802500Y-71252500D02*
X192802500Y-75137500D01*
X195722500Y-75137500D02*
X195722500Y-71252500D01*
X195722500Y-71252500D02*
X192802500Y-71252500D01*
X151430121Y-105917500D02*
X151094879Y-105917500D01*
X151430121Y-105157500D02*
X151094879Y-105157500D01*
X136802500Y-106937500D02*
X136802500Y-110822500D01*
X136802500Y-110822500D02*
X139722500Y-110822500D01*
X139722500Y-110822500D02*
X139722500Y-106937500D01*
X156802500Y-110822500D02*
X159722500Y-110822500D01*
X156802500Y-106937500D02*
X156802500Y-110822500D01*
X159722500Y-110822500D02*
X159722500Y-106937500D01*
X137094879Y-76917500D02*
X137430121Y-76917500D01*
X137094879Y-76157500D02*
X137430121Y-76157500D01*
X134594879Y-76917500D02*
X134930121Y-76917500D01*
X134594879Y-76157500D02*
X134930121Y-76157500D01*
X185094879Y-76917500D02*
X185430121Y-76917500D01*
X185094879Y-76157500D02*
X185430121Y-76157500D01*
X153762500Y-97477500D02*
X154562500Y-97477500D01*
X153762500Y-100597500D02*
X152962500Y-100597500D01*
X153762500Y-100597500D02*
X155562500Y-100597500D01*
X153762500Y-97477500D02*
X152962500Y-97477500D01*
X190382500Y-87869879D02*
X190382500Y-88205121D01*
X191142500Y-87869879D02*
X191142500Y-88205121D01*
X183722500Y-110822500D02*
X183722500Y-106937500D01*
X180802500Y-110822500D02*
X183722500Y-110822500D01*
X180802500Y-106937500D02*
X180802500Y-110822500D01*
X200802500Y-106937500D02*
X200802500Y-110822500D01*
X200802500Y-110822500D02*
X203722500Y-110822500D01*
X203722500Y-110822500D02*
X203722500Y-106937500D01*
X176802500Y-71252500D02*
X176802500Y-75137500D01*
X179722500Y-71252500D02*
X176802500Y-71252500D01*
X179722500Y-75137500D02*
X179722500Y-71252500D01*
X182594879Y-76157500D02*
X182930121Y-76157500D01*
X182594879Y-76917500D02*
X182930121Y-76917500D01*
X204802500Y-110822500D02*
X207722500Y-110822500D01*
X204802500Y-106937500D02*
X204802500Y-110822500D01*
X207722500Y-110822500D02*
X207722500Y-106937500D01*
X201930121Y-105917500D02*
X201594879Y-105917500D01*
X201930121Y-105157500D02*
X201594879Y-105157500D01*
X188802500Y-71252500D02*
X188802500Y-75137500D01*
X191722500Y-71252500D02*
X188802500Y-71252500D01*
X191722500Y-75137500D02*
X191722500Y-71252500D01*
X148802500Y-71252500D02*
X148802500Y-75137500D01*
X151722500Y-71252500D02*
X148802500Y-71252500D01*
X151722500Y-75137500D02*
X151722500Y-71252500D01*
X150997500Y-79276248D02*
X150997500Y-79798752D01*
X149527500Y-79276248D02*
X149527500Y-79798752D01*
X144762500Y-77802500D02*
X141162500Y-77802500D01*
X144762500Y-83272500D02*
X142562500Y-83272500D01*
X144762500Y-77802500D02*
X146962500Y-77802500D01*
X144762500Y-83272500D02*
X146962500Y-83272500D01*
X142094879Y-76917500D02*
X142430121Y-76917500D01*
X142094879Y-76157500D02*
X142430121Y-76157500D01*
X143722500Y-71252500D02*
X140802500Y-71252500D01*
X140802500Y-71252500D02*
X140802500Y-75137500D01*
X143722500Y-75137500D02*
X143722500Y-71252500D01*
X199722500Y-110822500D02*
X199722500Y-106937500D01*
X196802500Y-110822500D02*
X199722500Y-110822500D01*
X196802500Y-106937500D02*
X196802500Y-110822500D01*
X196930121Y-105157500D02*
X196594879Y-105157500D01*
X196930121Y-105917500D02*
X196594879Y-105917500D01*
X131594879Y-105917500D02*
X131930121Y-105917500D01*
X131594879Y-105157500D02*
X131930121Y-105157500D01*
X179722500Y-110822500D02*
X179722500Y-106937500D01*
X176802500Y-106937500D02*
X176802500Y-110822500D01*
X176802500Y-110822500D02*
X179722500Y-110822500D01*
X192642500Y-106205121D02*
X192642500Y-105869879D01*
X191882500Y-106205121D02*
X191882500Y-105869879D01*
X160132500Y-90137500D02*
X161152500Y-90137500D01*
X158042500Y-90137500D02*
X158042500Y-84937500D01*
X158612500Y-91577500D02*
X158612500Y-90137500D01*
X167752500Y-90137500D02*
X168772500Y-90137500D01*
X177912500Y-84937500D02*
X178482500Y-84937500D01*
X165212500Y-90137500D02*
X166232500Y-90137500D01*
X172832500Y-84937500D02*
X173852500Y-84937500D01*
X167752500Y-84937500D02*
X168772500Y-84937500D01*
X162672500Y-84937500D02*
X163692500Y-84937500D01*
X165212500Y-84937500D02*
X166232500Y-84937500D01*
X162672500Y-90137500D02*
X163692500Y-90137500D01*
X170292500Y-90137500D02*
X171312500Y-90137500D01*
X158042500Y-90137500D02*
X158612500Y-90137500D01*
X170292500Y-84937500D02*
X171312500Y-84937500D01*
X172832500Y-90137500D02*
X173852500Y-90137500D01*
X178482500Y-90137500D02*
X178482500Y-84937500D01*
X158042500Y-84937500D02*
X158612500Y-84937500D01*
X175372500Y-90137500D02*
X176392500Y-90137500D01*
X175372500Y-84937500D02*
X176392500Y-84937500D01*
X160132500Y-84937500D02*
X161152500Y-84937500D01*
X177912500Y-90137500D02*
X178482500Y-90137500D01*
X204930121Y-76917500D02*
X204594879Y-76917500D01*
X204930121Y-76157500D02*
X204594879Y-76157500D01*
X134094879Y-105187500D02*
X134430121Y-105187500D01*
X134094879Y-105947500D02*
X134430121Y-105947500D01*
X139497500Y-102798752D02*
X139497500Y-102276248D01*
X138027500Y-102798752D02*
X138027500Y-102276248D01*
X136802500Y-71252500D02*
X136802500Y-75137500D01*
X139722500Y-75137500D02*
X139722500Y-71252500D01*
X139722500Y-71252500D02*
X136802500Y-71252500D01*
X189412500Y-93937500D02*
X189412500Y-90787500D01*
X191112500Y-93937500D02*
X191112500Y-90787500D01*
X189412500Y-93937500D02*
X191112500Y-93937500D01*
X191762500Y-104272500D02*
X189562500Y-104272500D01*
X191762500Y-98802500D02*
X189562500Y-98802500D01*
X191762500Y-98802500D02*
X193962500Y-98802500D01*
X191762500Y-104272500D02*
X195362500Y-104272500D01*
X184802500Y-106937500D02*
X184802500Y-110822500D01*
X184802500Y-110822500D02*
X187722500Y-110822500D01*
X187722500Y-110822500D02*
X187722500Y-106937500D01*
X192802500Y-106937500D02*
X192802500Y-110822500D01*
X195722500Y-110822500D02*
X195722500Y-106937500D01*
X192802500Y-110822500D02*
X195722500Y-110822500D01*
X132802500Y-110822500D02*
X135722500Y-110822500D01*
X135722500Y-110822500D02*
X135722500Y-106937500D01*
X132802500Y-106937500D02*
X132802500Y-110822500D01*
X131722500Y-71252500D02*
X128802500Y-71252500D01*
X128802500Y-71252500D02*
X128802500Y-75137500D01*
X131722500Y-75137500D02*
X131722500Y-71252500D01*
X144802500Y-106937500D02*
X144802500Y-110822500D01*
X147722500Y-110822500D02*
X147722500Y-106937500D01*
X144802500Y-110822500D02*
X147722500Y-110822500D01*
X202430121Y-76887500D02*
X202094879Y-76887500D01*
X202430121Y-76127500D02*
X202094879Y-76127500D01*
X135722500Y-75137500D02*
X135722500Y-71252500D01*
X132802500Y-71252500D02*
X132802500Y-75137500D01*
X135722500Y-71252500D02*
X132802500Y-71252500D01*
X188802500Y-106937500D02*
X188802500Y-110822500D01*
X191722500Y-110822500D02*
X191722500Y-106937500D01*
X188802500Y-110822500D02*
X191722500Y-110822500D01*
X207722500Y-75137500D02*
X207722500Y-71252500D01*
X207722500Y-71252500D02*
X204802500Y-71252500D01*
X204802500Y-71252500D02*
X204802500Y-75137500D01*
X153930121Y-105157500D02*
X153594879Y-105157500D01*
X153930121Y-105917500D02*
X153594879Y-105917500D01*
X144642500Y-106205121D02*
X144642500Y-105869879D01*
X143882500Y-106205121D02*
X143882500Y-105869879D01*
X151882500Y-75869879D02*
X151882500Y-76205121D01*
X152642500Y-75869879D02*
X152642500Y-76205121D01*
X174362500Y-77837500D02*
X174362500Y-78237500D01*
X177162500Y-78237500D02*
X177162500Y-80837500D01*
X159362500Y-78237500D02*
X162662500Y-78237500D01*
X177162500Y-80837500D02*
X173862500Y-80837500D01*
X159362500Y-80837500D02*
X159362500Y-78237500D01*
X162162500Y-80837500D02*
X159362500Y-80837500D01*
X174362500Y-78237500D02*
X177162500Y-78237500D01*
X157001248Y-80772500D02*
X157523752Y-80772500D01*
X157001248Y-79302500D02*
X157523752Y-79302500D01*
X173722500Y-75137500D02*
X173722500Y-71252500D01*
X173722500Y-71252500D02*
X170802500Y-71252500D01*
X170802500Y-71252500D02*
X170802500Y-75137500D01*
X192400000Y-95960000D02*
X196285000Y-95960000D01*
X196285000Y-95960000D02*
X196285000Y-93040000D01*
X196285000Y-93040000D02*
X192400000Y-93040000D01*
X152802500Y-106937500D02*
X152802500Y-110822500D01*
X152802500Y-110822500D02*
X155722500Y-110822500D01*
X155722500Y-110822500D02*
X155722500Y-106937500D01*
X194430121Y-105917500D02*
X194094879Y-105917500D01*
X194430121Y-105157500D02*
X194094879Y-105157500D01*
X192762500Y-77802500D02*
X194962500Y-77802500D01*
X192762500Y-83272500D02*
X190562500Y-83272500D01*
X192762500Y-83272500D02*
X194962500Y-83272500D01*
X192762500Y-77802500D02*
X189162500Y-77802500D01*
X190094879Y-76157500D02*
X190430121Y-76157500D01*
X190094879Y-76917500D02*
X190430121Y-76917500D01*
X199722500Y-75137500D02*
X199722500Y-71252500D01*
X196802500Y-71252500D02*
X196802500Y-75137500D01*
X199722500Y-71252500D02*
X196802500Y-71252500D01*
X180802500Y-71252500D02*
X180802500Y-75137500D01*
X183722500Y-71252500D02*
X180802500Y-71252500D01*
X183722500Y-75137500D02*
X183722500Y-71252500D01*
X131722500Y-110822500D02*
X131722500Y-106937500D01*
X128802500Y-106937500D02*
X128802500Y-110822500D01*
X128802500Y-110822500D02*
X131722500Y-110822500D01*
X159722500Y-71252500D02*
X156802500Y-71252500D01*
X156802500Y-71252500D02*
X156802500Y-75137500D01*
X159722500Y-75137500D02*
X159722500Y-71252500D01*
X156930121Y-76917500D02*
X156594879Y-76917500D01*
X156930121Y-76157500D02*
X156594879Y-76157500D01*
X189142500Y-87869879D02*
X189142500Y-88205121D01*
X188382500Y-87869879D02*
X188382500Y-88205121D01*
X144802500Y-71252500D02*
X144802500Y-75137500D01*
X147722500Y-75137500D02*
X147722500Y-71252500D01*
X147722500Y-71252500D02*
X144802500Y-71252500D01*
X148802500Y-110822500D02*
X151722500Y-110822500D01*
X151722500Y-110822500D02*
X151722500Y-106937500D01*
X148802500Y-106937500D02*
X148802500Y-110822500D01*
X148930121Y-105917500D02*
X148594879Y-105917500D01*
X148930121Y-105157500D02*
X148594879Y-105157500D01*
X183882500Y-106205121D02*
X183882500Y-105869879D01*
X184642500Y-106205121D02*
X184642500Y-105869879D01*
X136642500Y-106205121D02*
X136642500Y-105869879D01*
X135882500Y-106205121D02*
X135882500Y-105869879D01*
X146430121Y-105157500D02*
X146094879Y-105157500D01*
X146430121Y-105917500D02*
X146094879Y-105917500D01*
X192400000Y-88960000D02*
X196285000Y-88960000D01*
X196285000Y-86040000D02*
X192400000Y-86040000D01*
X196285000Y-88960000D02*
X196285000Y-86040000D01*
X199882500Y-75869879D02*
X199882500Y-76205121D01*
X200642500Y-75869879D02*
X200642500Y-76205121D01*
X185527500Y-102798752D02*
X185527500Y-102276248D01*
X186997500Y-102798752D02*
X186997500Y-102276248D01*
X199430121Y-105157500D02*
X199094879Y-105157500D01*
X199430121Y-105917500D02*
X199094879Y-105917500D01*
G36*
X142499980Y-92238631D02*
G01*
X142357007Y-92193800D01*
X142251191Y-92059309D01*
X142202726Y-91921273D01*
X142173647Y-91746260D01*
X142163954Y-91534269D01*
X142165444Y-91501959D01*
X142322274Y-91501959D01*
X142370739Y-91652201D01*
X142503211Y-91715206D01*
X142630836Y-91652201D01*
X142680917Y-91501959D01*
X142630836Y-91350101D01*
X142503211Y-91285481D01*
X142370739Y-91350101D01*
X142322274Y-91501959D01*
X142165444Y-91501959D01*
X142173647Y-91324073D01*
X142202726Y-91150137D01*
X142251191Y-91012460D01*
X142357007Y-90877968D01*
X142499980Y-90833138D01*
X142644972Y-90877968D01*
X142750384Y-91012460D01*
X142797951Y-91150137D01*
X142826492Y-91324073D01*
X142836006Y-91534269D01*
X142826492Y-91746260D01*
X142797951Y-91921273D01*
X142750384Y-92059309D01*
X142644972Y-92193800D01*
X142503211Y-92237632D01*
X142499980Y-92238631D01*
G37*
G36*
X139862322Y-92825144D02*
G01*
X139616037Y-92750434D01*
X139389059Y-92629112D01*
X139190111Y-92465839D01*
X139026839Y-92266892D01*
X138905517Y-92039914D01*
X138830807Y-91793628D01*
X138805580Y-91537500D01*
X138830807Y-91281372D01*
X138905517Y-91035086D01*
X139026839Y-90808108D01*
X139190111Y-90609161D01*
X139275461Y-90539116D01*
X140118720Y-90539116D01*
X140155876Y-90720053D01*
X140209188Y-90946224D01*
X140251909Y-91115493D01*
X140298221Y-91291584D01*
X140348122Y-91474495D01*
X140400895Y-91660997D01*
X140455823Y-91847857D01*
X140512904Y-92035077D01*
X140597718Y-92301636D01*
X140677686Y-92539116D01*
X141088025Y-92539116D01*
X141149773Y-92366974D01*
X141210086Y-92190884D01*
X141268962Y-92010844D01*
X141325505Y-91829907D01*
X141378817Y-91651124D01*
X141411949Y-91534269D01*
X141805311Y-91534269D01*
X141816418Y-91782250D01*
X141849737Y-91996305D01*
X141905271Y-92176434D01*
X141983017Y-92322637D01*
X142119438Y-92466238D01*
X142291759Y-92552399D01*
X142499980Y-92581119D01*
X142708201Y-92552399D01*
X142880522Y-92466238D01*
X143016943Y-92322637D01*
X143037561Y-92283865D01*
X143827928Y-92283865D01*
X143852161Y-92408259D01*
X143916781Y-92498728D01*
X144008865Y-92555271D01*
X144118720Y-92574657D01*
X144319043Y-92500343D01*
X144406280Y-92283865D01*
X144319043Y-92073849D01*
X144118720Y-91999536D01*
X144008865Y-92018922D01*
X143916781Y-92073849D01*
X143852161Y-92162702D01*
X143827928Y-92283865D01*
X143037561Y-92283865D01*
X143094689Y-92176434D01*
X143150222Y-91996305D01*
X143183542Y-91782250D01*
X143194649Y-91534269D01*
X143183542Y-91287803D01*
X143150222Y-91075061D01*
X143113263Y-90955917D01*
X145078332Y-90955917D01*
X145207573Y-91285481D01*
X145404665Y-91206321D01*
X145611450Y-91091620D01*
X145611450Y-92209552D01*
X145191418Y-92209552D01*
X145191418Y-92539116D01*
X146406280Y-92539116D01*
X146406280Y-92209552D01*
X146008865Y-92209552D01*
X146008865Y-90539116D01*
X145737460Y-90539116D01*
X145598526Y-90665125D01*
X145427282Y-90781442D01*
X145246345Y-90881603D01*
X145078332Y-90955917D01*
X143113263Y-90955917D01*
X143094689Y-90896042D01*
X143016943Y-90750747D01*
X142880522Y-90608044D01*
X142708201Y-90522422D01*
X142499980Y-90493881D01*
X142294990Y-90522601D01*
X142123746Y-90608762D01*
X141986248Y-90752363D01*
X141907088Y-90898162D01*
X141850545Y-91077080D01*
X141816620Y-91289116D01*
X141805311Y-91534269D01*
X141411949Y-91534269D01*
X141428897Y-91474495D01*
X141497557Y-91217225D01*
X141558138Y-90972072D01*
X141610238Y-90744285D01*
X141653453Y-90539116D01*
X141236652Y-90539116D01*
X141207573Y-90707128D01*
X141172032Y-90900989D01*
X141131644Y-91110602D01*
X141088025Y-91325868D01*
X141041175Y-91542347D01*
X140991095Y-91755594D01*
X140939398Y-91955513D01*
X140887702Y-92132007D01*
X140835602Y-91953090D01*
X140782694Y-91752363D01*
X140730998Y-91539116D01*
X140682532Y-91322637D01*
X140637702Y-91107775D01*
X140596910Y-90899374D01*
X140562985Y-90706725D01*
X140538752Y-90539116D01*
X140118720Y-90539116D01*
X139275461Y-90539116D01*
X139389059Y-90445888D01*
X139616037Y-90324566D01*
X139862322Y-90249856D01*
X140118450Y-90224630D01*
X146406550Y-90224630D01*
X146662678Y-90249856D01*
X146908963Y-90324566D01*
X147135941Y-90445888D01*
X147334889Y-90609161D01*
X147498161Y-90808108D01*
X147619483Y-91035086D01*
X147694193Y-91281372D01*
X147719420Y-91537500D01*
X147694193Y-91793628D01*
X147619483Y-92039914D01*
X147498161Y-92266892D01*
X147334889Y-92465839D01*
X147135941Y-92629112D01*
X146908963Y-92750434D01*
X146662678Y-92825144D01*
X146406550Y-92850370D01*
X140118450Y-92850370D01*
X139862322Y-92825144D01*
G37*
X182094879Y-105187500D02*
X182430121Y-105187500D01*
X182094879Y-105947500D02*
X182430121Y-105947500D01*
X139594879Y-76157500D02*
X139930121Y-76157500D01*
X139594879Y-76917500D02*
X139930121Y-76917500D01*
X203722500Y-75137500D02*
X203722500Y-71252500D01*
X203722500Y-71252500D02*
X200802500Y-71252500D01*
X200802500Y-71252500D02*
X200802500Y-75137500D01*
X175382500Y-75205121D02*
X175382500Y-74869879D01*
X176142500Y-75205121D02*
X176142500Y-74869879D01*
X143762500Y-98802500D02*
X145962500Y-98802500D01*
X143762500Y-98802500D02*
X141562500Y-98802500D01*
X143762500Y-104272500D02*
X147362500Y-104272500D01*
X143762500Y-104272500D02*
X141562500Y-104272500D01*
X153501248Y-96772500D02*
X154023752Y-96772500D01*
X153501248Y-95302500D02*
X154023752Y-95302500D01*
X165722500Y-71252500D02*
X162802500Y-71252500D01*
X162802500Y-71252500D02*
X162802500Y-75137500D01*
X165722500Y-75137500D02*
X165722500Y-71252500D01*
X179594879Y-105917500D02*
X179930121Y-105917500D01*
X179594879Y-105157500D02*
X179930121Y-105157500D01*
X169882500Y-75705121D02*
X169882500Y-75369879D01*
X170642500Y-75705121D02*
X170642500Y-75369879D01*
X187594879Y-76157500D02*
X187930121Y-76157500D01*
X187594879Y-76917500D02*
X187930121Y-76917500D01*
X166802500Y-71252500D02*
X166802500Y-75137500D01*
X169722500Y-71252500D02*
X166802500Y-71252500D01*
X169722500Y-75137500D02*
X169722500Y-71252500D01*
X174642500Y-74869879D02*
X174642500Y-75205121D01*
X173882500Y-74869879D02*
X173882500Y-75205121D01*
X161382500Y-74705121D02*
X161382500Y-74369879D01*
X162142500Y-74705121D02*
X162142500Y-74369879D01*
X143882500Y-75869879D02*
X143882500Y-76205121D01*
X144642500Y-75869879D02*
X144642500Y-76205121D01*
G36*
X132457977Y-80738631D02*
G01*
X132315004Y-80693800D01*
X132209188Y-80559309D01*
X132160723Y-80421273D01*
X132131644Y-80246260D01*
X132121951Y-80034269D01*
X132123441Y-80001959D01*
X132280271Y-80001959D01*
X132328736Y-80152201D01*
X132461208Y-80215206D01*
X132588833Y-80152201D01*
X132638914Y-80001959D01*
X132588833Y-79850101D01*
X132461208Y-79785481D01*
X132328736Y-79850101D01*
X132280271Y-80001959D01*
X132123441Y-80001959D01*
X132131644Y-79824073D01*
X132160723Y-79650137D01*
X132209188Y-79512460D01*
X132315004Y-79377968D01*
X132457977Y-79333138D01*
X132602968Y-79377968D01*
X132708380Y-79512460D01*
X132755948Y-79650137D01*
X132784489Y-79824073D01*
X132794002Y-80034269D01*
X132784489Y-80246260D01*
X132755948Y-80421273D01*
X132708380Y-80559309D01*
X132602968Y-80693800D01*
X132461208Y-80737632D01*
X132457977Y-80738631D01*
G37*
G36*
X135802888Y-80109794D02*
G01*
X135895779Y-80171587D01*
X135963631Y-80405836D01*
X135949091Y-80518922D01*
X135903857Y-80625545D01*
X135824697Y-80706321D01*
X135708380Y-80738631D01*
X135567831Y-80698243D01*
X135478978Y-80590004D01*
X135433744Y-80436531D01*
X135420820Y-80257209D01*
X135422435Y-80195820D01*
X135427282Y-80137662D01*
X135533905Y-80102120D01*
X135659915Y-80089196D01*
X135802888Y-80109794D01*
G37*
G36*
X129917249Y-81325144D02*
G01*
X129670964Y-81250434D01*
X129443986Y-81129112D01*
X129245038Y-80965839D01*
X129081766Y-80766892D01*
X128960444Y-80539914D01*
X128885734Y-80293628D01*
X128860508Y-80037500D01*
X128885734Y-79781372D01*
X128960444Y-79535086D01*
X129081766Y-79308108D01*
X129122212Y-79258825D01*
X130173647Y-79258825D01*
X130370739Y-79536692D01*
X130574293Y-79384834D01*
X130771385Y-79339600D01*
X130958784Y-79405836D01*
X131033098Y-79594851D01*
X130973324Y-79766095D01*
X130821466Y-79940569D01*
X130726151Y-80033057D01*
X130624374Y-80129584D01*
X130522597Y-80232169D01*
X130427282Y-80342831D01*
X130343275Y-80462783D01*
X130275424Y-80593235D01*
X130230594Y-80735400D01*
X130215650Y-80890489D01*
X130214035Y-80958340D01*
X130222112Y-81039116D01*
X131527443Y-81039116D01*
X131527443Y-80709552D01*
X130667993Y-80709552D01*
X130701918Y-80602928D01*
X130784309Y-80488227D01*
X130887702Y-80378372D01*
X130984632Y-80286288D01*
X131149414Y-80124737D01*
X131224805Y-80034269D01*
X131763308Y-80034269D01*
X131774414Y-80282250D01*
X131807734Y-80496305D01*
X131863267Y-80676434D01*
X131941014Y-80822637D01*
X132077434Y-80966238D01*
X132249755Y-81052399D01*
X132457977Y-81081119D01*
X132666198Y-81052399D01*
X132838519Y-80966238D01*
X132974939Y-80822637D01*
X133052686Y-80676434D01*
X133108219Y-80496305D01*
X133141539Y-80282250D01*
X133152645Y-80034269D01*
X133141539Y-79787803D01*
X133108219Y-79575061D01*
X133052686Y-79396042D01*
X132979262Y-79258825D01*
X133404665Y-79258825D01*
X133601757Y-79536692D01*
X133805311Y-79384834D01*
X134002403Y-79339600D01*
X134189802Y-79405836D01*
X134264116Y-79594851D01*
X134204342Y-79766095D01*
X134052484Y-79940569D01*
X133957169Y-80033057D01*
X133855392Y-80129584D01*
X133753615Y-80232169D01*
X133658300Y-80342831D01*
X133574293Y-80462783D01*
X133506442Y-80593235D01*
X133461611Y-80735400D01*
X133446668Y-80890489D01*
X133445053Y-80958340D01*
X133453130Y-81039116D01*
X134758461Y-81039116D01*
X134758461Y-80709552D01*
X133899011Y-80709552D01*
X133932936Y-80602928D01*
X134015327Y-80488227D01*
X134118720Y-80378372D01*
X134215650Y-80286288D01*
X134281562Y-80221668D01*
X135029867Y-80221668D01*
X135049432Y-80490740D01*
X135108129Y-80707757D01*
X135205957Y-80872718D01*
X135341121Y-80988496D01*
X135511827Y-81057963D01*
X135718074Y-81081119D01*
X135871547Y-81065368D01*
X136002403Y-81018114D01*
X136199495Y-80854947D01*
X136314196Y-80635238D01*
X136351353Y-80399374D01*
X136317427Y-80153817D01*
X136205957Y-79950263D01*
X136007250Y-79811329D01*
X135872758Y-79772557D01*
X135711611Y-79759632D01*
X135608219Y-79774172D01*
X135488671Y-79814560D01*
X135600141Y-79604544D01*
X135779463Y-79467225D01*
X136005634Y-79391296D01*
X136257653Y-79365448D01*
X136235036Y-79026191D01*
X135975747Y-79045578D01*
X135740691Y-79103736D01*
X135533905Y-79199859D01*
X135359431Y-79333138D01*
X135219285Y-79502767D01*
X135115489Y-79707936D01*
X135051272Y-79947839D01*
X135029867Y-80221668D01*
X134281562Y-80221668D01*
X134380432Y-80124737D01*
X134525828Y-79950263D01*
X134629221Y-79764479D01*
X134667993Y-79565771D01*
X134616296Y-79315368D01*
X134477363Y-79136046D01*
X134277040Y-79029422D01*
X134041175Y-78993881D01*
X133872758Y-79010036D01*
X133703534Y-79058502D01*
X133544002Y-79140893D01*
X133404665Y-79258825D01*
X132979262Y-79258825D01*
X132974939Y-79250747D01*
X132838519Y-79108044D01*
X132666198Y-79022422D01*
X132457977Y-78993881D01*
X132252986Y-79022601D01*
X132081743Y-79108762D01*
X131944245Y-79252363D01*
X131865085Y-79398162D01*
X131808542Y-79577080D01*
X131774616Y-79789116D01*
X131763308Y-80034269D01*
X131224805Y-80034269D01*
X131294810Y-79950263D01*
X131398203Y-79764479D01*
X131436975Y-79565771D01*
X131385279Y-79315368D01*
X131246345Y-79136046D01*
X131046022Y-79029422D01*
X130810158Y-78993881D01*
X130641741Y-79010036D01*
X130472516Y-79058502D01*
X130312985Y-79140893D01*
X130173647Y-79258825D01*
X129122212Y-79258825D01*
X129245038Y-79109161D01*
X129443986Y-78945888D01*
X129670964Y-78824566D01*
X129917249Y-78749856D01*
X130173378Y-78724630D01*
X136351622Y-78724630D01*
X136607751Y-78749856D01*
X136854036Y-78824566D01*
X137081014Y-78945888D01*
X137279962Y-79109161D01*
X137443234Y-79308108D01*
X137564556Y-79535086D01*
X137639266Y-79781372D01*
X137664492Y-80037500D01*
X137639266Y-80293628D01*
X137564556Y-80539914D01*
X137443234Y-80766892D01*
X137279962Y-80965839D01*
X137081014Y-81129112D01*
X136854036Y-81250434D01*
X136607751Y-81325144D01*
X136351622Y-81350370D01*
X130173378Y-81350370D01*
X129917249Y-81325144D01*
G37*
X154430121Y-76887500D02*
X154094879Y-76887500D01*
X154430121Y-76127500D02*
X154094879Y-76127500D01*
X191882500Y-75869879D02*
X191882500Y-76205121D01*
X192642500Y-75869879D02*
X192642500Y-76205121D01*
%LPC*%
D14*
X172072500Y-95092500D03*
X169532500Y-95092500D03*
X166992500Y-95092500D03*
X164452500Y-95092500D03*
X164452500Y-103982500D03*
X166992500Y-103982500D03*
X169532500Y-103982500D03*
X172072500Y-103982500D03*
D15*
X186262500Y-73537500D03*
G36*
G01*
X185577500Y-71512500D02*
X186947500Y-71512500D01*
G75*
G02*
X187137500Y-71702500I0J-190000D01*
G01*
X187137500Y-72272500D01*
G75*
G02*
X186947500Y-72462500I-190000J0D01*
G01*
X185577500Y-72462500D01*
G75*
G02*
X185387500Y-72272500I0J190000D01*
G01*
X185387500Y-71702500D01*
G75*
G02*
X185577500Y-71512500I190000J0D01*
G01*
G37*
G36*
G01*
X185577500Y-74612500D02*
X186947500Y-74612500D01*
G75*
G02*
X187137500Y-74802500I0J-190000D01*
G01*
X187137500Y-75372500D01*
G75*
G02*
X186947500Y-75562500I-190000J0D01*
G01*
X185577500Y-75562500D01*
G75*
G02*
X185387500Y-75372500I0J190000D01*
G01*
X185387500Y-74802500D01*
G75*
G02*
X185577500Y-74612500I190000J0D01*
G01*
G37*
X154262500Y-73537500D03*
G36*
G01*
X153577500Y-71512500D02*
X154947500Y-71512500D01*
G75*
G02*
X155137500Y-71702500I0J-190000D01*
G01*
X155137500Y-72272500D01*
G75*
G02*
X154947500Y-72462500I-190000J0D01*
G01*
X153577500Y-72462500D01*
G75*
G02*
X153387500Y-72272500I0J190000D01*
G01*
X153387500Y-71702500D01*
G75*
G02*
X153577500Y-71512500I190000J0D01*
G01*
G37*
G36*
G01*
X153577500Y-74612500D02*
X154947500Y-74612500D01*
G75*
G02*
X155137500Y-74802500I0J-190000D01*
G01*
X155137500Y-75372500D01*
G75*
G02*
X154947500Y-75562500I-190000J0D01*
G01*
X153577500Y-75562500D01*
G75*
G02*
X153387500Y-75372500I0J190000D01*
G01*
X153387500Y-74802500D01*
G75*
G02*
X153577500Y-74612500I190000J0D01*
G01*
G37*
D16*
X204262500Y-102037500D03*
G36*
G01*
X197287500Y-77912500D02*
X198237500Y-77912500D01*
G75*
G02*
X198487500Y-78162500I0J-250000D01*
G01*
X198487500Y-78837500D01*
G75*
G02*
X198237500Y-79087500I-250000J0D01*
G01*
X197287500Y-79087500D01*
G75*
G02*
X197037500Y-78837500I0J250000D01*
G01*
X197037500Y-78162500D01*
G75*
G02*
X197287500Y-77912500I250000J0D01*
G01*
G37*
G36*
G01*
X197287500Y-79987500D02*
X198237500Y-79987500D01*
G75*
G02*
X198487500Y-80237500I0J-250000D01*
G01*
X198487500Y-80912500D01*
G75*
G02*
X198237500Y-81162500I-250000J0D01*
G01*
X197287500Y-81162500D01*
G75*
G02*
X197037500Y-80912500I0J250000D01*
G01*
X197037500Y-80237500D01*
G75*
G02*
X197287500Y-79987500I250000J0D01*
G01*
G37*
D15*
X142262500Y-108537500D03*
G36*
G01*
X142947500Y-110562500D02*
X141577500Y-110562500D01*
G75*
G02*
X141387500Y-110372500I0J190000D01*
G01*
X141387500Y-109802500D01*
G75*
G02*
X141577500Y-109612500I190000J0D01*
G01*
X142947500Y-109612500D01*
G75*
G02*
X143137500Y-109802500I0J-190000D01*
G01*
X143137500Y-110372500D01*
G75*
G02*
X142947500Y-110562500I-190000J0D01*
G01*
G37*
G36*
G01*
X142947500Y-107462500D02*
X141577500Y-107462500D01*
G75*
G02*
X141387500Y-107272500I0J190000D01*
G01*
X141387500Y-106702500D01*
G75*
G02*
X141577500Y-106512500I190000J0D01*
G01*
X142947500Y-106512500D01*
G75*
G02*
X143137500Y-106702500I0J-190000D01*
G01*
X143137500Y-107272500D01*
G75*
G02*
X142947500Y-107462500I-190000J0D01*
G01*
G37*
X194262500Y-73537500D03*
G36*
G01*
X193577500Y-71512500D02*
X194947500Y-71512500D01*
G75*
G02*
X195137500Y-71702500I0J-190000D01*
G01*
X195137500Y-72272500D01*
G75*
G02*
X194947500Y-72462500I-190000J0D01*
G01*
X193577500Y-72462500D01*
G75*
G02*
X193387500Y-72272500I0J190000D01*
G01*
X193387500Y-71702500D01*
G75*
G02*
X193577500Y-71512500I190000J0D01*
G01*
G37*
G36*
G01*
X193577500Y-74612500D02*
X194947500Y-74612500D01*
G75*
G02*
X195137500Y-74802500I0J-190000D01*
G01*
X195137500Y-75372500D01*
G75*
G02*
X194947500Y-75562500I-190000J0D01*
G01*
X193577500Y-75562500D01*
G75*
G02*
X193387500Y-75372500I0J190000D01*
G01*
X193387500Y-74802500D01*
G75*
G02*
X193577500Y-74612500I190000J0D01*
G01*
G37*
G36*
G01*
X152217500Y-105377500D02*
X152217500Y-105697500D01*
G75*
G02*
X152057500Y-105857500I-160000J0D01*
G01*
X151662500Y-105857500D01*
G75*
G02*
X151502500Y-105697500I0J160000D01*
G01*
X151502500Y-105377500D01*
G75*
G02*
X151662500Y-105217500I160000J0D01*
G01*
X152057500Y-105217500D01*
G75*
G02*
X152217500Y-105377500I0J-160000D01*
G01*
G37*
G36*
G01*
X151022500Y-105377500D02*
X151022500Y-105697500D01*
G75*
G02*
X150862500Y-105857500I-160000J0D01*
G01*
X150467500Y-105857500D01*
G75*
G02*
X150307500Y-105697500I0J160000D01*
G01*
X150307500Y-105377500D01*
G75*
G02*
X150467500Y-105217500I160000J0D01*
G01*
X150862500Y-105217500D01*
G75*
G02*
X151022500Y-105377500I0J-160000D01*
G01*
G37*
X138262500Y-108537500D03*
G36*
G01*
X138947500Y-110562500D02*
X137577500Y-110562500D01*
G75*
G02*
X137387500Y-110372500I0J190000D01*
G01*
X137387500Y-109802500D01*
G75*
G02*
X137577500Y-109612500I190000J0D01*
G01*
X138947500Y-109612500D01*
G75*
G02*
X139137500Y-109802500I0J-190000D01*
G01*
X139137500Y-110372500D01*
G75*
G02*
X138947500Y-110562500I-190000J0D01*
G01*
G37*
G36*
G01*
X138947500Y-107462500D02*
X137577500Y-107462500D01*
G75*
G02*
X137387500Y-107272500I0J190000D01*
G01*
X137387500Y-106702500D01*
G75*
G02*
X137577500Y-106512500I190000J0D01*
G01*
X138947500Y-106512500D01*
G75*
G02*
X139137500Y-106702500I0J-190000D01*
G01*
X139137500Y-107272500D01*
G75*
G02*
X138947500Y-107462500I-190000J0D01*
G01*
G37*
X158262500Y-108537500D03*
G36*
G01*
X158947500Y-110562500D02*
X157577500Y-110562500D01*
G75*
G02*
X157387500Y-110372500I0J190000D01*
G01*
X157387500Y-109802500D01*
G75*
G02*
X157577500Y-109612500I190000J0D01*
G01*
X158947500Y-109612500D01*
G75*
G02*
X159137500Y-109802500I0J-190000D01*
G01*
X159137500Y-110372500D01*
G75*
G02*
X158947500Y-110562500I-190000J0D01*
G01*
G37*
G36*
G01*
X158947500Y-107462500D02*
X157577500Y-107462500D01*
G75*
G02*
X157387500Y-107272500I0J190000D01*
G01*
X157387500Y-106702500D01*
G75*
G02*
X157577500Y-106512500I190000J0D01*
G01*
X158947500Y-106512500D01*
G75*
G02*
X159137500Y-106702500I0J-190000D01*
G01*
X159137500Y-107272500D01*
G75*
G02*
X158947500Y-107462500I-190000J0D01*
G01*
G37*
G36*
G01*
X136307500Y-76697500D02*
X136307500Y-76377500D01*
G75*
G02*
X136467500Y-76217500I160000J0D01*
G01*
X136862500Y-76217500D01*
G75*
G02*
X137022500Y-76377500I0J-160000D01*
G01*
X137022500Y-76697500D01*
G75*
G02*
X136862500Y-76857500I-160000J0D01*
G01*
X136467500Y-76857500D01*
G75*
G02*
X136307500Y-76697500I0J160000D01*
G01*
G37*
G36*
G01*
X137502500Y-76697500D02*
X137502500Y-76377500D01*
G75*
G02*
X137662500Y-76217500I160000J0D01*
G01*
X138057500Y-76217500D01*
G75*
G02*
X138217500Y-76377500I0J-160000D01*
G01*
X138217500Y-76697500D01*
G75*
G02*
X138057500Y-76857500I-160000J0D01*
G01*
X137662500Y-76857500D01*
G75*
G02*
X137502500Y-76697500I0J160000D01*
G01*
G37*
G36*
G01*
X133807500Y-76697500D02*
X133807500Y-76377500D01*
G75*
G02*
X133967500Y-76217500I160000J0D01*
G01*
X134362500Y-76217500D01*
G75*
G02*
X134522500Y-76377500I0J-160000D01*
G01*
X134522500Y-76697500D01*
G75*
G02*
X134362500Y-76857500I-160000J0D01*
G01*
X133967500Y-76857500D01*
G75*
G02*
X133807500Y-76697500I0J160000D01*
G01*
G37*
G36*
G01*
X135002500Y-76697500D02*
X135002500Y-76377500D01*
G75*
G02*
X135162500Y-76217500I160000J0D01*
G01*
X135557500Y-76217500D01*
G75*
G02*
X135717500Y-76377500I0J-160000D01*
G01*
X135717500Y-76697500D01*
G75*
G02*
X135557500Y-76857500I-160000J0D01*
G01*
X135162500Y-76857500D01*
G75*
G02*
X135002500Y-76697500I0J160000D01*
G01*
G37*
G36*
G01*
X184307500Y-76697500D02*
X184307500Y-76377500D01*
G75*
G02*
X184467500Y-76217500I160000J0D01*
G01*
X184862500Y-76217500D01*
G75*
G02*
X185022500Y-76377500I0J-160000D01*
G01*
X185022500Y-76697500D01*
G75*
G02*
X184862500Y-76857500I-160000J0D01*
G01*
X184467500Y-76857500D01*
G75*
G02*
X184307500Y-76697500I0J160000D01*
G01*
G37*
G36*
G01*
X185502500Y-76697500D02*
X185502500Y-76377500D01*
G75*
G02*
X185662500Y-76217500I160000J0D01*
G01*
X186057500Y-76217500D01*
G75*
G02*
X186217500Y-76377500I0J-160000D01*
G01*
X186217500Y-76697500D01*
G75*
G02*
X186057500Y-76857500I-160000J0D01*
G01*
X185662500Y-76857500D01*
G75*
G02*
X185502500Y-76697500I0J160000D01*
G01*
G37*
G36*
G01*
X155562500Y-99837500D02*
X155562500Y-100137500D01*
G75*
G02*
X155412500Y-100287500I-150000J0D01*
G01*
X154387500Y-100287500D01*
G75*
G02*
X154237500Y-100137500I0J150000D01*
G01*
X154237500Y-99837500D01*
G75*
G02*
X154387500Y-99687500I150000J0D01*
G01*
X155412500Y-99687500D01*
G75*
G02*
X155562500Y-99837500I0J-150000D01*
G01*
G37*
G36*
G01*
X155562500Y-98887500D02*
X155562500Y-99187500D01*
G75*
G02*
X155412500Y-99337500I-150000J0D01*
G01*
X154387500Y-99337500D01*
G75*
G02*
X154237500Y-99187500I0J150000D01*
G01*
X154237500Y-98887500D01*
G75*
G02*
X154387500Y-98737500I150000J0D01*
G01*
X155412500Y-98737500D01*
G75*
G02*
X155562500Y-98887500I0J-150000D01*
G01*
G37*
G36*
G01*
X155562500Y-97937500D02*
X155562500Y-98237500D01*
G75*
G02*
X155412500Y-98387500I-150000J0D01*
G01*
X154387500Y-98387500D01*
G75*
G02*
X154237500Y-98237500I0J150000D01*
G01*
X154237500Y-97937500D01*
G75*
G02*
X154387500Y-97787500I150000J0D01*
G01*
X155412500Y-97787500D01*
G75*
G02*
X155562500Y-97937500I0J-150000D01*
G01*
G37*
G36*
G01*
X153287500Y-97937500D02*
X153287500Y-98237500D01*
G75*
G02*
X153137500Y-98387500I-150000J0D01*
G01*
X152112500Y-98387500D01*
G75*
G02*
X151962500Y-98237500I0J150000D01*
G01*
X151962500Y-97937500D01*
G75*
G02*
X152112500Y-97787500I150000J0D01*
G01*
X153137500Y-97787500D01*
G75*
G02*
X153287500Y-97937500I0J-150000D01*
G01*
G37*
G36*
G01*
X153287500Y-98887500D02*
X153287500Y-99187500D01*
G75*
G02*
X153137500Y-99337500I-150000J0D01*
G01*
X152112500Y-99337500D01*
G75*
G02*
X151962500Y-99187500I0J150000D01*
G01*
X151962500Y-98887500D01*
G75*
G02*
X152112500Y-98737500I150000J0D01*
G01*
X153137500Y-98737500D01*
G75*
G02*
X153287500Y-98887500I0J-150000D01*
G01*
G37*
G36*
G01*
X153287500Y-99837500D02*
X153287500Y-100137500D01*
G75*
G02*
X153137500Y-100287500I-150000J0D01*
G01*
X152112500Y-100287500D01*
G75*
G02*
X151962500Y-100137500I0J150000D01*
G01*
X151962500Y-99837500D01*
G75*
G02*
X152112500Y-99687500I150000J0D01*
G01*
X153137500Y-99687500D01*
G75*
G02*
X153287500Y-99837500I0J-150000D01*
G01*
G37*
G36*
G01*
X190602500Y-87082500D02*
X190922500Y-87082500D01*
G75*
G02*
X191082500Y-87242500I0J-160000D01*
G01*
X191082500Y-87637500D01*
G75*
G02*
X190922500Y-87797500I-160000J0D01*
G01*
X190602500Y-87797500D01*
G75*
G02*
X190442500Y-87637500I0J160000D01*
G01*
X190442500Y-87242500D01*
G75*
G02*
X190602500Y-87082500I160000J0D01*
G01*
G37*
G36*
G01*
X190602500Y-88277500D02*
X190922500Y-88277500D01*
G75*
G02*
X191082500Y-88437500I0J-160000D01*
G01*
X191082500Y-88832500D01*
G75*
G02*
X190922500Y-88992500I-160000J0D01*
G01*
X190602500Y-88992500D01*
G75*
G02*
X190442500Y-88832500I0J160000D01*
G01*
X190442500Y-88437500D01*
G75*
G02*
X190602500Y-88277500I160000J0D01*
G01*
G37*
X182262500Y-108537500D03*
G36*
G01*
X182947500Y-110562500D02*
X181577500Y-110562500D01*
G75*
G02*
X181387500Y-110372500I0J190000D01*
G01*
X181387500Y-109802500D01*
G75*
G02*
X181577500Y-109612500I190000J0D01*
G01*
X182947500Y-109612500D01*
G75*
G02*
X183137500Y-109802500I0J-190000D01*
G01*
X183137500Y-110372500D01*
G75*
G02*
X182947500Y-110562500I-190000J0D01*
G01*
G37*
G36*
G01*
X182947500Y-107462500D02*
X181577500Y-107462500D01*
G75*
G02*
X181387500Y-107272500I0J190000D01*
G01*
X181387500Y-106702500D01*
G75*
G02*
X181577500Y-106512500I190000J0D01*
G01*
X182947500Y-106512500D01*
G75*
G02*
X183137500Y-106702500I0J-190000D01*
G01*
X183137500Y-107272500D01*
G75*
G02*
X182947500Y-107462500I-190000J0D01*
G01*
G37*
X202262500Y-108537500D03*
G36*
G01*
X202947500Y-110562500D02*
X201577500Y-110562500D01*
G75*
G02*
X201387500Y-110372500I0J190000D01*
G01*
X201387500Y-109802500D01*
G75*
G02*
X201577500Y-109612500I190000J0D01*
G01*
X202947500Y-109612500D01*
G75*
G02*
X203137500Y-109802500I0J-190000D01*
G01*
X203137500Y-110372500D01*
G75*
G02*
X202947500Y-110562500I-190000J0D01*
G01*
G37*
G36*
G01*
X202947500Y-107462500D02*
X201577500Y-107462500D01*
G75*
G02*
X201387500Y-107272500I0J190000D01*
G01*
X201387500Y-106702500D01*
G75*
G02*
X201577500Y-106512500I190000J0D01*
G01*
X202947500Y-106512500D01*
G75*
G02*
X203137500Y-106702500I0J-190000D01*
G01*
X203137500Y-107272500D01*
G75*
G02*
X202947500Y-107462500I-190000J0D01*
G01*
G37*
X178262500Y-73537500D03*
G36*
G01*
X177577500Y-71512500D02*
X178947500Y-71512500D01*
G75*
G02*
X179137500Y-71702500I0J-190000D01*
G01*
X179137500Y-72272500D01*
G75*
G02*
X178947500Y-72462500I-190000J0D01*
G01*
X177577500Y-72462500D01*
G75*
G02*
X177387500Y-72272500I0J190000D01*
G01*
X177387500Y-71702500D01*
G75*
G02*
X177577500Y-71512500I190000J0D01*
G01*
G37*
G36*
G01*
X177577500Y-74612500D02*
X178947500Y-74612500D01*
G75*
G02*
X179137500Y-74802500I0J-190000D01*
G01*
X179137500Y-75372500D01*
G75*
G02*
X178947500Y-75562500I-190000J0D01*
G01*
X177577500Y-75562500D01*
G75*
G02*
X177387500Y-75372500I0J190000D01*
G01*
X177387500Y-74802500D01*
G75*
G02*
X177577500Y-74612500I190000J0D01*
G01*
G37*
G36*
G01*
X181807500Y-76697500D02*
X181807500Y-76377500D01*
G75*
G02*
X181967500Y-76217500I160000J0D01*
G01*
X182362500Y-76217500D01*
G75*
G02*
X182522500Y-76377500I0J-160000D01*
G01*
X182522500Y-76697500D01*
G75*
G02*
X182362500Y-76857500I-160000J0D01*
G01*
X181967500Y-76857500D01*
G75*
G02*
X181807500Y-76697500I0J160000D01*
G01*
G37*
G36*
G01*
X183002500Y-76697500D02*
X183002500Y-76377500D01*
G75*
G02*
X183162500Y-76217500I160000J0D01*
G01*
X183557500Y-76217500D01*
G75*
G02*
X183717500Y-76377500I0J-160000D01*
G01*
X183717500Y-76697500D01*
G75*
G02*
X183557500Y-76857500I-160000J0D01*
G01*
X183162500Y-76857500D01*
G75*
G02*
X183002500Y-76697500I0J160000D01*
G01*
G37*
X206262500Y-108537500D03*
G36*
G01*
X206947500Y-110562500D02*
X205577500Y-110562500D01*
G75*
G02*
X205387500Y-110372500I0J190000D01*
G01*
X205387500Y-109802500D01*
G75*
G02*
X205577500Y-109612500I190000J0D01*
G01*
X206947500Y-109612500D01*
G75*
G02*
X207137500Y-109802500I0J-190000D01*
G01*
X207137500Y-110372500D01*
G75*
G02*
X206947500Y-110562500I-190000J0D01*
G01*
G37*
G36*
G01*
X206947500Y-107462500D02*
X205577500Y-107462500D01*
G75*
G02*
X205387500Y-107272500I0J190000D01*
G01*
X205387500Y-106702500D01*
G75*
G02*
X205577500Y-106512500I190000J0D01*
G01*
X206947500Y-106512500D01*
G75*
G02*
X207137500Y-106702500I0J-190000D01*
G01*
X207137500Y-107272500D01*
G75*
G02*
X206947500Y-107462500I-190000J0D01*
G01*
G37*
G36*
G01*
X202717500Y-105377500D02*
X202717500Y-105697500D01*
G75*
G02*
X202557500Y-105857500I-160000J0D01*
G01*
X202162500Y-105857500D01*
G75*
G02*
X202002500Y-105697500I0J160000D01*
G01*
X202002500Y-105377500D01*
G75*
G02*
X202162500Y-105217500I160000J0D01*
G01*
X202557500Y-105217500D01*
G75*
G02*
X202717500Y-105377500I0J-160000D01*
G01*
G37*
G36*
G01*
X201522500Y-105377500D02*
X201522500Y-105697500D01*
G75*
G02*
X201362500Y-105857500I-160000J0D01*
G01*
X200967500Y-105857500D01*
G75*
G02*
X200807500Y-105697500I0J160000D01*
G01*
X200807500Y-105377500D01*
G75*
G02*
X200967500Y-105217500I160000J0D01*
G01*
X201362500Y-105217500D01*
G75*
G02*
X201522500Y-105377500I0J-160000D01*
G01*
G37*
X190262500Y-73537500D03*
G36*
G01*
X189577500Y-71512500D02*
X190947500Y-71512500D01*
G75*
G02*
X191137500Y-71702500I0J-190000D01*
G01*
X191137500Y-72272500D01*
G75*
G02*
X190947500Y-72462500I-190000J0D01*
G01*
X189577500Y-72462500D01*
G75*
G02*
X189387500Y-72272500I0J190000D01*
G01*
X189387500Y-71702500D01*
G75*
G02*
X189577500Y-71512500I190000J0D01*
G01*
G37*
G36*
G01*
X189577500Y-74612500D02*
X190947500Y-74612500D01*
G75*
G02*
X191137500Y-74802500I0J-190000D01*
G01*
X191137500Y-75372500D01*
G75*
G02*
X190947500Y-75562500I-190000J0D01*
G01*
X189577500Y-75562500D01*
G75*
G02*
X189387500Y-75372500I0J190000D01*
G01*
X189387500Y-74802500D01*
G75*
G02*
X189577500Y-74612500I190000J0D01*
G01*
G37*
X150262500Y-73537500D03*
G36*
G01*
X149577500Y-71512500D02*
X150947500Y-71512500D01*
G75*
G02*
X151137500Y-71702500I0J-190000D01*
G01*
X151137500Y-72272500D01*
G75*
G02*
X150947500Y-72462500I-190000J0D01*
G01*
X149577500Y-72462500D01*
G75*
G02*
X149387500Y-72272500I0J190000D01*
G01*
X149387500Y-71702500D01*
G75*
G02*
X149577500Y-71512500I190000J0D01*
G01*
G37*
G36*
G01*
X149577500Y-74612500D02*
X150947500Y-74612500D01*
G75*
G02*
X151137500Y-74802500I0J-190000D01*
G01*
X151137500Y-75372500D01*
G75*
G02*
X150947500Y-75562500I-190000J0D01*
G01*
X149577500Y-75562500D01*
G75*
G02*
X149387500Y-75372500I0J190000D01*
G01*
X149387500Y-74802500D01*
G75*
G02*
X149577500Y-74612500I190000J0D01*
G01*
G37*
G36*
G01*
X149787500Y-77912500D02*
X150737500Y-77912500D01*
G75*
G02*
X150987500Y-78162500I0J-250000D01*
G01*
X150987500Y-78837500D01*
G75*
G02*
X150737500Y-79087500I-250000J0D01*
G01*
X149787500Y-79087500D01*
G75*
G02*
X149537500Y-78837500I0J250000D01*
G01*
X149537500Y-78162500D01*
G75*
G02*
X149787500Y-77912500I250000J0D01*
G01*
G37*
G36*
G01*
X149787500Y-79987500D02*
X150737500Y-79987500D01*
G75*
G02*
X150987500Y-80237500I0J-250000D01*
G01*
X150987500Y-80912500D01*
G75*
G02*
X150737500Y-81162500I-250000J0D01*
G01*
X149787500Y-81162500D01*
G75*
G02*
X149537500Y-80912500I0J250000D01*
G01*
X149537500Y-80237500D01*
G75*
G02*
X149787500Y-79987500I250000J0D01*
G01*
G37*
G36*
G01*
X141162500Y-78362500D02*
X141162500Y-78162500D01*
G75*
G02*
X141262500Y-78062500I100000J0D01*
G01*
X142537500Y-78062500D01*
G75*
G02*
X142637500Y-78162500I0J-100000D01*
G01*
X142637500Y-78362500D01*
G75*
G02*
X142537500Y-78462500I-100000J0D01*
G01*
X141262500Y-78462500D01*
G75*
G02*
X141162500Y-78362500I0J100000D01*
G01*
G37*
G36*
G01*
X141162500Y-79012500D02*
X141162500Y-78812500D01*
G75*
G02*
X141262500Y-78712500I100000J0D01*
G01*
X142537500Y-78712500D01*
G75*
G02*
X142637500Y-78812500I0J-100000D01*
G01*
X142637500Y-79012500D01*
G75*
G02*
X142537500Y-79112500I-100000J0D01*
G01*
X141262500Y-79112500D01*
G75*
G02*
X141162500Y-79012500I0J100000D01*
G01*
G37*
G36*
G01*
X141162500Y-79662500D02*
X141162500Y-79462500D01*
G75*
G02*
X141262500Y-79362500I100000J0D01*
G01*
X142537500Y-79362500D01*
G75*
G02*
X142637500Y-79462500I0J-100000D01*
G01*
X142637500Y-79662500D01*
G75*
G02*
X142537500Y-79762500I-100000J0D01*
G01*
X141262500Y-79762500D01*
G75*
G02*
X141162500Y-79662500I0J100000D01*
G01*
G37*
G36*
G01*
X141162500Y-80312500D02*
X141162500Y-80112500D01*
G75*
G02*
X141262500Y-80012500I100000J0D01*
G01*
X142537500Y-80012500D01*
G75*
G02*
X142637500Y-80112500I0J-100000D01*
G01*
X142637500Y-80312500D01*
G75*
G02*
X142537500Y-80412500I-100000J0D01*
G01*
X141262500Y-80412500D01*
G75*
G02*
X141162500Y-80312500I0J100000D01*
G01*
G37*
G36*
G01*
X141162500Y-80962500D02*
X141162500Y-80762500D01*
G75*
G02*
X141262500Y-80662500I100000J0D01*
G01*
X142537500Y-80662500D01*
G75*
G02*
X142637500Y-80762500I0J-100000D01*
G01*
X142637500Y-80962500D01*
G75*
G02*
X142537500Y-81062500I-100000J0D01*
G01*
X141262500Y-81062500D01*
G75*
G02*
X141162500Y-80962500I0J100000D01*
G01*
G37*
G36*
G01*
X141162500Y-81612500D02*
X141162500Y-81412500D01*
G75*
G02*
X141262500Y-81312500I100000J0D01*
G01*
X142537500Y-81312500D01*
G75*
G02*
X142637500Y-81412500I0J-100000D01*
G01*
X142637500Y-81612500D01*
G75*
G02*
X142537500Y-81712500I-100000J0D01*
G01*
X141262500Y-81712500D01*
G75*
G02*
X141162500Y-81612500I0J100000D01*
G01*
G37*
G36*
G01*
X141162500Y-82262500D02*
X141162500Y-82062500D01*
G75*
G02*
X141262500Y-81962500I100000J0D01*
G01*
X142537500Y-81962500D01*
G75*
G02*
X142637500Y-82062500I0J-100000D01*
G01*
X142637500Y-82262500D01*
G75*
G02*
X142537500Y-82362500I-100000J0D01*
G01*
X141262500Y-82362500D01*
G75*
G02*
X141162500Y-82262500I0J100000D01*
G01*
G37*
G36*
G01*
X141162500Y-82912500D02*
X141162500Y-82712500D01*
G75*
G02*
X141262500Y-82612500I100000J0D01*
G01*
X142537500Y-82612500D01*
G75*
G02*
X142637500Y-82712500I0J-100000D01*
G01*
X142637500Y-82912500D01*
G75*
G02*
X142537500Y-83012500I-100000J0D01*
G01*
X141262500Y-83012500D01*
G75*
G02*
X141162500Y-82912500I0J100000D01*
G01*
G37*
G36*
G01*
X146887500Y-82912500D02*
X146887500Y-82712500D01*
G75*
G02*
X146987500Y-82612500I100000J0D01*
G01*
X148262500Y-82612500D01*
G75*
G02*
X148362500Y-82712500I0J-100000D01*
G01*
X148362500Y-82912500D01*
G75*
G02*
X148262500Y-83012500I-100000J0D01*
G01*
X146987500Y-83012500D01*
G75*
G02*
X146887500Y-82912500I0J100000D01*
G01*
G37*
G36*
G01*
X146887500Y-82262500D02*
X146887500Y-82062500D01*
G75*
G02*
X146987500Y-81962500I100000J0D01*
G01*
X148262500Y-81962500D01*
G75*
G02*
X148362500Y-82062500I0J-100000D01*
G01*
X148362500Y-82262500D01*
G75*
G02*
X148262500Y-82362500I-100000J0D01*
G01*
X146987500Y-82362500D01*
G75*
G02*
X146887500Y-82262500I0J100000D01*
G01*
G37*
G36*
G01*
X146887500Y-81612500D02*
X146887500Y-81412500D01*
G75*
G02*
X146987500Y-81312500I100000J0D01*
G01*
X148262500Y-81312500D01*
G75*
G02*
X148362500Y-81412500I0J-100000D01*
G01*
X148362500Y-81612500D01*
G75*
G02*
X148262500Y-81712500I-100000J0D01*
G01*
X146987500Y-81712500D01*
G75*
G02*
X146887500Y-81612500I0J100000D01*
G01*
G37*
G36*
G01*
X146887500Y-80962500D02*
X146887500Y-80762500D01*
G75*
G02*
X146987500Y-80662500I100000J0D01*
G01*
X148262500Y-80662500D01*
G75*
G02*
X148362500Y-80762500I0J-100000D01*
G01*
X148362500Y-80962500D01*
G75*
G02*
X148262500Y-81062500I-100000J0D01*
G01*
X146987500Y-81062500D01*
G75*
G02*
X146887500Y-80962500I0J100000D01*
G01*
G37*
G36*
G01*
X146887500Y-80312500D02*
X146887500Y-80112500D01*
G75*
G02*
X146987500Y-80012500I100000J0D01*
G01*
X148262500Y-80012500D01*
G75*
G02*
X148362500Y-80112500I0J-100000D01*
G01*
X148362500Y-80312500D01*
G75*
G02*
X148262500Y-80412500I-100000J0D01*
G01*
X146987500Y-80412500D01*
G75*
G02*
X146887500Y-80312500I0J100000D01*
G01*
G37*
G36*
G01*
X146887500Y-79662500D02*
X146887500Y-79462500D01*
G75*
G02*
X146987500Y-79362500I100000J0D01*
G01*
X148262500Y-79362500D01*
G75*
G02*
X148362500Y-79462500I0J-100000D01*
G01*
X148362500Y-79662500D01*
G75*
G02*
X148262500Y-79762500I-100000J0D01*
G01*
X146987500Y-79762500D01*
G75*
G02*
X146887500Y-79662500I0J100000D01*
G01*
G37*
G36*
G01*
X146887500Y-79012500D02*
X146887500Y-78812500D01*
G75*
G02*
X146987500Y-78712500I100000J0D01*
G01*
X148262500Y-78712500D01*
G75*
G02*
X148362500Y-78812500I0J-100000D01*
G01*
X148362500Y-79012500D01*
G75*
G02*
X148262500Y-79112500I-100000J0D01*
G01*
X146987500Y-79112500D01*
G75*
G02*
X146887500Y-79012500I0J100000D01*
G01*
G37*
G36*
G01*
X146887500Y-78362500D02*
X146887500Y-78162500D01*
G75*
G02*
X146987500Y-78062500I100000J0D01*
G01*
X148262500Y-78062500D01*
G75*
G02*
X148362500Y-78162500I0J-100000D01*
G01*
X148362500Y-78362500D01*
G75*
G02*
X148262500Y-78462500I-100000J0D01*
G01*
X146987500Y-78462500D01*
G75*
G02*
X146887500Y-78362500I0J100000D01*
G01*
G37*
G36*
G01*
X141307500Y-76697500D02*
X141307500Y-76377500D01*
G75*
G02*
X141467500Y-76217500I160000J0D01*
G01*
X141862500Y-76217500D01*
G75*
G02*
X142022500Y-76377500I0J-160000D01*
G01*
X142022500Y-76697500D01*
G75*
G02*
X141862500Y-76857500I-160000J0D01*
G01*
X141467500Y-76857500D01*
G75*
G02*
X141307500Y-76697500I0J160000D01*
G01*
G37*
G36*
G01*
X142502500Y-76697500D02*
X142502500Y-76377500D01*
G75*
G02*
X142662500Y-76217500I160000J0D01*
G01*
X143057500Y-76217500D01*
G75*
G02*
X143217500Y-76377500I0J-160000D01*
G01*
X143217500Y-76697500D01*
G75*
G02*
X143057500Y-76857500I-160000J0D01*
G01*
X142662500Y-76857500D01*
G75*
G02*
X142502500Y-76697500I0J160000D01*
G01*
G37*
X142262500Y-73537500D03*
G36*
G01*
X141577500Y-71512500D02*
X142947500Y-71512500D01*
G75*
G02*
X143137500Y-71702500I0J-190000D01*
G01*
X143137500Y-72272500D01*
G75*
G02*
X142947500Y-72462500I-190000J0D01*
G01*
X141577500Y-72462500D01*
G75*
G02*
X141387500Y-72272500I0J190000D01*
G01*
X141387500Y-71702500D01*
G75*
G02*
X141577500Y-71512500I190000J0D01*
G01*
G37*
G36*
G01*
X141577500Y-74612500D02*
X142947500Y-74612500D01*
G75*
G02*
X143137500Y-74802500I0J-190000D01*
G01*
X143137500Y-75372500D01*
G75*
G02*
X142947500Y-75562500I-190000J0D01*
G01*
X141577500Y-75562500D01*
G75*
G02*
X141387500Y-75372500I0J190000D01*
G01*
X141387500Y-74802500D01*
G75*
G02*
X141577500Y-74612500I190000J0D01*
G01*
G37*
X198262500Y-108537500D03*
G36*
G01*
X198947500Y-110562500D02*
X197577500Y-110562500D01*
G75*
G02*
X197387500Y-110372500I0J190000D01*
G01*
X197387500Y-109802500D01*
G75*
G02*
X197577500Y-109612500I190000J0D01*
G01*
X198947500Y-109612500D01*
G75*
G02*
X199137500Y-109802500I0J-190000D01*
G01*
X199137500Y-110372500D01*
G75*
G02*
X198947500Y-110562500I-190000J0D01*
G01*
G37*
G36*
G01*
X198947500Y-107462500D02*
X197577500Y-107462500D01*
G75*
G02*
X197387500Y-107272500I0J190000D01*
G01*
X197387500Y-106702500D01*
G75*
G02*
X197577500Y-106512500I190000J0D01*
G01*
X198947500Y-106512500D01*
G75*
G02*
X199137500Y-106702500I0J-190000D01*
G01*
X199137500Y-107272500D01*
G75*
G02*
X198947500Y-107462500I-190000J0D01*
G01*
G37*
G36*
G01*
X197717500Y-105377500D02*
X197717500Y-105697500D01*
G75*
G02*
X197557500Y-105857500I-160000J0D01*
G01*
X197162500Y-105857500D01*
G75*
G02*
X197002500Y-105697500I0J160000D01*
G01*
X197002500Y-105377500D01*
G75*
G02*
X197162500Y-105217500I160000J0D01*
G01*
X197557500Y-105217500D01*
G75*
G02*
X197717500Y-105377500I0J-160000D01*
G01*
G37*
G36*
G01*
X196522500Y-105377500D02*
X196522500Y-105697500D01*
G75*
G02*
X196362500Y-105857500I-160000J0D01*
G01*
X195967500Y-105857500D01*
G75*
G02*
X195807500Y-105697500I0J160000D01*
G01*
X195807500Y-105377500D01*
G75*
G02*
X195967500Y-105217500I160000J0D01*
G01*
X196362500Y-105217500D01*
G75*
G02*
X196522500Y-105377500I0J-160000D01*
G01*
G37*
G36*
G01*
X130807500Y-105697500D02*
X130807500Y-105377500D01*
G75*
G02*
X130967500Y-105217500I160000J0D01*
G01*
X131362500Y-105217500D01*
G75*
G02*
X131522500Y-105377500I0J-160000D01*
G01*
X131522500Y-105697500D01*
G75*
G02*
X131362500Y-105857500I-160000J0D01*
G01*
X130967500Y-105857500D01*
G75*
G02*
X130807500Y-105697500I0J160000D01*
G01*
G37*
G36*
G01*
X132002500Y-105697500D02*
X132002500Y-105377500D01*
G75*
G02*
X132162500Y-105217500I160000J0D01*
G01*
X132557500Y-105217500D01*
G75*
G02*
X132717500Y-105377500I0J-160000D01*
G01*
X132717500Y-105697500D01*
G75*
G02*
X132557500Y-105857500I-160000J0D01*
G01*
X132162500Y-105857500D01*
G75*
G02*
X132002500Y-105697500I0J160000D01*
G01*
G37*
X178262500Y-108537500D03*
G36*
G01*
X178947500Y-110562500D02*
X177577500Y-110562500D01*
G75*
G02*
X177387500Y-110372500I0J190000D01*
G01*
X177387500Y-109802500D01*
G75*
G02*
X177577500Y-109612500I190000J0D01*
G01*
X178947500Y-109612500D01*
G75*
G02*
X179137500Y-109802500I0J-190000D01*
G01*
X179137500Y-110372500D01*
G75*
G02*
X178947500Y-110562500I-190000J0D01*
G01*
G37*
G36*
G01*
X178947500Y-107462500D02*
X177577500Y-107462500D01*
G75*
G02*
X177387500Y-107272500I0J190000D01*
G01*
X177387500Y-106702500D01*
G75*
G02*
X177577500Y-106512500I190000J0D01*
G01*
X178947500Y-106512500D01*
G75*
G02*
X179137500Y-106702500I0J-190000D01*
G01*
X179137500Y-107272500D01*
G75*
G02*
X178947500Y-107462500I-190000J0D01*
G01*
G37*
G36*
G01*
X192422500Y-106992500D02*
X192102500Y-106992500D01*
G75*
G02*
X191942500Y-106832500I0J160000D01*
G01*
X191942500Y-106437500D01*
G75*
G02*
X192102500Y-106277500I160000J0D01*
G01*
X192422500Y-106277500D01*
G75*
G02*
X192582500Y-106437500I0J-160000D01*
G01*
X192582500Y-106832500D01*
G75*
G02*
X192422500Y-106992500I-160000J0D01*
G01*
G37*
G36*
G01*
X192422500Y-105797500D02*
X192102500Y-105797500D01*
G75*
G02*
X191942500Y-105637500I0J160000D01*
G01*
X191942500Y-105242500D01*
G75*
G02*
X192102500Y-105082500I160000J0D01*
G01*
X192422500Y-105082500D01*
G75*
G02*
X192582500Y-105242500I0J-160000D01*
G01*
X192582500Y-105637500D01*
G75*
G02*
X192422500Y-105797500I-160000J0D01*
G01*
G37*
D17*
X159372500Y-90062500D03*
X159372500Y-85012500D03*
X161912500Y-90062500D03*
X161912500Y-85012500D03*
X164452500Y-90062500D03*
X164452500Y-85012500D03*
X166992500Y-90062500D03*
X166992500Y-85012500D03*
X169532500Y-90062500D03*
X169532500Y-85012500D03*
X172072500Y-90062500D03*
X172072500Y-85012500D03*
X174612500Y-90062500D03*
X174612500Y-85012500D03*
X177152500Y-90062500D03*
X177152500Y-85012500D03*
G36*
G01*
X205717500Y-76377500D02*
X205717500Y-76697500D01*
G75*
G02*
X205557500Y-76857500I-160000J0D01*
G01*
X205162500Y-76857500D01*
G75*
G02*
X205002500Y-76697500I0J160000D01*
G01*
X205002500Y-76377500D01*
G75*
G02*
X205162500Y-76217500I160000J0D01*
G01*
X205557500Y-76217500D01*
G75*
G02*
X205717500Y-76377500I0J-160000D01*
G01*
G37*
G36*
G01*
X204522500Y-76377500D02*
X204522500Y-76697500D01*
G75*
G02*
X204362500Y-76857500I-160000J0D01*
G01*
X203967500Y-76857500D01*
G75*
G02*
X203807500Y-76697500I0J160000D01*
G01*
X203807500Y-76377500D01*
G75*
G02*
X203967500Y-76217500I160000J0D01*
G01*
X204362500Y-76217500D01*
G75*
G02*
X204522500Y-76377500I0J-160000D01*
G01*
G37*
G36*
G01*
X133307500Y-105727500D02*
X133307500Y-105407500D01*
G75*
G02*
X133467500Y-105247500I160000J0D01*
G01*
X133862500Y-105247500D01*
G75*
G02*
X134022500Y-105407500I0J-160000D01*
G01*
X134022500Y-105727500D01*
G75*
G02*
X133862500Y-105887500I-160000J0D01*
G01*
X133467500Y-105887500D01*
G75*
G02*
X133307500Y-105727500I0J160000D01*
G01*
G37*
G36*
G01*
X134502500Y-105727500D02*
X134502500Y-105407500D01*
G75*
G02*
X134662500Y-105247500I160000J0D01*
G01*
X135057500Y-105247500D01*
G75*
G02*
X135217500Y-105407500I0J-160000D01*
G01*
X135217500Y-105727500D01*
G75*
G02*
X135057500Y-105887500I-160000J0D01*
G01*
X134662500Y-105887500D01*
G75*
G02*
X134502500Y-105727500I0J160000D01*
G01*
G37*
G36*
G01*
X139237500Y-104162500D02*
X138287500Y-104162500D01*
G75*
G02*
X138037500Y-103912500I0J250000D01*
G01*
X138037500Y-103237500D01*
G75*
G02*
X138287500Y-102987500I250000J0D01*
G01*
X139237500Y-102987500D01*
G75*
G02*
X139487500Y-103237500I0J-250000D01*
G01*
X139487500Y-103912500D01*
G75*
G02*
X139237500Y-104162500I-250000J0D01*
G01*
G37*
G36*
G01*
X139237500Y-102087500D02*
X138287500Y-102087500D01*
G75*
G02*
X138037500Y-101837500I0J250000D01*
G01*
X138037500Y-101162500D01*
G75*
G02*
X138287500Y-100912500I250000J0D01*
G01*
X139237500Y-100912500D01*
G75*
G02*
X139487500Y-101162500I0J-250000D01*
G01*
X139487500Y-101837500D01*
G75*
G02*
X139237500Y-102087500I-250000J0D01*
G01*
G37*
D15*
X138262500Y-73537500D03*
G36*
G01*
X137577500Y-71512500D02*
X138947500Y-71512500D01*
G75*
G02*
X139137500Y-71702500I0J-190000D01*
G01*
X139137500Y-72272500D01*
G75*
G02*
X138947500Y-72462500I-190000J0D01*
G01*
X137577500Y-72462500D01*
G75*
G02*
X137387500Y-72272500I0J190000D01*
G01*
X137387500Y-71702500D01*
G75*
G02*
X137577500Y-71512500I190000J0D01*
G01*
G37*
G36*
G01*
X137577500Y-74612500D02*
X138947500Y-74612500D01*
G75*
G02*
X139137500Y-74802500I0J-190000D01*
G01*
X139137500Y-75372500D01*
G75*
G02*
X138947500Y-75562500I-190000J0D01*
G01*
X137577500Y-75562500D01*
G75*
G02*
X137387500Y-75372500I0J190000D01*
G01*
X137387500Y-74802500D01*
G75*
G02*
X137577500Y-74612500I190000J0D01*
G01*
G37*
D18*
X190262500Y-93287500D03*
X190262500Y-90787500D03*
G36*
G01*
X195362500Y-103712500D02*
X195362500Y-103912500D01*
G75*
G02*
X195262500Y-104012500I-100000J0D01*
G01*
X193987500Y-104012500D01*
G75*
G02*
X193887500Y-103912500I0J100000D01*
G01*
X193887500Y-103712500D01*
G75*
G02*
X193987500Y-103612500I100000J0D01*
G01*
X195262500Y-103612500D01*
G75*
G02*
X195362500Y-103712500I0J-100000D01*
G01*
G37*
G36*
G01*
X195362500Y-103062500D02*
X195362500Y-103262500D01*
G75*
G02*
X195262500Y-103362500I-100000J0D01*
G01*
X193987500Y-103362500D01*
G75*
G02*
X193887500Y-103262500I0J100000D01*
G01*
X193887500Y-103062500D01*
G75*
G02*
X193987500Y-102962500I100000J0D01*
G01*
X195262500Y-102962500D01*
G75*
G02*
X195362500Y-103062500I0J-100000D01*
G01*
G37*
G36*
G01*
X195362500Y-102412500D02*
X195362500Y-102612500D01*
G75*
G02*
X195262500Y-102712500I-100000J0D01*
G01*
X193987500Y-102712500D01*
G75*
G02*
X193887500Y-102612500I0J100000D01*
G01*
X193887500Y-102412500D01*
G75*
G02*
X193987500Y-102312500I100000J0D01*
G01*
X195262500Y-102312500D01*
G75*
G02*
X195362500Y-102412500I0J-100000D01*
G01*
G37*
G36*
G01*
X195362500Y-101762500D02*
X195362500Y-101962500D01*
G75*
G02*
X195262500Y-102062500I-100000J0D01*
G01*
X193987500Y-102062500D01*
G75*
G02*
X193887500Y-101962500I0J100000D01*
G01*
X193887500Y-101762500D01*
G75*
G02*
X193987500Y-101662500I100000J0D01*
G01*
X195262500Y-101662500D01*
G75*
G02*
X195362500Y-101762500I0J-100000D01*
G01*
G37*
G36*
G01*
X195362500Y-101112500D02*
X195362500Y-101312500D01*
G75*
G02*
X195262500Y-101412500I-100000J0D01*
G01*
X193987500Y-101412500D01*
G75*
G02*
X193887500Y-101312500I0J100000D01*
G01*
X193887500Y-101112500D01*
G75*
G02*
X193987500Y-101012500I100000J0D01*
G01*
X195262500Y-101012500D01*
G75*
G02*
X195362500Y-101112500I0J-100000D01*
G01*
G37*
G36*
G01*
X195362500Y-100462500D02*
X195362500Y-100662500D01*
G75*
G02*
X195262500Y-100762500I-100000J0D01*
G01*
X193987500Y-100762500D01*
G75*
G02*
X193887500Y-100662500I0J100000D01*
G01*
X193887500Y-100462500D01*
G75*
G02*
X193987500Y-100362500I100000J0D01*
G01*
X195262500Y-100362500D01*
G75*
G02*
X195362500Y-100462500I0J-100000D01*
G01*
G37*
G36*
G01*
X195362500Y-99812500D02*
X195362500Y-100012500D01*
G75*
G02*
X195262500Y-100112500I-100000J0D01*
G01*
X193987500Y-100112500D01*
G75*
G02*
X193887500Y-100012500I0J100000D01*
G01*
X193887500Y-99812500D01*
G75*
G02*
X193987500Y-99712500I100000J0D01*
G01*
X195262500Y-99712500D01*
G75*
G02*
X195362500Y-99812500I0J-100000D01*
G01*
G37*
G36*
G01*
X195362500Y-99162500D02*
X195362500Y-99362500D01*
G75*
G02*
X195262500Y-99462500I-100000J0D01*
G01*
X193987500Y-99462500D01*
G75*
G02*
X193887500Y-99362500I0J100000D01*
G01*
X193887500Y-99162500D01*
G75*
G02*
X193987500Y-99062500I100000J0D01*
G01*
X195262500Y-99062500D01*
G75*
G02*
X195362500Y-99162500I0J-100000D01*
G01*
G37*
G36*
G01*
X189637500Y-99162500D02*
X189637500Y-99362500D01*
G75*
G02*
X189537500Y-99462500I-100000J0D01*
G01*
X188262500Y-99462500D01*
G75*
G02*
X188162500Y-99362500I0J100000D01*
G01*
X188162500Y-99162500D01*
G75*
G02*
X188262500Y-99062500I100000J0D01*
G01*
X189537500Y-99062500D01*
G75*
G02*
X189637500Y-99162500I0J-100000D01*
G01*
G37*
G36*
G01*
X189637500Y-99812500D02*
X189637500Y-100012500D01*
G75*
G02*
X189537500Y-100112500I-100000J0D01*
G01*
X188262500Y-100112500D01*
G75*
G02*
X188162500Y-100012500I0J100000D01*
G01*
X188162500Y-99812500D01*
G75*
G02*
X188262500Y-99712500I100000J0D01*
G01*
X189537500Y-99712500D01*
G75*
G02*
X189637500Y-99812500I0J-100000D01*
G01*
G37*
G36*
G01*
X189637500Y-100462500D02*
X189637500Y-100662500D01*
G75*
G02*
X189537500Y-100762500I-100000J0D01*
G01*
X188262500Y-100762500D01*
G75*
G02*
X188162500Y-100662500I0J100000D01*
G01*
X188162500Y-100462500D01*
G75*
G02*
X188262500Y-100362500I100000J0D01*
G01*
X189537500Y-100362500D01*
G75*
G02*
X189637500Y-100462500I0J-100000D01*
G01*
G37*
G36*
G01*
X189637500Y-101112500D02*
X189637500Y-101312500D01*
G75*
G02*
X189537500Y-101412500I-100000J0D01*
G01*
X188262500Y-101412500D01*
G75*
G02*
X188162500Y-101312500I0J100000D01*
G01*
X188162500Y-101112500D01*
G75*
G02*
X188262500Y-101012500I100000J0D01*
G01*
X189537500Y-101012500D01*
G75*
G02*
X189637500Y-101112500I0J-100000D01*
G01*
G37*
G36*
G01*
X189637500Y-101762500D02*
X189637500Y-101962500D01*
G75*
G02*
X189537500Y-102062500I-100000J0D01*
G01*
X188262500Y-102062500D01*
G75*
G02*
X188162500Y-101962500I0J100000D01*
G01*
X188162500Y-101762500D01*
G75*
G02*
X188262500Y-101662500I100000J0D01*
G01*
X189537500Y-101662500D01*
G75*
G02*
X189637500Y-101762500I0J-100000D01*
G01*
G37*
G36*
G01*
X189637500Y-102412500D02*
X189637500Y-102612500D01*
G75*
G02*
X189537500Y-102712500I-100000J0D01*
G01*
X188262500Y-102712500D01*
G75*
G02*
X188162500Y-102612500I0J100000D01*
G01*
X188162500Y-102412500D01*
G75*
G02*
X188262500Y-102312500I100000J0D01*
G01*
X189537500Y-102312500D01*
G75*
G02*
X189637500Y-102412500I0J-100000D01*
G01*
G37*
G36*
G01*
X189637500Y-103062500D02*
X189637500Y-103262500D01*
G75*
G02*
X189537500Y-103362500I-100000J0D01*
G01*
X188262500Y-103362500D01*
G75*
G02*
X188162500Y-103262500I0J100000D01*
G01*
X188162500Y-103062500D01*
G75*
G02*
X188262500Y-102962500I100000J0D01*
G01*
X189537500Y-102962500D01*
G75*
G02*
X189637500Y-103062500I0J-100000D01*
G01*
G37*
G36*
G01*
X189637500Y-103712500D02*
X189637500Y-103912500D01*
G75*
G02*
X189537500Y-104012500I-100000J0D01*
G01*
X188262500Y-104012500D01*
G75*
G02*
X188162500Y-103912500I0J100000D01*
G01*
X188162500Y-103712500D01*
G75*
G02*
X188262500Y-103612500I100000J0D01*
G01*
X189537500Y-103612500D01*
G75*
G02*
X189637500Y-103712500I0J-100000D01*
G01*
G37*
D15*
X186262500Y-108537500D03*
G36*
G01*
X186947500Y-110562500D02*
X185577500Y-110562500D01*
G75*
G02*
X185387500Y-110372500I0J190000D01*
G01*
X185387500Y-109802500D01*
G75*
G02*
X185577500Y-109612500I190000J0D01*
G01*
X186947500Y-109612500D01*
G75*
G02*
X187137500Y-109802500I0J-190000D01*
G01*
X187137500Y-110372500D01*
G75*
G02*
X186947500Y-110562500I-190000J0D01*
G01*
G37*
G36*
G01*
X186947500Y-107462500D02*
X185577500Y-107462500D01*
G75*
G02*
X185387500Y-107272500I0J190000D01*
G01*
X185387500Y-106702500D01*
G75*
G02*
X185577500Y-106512500I190000J0D01*
G01*
X186947500Y-106512500D01*
G75*
G02*
X187137500Y-106702500I0J-190000D01*
G01*
X187137500Y-107272500D01*
G75*
G02*
X186947500Y-107462500I-190000J0D01*
G01*
G37*
X194262500Y-108537500D03*
G36*
G01*
X194947500Y-110562500D02*
X193577500Y-110562500D01*
G75*
G02*
X193387500Y-110372500I0J190000D01*
G01*
X193387500Y-109802500D01*
G75*
G02*
X193577500Y-109612500I190000J0D01*
G01*
X194947500Y-109612500D01*
G75*
G02*
X195137500Y-109802500I0J-190000D01*
G01*
X195137500Y-110372500D01*
G75*
G02*
X194947500Y-110562500I-190000J0D01*
G01*
G37*
G36*
G01*
X194947500Y-107462500D02*
X193577500Y-107462500D01*
G75*
G02*
X193387500Y-107272500I0J190000D01*
G01*
X193387500Y-106702500D01*
G75*
G02*
X193577500Y-106512500I190000J0D01*
G01*
X194947500Y-106512500D01*
G75*
G02*
X195137500Y-106702500I0J-190000D01*
G01*
X195137500Y-107272500D01*
G75*
G02*
X194947500Y-107462500I-190000J0D01*
G01*
G37*
X134262500Y-108537500D03*
G36*
G01*
X134947500Y-110562500D02*
X133577500Y-110562500D01*
G75*
G02*
X133387500Y-110372500I0J190000D01*
G01*
X133387500Y-109802500D01*
G75*
G02*
X133577500Y-109612500I190000J0D01*
G01*
X134947500Y-109612500D01*
G75*
G02*
X135137500Y-109802500I0J-190000D01*
G01*
X135137500Y-110372500D01*
G75*
G02*
X134947500Y-110562500I-190000J0D01*
G01*
G37*
G36*
G01*
X134947500Y-107462500D02*
X133577500Y-107462500D01*
G75*
G02*
X133387500Y-107272500I0J190000D01*
G01*
X133387500Y-106702500D01*
G75*
G02*
X133577500Y-106512500I190000J0D01*
G01*
X134947500Y-106512500D01*
G75*
G02*
X135137500Y-106702500I0J-190000D01*
G01*
X135137500Y-107272500D01*
G75*
G02*
X134947500Y-107462500I-190000J0D01*
G01*
G37*
X130262500Y-73537500D03*
G36*
G01*
X129577500Y-71512500D02*
X130947500Y-71512500D01*
G75*
G02*
X131137500Y-71702500I0J-190000D01*
G01*
X131137500Y-72272500D01*
G75*
G02*
X130947500Y-72462500I-190000J0D01*
G01*
X129577500Y-72462500D01*
G75*
G02*
X129387500Y-72272500I0J190000D01*
G01*
X129387500Y-71702500D01*
G75*
G02*
X129577500Y-71512500I190000J0D01*
G01*
G37*
G36*
G01*
X129577500Y-74612500D02*
X130947500Y-74612500D01*
G75*
G02*
X131137500Y-74802500I0J-190000D01*
G01*
X131137500Y-75372500D01*
G75*
G02*
X130947500Y-75562500I-190000J0D01*
G01*
X129577500Y-75562500D01*
G75*
G02*
X129387500Y-75372500I0J190000D01*
G01*
X129387500Y-74802500D01*
G75*
G02*
X129577500Y-74612500I190000J0D01*
G01*
G37*
X146262500Y-108537500D03*
G36*
G01*
X146947500Y-110562500D02*
X145577500Y-110562500D01*
G75*
G02*
X145387500Y-110372500I0J190000D01*
G01*
X145387500Y-109802500D01*
G75*
G02*
X145577500Y-109612500I190000J0D01*
G01*
X146947500Y-109612500D01*
G75*
G02*
X147137500Y-109802500I0J-190000D01*
G01*
X147137500Y-110372500D01*
G75*
G02*
X146947500Y-110562500I-190000J0D01*
G01*
G37*
G36*
G01*
X146947500Y-107462500D02*
X145577500Y-107462500D01*
G75*
G02*
X145387500Y-107272500I0J190000D01*
G01*
X145387500Y-106702500D01*
G75*
G02*
X145577500Y-106512500I190000J0D01*
G01*
X146947500Y-106512500D01*
G75*
G02*
X147137500Y-106702500I0J-190000D01*
G01*
X147137500Y-107272500D01*
G75*
G02*
X146947500Y-107462500I-190000J0D01*
G01*
G37*
G36*
G01*
X203217500Y-76347500D02*
X203217500Y-76667500D01*
G75*
G02*
X203057500Y-76827500I-160000J0D01*
G01*
X202662500Y-76827500D01*
G75*
G02*
X202502500Y-76667500I0J160000D01*
G01*
X202502500Y-76347500D01*
G75*
G02*
X202662500Y-76187500I160000J0D01*
G01*
X203057500Y-76187500D01*
G75*
G02*
X203217500Y-76347500I0J-160000D01*
G01*
G37*
G36*
G01*
X202022500Y-76347500D02*
X202022500Y-76667500D01*
G75*
G02*
X201862500Y-76827500I-160000J0D01*
G01*
X201467500Y-76827500D01*
G75*
G02*
X201307500Y-76667500I0J160000D01*
G01*
X201307500Y-76347500D01*
G75*
G02*
X201467500Y-76187500I160000J0D01*
G01*
X201862500Y-76187500D01*
G75*
G02*
X202022500Y-76347500I0J-160000D01*
G01*
G37*
X134262500Y-73537500D03*
G36*
G01*
X133577500Y-71512500D02*
X134947500Y-71512500D01*
G75*
G02*
X135137500Y-71702500I0J-190000D01*
G01*
X135137500Y-72272500D01*
G75*
G02*
X134947500Y-72462500I-190000J0D01*
G01*
X133577500Y-72462500D01*
G75*
G02*
X133387500Y-72272500I0J190000D01*
G01*
X133387500Y-71702500D01*
G75*
G02*
X133577500Y-71512500I190000J0D01*
G01*
G37*
G36*
G01*
X133577500Y-74612500D02*
X134947500Y-74612500D01*
G75*
G02*
X135137500Y-74802500I0J-190000D01*
G01*
X135137500Y-75372500D01*
G75*
G02*
X134947500Y-75562500I-190000J0D01*
G01*
X133577500Y-75562500D01*
G75*
G02*
X133387500Y-75372500I0J190000D01*
G01*
X133387500Y-74802500D01*
G75*
G02*
X133577500Y-74612500I190000J0D01*
G01*
G37*
D19*
X183262500Y-90037500D03*
D20*
X183262500Y-90037500D03*
D15*
X190262500Y-108537500D03*
G36*
G01*
X190947500Y-110562500D02*
X189577500Y-110562500D01*
G75*
G02*
X189387500Y-110372500I0J190000D01*
G01*
X189387500Y-109802500D01*
G75*
G02*
X189577500Y-109612500I190000J0D01*
G01*
X190947500Y-109612500D01*
G75*
G02*
X191137500Y-109802500I0J-190000D01*
G01*
X191137500Y-110372500D01*
G75*
G02*
X190947500Y-110562500I-190000J0D01*
G01*
G37*
G36*
G01*
X190947500Y-107462500D02*
X189577500Y-107462500D01*
G75*
G02*
X189387500Y-107272500I0J190000D01*
G01*
X189387500Y-106702500D01*
G75*
G02*
X189577500Y-106512500I190000J0D01*
G01*
X190947500Y-106512500D01*
G75*
G02*
X191137500Y-106702500I0J-190000D01*
G01*
X191137500Y-107272500D01*
G75*
G02*
X190947500Y-107462500I-190000J0D01*
G01*
G37*
X206262500Y-73537500D03*
G36*
G01*
X205577500Y-71512500D02*
X206947500Y-71512500D01*
G75*
G02*
X207137500Y-71702500I0J-190000D01*
G01*
X207137500Y-72272500D01*
G75*
G02*
X206947500Y-72462500I-190000J0D01*
G01*
X205577500Y-72462500D01*
G75*
G02*
X205387500Y-72272500I0J190000D01*
G01*
X205387500Y-71702500D01*
G75*
G02*
X205577500Y-71512500I190000J0D01*
G01*
G37*
G36*
G01*
X205577500Y-74612500D02*
X206947500Y-74612500D01*
G75*
G02*
X207137500Y-74802500I0J-190000D01*
G01*
X207137500Y-75372500D01*
G75*
G02*
X206947500Y-75562500I-190000J0D01*
G01*
X205577500Y-75562500D01*
G75*
G02*
X205387500Y-75372500I0J190000D01*
G01*
X205387500Y-74802500D01*
G75*
G02*
X205577500Y-74612500I190000J0D01*
G01*
G37*
G36*
G01*
X154717500Y-105377500D02*
X154717500Y-105697500D01*
G75*
G02*
X154557500Y-105857500I-160000J0D01*
G01*
X154162500Y-105857500D01*
G75*
G02*
X154002500Y-105697500I0J160000D01*
G01*
X154002500Y-105377500D01*
G75*
G02*
X154162500Y-105217500I160000J0D01*
G01*
X154557500Y-105217500D01*
G75*
G02*
X154717500Y-105377500I0J-160000D01*
G01*
G37*
G36*
G01*
X153522500Y-105377500D02*
X153522500Y-105697500D01*
G75*
G02*
X153362500Y-105857500I-160000J0D01*
G01*
X152967500Y-105857500D01*
G75*
G02*
X152807500Y-105697500I0J160000D01*
G01*
X152807500Y-105377500D01*
G75*
G02*
X152967500Y-105217500I160000J0D01*
G01*
X153362500Y-105217500D01*
G75*
G02*
X153522500Y-105377500I0J-160000D01*
G01*
G37*
G36*
G01*
X144422500Y-106992500D02*
X144102500Y-106992500D01*
G75*
G02*
X143942500Y-106832500I0J160000D01*
G01*
X143942500Y-106437500D01*
G75*
G02*
X144102500Y-106277500I160000J0D01*
G01*
X144422500Y-106277500D01*
G75*
G02*
X144582500Y-106437500I0J-160000D01*
G01*
X144582500Y-106832500D01*
G75*
G02*
X144422500Y-106992500I-160000J0D01*
G01*
G37*
G36*
G01*
X144422500Y-105797500D02*
X144102500Y-105797500D01*
G75*
G02*
X143942500Y-105637500I0J160000D01*
G01*
X143942500Y-105242500D01*
G75*
G02*
X144102500Y-105082500I160000J0D01*
G01*
X144422500Y-105082500D01*
G75*
G02*
X144582500Y-105242500I0J-160000D01*
G01*
X144582500Y-105637500D01*
G75*
G02*
X144422500Y-105797500I-160000J0D01*
G01*
G37*
G36*
G01*
X152102500Y-75082500D02*
X152422500Y-75082500D01*
G75*
G02*
X152582500Y-75242500I0J-160000D01*
G01*
X152582500Y-75637500D01*
G75*
G02*
X152422500Y-75797500I-160000J0D01*
G01*
X152102500Y-75797500D01*
G75*
G02*
X151942500Y-75637500I0J160000D01*
G01*
X151942500Y-75242500D01*
G75*
G02*
X152102500Y-75082500I160000J0D01*
G01*
G37*
G36*
G01*
X152102500Y-76277500D02*
X152422500Y-76277500D01*
G75*
G02*
X152582500Y-76437500I0J-160000D01*
G01*
X152582500Y-76832500D01*
G75*
G02*
X152422500Y-76992500I-160000J0D01*
G01*
X152102500Y-76992500D01*
G75*
G02*
X151942500Y-76832500I0J160000D01*
G01*
X151942500Y-76437500D01*
G75*
G02*
X152102500Y-76277500I160000J0D01*
G01*
G37*
G36*
G01*
X173812500Y-79037500D02*
X173812500Y-77887500D01*
G75*
G02*
X173912500Y-77787500I100000J0D01*
G01*
X174112500Y-77787500D01*
G75*
G02*
X174212500Y-77887500I0J-100000D01*
G01*
X174212500Y-79037500D01*
G75*
G02*
X174112500Y-79137500I-100000J0D01*
G01*
X173912500Y-79137500D01*
G75*
G02*
X173812500Y-79037500I0J100000D01*
G01*
G37*
G36*
G01*
X173312500Y-81187500D02*
X173312500Y-80037500D01*
G75*
G02*
X173412500Y-79937500I100000J0D01*
G01*
X173612500Y-79937500D01*
G75*
G02*
X173712500Y-80037500I0J-100000D01*
G01*
X173712500Y-81187500D01*
G75*
G02*
X173612500Y-81287500I-100000J0D01*
G01*
X173412500Y-81287500D01*
G75*
G02*
X173312500Y-81187500I0J100000D01*
G01*
G37*
G36*
G01*
X172812500Y-79037500D02*
X172812500Y-77887500D01*
G75*
G02*
X172912500Y-77787500I100000J0D01*
G01*
X173112500Y-77787500D01*
G75*
G02*
X173212500Y-77887500I0J-100000D01*
G01*
X173212500Y-79037500D01*
G75*
G02*
X173112500Y-79137500I-100000J0D01*
G01*
X172912500Y-79137500D01*
G75*
G02*
X172812500Y-79037500I0J100000D01*
G01*
G37*
G36*
G01*
X172312500Y-81187500D02*
X172312500Y-80037500D01*
G75*
G02*
X172412500Y-79937500I100000J0D01*
G01*
X172612500Y-79937500D01*
G75*
G02*
X172712500Y-80037500I0J-100000D01*
G01*
X172712500Y-81187500D01*
G75*
G02*
X172612500Y-81287500I-100000J0D01*
G01*
X172412500Y-81287500D01*
G75*
G02*
X172312500Y-81187500I0J100000D01*
G01*
G37*
G36*
G01*
X171812500Y-79037500D02*
X171812500Y-77887500D01*
G75*
G02*
X171912500Y-77787500I100000J0D01*
G01*
X172112500Y-77787500D01*
G75*
G02*
X172212500Y-77887500I0J-100000D01*
G01*
X172212500Y-79037500D01*
G75*
G02*
X172112500Y-79137500I-100000J0D01*
G01*
X171912500Y-79137500D01*
G75*
G02*
X171812500Y-79037500I0J100000D01*
G01*
G37*
G36*
G01*
X171312500Y-81187500D02*
X171312500Y-80037500D01*
G75*
G02*
X171412500Y-79937500I100000J0D01*
G01*
X171612500Y-79937500D01*
G75*
G02*
X171712500Y-80037500I0J-100000D01*
G01*
X171712500Y-81187500D01*
G75*
G02*
X171612500Y-81287500I-100000J0D01*
G01*
X171412500Y-81287500D01*
G75*
G02*
X171312500Y-81187500I0J100000D01*
G01*
G37*
G36*
G01*
X170812500Y-79037500D02*
X170812500Y-77887500D01*
G75*
G02*
X170912500Y-77787500I100000J0D01*
G01*
X171112500Y-77787500D01*
G75*
G02*
X171212500Y-77887500I0J-100000D01*
G01*
X171212500Y-79037500D01*
G75*
G02*
X171112500Y-79137500I-100000J0D01*
G01*
X170912500Y-79137500D01*
G75*
G02*
X170812500Y-79037500I0J100000D01*
G01*
G37*
G36*
G01*
X170312500Y-81187500D02*
X170312500Y-80037500D01*
G75*
G02*
X170412500Y-79937500I100000J0D01*
G01*
X170612500Y-79937500D01*
G75*
G02*
X170712500Y-80037500I0J-100000D01*
G01*
X170712500Y-81187500D01*
G75*
G02*
X170612500Y-81287500I-100000J0D01*
G01*
X170412500Y-81287500D01*
G75*
G02*
X170312500Y-81187500I0J100000D01*
G01*
G37*
G36*
G01*
X169812500Y-79037500D02*
X169812500Y-77887500D01*
G75*
G02*
X169912500Y-77787500I100000J0D01*
G01*
X170112500Y-77787500D01*
G75*
G02*
X170212500Y-77887500I0J-100000D01*
G01*
X170212500Y-79037500D01*
G75*
G02*
X170112500Y-79137500I-100000J0D01*
G01*
X169912500Y-79137500D01*
G75*
G02*
X169812500Y-79037500I0J100000D01*
G01*
G37*
G36*
G01*
X169312500Y-81187500D02*
X169312500Y-80037500D01*
G75*
G02*
X169412500Y-79937500I100000J0D01*
G01*
X169612500Y-79937500D01*
G75*
G02*
X169712500Y-80037500I0J-100000D01*
G01*
X169712500Y-81187500D01*
G75*
G02*
X169612500Y-81287500I-100000J0D01*
G01*
X169412500Y-81287500D01*
G75*
G02*
X169312500Y-81187500I0J100000D01*
G01*
G37*
G36*
G01*
X168812500Y-79037500D02*
X168812500Y-77887500D01*
G75*
G02*
X168912500Y-77787500I100000J0D01*
G01*
X169112500Y-77787500D01*
G75*
G02*
X169212500Y-77887500I0J-100000D01*
G01*
X169212500Y-79037500D01*
G75*
G02*
X169112500Y-79137500I-100000J0D01*
G01*
X168912500Y-79137500D01*
G75*
G02*
X168812500Y-79037500I0J100000D01*
G01*
G37*
G36*
G01*
X168312500Y-81187500D02*
X168312500Y-80037500D01*
G75*
G02*
X168412500Y-79937500I100000J0D01*
G01*
X168612500Y-79937500D01*
G75*
G02*
X168712500Y-80037500I0J-100000D01*
G01*
X168712500Y-81187500D01*
G75*
G02*
X168612500Y-81287500I-100000J0D01*
G01*
X168412500Y-81287500D01*
G75*
G02*
X168312500Y-81187500I0J100000D01*
G01*
G37*
G36*
G01*
X167812500Y-79037500D02*
X167812500Y-77887500D01*
G75*
G02*
X167912500Y-77787500I100000J0D01*
G01*
X168112500Y-77787500D01*
G75*
G02*
X168212500Y-77887500I0J-100000D01*
G01*
X168212500Y-79037500D01*
G75*
G02*
X168112500Y-79137500I-100000J0D01*
G01*
X167912500Y-79137500D01*
G75*
G02*
X167812500Y-79037500I0J100000D01*
G01*
G37*
G36*
G01*
X167312500Y-81187500D02*
X167312500Y-80037500D01*
G75*
G02*
X167412500Y-79937500I100000J0D01*
G01*
X167612500Y-79937500D01*
G75*
G02*
X167712500Y-80037500I0J-100000D01*
G01*
X167712500Y-81187500D01*
G75*
G02*
X167612500Y-81287500I-100000J0D01*
G01*
X167412500Y-81287500D01*
G75*
G02*
X167312500Y-81187500I0J100000D01*
G01*
G37*
G36*
G01*
X166812500Y-79037500D02*
X166812500Y-77887500D01*
G75*
G02*
X166912500Y-77787500I100000J0D01*
G01*
X167112500Y-77787500D01*
G75*
G02*
X167212500Y-77887500I0J-100000D01*
G01*
X167212500Y-79037500D01*
G75*
G02*
X167112500Y-79137500I-100000J0D01*
G01*
X166912500Y-79137500D01*
G75*
G02*
X166812500Y-79037500I0J100000D01*
G01*
G37*
G36*
G01*
X166312500Y-81187500D02*
X166312500Y-80037500D01*
G75*
G02*
X166412500Y-79937500I100000J0D01*
G01*
X166612500Y-79937500D01*
G75*
G02*
X166712500Y-80037500I0J-100000D01*
G01*
X166712500Y-81187500D01*
G75*
G02*
X166612500Y-81287500I-100000J0D01*
G01*
X166412500Y-81287500D01*
G75*
G02*
X166312500Y-81187500I0J100000D01*
G01*
G37*
G36*
G01*
X165812500Y-79037500D02*
X165812500Y-77887500D01*
G75*
G02*
X165912500Y-77787500I100000J0D01*
G01*
X166112500Y-77787500D01*
G75*
G02*
X166212500Y-77887500I0J-100000D01*
G01*
X166212500Y-79037500D01*
G75*
G02*
X166112500Y-79137500I-100000J0D01*
G01*
X165912500Y-79137500D01*
G75*
G02*
X165812500Y-79037500I0J100000D01*
G01*
G37*
G36*
G01*
X165312500Y-81187500D02*
X165312500Y-80037500D01*
G75*
G02*
X165412500Y-79937500I100000J0D01*
G01*
X165612500Y-79937500D01*
G75*
G02*
X165712500Y-80037500I0J-100000D01*
G01*
X165712500Y-81187500D01*
G75*
G02*
X165612500Y-81287500I-100000J0D01*
G01*
X165412500Y-81287500D01*
G75*
G02*
X165312500Y-81187500I0J100000D01*
G01*
G37*
G36*
G01*
X164812500Y-79037500D02*
X164812500Y-77887500D01*
G75*
G02*
X164912500Y-77787500I100000J0D01*
G01*
X165112500Y-77787500D01*
G75*
G02*
X165212500Y-77887500I0J-100000D01*
G01*
X165212500Y-79037500D01*
G75*
G02*
X165112500Y-79137500I-100000J0D01*
G01*
X164912500Y-79137500D01*
G75*
G02*
X164812500Y-79037500I0J100000D01*
G01*
G37*
G36*
G01*
X164312500Y-81187500D02*
X164312500Y-80037500D01*
G75*
G02*
X164412500Y-79937500I100000J0D01*
G01*
X164612500Y-79937500D01*
G75*
G02*
X164712500Y-80037500I0J-100000D01*
G01*
X164712500Y-81187500D01*
G75*
G02*
X164612500Y-81287500I-100000J0D01*
G01*
X164412500Y-81287500D01*
G75*
G02*
X164312500Y-81187500I0J100000D01*
G01*
G37*
G36*
G01*
X163812500Y-79037500D02*
X163812500Y-77887500D01*
G75*
G02*
X163912500Y-77787500I100000J0D01*
G01*
X164112500Y-77787500D01*
G75*
G02*
X164212500Y-77887500I0J-100000D01*
G01*
X164212500Y-79037500D01*
G75*
G02*
X164112500Y-79137500I-100000J0D01*
G01*
X163912500Y-79137500D01*
G75*
G02*
X163812500Y-79037500I0J100000D01*
G01*
G37*
G36*
G01*
X163312500Y-81187500D02*
X163312500Y-80037500D01*
G75*
G02*
X163412500Y-79937500I100000J0D01*
G01*
X163612500Y-79937500D01*
G75*
G02*
X163712500Y-80037500I0J-100000D01*
G01*
X163712500Y-81187500D01*
G75*
G02*
X163612500Y-81287500I-100000J0D01*
G01*
X163412500Y-81287500D01*
G75*
G02*
X163312500Y-81187500I0J100000D01*
G01*
G37*
G36*
G01*
X162812500Y-79037500D02*
X162812500Y-77887500D01*
G75*
G02*
X162912500Y-77787500I100000J0D01*
G01*
X163112500Y-77787500D01*
G75*
G02*
X163212500Y-77887500I0J-100000D01*
G01*
X163212500Y-79037500D01*
G75*
G02*
X163112500Y-79137500I-100000J0D01*
G01*
X162912500Y-79137500D01*
G75*
G02*
X162812500Y-79037500I0J100000D01*
G01*
G37*
G36*
G01*
X162312500Y-81187500D02*
X162312500Y-80037500D01*
G75*
G02*
X162412500Y-79937500I100000J0D01*
G01*
X162612500Y-79937500D01*
G75*
G02*
X162712500Y-80037500I0J-100000D01*
G01*
X162712500Y-81187500D01*
G75*
G02*
X162612500Y-81287500I-100000J0D01*
G01*
X162412500Y-81287500D01*
G75*
G02*
X162312500Y-81187500I0J100000D01*
G01*
G37*
G36*
G01*
X174462500Y-80497500D02*
X174462500Y-78577500D01*
G75*
G02*
X174702500Y-78337500I240000J0D01*
G01*
X176622500Y-78337500D01*
G75*
G02*
X176862500Y-78577500I0J-240000D01*
G01*
X176862500Y-80497500D01*
G75*
G02*
X176622500Y-80737500I-240000J0D01*
G01*
X174702500Y-80737500D01*
G75*
G02*
X174462500Y-80497500I0J240000D01*
G01*
G37*
G36*
G01*
X159662500Y-80497500D02*
X159662500Y-78577500D01*
G75*
G02*
X159902500Y-78337500I240000J0D01*
G01*
X161822500Y-78337500D01*
G75*
G02*
X162062500Y-78577500I0J-240000D01*
G01*
X162062500Y-80497500D01*
G75*
G02*
X161822500Y-80737500I-240000J0D01*
G01*
X159902500Y-80737500D01*
G75*
G02*
X159662500Y-80497500I0J240000D01*
G01*
G37*
G36*
G01*
X155637500Y-80512500D02*
X155637500Y-79562500D01*
G75*
G02*
X155887500Y-79312500I250000J0D01*
G01*
X156562500Y-79312500D01*
G75*
G02*
X156812500Y-79562500I0J-250000D01*
G01*
X156812500Y-80512500D01*
G75*
G02*
X156562500Y-80762500I-250000J0D01*
G01*
X155887500Y-80762500D01*
G75*
G02*
X155637500Y-80512500I0J250000D01*
G01*
G37*
G36*
G01*
X157712500Y-80512500D02*
X157712500Y-79562500D01*
G75*
G02*
X157962500Y-79312500I250000J0D01*
G01*
X158637500Y-79312500D01*
G75*
G02*
X158887500Y-79562500I0J-250000D01*
G01*
X158887500Y-80512500D01*
G75*
G02*
X158637500Y-80762500I-250000J0D01*
G01*
X157962500Y-80762500D01*
G75*
G02*
X157712500Y-80512500I0J250000D01*
G01*
G37*
X172262500Y-73537500D03*
G36*
G01*
X171577500Y-71512500D02*
X172947500Y-71512500D01*
G75*
G02*
X173137500Y-71702500I0J-190000D01*
G01*
X173137500Y-72272500D01*
G75*
G02*
X172947500Y-72462500I-190000J0D01*
G01*
X171577500Y-72462500D01*
G75*
G02*
X171387500Y-72272500I0J190000D01*
G01*
X171387500Y-71702500D01*
G75*
G02*
X171577500Y-71512500I190000J0D01*
G01*
G37*
G36*
G01*
X171577500Y-74612500D02*
X172947500Y-74612500D01*
G75*
G02*
X173137500Y-74802500I0J-190000D01*
G01*
X173137500Y-75372500D01*
G75*
G02*
X172947500Y-75562500I-190000J0D01*
G01*
X171577500Y-75562500D01*
G75*
G02*
X171387500Y-75372500I0J190000D01*
G01*
X171387500Y-74802500D01*
G75*
G02*
X171577500Y-74612500I190000J0D01*
G01*
G37*
D21*
X194000000Y-94500000D03*
G36*
G01*
X196025000Y-93815000D02*
X196025000Y-95185000D01*
G75*
G02*
X195835000Y-95375000I-190000J0D01*
G01*
X195265000Y-95375000D01*
G75*
G02*
X195075000Y-95185000I0J190000D01*
G01*
X195075000Y-93815000D01*
G75*
G02*
X195265000Y-93625000I190000J0D01*
G01*
X195835000Y-93625000D01*
G75*
G02*
X196025000Y-93815000I0J-190000D01*
G01*
G37*
G36*
G01*
X192925000Y-93815000D02*
X192925000Y-95185000D01*
G75*
G02*
X192735000Y-95375000I-190000J0D01*
G01*
X192165000Y-95375000D01*
G75*
G02*
X191975000Y-95185000I0J190000D01*
G01*
X191975000Y-93815000D01*
G75*
G02*
X192165000Y-93625000I190000J0D01*
G01*
X192735000Y-93625000D01*
G75*
G02*
X192925000Y-93815000I0J-190000D01*
G01*
G37*
D15*
X154262500Y-108537500D03*
G36*
G01*
X154947500Y-110562500D02*
X153577500Y-110562500D01*
G75*
G02*
X153387500Y-110372500I0J190000D01*
G01*
X153387500Y-109802500D01*
G75*
G02*
X153577500Y-109612500I190000J0D01*
G01*
X154947500Y-109612500D01*
G75*
G02*
X155137500Y-109802500I0J-190000D01*
G01*
X155137500Y-110372500D01*
G75*
G02*
X154947500Y-110562500I-190000J0D01*
G01*
G37*
G36*
G01*
X154947500Y-107462500D02*
X153577500Y-107462500D01*
G75*
G02*
X153387500Y-107272500I0J190000D01*
G01*
X153387500Y-106702500D01*
G75*
G02*
X153577500Y-106512500I190000J0D01*
G01*
X154947500Y-106512500D01*
G75*
G02*
X155137500Y-106702500I0J-190000D01*
G01*
X155137500Y-107272500D01*
G75*
G02*
X154947500Y-107462500I-190000J0D01*
G01*
G37*
G36*
G01*
X195217500Y-105377500D02*
X195217500Y-105697500D01*
G75*
G02*
X195057500Y-105857500I-160000J0D01*
G01*
X194662500Y-105857500D01*
G75*
G02*
X194502500Y-105697500I0J160000D01*
G01*
X194502500Y-105377500D01*
G75*
G02*
X194662500Y-105217500I160000J0D01*
G01*
X195057500Y-105217500D01*
G75*
G02*
X195217500Y-105377500I0J-160000D01*
G01*
G37*
G36*
G01*
X194022500Y-105377500D02*
X194022500Y-105697500D01*
G75*
G02*
X193862500Y-105857500I-160000J0D01*
G01*
X193467500Y-105857500D01*
G75*
G02*
X193307500Y-105697500I0J160000D01*
G01*
X193307500Y-105377500D01*
G75*
G02*
X193467500Y-105217500I160000J0D01*
G01*
X193862500Y-105217500D01*
G75*
G02*
X194022500Y-105377500I0J-160000D01*
G01*
G37*
G36*
G01*
X189162500Y-78362500D02*
X189162500Y-78162500D01*
G75*
G02*
X189262500Y-78062500I100000J0D01*
G01*
X190537500Y-78062500D01*
G75*
G02*
X190637500Y-78162500I0J-100000D01*
G01*
X190637500Y-78362500D01*
G75*
G02*
X190537500Y-78462500I-100000J0D01*
G01*
X189262500Y-78462500D01*
G75*
G02*
X189162500Y-78362500I0J100000D01*
G01*
G37*
G36*
G01*
X189162500Y-79012500D02*
X189162500Y-78812500D01*
G75*
G02*
X189262500Y-78712500I100000J0D01*
G01*
X190537500Y-78712500D01*
G75*
G02*
X190637500Y-78812500I0J-100000D01*
G01*
X190637500Y-79012500D01*
G75*
G02*
X190537500Y-79112500I-100000J0D01*
G01*
X189262500Y-79112500D01*
G75*
G02*
X189162500Y-79012500I0J100000D01*
G01*
G37*
G36*
G01*
X189162500Y-79662500D02*
X189162500Y-79462500D01*
G75*
G02*
X189262500Y-79362500I100000J0D01*
G01*
X190537500Y-79362500D01*
G75*
G02*
X190637500Y-79462500I0J-100000D01*
G01*
X190637500Y-79662500D01*
G75*
G02*
X190537500Y-79762500I-100000J0D01*
G01*
X189262500Y-79762500D01*
G75*
G02*
X189162500Y-79662500I0J100000D01*
G01*
G37*
G36*
G01*
X189162500Y-80312500D02*
X189162500Y-80112500D01*
G75*
G02*
X189262500Y-80012500I100000J0D01*
G01*
X190537500Y-80012500D01*
G75*
G02*
X190637500Y-80112500I0J-100000D01*
G01*
X190637500Y-80312500D01*
G75*
G02*
X190537500Y-80412500I-100000J0D01*
G01*
X189262500Y-80412500D01*
G75*
G02*
X189162500Y-80312500I0J100000D01*
G01*
G37*
G36*
G01*
X189162500Y-80962500D02*
X189162500Y-80762500D01*
G75*
G02*
X189262500Y-80662500I100000J0D01*
G01*
X190537500Y-80662500D01*
G75*
G02*
X190637500Y-80762500I0J-100000D01*
G01*
X190637500Y-80962500D01*
G75*
G02*
X190537500Y-81062500I-100000J0D01*
G01*
X189262500Y-81062500D01*
G75*
G02*
X189162500Y-80962500I0J100000D01*
G01*
G37*
G36*
G01*
X189162500Y-81612500D02*
X189162500Y-81412500D01*
G75*
G02*
X189262500Y-81312500I100000J0D01*
G01*
X190537500Y-81312500D01*
G75*
G02*
X190637500Y-81412500I0J-100000D01*
G01*
X190637500Y-81612500D01*
G75*
G02*
X190537500Y-81712500I-100000J0D01*
G01*
X189262500Y-81712500D01*
G75*
G02*
X189162500Y-81612500I0J100000D01*
G01*
G37*
G36*
G01*
X189162500Y-82262500D02*
X189162500Y-82062500D01*
G75*
G02*
X189262500Y-81962500I100000J0D01*
G01*
X190537500Y-81962500D01*
G75*
G02*
X190637500Y-82062500I0J-100000D01*
G01*
X190637500Y-82262500D01*
G75*
G02*
X190537500Y-82362500I-100000J0D01*
G01*
X189262500Y-82362500D01*
G75*
G02*
X189162500Y-82262500I0J100000D01*
G01*
G37*
G36*
G01*
X189162500Y-82912500D02*
X189162500Y-82712500D01*
G75*
G02*
X189262500Y-82612500I100000J0D01*
G01*
X190537500Y-82612500D01*
G75*
G02*
X190637500Y-82712500I0J-100000D01*
G01*
X190637500Y-82912500D01*
G75*
G02*
X190537500Y-83012500I-100000J0D01*
G01*
X189262500Y-83012500D01*
G75*
G02*
X189162500Y-82912500I0J100000D01*
G01*
G37*
G36*
G01*
X194887500Y-82912500D02*
X194887500Y-82712500D01*
G75*
G02*
X194987500Y-82612500I100000J0D01*
G01*
X196262500Y-82612500D01*
G75*
G02*
X196362500Y-82712500I0J-100000D01*
G01*
X196362500Y-82912500D01*
G75*
G02*
X196262500Y-83012500I-100000J0D01*
G01*
X194987500Y-83012500D01*
G75*
G02*
X194887500Y-82912500I0J100000D01*
G01*
G37*
G36*
G01*
X194887500Y-82262500D02*
X194887500Y-82062500D01*
G75*
G02*
X194987500Y-81962500I100000J0D01*
G01*
X196262500Y-81962500D01*
G75*
G02*
X196362500Y-82062500I0J-100000D01*
G01*
X196362500Y-82262500D01*
G75*
G02*
X196262500Y-82362500I-100000J0D01*
G01*
X194987500Y-82362500D01*
G75*
G02*
X194887500Y-82262500I0J100000D01*
G01*
G37*
G36*
G01*
X194887500Y-81612500D02*
X194887500Y-81412500D01*
G75*
G02*
X194987500Y-81312500I100000J0D01*
G01*
X196262500Y-81312500D01*
G75*
G02*
X196362500Y-81412500I0J-100000D01*
G01*
X196362500Y-81612500D01*
G75*
G02*
X196262500Y-81712500I-100000J0D01*
G01*
X194987500Y-81712500D01*
G75*
G02*
X194887500Y-81612500I0J100000D01*
G01*
G37*
G36*
G01*
X194887500Y-80962500D02*
X194887500Y-80762500D01*
G75*
G02*
X194987500Y-80662500I100000J0D01*
G01*
X196262500Y-80662500D01*
G75*
G02*
X196362500Y-80762500I0J-100000D01*
G01*
X196362500Y-80962500D01*
G75*
G02*
X196262500Y-81062500I-100000J0D01*
G01*
X194987500Y-81062500D01*
G75*
G02*
X194887500Y-80962500I0J100000D01*
G01*
G37*
G36*
G01*
X194887500Y-80312500D02*
X194887500Y-80112500D01*
G75*
G02*
X194987500Y-80012500I100000J0D01*
G01*
X196262500Y-80012500D01*
G75*
G02*
X196362500Y-80112500I0J-100000D01*
G01*
X196362500Y-80312500D01*
G75*
G02*
X196262500Y-80412500I-100000J0D01*
G01*
X194987500Y-80412500D01*
G75*
G02*
X194887500Y-80312500I0J100000D01*
G01*
G37*
G36*
G01*
X194887500Y-79662500D02*
X194887500Y-79462500D01*
G75*
G02*
X194987500Y-79362500I100000J0D01*
G01*
X196262500Y-79362500D01*
G75*
G02*
X196362500Y-79462500I0J-100000D01*
G01*
X196362500Y-79662500D01*
G75*
G02*
X196262500Y-79762500I-100000J0D01*
G01*
X194987500Y-79762500D01*
G75*
G02*
X194887500Y-79662500I0J100000D01*
G01*
G37*
G36*
G01*
X194887500Y-79012500D02*
X194887500Y-78812500D01*
G75*
G02*
X194987500Y-78712500I100000J0D01*
G01*
X196262500Y-78712500D01*
G75*
G02*
X196362500Y-78812500I0J-100000D01*
G01*
X196362500Y-79012500D01*
G75*
G02*
X196262500Y-79112500I-100000J0D01*
G01*
X194987500Y-79112500D01*
G75*
G02*
X194887500Y-79012500I0J100000D01*
G01*
G37*
G36*
G01*
X194887500Y-78362500D02*
X194887500Y-78162500D01*
G75*
G02*
X194987500Y-78062500I100000J0D01*
G01*
X196262500Y-78062500D01*
G75*
G02*
X196362500Y-78162500I0J-100000D01*
G01*
X196362500Y-78362500D01*
G75*
G02*
X196262500Y-78462500I-100000J0D01*
G01*
X194987500Y-78462500D01*
G75*
G02*
X194887500Y-78362500I0J100000D01*
G01*
G37*
G36*
G01*
X189307500Y-76697500D02*
X189307500Y-76377500D01*
G75*
G02*
X189467500Y-76217500I160000J0D01*
G01*
X189862500Y-76217500D01*
G75*
G02*
X190022500Y-76377500I0J-160000D01*
G01*
X190022500Y-76697500D01*
G75*
G02*
X189862500Y-76857500I-160000J0D01*
G01*
X189467500Y-76857500D01*
G75*
G02*
X189307500Y-76697500I0J160000D01*
G01*
G37*
G36*
G01*
X190502500Y-76697500D02*
X190502500Y-76377500D01*
G75*
G02*
X190662500Y-76217500I160000J0D01*
G01*
X191057500Y-76217500D01*
G75*
G02*
X191217500Y-76377500I0J-160000D01*
G01*
X191217500Y-76697500D01*
G75*
G02*
X191057500Y-76857500I-160000J0D01*
G01*
X190662500Y-76857500D01*
G75*
G02*
X190502500Y-76697500I0J160000D01*
G01*
G37*
X198262500Y-73537500D03*
G36*
G01*
X197577500Y-71512500D02*
X198947500Y-71512500D01*
G75*
G02*
X199137500Y-71702500I0J-190000D01*
G01*
X199137500Y-72272500D01*
G75*
G02*
X198947500Y-72462500I-190000J0D01*
G01*
X197577500Y-72462500D01*
G75*
G02*
X197387500Y-72272500I0J190000D01*
G01*
X197387500Y-71702500D01*
G75*
G02*
X197577500Y-71512500I190000J0D01*
G01*
G37*
G36*
G01*
X197577500Y-74612500D02*
X198947500Y-74612500D01*
G75*
G02*
X199137500Y-74802500I0J-190000D01*
G01*
X199137500Y-75372500D01*
G75*
G02*
X198947500Y-75562500I-190000J0D01*
G01*
X197577500Y-75562500D01*
G75*
G02*
X197387500Y-75372500I0J190000D01*
G01*
X197387500Y-74802500D01*
G75*
G02*
X197577500Y-74612500I190000J0D01*
G01*
G37*
X182262500Y-73537500D03*
G36*
G01*
X181577500Y-71512500D02*
X182947500Y-71512500D01*
G75*
G02*
X183137500Y-71702500I0J-190000D01*
G01*
X183137500Y-72272500D01*
G75*
G02*
X182947500Y-72462500I-190000J0D01*
G01*
X181577500Y-72462500D01*
G75*
G02*
X181387500Y-72272500I0J190000D01*
G01*
X181387500Y-71702500D01*
G75*
G02*
X181577500Y-71512500I190000J0D01*
G01*
G37*
G36*
G01*
X181577500Y-74612500D02*
X182947500Y-74612500D01*
G75*
G02*
X183137500Y-74802500I0J-190000D01*
G01*
X183137500Y-75372500D01*
G75*
G02*
X182947500Y-75562500I-190000J0D01*
G01*
X181577500Y-75562500D01*
G75*
G02*
X181387500Y-75372500I0J190000D01*
G01*
X181387500Y-74802500D01*
G75*
G02*
X181577500Y-74612500I190000J0D01*
G01*
G37*
X130262500Y-108537500D03*
G36*
G01*
X130947500Y-110562500D02*
X129577500Y-110562500D01*
G75*
G02*
X129387500Y-110372500I0J190000D01*
G01*
X129387500Y-109802500D01*
G75*
G02*
X129577500Y-109612500I190000J0D01*
G01*
X130947500Y-109612500D01*
G75*
G02*
X131137500Y-109802500I0J-190000D01*
G01*
X131137500Y-110372500D01*
G75*
G02*
X130947500Y-110562500I-190000J0D01*
G01*
G37*
G36*
G01*
X130947500Y-107462500D02*
X129577500Y-107462500D01*
G75*
G02*
X129387500Y-107272500I0J190000D01*
G01*
X129387500Y-106702500D01*
G75*
G02*
X129577500Y-106512500I190000J0D01*
G01*
X130947500Y-106512500D01*
G75*
G02*
X131137500Y-106702500I0J-190000D01*
G01*
X131137500Y-107272500D01*
G75*
G02*
X130947500Y-107462500I-190000J0D01*
G01*
G37*
X158262500Y-73537500D03*
G36*
G01*
X157577500Y-71512500D02*
X158947500Y-71512500D01*
G75*
G02*
X159137500Y-71702500I0J-190000D01*
G01*
X159137500Y-72272500D01*
G75*
G02*
X158947500Y-72462500I-190000J0D01*
G01*
X157577500Y-72462500D01*
G75*
G02*
X157387500Y-72272500I0J190000D01*
G01*
X157387500Y-71702500D01*
G75*
G02*
X157577500Y-71512500I190000J0D01*
G01*
G37*
G36*
G01*
X157577500Y-74612500D02*
X158947500Y-74612500D01*
G75*
G02*
X159137500Y-74802500I0J-190000D01*
G01*
X159137500Y-75372500D01*
G75*
G02*
X158947500Y-75562500I-190000J0D01*
G01*
X157577500Y-75562500D01*
G75*
G02*
X157387500Y-75372500I0J190000D01*
G01*
X157387500Y-74802500D01*
G75*
G02*
X157577500Y-74612500I190000J0D01*
G01*
G37*
D16*
X204262500Y-80037500D03*
G36*
G01*
X157717500Y-76377500D02*
X157717500Y-76697500D01*
G75*
G02*
X157557500Y-76857500I-160000J0D01*
G01*
X157162500Y-76857500D01*
G75*
G02*
X157002500Y-76697500I0J160000D01*
G01*
X157002500Y-76377500D01*
G75*
G02*
X157162500Y-76217500I160000J0D01*
G01*
X157557500Y-76217500D01*
G75*
G02*
X157717500Y-76377500I0J-160000D01*
G01*
G37*
G36*
G01*
X156522500Y-76377500D02*
X156522500Y-76697500D01*
G75*
G02*
X156362500Y-76857500I-160000J0D01*
G01*
X155967500Y-76857500D01*
G75*
G02*
X155807500Y-76697500I0J160000D01*
G01*
X155807500Y-76377500D01*
G75*
G02*
X155967500Y-76217500I160000J0D01*
G01*
X156362500Y-76217500D01*
G75*
G02*
X156522500Y-76377500I0J-160000D01*
G01*
G37*
G36*
G01*
X188602500Y-87082500D02*
X188922500Y-87082500D01*
G75*
G02*
X189082500Y-87242500I0J-160000D01*
G01*
X189082500Y-87637500D01*
G75*
G02*
X188922500Y-87797500I-160000J0D01*
G01*
X188602500Y-87797500D01*
G75*
G02*
X188442500Y-87637500I0J160000D01*
G01*
X188442500Y-87242500D01*
G75*
G02*
X188602500Y-87082500I160000J0D01*
G01*
G37*
G36*
G01*
X188602500Y-88277500D02*
X188922500Y-88277500D01*
G75*
G02*
X189082500Y-88437500I0J-160000D01*
G01*
X189082500Y-88832500D01*
G75*
G02*
X188922500Y-88992500I-160000J0D01*
G01*
X188602500Y-88992500D01*
G75*
G02*
X188442500Y-88832500I0J160000D01*
G01*
X188442500Y-88437500D01*
G75*
G02*
X188602500Y-88277500I160000J0D01*
G01*
G37*
D15*
X146262500Y-73537500D03*
G36*
G01*
X145577500Y-71512500D02*
X146947500Y-71512500D01*
G75*
G02*
X147137500Y-71702500I0J-190000D01*
G01*
X147137500Y-72272500D01*
G75*
G02*
X146947500Y-72462500I-190000J0D01*
G01*
X145577500Y-72462500D01*
G75*
G02*
X145387500Y-72272500I0J190000D01*
G01*
X145387500Y-71702500D01*
G75*
G02*
X145577500Y-71512500I190000J0D01*
G01*
G37*
G36*
G01*
X145577500Y-74612500D02*
X146947500Y-74612500D01*
G75*
G02*
X147137500Y-74802500I0J-190000D01*
G01*
X147137500Y-75372500D01*
G75*
G02*
X146947500Y-75562500I-190000J0D01*
G01*
X145577500Y-75562500D01*
G75*
G02*
X145387500Y-75372500I0J190000D01*
G01*
X145387500Y-74802500D01*
G75*
G02*
X145577500Y-74612500I190000J0D01*
G01*
G37*
X150262500Y-108537500D03*
G36*
G01*
X150947500Y-110562500D02*
X149577500Y-110562500D01*
G75*
G02*
X149387500Y-110372500I0J190000D01*
G01*
X149387500Y-109802500D01*
G75*
G02*
X149577500Y-109612500I190000J0D01*
G01*
X150947500Y-109612500D01*
G75*
G02*
X151137500Y-109802500I0J-190000D01*
G01*
X151137500Y-110372500D01*
G75*
G02*
X150947500Y-110562500I-190000J0D01*
G01*
G37*
G36*
G01*
X150947500Y-107462500D02*
X149577500Y-107462500D01*
G75*
G02*
X149387500Y-107272500I0J190000D01*
G01*
X149387500Y-106702500D01*
G75*
G02*
X149577500Y-106512500I190000J0D01*
G01*
X150947500Y-106512500D01*
G75*
G02*
X151137500Y-106702500I0J-190000D01*
G01*
X151137500Y-107272500D01*
G75*
G02*
X150947500Y-107462500I-190000J0D01*
G01*
G37*
G36*
G01*
X149717500Y-105377500D02*
X149717500Y-105697500D01*
G75*
G02*
X149557500Y-105857500I-160000J0D01*
G01*
X149162500Y-105857500D01*
G75*
G02*
X149002500Y-105697500I0J160000D01*
G01*
X149002500Y-105377500D01*
G75*
G02*
X149162500Y-105217500I160000J0D01*
G01*
X149557500Y-105217500D01*
G75*
G02*
X149717500Y-105377500I0J-160000D01*
G01*
G37*
G36*
G01*
X148522500Y-105377500D02*
X148522500Y-105697500D01*
G75*
G02*
X148362500Y-105857500I-160000J0D01*
G01*
X147967500Y-105857500D01*
G75*
G02*
X147807500Y-105697500I0J160000D01*
G01*
X147807500Y-105377500D01*
G75*
G02*
X147967500Y-105217500I160000J0D01*
G01*
X148362500Y-105217500D01*
G75*
G02*
X148522500Y-105377500I0J-160000D01*
G01*
G37*
G36*
G01*
X184422500Y-106992500D02*
X184102500Y-106992500D01*
G75*
G02*
X183942500Y-106832500I0J160000D01*
G01*
X183942500Y-106437500D01*
G75*
G02*
X184102500Y-106277500I160000J0D01*
G01*
X184422500Y-106277500D01*
G75*
G02*
X184582500Y-106437500I0J-160000D01*
G01*
X184582500Y-106832500D01*
G75*
G02*
X184422500Y-106992500I-160000J0D01*
G01*
G37*
G36*
G01*
X184422500Y-105797500D02*
X184102500Y-105797500D01*
G75*
G02*
X183942500Y-105637500I0J160000D01*
G01*
X183942500Y-105242500D01*
G75*
G02*
X184102500Y-105082500I160000J0D01*
G01*
X184422500Y-105082500D01*
G75*
G02*
X184582500Y-105242500I0J-160000D01*
G01*
X184582500Y-105637500D01*
G75*
G02*
X184422500Y-105797500I-160000J0D01*
G01*
G37*
G36*
G01*
X136422500Y-106992500D02*
X136102500Y-106992500D01*
G75*
G02*
X135942500Y-106832500I0J160000D01*
G01*
X135942500Y-106437500D01*
G75*
G02*
X136102500Y-106277500I160000J0D01*
G01*
X136422500Y-106277500D01*
G75*
G02*
X136582500Y-106437500I0J-160000D01*
G01*
X136582500Y-106832500D01*
G75*
G02*
X136422500Y-106992500I-160000J0D01*
G01*
G37*
G36*
G01*
X136422500Y-105797500D02*
X136102500Y-105797500D01*
G75*
G02*
X135942500Y-105637500I0J160000D01*
G01*
X135942500Y-105242500D01*
G75*
G02*
X136102500Y-105082500I160000J0D01*
G01*
X136422500Y-105082500D01*
G75*
G02*
X136582500Y-105242500I0J-160000D01*
G01*
X136582500Y-105637500D01*
G75*
G02*
X136422500Y-105797500I-160000J0D01*
G01*
G37*
G36*
G01*
X147217500Y-105377500D02*
X147217500Y-105697500D01*
G75*
G02*
X147057500Y-105857500I-160000J0D01*
G01*
X146662500Y-105857500D01*
G75*
G02*
X146502500Y-105697500I0J160000D01*
G01*
X146502500Y-105377500D01*
G75*
G02*
X146662500Y-105217500I160000J0D01*
G01*
X147057500Y-105217500D01*
G75*
G02*
X147217500Y-105377500I0J-160000D01*
G01*
G37*
G36*
G01*
X146022500Y-105377500D02*
X146022500Y-105697500D01*
G75*
G02*
X145862500Y-105857500I-160000J0D01*
G01*
X145467500Y-105857500D01*
G75*
G02*
X145307500Y-105697500I0J160000D01*
G01*
X145307500Y-105377500D01*
G75*
G02*
X145467500Y-105217500I160000J0D01*
G01*
X145862500Y-105217500D01*
G75*
G02*
X146022500Y-105377500I0J-160000D01*
G01*
G37*
D16*
X132262500Y-102037500D03*
D21*
X194000000Y-87500000D03*
G36*
G01*
X196025000Y-86815000D02*
X196025000Y-88185000D01*
G75*
G02*
X195835000Y-88375000I-190000J0D01*
G01*
X195265000Y-88375000D01*
G75*
G02*
X195075000Y-88185000I0J190000D01*
G01*
X195075000Y-86815000D01*
G75*
G02*
X195265000Y-86625000I190000J0D01*
G01*
X195835000Y-86625000D01*
G75*
G02*
X196025000Y-86815000I0J-190000D01*
G01*
G37*
G36*
G01*
X192925000Y-86815000D02*
X192925000Y-88185000D01*
G75*
G02*
X192735000Y-88375000I-190000J0D01*
G01*
X192165000Y-88375000D01*
G75*
G02*
X191975000Y-88185000I0J190000D01*
G01*
X191975000Y-86815000D01*
G75*
G02*
X192165000Y-86625000I190000J0D01*
G01*
X192735000Y-86625000D01*
G75*
G02*
X192925000Y-86815000I0J-190000D01*
G01*
G37*
G36*
G01*
X200102500Y-75082500D02*
X200422500Y-75082500D01*
G75*
G02*
X200582500Y-75242500I0J-160000D01*
G01*
X200582500Y-75637500D01*
G75*
G02*
X200422500Y-75797500I-160000J0D01*
G01*
X200102500Y-75797500D01*
G75*
G02*
X199942500Y-75637500I0J160000D01*
G01*
X199942500Y-75242500D01*
G75*
G02*
X200102500Y-75082500I160000J0D01*
G01*
G37*
G36*
G01*
X200102500Y-76277500D02*
X200422500Y-76277500D01*
G75*
G02*
X200582500Y-76437500I0J-160000D01*
G01*
X200582500Y-76832500D01*
G75*
G02*
X200422500Y-76992500I-160000J0D01*
G01*
X200102500Y-76992500D01*
G75*
G02*
X199942500Y-76832500I0J160000D01*
G01*
X199942500Y-76437500D01*
G75*
G02*
X200102500Y-76277500I160000J0D01*
G01*
G37*
G36*
G01*
X186737500Y-104162500D02*
X185787500Y-104162500D01*
G75*
G02*
X185537500Y-103912500I0J250000D01*
G01*
X185537500Y-103237500D01*
G75*
G02*
X185787500Y-102987500I250000J0D01*
G01*
X186737500Y-102987500D01*
G75*
G02*
X186987500Y-103237500I0J-250000D01*
G01*
X186987500Y-103912500D01*
G75*
G02*
X186737500Y-104162500I-250000J0D01*
G01*
G37*
G36*
G01*
X186737500Y-102087500D02*
X185787500Y-102087500D01*
G75*
G02*
X185537500Y-101837500I0J250000D01*
G01*
X185537500Y-101162500D01*
G75*
G02*
X185787500Y-100912500I250000J0D01*
G01*
X186737500Y-100912500D01*
G75*
G02*
X186987500Y-101162500I0J-250000D01*
G01*
X186987500Y-101837500D01*
G75*
G02*
X186737500Y-102087500I-250000J0D01*
G01*
G37*
G36*
G01*
X200217500Y-105377500D02*
X200217500Y-105697500D01*
G75*
G02*
X200057500Y-105857500I-160000J0D01*
G01*
X199662500Y-105857500D01*
G75*
G02*
X199502500Y-105697500I0J160000D01*
G01*
X199502500Y-105377500D01*
G75*
G02*
X199662500Y-105217500I160000J0D01*
G01*
X200057500Y-105217500D01*
G75*
G02*
X200217500Y-105377500I0J-160000D01*
G01*
G37*
G36*
G01*
X199022500Y-105377500D02*
X199022500Y-105697500D01*
G75*
G02*
X198862500Y-105857500I-160000J0D01*
G01*
X198467500Y-105857500D01*
G75*
G02*
X198307500Y-105697500I0J160000D01*
G01*
X198307500Y-105377500D01*
G75*
G02*
X198467500Y-105217500I160000J0D01*
G01*
X198862500Y-105217500D01*
G75*
G02*
X199022500Y-105377500I0J-160000D01*
G01*
G37*
G36*
G01*
X181307500Y-105727500D02*
X181307500Y-105407500D01*
G75*
G02*
X181467500Y-105247500I160000J0D01*
G01*
X181862500Y-105247500D01*
G75*
G02*
X182022500Y-105407500I0J-160000D01*
G01*
X182022500Y-105727500D01*
G75*
G02*
X181862500Y-105887500I-160000J0D01*
G01*
X181467500Y-105887500D01*
G75*
G02*
X181307500Y-105727500I0J160000D01*
G01*
G37*
G36*
G01*
X182502500Y-105727500D02*
X182502500Y-105407500D01*
G75*
G02*
X182662500Y-105247500I160000J0D01*
G01*
X183057500Y-105247500D01*
G75*
G02*
X183217500Y-105407500I0J-160000D01*
G01*
X183217500Y-105727500D01*
G75*
G02*
X183057500Y-105887500I-160000J0D01*
G01*
X182662500Y-105887500D01*
G75*
G02*
X182502500Y-105727500I0J160000D01*
G01*
G37*
D19*
X153262500Y-90037500D03*
D20*
X153262500Y-90037500D03*
G36*
G01*
X138807500Y-76697500D02*
X138807500Y-76377500D01*
G75*
G02*
X138967500Y-76217500I160000J0D01*
G01*
X139362500Y-76217500D01*
G75*
G02*
X139522500Y-76377500I0J-160000D01*
G01*
X139522500Y-76697500D01*
G75*
G02*
X139362500Y-76857500I-160000J0D01*
G01*
X138967500Y-76857500D01*
G75*
G02*
X138807500Y-76697500I0J160000D01*
G01*
G37*
G36*
G01*
X140002500Y-76697500D02*
X140002500Y-76377500D01*
G75*
G02*
X140162500Y-76217500I160000J0D01*
G01*
X140557500Y-76217500D01*
G75*
G02*
X140717500Y-76377500I0J-160000D01*
G01*
X140717500Y-76697500D01*
G75*
G02*
X140557500Y-76857500I-160000J0D01*
G01*
X140162500Y-76857500D01*
G75*
G02*
X140002500Y-76697500I0J160000D01*
G01*
G37*
D15*
X202262500Y-73537500D03*
G36*
G01*
X201577500Y-71512500D02*
X202947500Y-71512500D01*
G75*
G02*
X203137500Y-71702500I0J-190000D01*
G01*
X203137500Y-72272500D01*
G75*
G02*
X202947500Y-72462500I-190000J0D01*
G01*
X201577500Y-72462500D01*
G75*
G02*
X201387500Y-72272500I0J190000D01*
G01*
X201387500Y-71702500D01*
G75*
G02*
X201577500Y-71512500I190000J0D01*
G01*
G37*
G36*
G01*
X201577500Y-74612500D02*
X202947500Y-74612500D01*
G75*
G02*
X203137500Y-74802500I0J-190000D01*
G01*
X203137500Y-75372500D01*
G75*
G02*
X202947500Y-75562500I-190000J0D01*
G01*
X201577500Y-75562500D01*
G75*
G02*
X201387500Y-75372500I0J190000D01*
G01*
X201387500Y-74802500D01*
G75*
G02*
X201577500Y-74612500I190000J0D01*
G01*
G37*
G36*
G01*
X175922500Y-75992500D02*
X175602500Y-75992500D01*
G75*
G02*
X175442500Y-75832500I0J160000D01*
G01*
X175442500Y-75437500D01*
G75*
G02*
X175602500Y-75277500I160000J0D01*
G01*
X175922500Y-75277500D01*
G75*
G02*
X176082500Y-75437500I0J-160000D01*
G01*
X176082500Y-75832500D01*
G75*
G02*
X175922500Y-75992500I-160000J0D01*
G01*
G37*
G36*
G01*
X175922500Y-74797500D02*
X175602500Y-74797500D01*
G75*
G02*
X175442500Y-74637500I0J160000D01*
G01*
X175442500Y-74242500D01*
G75*
G02*
X175602500Y-74082500I160000J0D01*
G01*
X175922500Y-74082500D01*
G75*
G02*
X176082500Y-74242500I0J-160000D01*
G01*
X176082500Y-74637500D01*
G75*
G02*
X175922500Y-74797500I-160000J0D01*
G01*
G37*
G36*
G01*
X147362500Y-103712500D02*
X147362500Y-103912500D01*
G75*
G02*
X147262500Y-104012500I-100000J0D01*
G01*
X145987500Y-104012500D01*
G75*
G02*
X145887500Y-103912500I0J100000D01*
G01*
X145887500Y-103712500D01*
G75*
G02*
X145987500Y-103612500I100000J0D01*
G01*
X147262500Y-103612500D01*
G75*
G02*
X147362500Y-103712500I0J-100000D01*
G01*
G37*
G36*
G01*
X147362500Y-103062500D02*
X147362500Y-103262500D01*
G75*
G02*
X147262500Y-103362500I-100000J0D01*
G01*
X145987500Y-103362500D01*
G75*
G02*
X145887500Y-103262500I0J100000D01*
G01*
X145887500Y-103062500D01*
G75*
G02*
X145987500Y-102962500I100000J0D01*
G01*
X147262500Y-102962500D01*
G75*
G02*
X147362500Y-103062500I0J-100000D01*
G01*
G37*
G36*
G01*
X147362500Y-102412500D02*
X147362500Y-102612500D01*
G75*
G02*
X147262500Y-102712500I-100000J0D01*
G01*
X145987500Y-102712500D01*
G75*
G02*
X145887500Y-102612500I0J100000D01*
G01*
X145887500Y-102412500D01*
G75*
G02*
X145987500Y-102312500I100000J0D01*
G01*
X147262500Y-102312500D01*
G75*
G02*
X147362500Y-102412500I0J-100000D01*
G01*
G37*
G36*
G01*
X147362500Y-101762500D02*
X147362500Y-101962500D01*
G75*
G02*
X147262500Y-102062500I-100000J0D01*
G01*
X145987500Y-102062500D01*
G75*
G02*
X145887500Y-101962500I0J100000D01*
G01*
X145887500Y-101762500D01*
G75*
G02*
X145987500Y-101662500I100000J0D01*
G01*
X147262500Y-101662500D01*
G75*
G02*
X147362500Y-101762500I0J-100000D01*
G01*
G37*
G36*
G01*
X147362500Y-101112500D02*
X147362500Y-101312500D01*
G75*
G02*
X147262500Y-101412500I-100000J0D01*
G01*
X145987500Y-101412500D01*
G75*
G02*
X145887500Y-101312500I0J100000D01*
G01*
X145887500Y-101112500D01*
G75*
G02*
X145987500Y-101012500I100000J0D01*
G01*
X147262500Y-101012500D01*
G75*
G02*
X147362500Y-101112500I0J-100000D01*
G01*
G37*
G36*
G01*
X147362500Y-100462500D02*
X147362500Y-100662500D01*
G75*
G02*
X147262500Y-100762500I-100000J0D01*
G01*
X145987500Y-100762500D01*
G75*
G02*
X145887500Y-100662500I0J100000D01*
G01*
X145887500Y-100462500D01*
G75*
G02*
X145987500Y-100362500I100000J0D01*
G01*
X147262500Y-100362500D01*
G75*
G02*
X147362500Y-100462500I0J-100000D01*
G01*
G37*
G36*
G01*
X147362500Y-99812500D02*
X147362500Y-100012500D01*
G75*
G02*
X147262500Y-100112500I-100000J0D01*
G01*
X145987500Y-100112500D01*
G75*
G02*
X145887500Y-100012500I0J100000D01*
G01*
X145887500Y-99812500D01*
G75*
G02*
X145987500Y-99712500I100000J0D01*
G01*
X147262500Y-99712500D01*
G75*
G02*
X147362500Y-99812500I0J-100000D01*
G01*
G37*
G36*
G01*
X147362500Y-99162500D02*
X147362500Y-99362500D01*
G75*
G02*
X147262500Y-99462500I-100000J0D01*
G01*
X145987500Y-99462500D01*
G75*
G02*
X145887500Y-99362500I0J100000D01*
G01*
X145887500Y-99162500D01*
G75*
G02*
X145987500Y-99062500I100000J0D01*
G01*
X147262500Y-99062500D01*
G75*
G02*
X147362500Y-99162500I0J-100000D01*
G01*
G37*
G36*
G01*
X141637500Y-99162500D02*
X141637500Y-99362500D01*
G75*
G02*
X141537500Y-99462500I-100000J0D01*
G01*
X140262500Y-99462500D01*
G75*
G02*
X140162500Y-99362500I0J100000D01*
G01*
X140162500Y-99162500D01*
G75*
G02*
X140262500Y-99062500I100000J0D01*
G01*
X141537500Y-99062500D01*
G75*
G02*
X141637500Y-99162500I0J-100000D01*
G01*
G37*
G36*
G01*
X141637500Y-99812500D02*
X141637500Y-100012500D01*
G75*
G02*
X141537500Y-100112500I-100000J0D01*
G01*
X140262500Y-100112500D01*
G75*
G02*
X140162500Y-100012500I0J100000D01*
G01*
X140162500Y-99812500D01*
G75*
G02*
X140262500Y-99712500I100000J0D01*
G01*
X141537500Y-99712500D01*
G75*
G02*
X141637500Y-99812500I0J-100000D01*
G01*
G37*
G36*
G01*
X141637500Y-100462500D02*
X141637500Y-100662500D01*
G75*
G02*
X141537500Y-100762500I-100000J0D01*
G01*
X140262500Y-100762500D01*
G75*
G02*
X140162500Y-100662500I0J100000D01*
G01*
X140162500Y-100462500D01*
G75*
G02*
X140262500Y-100362500I100000J0D01*
G01*
X141537500Y-100362500D01*
G75*
G02*
X141637500Y-100462500I0J-100000D01*
G01*
G37*
G36*
G01*
X141637500Y-101112500D02*
X141637500Y-101312500D01*
G75*
G02*
X141537500Y-101412500I-100000J0D01*
G01*
X140262500Y-101412500D01*
G75*
G02*
X140162500Y-101312500I0J100000D01*
G01*
X140162500Y-101112500D01*
G75*
G02*
X140262500Y-101012500I100000J0D01*
G01*
X141537500Y-101012500D01*
G75*
G02*
X141637500Y-101112500I0J-100000D01*
G01*
G37*
G36*
G01*
X141637500Y-101762500D02*
X141637500Y-101962500D01*
G75*
G02*
X141537500Y-102062500I-100000J0D01*
G01*
X140262500Y-102062500D01*
G75*
G02*
X140162500Y-101962500I0J100000D01*
G01*
X140162500Y-101762500D01*
G75*
G02*
X140262500Y-101662500I100000J0D01*
G01*
X141537500Y-101662500D01*
G75*
G02*
X141637500Y-101762500I0J-100000D01*
G01*
G37*
G36*
G01*
X141637500Y-102412500D02*
X141637500Y-102612500D01*
G75*
G02*
X141537500Y-102712500I-100000J0D01*
G01*
X140262500Y-102712500D01*
G75*
G02*
X140162500Y-102612500I0J100000D01*
G01*
X140162500Y-102412500D01*
G75*
G02*
X140262500Y-102312500I100000J0D01*
G01*
X141537500Y-102312500D01*
G75*
G02*
X141637500Y-102412500I0J-100000D01*
G01*
G37*
G36*
G01*
X141637500Y-103062500D02*
X141637500Y-103262500D01*
G75*
G02*
X141537500Y-103362500I-100000J0D01*
G01*
X140262500Y-103362500D01*
G75*
G02*
X140162500Y-103262500I0J100000D01*
G01*
X140162500Y-103062500D01*
G75*
G02*
X140262500Y-102962500I100000J0D01*
G01*
X141537500Y-102962500D01*
G75*
G02*
X141637500Y-103062500I0J-100000D01*
G01*
G37*
G36*
G01*
X141637500Y-103712500D02*
X141637500Y-103912500D01*
G75*
G02*
X141537500Y-104012500I-100000J0D01*
G01*
X140262500Y-104012500D01*
G75*
G02*
X140162500Y-103912500I0J100000D01*
G01*
X140162500Y-103712500D01*
G75*
G02*
X140262500Y-103612500I100000J0D01*
G01*
X141537500Y-103612500D01*
G75*
G02*
X141637500Y-103712500I0J-100000D01*
G01*
G37*
G36*
G01*
X152137500Y-96512500D02*
X152137500Y-95562500D01*
G75*
G02*
X152387500Y-95312500I250000J0D01*
G01*
X153062500Y-95312500D01*
G75*
G02*
X153312500Y-95562500I0J-250000D01*
G01*
X153312500Y-96512500D01*
G75*
G02*
X153062500Y-96762500I-250000J0D01*
G01*
X152387500Y-96762500D01*
G75*
G02*
X152137500Y-96512500I0J250000D01*
G01*
G37*
G36*
G01*
X154212500Y-96512500D02*
X154212500Y-95562500D01*
G75*
G02*
X154462500Y-95312500I250000J0D01*
G01*
X155137500Y-95312500D01*
G75*
G02*
X155387500Y-95562500I0J-250000D01*
G01*
X155387500Y-96512500D01*
G75*
G02*
X155137500Y-96762500I-250000J0D01*
G01*
X154462500Y-96762500D01*
G75*
G02*
X154212500Y-96512500I0J250000D01*
G01*
G37*
X164262500Y-73537500D03*
G36*
G01*
X163577500Y-71512500D02*
X164947500Y-71512500D01*
G75*
G02*
X165137500Y-71702500I0J-190000D01*
G01*
X165137500Y-72272500D01*
G75*
G02*
X164947500Y-72462500I-190000J0D01*
G01*
X163577500Y-72462500D01*
G75*
G02*
X163387500Y-72272500I0J190000D01*
G01*
X163387500Y-71702500D01*
G75*
G02*
X163577500Y-71512500I190000J0D01*
G01*
G37*
G36*
G01*
X163577500Y-74612500D02*
X164947500Y-74612500D01*
G75*
G02*
X165137500Y-74802500I0J-190000D01*
G01*
X165137500Y-75372500D01*
G75*
G02*
X164947500Y-75562500I-190000J0D01*
G01*
X163577500Y-75562500D01*
G75*
G02*
X163387500Y-75372500I0J190000D01*
G01*
X163387500Y-74802500D01*
G75*
G02*
X163577500Y-74612500I190000J0D01*
G01*
G37*
G36*
G01*
X178807500Y-105697500D02*
X178807500Y-105377500D01*
G75*
G02*
X178967500Y-105217500I160000J0D01*
G01*
X179362500Y-105217500D01*
G75*
G02*
X179522500Y-105377500I0J-160000D01*
G01*
X179522500Y-105697500D01*
G75*
G02*
X179362500Y-105857500I-160000J0D01*
G01*
X178967500Y-105857500D01*
G75*
G02*
X178807500Y-105697500I0J160000D01*
G01*
G37*
G36*
G01*
X180002500Y-105697500D02*
X180002500Y-105377500D01*
G75*
G02*
X180162500Y-105217500I160000J0D01*
G01*
X180557500Y-105217500D01*
G75*
G02*
X180717500Y-105377500I0J-160000D01*
G01*
X180717500Y-105697500D01*
G75*
G02*
X180557500Y-105857500I-160000J0D01*
G01*
X180162500Y-105857500D01*
G75*
G02*
X180002500Y-105697500I0J160000D01*
G01*
G37*
G36*
G01*
X170422500Y-76492500D02*
X170102500Y-76492500D01*
G75*
G02*
X169942500Y-76332500I0J160000D01*
G01*
X169942500Y-75937500D01*
G75*
G02*
X170102500Y-75777500I160000J0D01*
G01*
X170422500Y-75777500D01*
G75*
G02*
X170582500Y-75937500I0J-160000D01*
G01*
X170582500Y-76332500D01*
G75*
G02*
X170422500Y-76492500I-160000J0D01*
G01*
G37*
G36*
G01*
X170422500Y-75297500D02*
X170102500Y-75297500D01*
G75*
G02*
X169942500Y-75137500I0J160000D01*
G01*
X169942500Y-74742500D01*
G75*
G02*
X170102500Y-74582500I160000J0D01*
G01*
X170422500Y-74582500D01*
G75*
G02*
X170582500Y-74742500I0J-160000D01*
G01*
X170582500Y-75137500D01*
G75*
G02*
X170422500Y-75297500I-160000J0D01*
G01*
G37*
G36*
G01*
X186807500Y-76697500D02*
X186807500Y-76377500D01*
G75*
G02*
X186967500Y-76217500I160000J0D01*
G01*
X187362500Y-76217500D01*
G75*
G02*
X187522500Y-76377500I0J-160000D01*
G01*
X187522500Y-76697500D01*
G75*
G02*
X187362500Y-76857500I-160000J0D01*
G01*
X186967500Y-76857500D01*
G75*
G02*
X186807500Y-76697500I0J160000D01*
G01*
G37*
G36*
G01*
X188002500Y-76697500D02*
X188002500Y-76377500D01*
G75*
G02*
X188162500Y-76217500I160000J0D01*
G01*
X188557500Y-76217500D01*
G75*
G02*
X188717500Y-76377500I0J-160000D01*
G01*
X188717500Y-76697500D01*
G75*
G02*
X188557500Y-76857500I-160000J0D01*
G01*
X188162500Y-76857500D01*
G75*
G02*
X188002500Y-76697500I0J160000D01*
G01*
G37*
X168262500Y-73537500D03*
G36*
G01*
X167577500Y-71512500D02*
X168947500Y-71512500D01*
G75*
G02*
X169137500Y-71702500I0J-190000D01*
G01*
X169137500Y-72272500D01*
G75*
G02*
X168947500Y-72462500I-190000J0D01*
G01*
X167577500Y-72462500D01*
G75*
G02*
X167387500Y-72272500I0J190000D01*
G01*
X167387500Y-71702500D01*
G75*
G02*
X167577500Y-71512500I190000J0D01*
G01*
G37*
G36*
G01*
X167577500Y-74612500D02*
X168947500Y-74612500D01*
G75*
G02*
X169137500Y-74802500I0J-190000D01*
G01*
X169137500Y-75372500D01*
G75*
G02*
X168947500Y-75562500I-190000J0D01*
G01*
X167577500Y-75562500D01*
G75*
G02*
X167387500Y-75372500I0J190000D01*
G01*
X167387500Y-74802500D01*
G75*
G02*
X167577500Y-74612500I190000J0D01*
G01*
G37*
G36*
G01*
X174102500Y-74082500D02*
X174422500Y-74082500D01*
G75*
G02*
X174582500Y-74242500I0J-160000D01*
G01*
X174582500Y-74637500D01*
G75*
G02*
X174422500Y-74797500I-160000J0D01*
G01*
X174102500Y-74797500D01*
G75*
G02*
X173942500Y-74637500I0J160000D01*
G01*
X173942500Y-74242500D01*
G75*
G02*
X174102500Y-74082500I160000J0D01*
G01*
G37*
G36*
G01*
X174102500Y-75277500D02*
X174422500Y-75277500D01*
G75*
G02*
X174582500Y-75437500I0J-160000D01*
G01*
X174582500Y-75832500D01*
G75*
G02*
X174422500Y-75992500I-160000J0D01*
G01*
X174102500Y-75992500D01*
G75*
G02*
X173942500Y-75832500I0J160000D01*
G01*
X173942500Y-75437500D01*
G75*
G02*
X174102500Y-75277500I160000J0D01*
G01*
G37*
G36*
G01*
X161922500Y-75492500D02*
X161602500Y-75492500D01*
G75*
G02*
X161442500Y-75332500I0J160000D01*
G01*
X161442500Y-74937500D01*
G75*
G02*
X161602500Y-74777500I160000J0D01*
G01*
X161922500Y-74777500D01*
G75*
G02*
X162082500Y-74937500I0J-160000D01*
G01*
X162082500Y-75332500D01*
G75*
G02*
X161922500Y-75492500I-160000J0D01*
G01*
G37*
G36*
G01*
X161922500Y-74297500D02*
X161602500Y-74297500D01*
G75*
G02*
X161442500Y-74137500I0J160000D01*
G01*
X161442500Y-73742500D01*
G75*
G02*
X161602500Y-73582500I160000J0D01*
G01*
X161922500Y-73582500D01*
G75*
G02*
X162082500Y-73742500I0J-160000D01*
G01*
X162082500Y-74137500D01*
G75*
G02*
X161922500Y-74297500I-160000J0D01*
G01*
G37*
G36*
G01*
X144102500Y-75082500D02*
X144422500Y-75082500D01*
G75*
G02*
X144582500Y-75242500I0J-160000D01*
G01*
X144582500Y-75637500D01*
G75*
G02*
X144422500Y-75797500I-160000J0D01*
G01*
X144102500Y-75797500D01*
G75*
G02*
X143942500Y-75637500I0J160000D01*
G01*
X143942500Y-75242500D01*
G75*
G02*
X144102500Y-75082500I160000J0D01*
G01*
G37*
G36*
G01*
X144102500Y-76277500D02*
X144422500Y-76277500D01*
G75*
G02*
X144582500Y-76437500I0J-160000D01*
G01*
X144582500Y-76832500D01*
G75*
G02*
X144422500Y-76992500I-160000J0D01*
G01*
X144102500Y-76992500D01*
G75*
G02*
X143942500Y-76832500I0J160000D01*
G01*
X143942500Y-76437500D01*
G75*
G02*
X144102500Y-76277500I160000J0D01*
G01*
G37*
G36*
G01*
X155217500Y-76347500D02*
X155217500Y-76667500D01*
G75*
G02*
X155057500Y-76827500I-160000J0D01*
G01*
X154662500Y-76827500D01*
G75*
G02*
X154502500Y-76667500I0J160000D01*
G01*
X154502500Y-76347500D01*
G75*
G02*
X154662500Y-76187500I160000J0D01*
G01*
X155057500Y-76187500D01*
G75*
G02*
X155217500Y-76347500I0J-160000D01*
G01*
G37*
G36*
G01*
X154022500Y-76347500D02*
X154022500Y-76667500D01*
G75*
G02*
X153862500Y-76827500I-160000J0D01*
G01*
X153467500Y-76827500D01*
G75*
G02*
X153307500Y-76667500I0J160000D01*
G01*
X153307500Y-76347500D01*
G75*
G02*
X153467500Y-76187500I160000J0D01*
G01*
X153862500Y-76187500D01*
G75*
G02*
X154022500Y-76347500I0J-160000D01*
G01*
G37*
G36*
G01*
X192102500Y-75082500D02*
X192422500Y-75082500D01*
G75*
G02*
X192582500Y-75242500I0J-160000D01*
G01*
X192582500Y-75637500D01*
G75*
G02*
X192422500Y-75797500I-160000J0D01*
G01*
X192102500Y-75797500D01*
G75*
G02*
X191942500Y-75637500I0J160000D01*
G01*
X191942500Y-75242500D01*
G75*
G02*
X192102500Y-75082500I160000J0D01*
G01*
G37*
G36*
G01*
X192102500Y-76277500D02*
X192422500Y-76277500D01*
G75*
G02*
X192582500Y-76437500I0J-160000D01*
G01*
X192582500Y-76832500D01*
G75*
G02*
X192422500Y-76992500I-160000J0D01*
G01*
X192102500Y-76992500D01*
G75*
G02*
X191942500Y-76832500I0J160000D01*
G01*
X191942500Y-76437500D01*
G75*
G02*
X192102500Y-76277500I160000J0D01*
G01*
G37*
M02*
