%TF.GenerationSoftware,KiCad,Pcbnew,6.0.11+dfsg-1*%
%TF.ProjectId,project,70726f6a-6563-4742-9e6b-696361645f70,rev?*%
%TF.SameCoordinates,Original*%
%TF.FileFunction,Drillmap*%
%TF.FilePolarity,Positive*%
%FSLAX45Y45*%
G04 Gerber Fmt 4.5, Leading zero omitted, Abs format (unit mm)*
%MOMM*%
%LPD*%
G01*
G04 APERTURE LIST*
%ADD10C,0.100000*%
%ADD11C,0.200000*%
G04 APERTURE END LIST*
D10*
X12776250Y-7053750D02*
G75*
G03*
X12626250Y-7203750I0J-150000D01*
G01*
X17116250Y-10923750D02*
G75*
G03*
X17116250Y-10583750I300J170000D01*
G01*
X17346250Y-10283750D02*
X16306250Y-10283750D01*
X16536250Y-10583750D02*
G75*
G03*
X16536250Y-10923750I-300J-170000D01*
G01*
X21026250Y-7203750D02*
G75*
G03*
X20876250Y-7053750I-150000J0D01*
G01*
X12626250Y-9953750D02*
X12626250Y-11003750D01*
X20826250Y-11153750D02*
X12826250Y-11153750D01*
X20026250Y-9853750D02*
X20026250Y-8353750D01*
X20076250Y-8303750D02*
X20976250Y-8303750D01*
X20876250Y-7053750D02*
X12776250Y-7053750D01*
X18006250Y-9803750D02*
G75*
G03*
X18006250Y-9803750I-180000J0D01*
G01*
X16256250Y-10233750D02*
X16256250Y-9673750D01*
X17396250Y-9673750D02*
G75*
G03*
X17346250Y-9623750I-50000J0D01*
G01*
X20976250Y-9903750D02*
X20076250Y-9903750D01*
X16306250Y-9623750D02*
G75*
G03*
X16256250Y-9673750I0J-50000D01*
G01*
X16006250Y-9803750D02*
G75*
G03*
X16006250Y-9803750I-180000J0D01*
G01*
X13576250Y-9903750D02*
G75*
G03*
X13626250Y-9853750I0J50000D01*
G01*
X17346250Y-10283750D02*
G75*
G03*
X17396250Y-10233750I0J50000D01*
G01*
X16536250Y-10583750D02*
X17116250Y-10583750D01*
X20026250Y-9853750D02*
G75*
G03*
X20076250Y-9903750I50000J0D01*
G01*
X13576250Y-9903750D02*
X12676250Y-9903750D01*
X12626250Y-11003750D02*
G75*
G03*
X12776250Y-11153750I150000J0D01*
G01*
X21026250Y-8253750D02*
X21026250Y-7203750D01*
X12626250Y-8253750D02*
G75*
G03*
X12676250Y-8303750I50000J0D01*
G01*
X20876250Y-11153750D02*
X20826250Y-11153750D01*
X17116250Y-10923750D02*
X16536250Y-10923750D01*
X12676250Y-9903750D02*
G75*
G03*
X12626250Y-9953750I0J-50000D01*
G01*
X20076250Y-8303750D02*
G75*
G03*
X20026250Y-8353750I0J-50000D01*
G01*
X17396250Y-9673750D02*
X17396250Y-10233750D01*
X20876250Y-11153750D02*
G75*
G03*
X21026250Y-11003750I0J150000D01*
G01*
X13626250Y-8353750D02*
X13626250Y-9853750D01*
X12626250Y-7203750D02*
X12626250Y-8253750D01*
X20976250Y-8303750D02*
G75*
G03*
X21026250Y-8253750I0J50000D01*
G01*
X13626250Y-8353750D02*
G75*
G03*
X13576250Y-8303750I-50000J0D01*
G01*
X21026250Y-9953750D02*
X21026250Y-11003750D01*
X16306250Y-9623750D02*
X17346250Y-9623750D01*
X12776250Y-11153750D02*
X12826250Y-11153750D01*
X12676250Y-8303750D02*
X13576250Y-8303750D01*
X16256250Y-10233750D02*
G75*
G03*
X16306250Y-10283750I50000J0D01*
G01*
X21026250Y-9953750D02*
G75*
G03*
X20976250Y-9903750I-50000J0D01*
G01*
D11*
X12926250Y-7253750D02*
X13126250Y-7453750D01*
X13126250Y-7253750D02*
X12926250Y-7453750D01*
X12976250Y-7453750D02*
X13076250Y-7453750D01*
X12976250Y-7253750D02*
X13076250Y-7253750D01*
X13076250Y-7453750D02*
G75*
G03*
X13076250Y-7253750I0J100000D01*
G01*
X12976250Y-7253750D02*
G75*
G03*
X12976250Y-7453750I0J-100000D01*
G01*
X12926250Y-10753750D02*
X13126250Y-10953750D01*
X13126250Y-10753750D02*
X12926250Y-10953750D01*
X13076250Y-10753750D02*
X12976250Y-10753750D01*
X13076250Y-10953750D02*
X12976250Y-10953750D01*
X12976250Y-10753750D02*
G75*
G03*
X12976250Y-10953750I0J-100000D01*
G01*
X13076250Y-10953750D02*
G75*
G03*
X13076250Y-10753750I0J100000D01*
G01*
X13326250Y-7253750D02*
X13526250Y-7453750D01*
X13526250Y-7253750D02*
X13326250Y-7453750D01*
X13376250Y-7453750D02*
X13476250Y-7453750D01*
X13376250Y-7253750D02*
X13476250Y-7253750D01*
X13476250Y-7453750D02*
G75*
G03*
X13476250Y-7253750I0J100000D01*
G01*
X13376250Y-7253750D02*
G75*
G03*
X13376250Y-7453750I0J-100000D01*
G01*
X13326250Y-10753750D02*
X13526250Y-10953750D01*
X13526250Y-10753750D02*
X13326250Y-10953750D01*
X13476250Y-10753750D02*
X13376250Y-10753750D01*
X13476250Y-10953750D02*
X13376250Y-10953750D01*
X13376250Y-10753750D02*
G75*
G03*
X13376250Y-10953750I0J-100000D01*
G01*
X13476250Y-10953750D02*
G75*
G03*
X13476250Y-10753750I0J100000D01*
G01*
X13726250Y-7253750D02*
X13926250Y-7453750D01*
X13926250Y-7253750D02*
X13726250Y-7453750D01*
X13776250Y-7453750D02*
X13876250Y-7453750D01*
X13776250Y-7253750D02*
X13876250Y-7253750D01*
X13876250Y-7453750D02*
G75*
G03*
X13876250Y-7253750I0J100000D01*
G01*
X13776250Y-7253750D02*
G75*
G03*
X13776250Y-7453750I0J-100000D01*
G01*
X13726250Y-10753750D02*
X13926250Y-10953750D01*
X13926250Y-10753750D02*
X13726250Y-10953750D01*
X13876250Y-10753750D02*
X13776250Y-10753750D01*
X13876250Y-10953750D02*
X13776250Y-10953750D01*
X13776250Y-10753750D02*
G75*
G03*
X13776250Y-10953750I0J-100000D01*
G01*
X13876250Y-10953750D02*
G75*
G03*
X13876250Y-10753750I0J100000D01*
G01*
X14126250Y-7253750D02*
X14326250Y-7453750D01*
X14326250Y-7253750D02*
X14126250Y-7453750D01*
X14176250Y-7453750D02*
X14276250Y-7453750D01*
X14176250Y-7253750D02*
X14276250Y-7253750D01*
X14276250Y-7453750D02*
G75*
G03*
X14276250Y-7253750I0J100000D01*
G01*
X14176250Y-7253750D02*
G75*
G03*
X14176250Y-7453750I0J-100000D01*
G01*
X14126250Y-10753750D02*
X14326250Y-10953750D01*
X14326250Y-10753750D02*
X14126250Y-10953750D01*
X14276250Y-10753750D02*
X14176250Y-10753750D01*
X14276250Y-10953750D02*
X14176250Y-10953750D01*
X14176250Y-10753750D02*
G75*
G03*
X14176250Y-10953750I0J-100000D01*
G01*
X14276250Y-10953750D02*
G75*
G03*
X14276250Y-10753750I0J100000D01*
G01*
X14526250Y-7253750D02*
X14726250Y-7453750D01*
X14726250Y-7253750D02*
X14526250Y-7453750D01*
X14576250Y-7453750D02*
X14676250Y-7453750D01*
X14576250Y-7253750D02*
X14676250Y-7253750D01*
X14676250Y-7453750D02*
G75*
G03*
X14676250Y-7253750I0J100000D01*
G01*
X14576250Y-7253750D02*
G75*
G03*
X14576250Y-7453750I0J-100000D01*
G01*
X14526250Y-10753750D02*
X14726250Y-10953750D01*
X14726250Y-10753750D02*
X14526250Y-10953750D01*
X14676250Y-10753750D02*
X14576250Y-10753750D01*
X14676250Y-10953750D02*
X14576250Y-10953750D01*
X14576250Y-10753750D02*
G75*
G03*
X14576250Y-10953750I0J-100000D01*
G01*
X14676250Y-10953750D02*
G75*
G03*
X14676250Y-10753750I0J100000D01*
G01*
X14926250Y-7253750D02*
X15126250Y-7453750D01*
X15126250Y-7253750D02*
X14926250Y-7453750D01*
X14976250Y-7453750D02*
X15076250Y-7453750D01*
X14976250Y-7253750D02*
X15076250Y-7253750D01*
X15076250Y-7453750D02*
G75*
G03*
X15076250Y-7253750I0J100000D01*
G01*
X14976250Y-7253750D02*
G75*
G03*
X14976250Y-7453750I0J-100000D01*
G01*
X14926250Y-10753750D02*
X15126250Y-10953750D01*
X15126250Y-10753750D02*
X14926250Y-10953750D01*
X15076250Y-10753750D02*
X14976250Y-10753750D01*
X15076250Y-10953750D02*
X14976250Y-10953750D01*
X14976250Y-10753750D02*
G75*
G03*
X14976250Y-10953750I0J-100000D01*
G01*
X15076250Y-10953750D02*
G75*
G03*
X15076250Y-10753750I0J100000D01*
G01*
X15326250Y-7253750D02*
X15526250Y-7453750D01*
X15526250Y-7253750D02*
X15326250Y-7453750D01*
X15376250Y-7453750D02*
X15476250Y-7453750D01*
X15376250Y-7253750D02*
X15476250Y-7253750D01*
X15476250Y-7453750D02*
G75*
G03*
X15476250Y-7253750I0J100000D01*
G01*
X15376250Y-7253750D02*
G75*
G03*
X15376250Y-7453750I0J-100000D01*
G01*
X15326250Y-10753750D02*
X15526250Y-10953750D01*
X15526250Y-10753750D02*
X15326250Y-10953750D01*
X15476250Y-10753750D02*
X15376250Y-10753750D01*
X15476250Y-10953750D02*
X15376250Y-10953750D01*
X15376250Y-10753750D02*
G75*
G03*
X15376250Y-10953750I0J-100000D01*
G01*
X15476250Y-10953750D02*
G75*
G03*
X15476250Y-10753750I0J100000D01*
G01*
X15726250Y-7253750D02*
X15926250Y-7453750D01*
X15926250Y-7253750D02*
X15726250Y-7453750D01*
X15776250Y-7453750D02*
X15876250Y-7453750D01*
X15776250Y-7253750D02*
X15876250Y-7253750D01*
X15876250Y-7453750D02*
G75*
G03*
X15876250Y-7253750I0J100000D01*
G01*
X15776250Y-7253750D02*
G75*
G03*
X15776250Y-7453750I0J-100000D01*
G01*
X15726250Y-10753750D02*
X15926250Y-10953750D01*
X15926250Y-10753750D02*
X15726250Y-10953750D01*
X15876250Y-10753750D02*
X15776250Y-10753750D01*
X15876250Y-10953750D02*
X15776250Y-10953750D01*
X15776250Y-10753750D02*
G75*
G03*
X15776250Y-10953750I0J-100000D01*
G01*
X15876250Y-10953750D02*
G75*
G03*
X15876250Y-10753750I0J100000D01*
G01*
X16326250Y-7253750D02*
X16526250Y-7453750D01*
X16526250Y-7253750D02*
X16326250Y-7453750D01*
X16376250Y-7453750D02*
X16476250Y-7453750D01*
X16376250Y-7253750D02*
X16476250Y-7253750D01*
X16476250Y-7453750D02*
G75*
G03*
X16476250Y-7253750I0J100000D01*
G01*
X16376250Y-7253750D02*
G75*
G03*
X16376250Y-7453750I0J-100000D01*
G01*
X16726250Y-7253750D02*
X16926250Y-7453750D01*
X16926250Y-7253750D02*
X16726250Y-7453750D01*
X16776250Y-7453750D02*
X16876250Y-7453750D01*
X16776250Y-7253750D02*
X16876250Y-7253750D01*
X16876250Y-7453750D02*
G75*
G03*
X16876250Y-7253750I0J100000D01*
G01*
X16776250Y-7253750D02*
G75*
G03*
X16776250Y-7453750I0J-100000D01*
G01*
X17126250Y-7253750D02*
X17326250Y-7453750D01*
X17326250Y-7253750D02*
X17126250Y-7453750D01*
X17176250Y-7453750D02*
X17276250Y-7453750D01*
X17176250Y-7253750D02*
X17276250Y-7253750D01*
X17276250Y-7453750D02*
G75*
G03*
X17276250Y-7253750I0J100000D01*
G01*
X17176250Y-7253750D02*
G75*
G03*
X17176250Y-7453750I0J-100000D01*
G01*
X17726250Y-7253750D02*
X17926250Y-7453750D01*
X17926250Y-7253750D02*
X17726250Y-7453750D01*
X17776250Y-7453750D02*
X17876250Y-7453750D01*
X17776250Y-7253750D02*
X17876250Y-7253750D01*
X17876250Y-7453750D02*
G75*
G03*
X17876250Y-7253750I0J100000D01*
G01*
X17776250Y-7253750D02*
G75*
G03*
X17776250Y-7453750I0J-100000D01*
G01*
X17726250Y-10753750D02*
X17926250Y-10953750D01*
X17926250Y-10753750D02*
X17726250Y-10953750D01*
X17876250Y-10753750D02*
X17776250Y-10753750D01*
X17876250Y-10953750D02*
X17776250Y-10953750D01*
X17776250Y-10753750D02*
G75*
G03*
X17776250Y-10953750I0J-100000D01*
G01*
X17876250Y-10953750D02*
G75*
G03*
X17876250Y-10753750I0J100000D01*
G01*
X18126250Y-7253750D02*
X18326250Y-7453750D01*
X18326250Y-7253750D02*
X18126250Y-7453750D01*
X18176250Y-7453750D02*
X18276250Y-7453750D01*
X18176250Y-7253750D02*
X18276250Y-7253750D01*
X18276250Y-7453750D02*
G75*
G03*
X18276250Y-7253750I0J100000D01*
G01*
X18176250Y-7253750D02*
G75*
G03*
X18176250Y-7453750I0J-100000D01*
G01*
X18126250Y-10753750D02*
X18326250Y-10953750D01*
X18326250Y-10753750D02*
X18126250Y-10953750D01*
X18276250Y-10753750D02*
X18176250Y-10753750D01*
X18276250Y-10953750D02*
X18176250Y-10953750D01*
X18176250Y-10753750D02*
G75*
G03*
X18176250Y-10953750I0J-100000D01*
G01*
X18276250Y-10953750D02*
G75*
G03*
X18276250Y-10753750I0J100000D01*
G01*
X18526250Y-7253750D02*
X18726250Y-7453750D01*
X18726250Y-7253750D02*
X18526250Y-7453750D01*
X18576250Y-7453750D02*
X18676250Y-7453750D01*
X18576250Y-7253750D02*
X18676250Y-7253750D01*
X18676250Y-7453750D02*
G75*
G03*
X18676250Y-7253750I0J100000D01*
G01*
X18576250Y-7253750D02*
G75*
G03*
X18576250Y-7453750I0J-100000D01*
G01*
X18526250Y-10753750D02*
X18726250Y-10953750D01*
X18726250Y-10753750D02*
X18526250Y-10953750D01*
X18676250Y-10753750D02*
X18576250Y-10753750D01*
X18676250Y-10953750D02*
X18576250Y-10953750D01*
X18576250Y-10753750D02*
G75*
G03*
X18576250Y-10953750I0J-100000D01*
G01*
X18676250Y-10953750D02*
G75*
G03*
X18676250Y-10753750I0J100000D01*
G01*
X18926250Y-7253750D02*
X19126250Y-7453750D01*
X19126250Y-7253750D02*
X18926250Y-7453750D01*
X18976250Y-7453750D02*
X19076250Y-7453750D01*
X18976250Y-7253750D02*
X19076250Y-7253750D01*
X19076250Y-7453750D02*
G75*
G03*
X19076250Y-7253750I0J100000D01*
G01*
X18976250Y-7253750D02*
G75*
G03*
X18976250Y-7453750I0J-100000D01*
G01*
X18926250Y-10753750D02*
X19126250Y-10953750D01*
X19126250Y-10753750D02*
X18926250Y-10953750D01*
X19076250Y-10753750D02*
X18976250Y-10753750D01*
X19076250Y-10953750D02*
X18976250Y-10953750D01*
X18976250Y-10753750D02*
G75*
G03*
X18976250Y-10953750I0J-100000D01*
G01*
X19076250Y-10953750D02*
G75*
G03*
X19076250Y-10753750I0J100000D01*
G01*
X19300000Y-8650000D02*
X19500000Y-8850000D01*
X19500000Y-8650000D02*
X19300000Y-8850000D01*
X19500000Y-8800000D02*
X19500000Y-8700000D01*
X19300000Y-8800000D02*
X19300000Y-8700000D01*
X19500000Y-8700000D02*
G75*
G03*
X19300000Y-8700000I-100000J0D01*
G01*
X19300000Y-8800000D02*
G75*
G03*
X19500000Y-8800000I100000J0D01*
G01*
X19300000Y-9350000D02*
X19500000Y-9550000D01*
X19500000Y-9350000D02*
X19300000Y-9550000D01*
X19500000Y-9500000D02*
X19500000Y-9400000D01*
X19300000Y-9500000D02*
X19300000Y-9400000D01*
X19500000Y-9400000D02*
G75*
G03*
X19300000Y-9400000I-100000J0D01*
G01*
X19300000Y-9500000D02*
G75*
G03*
X19500000Y-9500000I100000J0D01*
G01*
X19326250Y-7253750D02*
X19526250Y-7453750D01*
X19526250Y-7253750D02*
X19326250Y-7453750D01*
X19376250Y-7453750D02*
X19476250Y-7453750D01*
X19376250Y-7253750D02*
X19476250Y-7253750D01*
X19476250Y-7453750D02*
G75*
G03*
X19476250Y-7253750I0J100000D01*
G01*
X19376250Y-7253750D02*
G75*
G03*
X19376250Y-7453750I0J-100000D01*
G01*
X19326250Y-10753750D02*
X19526250Y-10953750D01*
X19526250Y-10753750D02*
X19326250Y-10953750D01*
X19476250Y-10753750D02*
X19376250Y-10753750D01*
X19476250Y-10953750D02*
X19376250Y-10953750D01*
X19376250Y-10753750D02*
G75*
G03*
X19376250Y-10953750I0J-100000D01*
G01*
X19476250Y-10953750D02*
G75*
G03*
X19476250Y-10753750I0J100000D01*
G01*
X19726250Y-7253750D02*
X19926250Y-7453750D01*
X19926250Y-7253750D02*
X19726250Y-7453750D01*
X19776250Y-7453750D02*
X19876250Y-7453750D01*
X19776250Y-7253750D02*
X19876250Y-7253750D01*
X19876250Y-7453750D02*
G75*
G03*
X19876250Y-7253750I0J100000D01*
G01*
X19776250Y-7253750D02*
G75*
G03*
X19776250Y-7453750I0J-100000D01*
G01*
X19726250Y-10753750D02*
X19926250Y-10953750D01*
X19926250Y-10753750D02*
X19726250Y-10953750D01*
X19876250Y-10753750D02*
X19776250Y-10753750D01*
X19876250Y-10953750D02*
X19776250Y-10953750D01*
X19776250Y-10753750D02*
G75*
G03*
X19776250Y-10953750I0J-100000D01*
G01*
X19876250Y-10953750D02*
G75*
G03*
X19876250Y-10753750I0J100000D01*
G01*
X20126250Y-7253750D02*
X20326250Y-7453750D01*
X20326250Y-7253750D02*
X20126250Y-7453750D01*
X20176250Y-7453750D02*
X20276250Y-7453750D01*
X20176250Y-7253750D02*
X20276250Y-7253750D01*
X20276250Y-7453750D02*
G75*
G03*
X20276250Y-7253750I0J100000D01*
G01*
X20176250Y-7253750D02*
G75*
G03*
X20176250Y-7453750I0J-100000D01*
G01*
X20126250Y-10753750D02*
X20326250Y-10953750D01*
X20326250Y-10753750D02*
X20126250Y-10953750D01*
X20276250Y-10753750D02*
X20176250Y-10753750D01*
X20276250Y-10953750D02*
X20176250Y-10953750D01*
X20176250Y-10753750D02*
G75*
G03*
X20176250Y-10953750I0J-100000D01*
G01*
X20276250Y-10953750D02*
G75*
G03*
X20276250Y-10753750I0J100000D01*
G01*
X20526250Y-7253750D02*
X20726250Y-7453750D01*
X20726250Y-7253750D02*
X20526250Y-7453750D01*
X20576250Y-7453750D02*
X20676250Y-7453750D01*
X20576250Y-7253750D02*
X20676250Y-7253750D01*
X20676250Y-7453750D02*
G75*
G03*
X20676250Y-7253750I0J100000D01*
G01*
X20576250Y-7253750D02*
G75*
G03*
X20576250Y-7453750I0J-100000D01*
G01*
X20526250Y-10753750D02*
X20726250Y-10953750D01*
X20726250Y-10753750D02*
X20526250Y-10953750D01*
X20676250Y-10753750D02*
X20576250Y-10753750D01*
X20676250Y-10953750D02*
X20576250Y-10953750D01*
X20576250Y-10753750D02*
G75*
G03*
X20576250Y-10953750I0J-100000D01*
G01*
X20676250Y-10953750D02*
G75*
G03*
X20676250Y-10753750I0J100000D01*
G01*
X12878869Y-11469226D02*
X12878869Y-11269226D01*
X12926488Y-11269226D01*
X12955059Y-11278750D01*
X12974107Y-11297798D01*
X12983631Y-11316845D01*
X12993155Y-11354940D01*
X12993155Y-11383512D01*
X12983631Y-11421607D01*
X12974107Y-11440655D01*
X12955059Y-11459702D01*
X12926488Y-11469226D01*
X12878869Y-11469226D01*
X13078869Y-11469226D02*
X13078869Y-11335893D01*
X13078869Y-11373988D02*
X13088393Y-11354940D01*
X13097917Y-11345417D01*
X13116964Y-11335893D01*
X13136012Y-11335893D01*
X13202678Y-11469226D02*
X13202678Y-11335893D01*
X13202678Y-11269226D02*
X13193155Y-11278750D01*
X13202678Y-11288274D01*
X13212202Y-11278750D01*
X13202678Y-11269226D01*
X13202678Y-11288274D01*
X13326488Y-11469226D02*
X13307440Y-11459702D01*
X13297917Y-11440655D01*
X13297917Y-11269226D01*
X13431250Y-11469226D02*
X13412202Y-11459702D01*
X13402678Y-11440655D01*
X13402678Y-11269226D01*
X13659821Y-11469226D02*
X13659821Y-11269226D01*
X13726488Y-11412083D01*
X13793155Y-11269226D01*
X13793155Y-11469226D01*
X13974107Y-11469226D02*
X13974107Y-11364464D01*
X13964583Y-11345417D01*
X13945536Y-11335893D01*
X13907440Y-11335893D01*
X13888393Y-11345417D01*
X13974107Y-11459702D02*
X13955059Y-11469226D01*
X13907440Y-11469226D01*
X13888393Y-11459702D01*
X13878869Y-11440655D01*
X13878869Y-11421607D01*
X13888393Y-11402559D01*
X13907440Y-11393036D01*
X13955059Y-11393036D01*
X13974107Y-11383512D01*
X14069345Y-11335893D02*
X14069345Y-11535893D01*
X14069345Y-11345417D02*
X14088393Y-11335893D01*
X14126488Y-11335893D01*
X14145536Y-11345417D01*
X14155059Y-11354940D01*
X14164583Y-11373988D01*
X14164583Y-11431131D01*
X14155059Y-11450178D01*
X14145536Y-11459702D01*
X14126488Y-11469226D01*
X14088393Y-11469226D01*
X14069345Y-11459702D01*
X14250298Y-11450178D02*
X14259821Y-11459702D01*
X14250298Y-11469226D01*
X14240774Y-11459702D01*
X14250298Y-11450178D01*
X14250298Y-11469226D01*
X14250298Y-11345417D02*
X14259821Y-11354940D01*
X14250298Y-11364464D01*
X14240774Y-11354940D01*
X14250298Y-11345417D01*
X14250298Y-11364464D01*
X12421250Y-11698750D02*
X12621250Y-11898750D01*
X12621250Y-11698750D02*
X12421250Y-11898750D01*
X12869345Y-11708274D02*
X12878869Y-11698750D01*
X12897917Y-11689226D01*
X12945536Y-11689226D01*
X12964583Y-11698750D01*
X12974107Y-11708274D01*
X12983631Y-11727321D01*
X12983631Y-11746369D01*
X12974107Y-11774940D01*
X12859821Y-11889226D01*
X12983631Y-11889226D01*
X13069345Y-11870178D02*
X13078869Y-11879702D01*
X13069345Y-11889226D01*
X13059821Y-11879702D01*
X13069345Y-11870178D01*
X13069345Y-11889226D01*
X13202678Y-11689226D02*
X13221726Y-11689226D01*
X13240774Y-11698750D01*
X13250298Y-11708274D01*
X13259821Y-11727321D01*
X13269345Y-11765417D01*
X13269345Y-11813036D01*
X13259821Y-11851131D01*
X13250298Y-11870178D01*
X13240774Y-11879702D01*
X13221726Y-11889226D01*
X13202678Y-11889226D01*
X13183631Y-11879702D01*
X13174107Y-11870178D01*
X13164583Y-11851131D01*
X13155059Y-11813036D01*
X13155059Y-11765417D01*
X13164583Y-11727321D01*
X13174107Y-11708274D01*
X13183631Y-11698750D01*
X13202678Y-11689226D01*
X13393155Y-11689226D02*
X13412202Y-11689226D01*
X13431250Y-11698750D01*
X13440774Y-11708274D01*
X13450298Y-11727321D01*
X13459821Y-11765417D01*
X13459821Y-11813036D01*
X13450298Y-11851131D01*
X13440774Y-11870178D01*
X13431250Y-11879702D01*
X13412202Y-11889226D01*
X13393155Y-11889226D01*
X13374107Y-11879702D01*
X13364583Y-11870178D01*
X13355059Y-11851131D01*
X13345536Y-11813036D01*
X13345536Y-11765417D01*
X13355059Y-11727321D01*
X13364583Y-11708274D01*
X13374107Y-11698750D01*
X13393155Y-11689226D01*
X13583631Y-11689226D02*
X13602678Y-11689226D01*
X13621726Y-11698750D01*
X13631250Y-11708274D01*
X13640774Y-11727321D01*
X13650298Y-11765417D01*
X13650298Y-11813036D01*
X13640774Y-11851131D01*
X13631250Y-11870178D01*
X13621726Y-11879702D01*
X13602678Y-11889226D01*
X13583631Y-11889226D01*
X13564583Y-11879702D01*
X13555059Y-11870178D01*
X13545536Y-11851131D01*
X13536012Y-11813036D01*
X13536012Y-11765417D01*
X13545536Y-11727321D01*
X13555059Y-11708274D01*
X13564583Y-11698750D01*
X13583631Y-11689226D01*
X13736012Y-11889226D02*
X13736012Y-11755893D01*
X13736012Y-11774940D02*
X13745536Y-11765417D01*
X13764583Y-11755893D01*
X13793155Y-11755893D01*
X13812202Y-11765417D01*
X13821726Y-11784464D01*
X13821726Y-11889226D01*
X13821726Y-11784464D02*
X13831250Y-11765417D01*
X13850298Y-11755893D01*
X13878869Y-11755893D01*
X13897917Y-11765417D01*
X13907440Y-11784464D01*
X13907440Y-11889226D01*
X14002678Y-11889226D02*
X14002678Y-11755893D01*
X14002678Y-11774940D02*
X14012202Y-11765417D01*
X14031250Y-11755893D01*
X14059821Y-11755893D01*
X14078869Y-11765417D01*
X14088393Y-11784464D01*
X14088393Y-11889226D01*
X14088393Y-11784464D02*
X14097917Y-11765417D01*
X14116964Y-11755893D01*
X14145536Y-11755893D01*
X14164583Y-11765417D01*
X14174107Y-11784464D01*
X14174107Y-11889226D01*
X14564583Y-11679702D02*
X14393155Y-11936845D01*
X14821726Y-11689226D02*
X14840774Y-11689226D01*
X14859821Y-11698750D01*
X14869345Y-11708274D01*
X14878869Y-11727321D01*
X14888393Y-11765417D01*
X14888393Y-11813036D01*
X14878869Y-11851131D01*
X14869345Y-11870178D01*
X14859821Y-11879702D01*
X14840774Y-11889226D01*
X14821726Y-11889226D01*
X14802678Y-11879702D01*
X14793155Y-11870178D01*
X14783631Y-11851131D01*
X14774107Y-11813036D01*
X14774107Y-11765417D01*
X14783631Y-11727321D01*
X14793155Y-11708274D01*
X14802678Y-11698750D01*
X14821726Y-11689226D01*
X14974107Y-11870178D02*
X14983631Y-11879702D01*
X14974107Y-11889226D01*
X14964583Y-11879702D01*
X14974107Y-11870178D01*
X14974107Y-11889226D01*
X15107440Y-11689226D02*
X15126488Y-11689226D01*
X15145536Y-11698750D01*
X15155059Y-11708274D01*
X15164583Y-11727321D01*
X15174107Y-11765417D01*
X15174107Y-11813036D01*
X15164583Y-11851131D01*
X15155059Y-11870178D01*
X15145536Y-11879702D01*
X15126488Y-11889226D01*
X15107440Y-11889226D01*
X15088393Y-11879702D01*
X15078869Y-11870178D01*
X15069345Y-11851131D01*
X15059821Y-11813036D01*
X15059821Y-11765417D01*
X15069345Y-11727321D01*
X15078869Y-11708274D01*
X15088393Y-11698750D01*
X15107440Y-11689226D01*
X15240774Y-11689226D02*
X15374107Y-11689226D01*
X15288393Y-11889226D01*
X15478869Y-11774940D02*
X15459821Y-11765417D01*
X15450298Y-11755893D01*
X15440774Y-11736845D01*
X15440774Y-11727321D01*
X15450298Y-11708274D01*
X15459821Y-11698750D01*
X15478869Y-11689226D01*
X15516964Y-11689226D01*
X15536012Y-11698750D01*
X15545536Y-11708274D01*
X15555059Y-11727321D01*
X15555059Y-11736845D01*
X15545536Y-11755893D01*
X15536012Y-11765417D01*
X15516964Y-11774940D01*
X15478869Y-11774940D01*
X15459821Y-11784464D01*
X15450298Y-11793988D01*
X15440774Y-11813036D01*
X15440774Y-11851131D01*
X15450298Y-11870178D01*
X15459821Y-11879702D01*
X15478869Y-11889226D01*
X15516964Y-11889226D01*
X15536012Y-11879702D01*
X15545536Y-11870178D01*
X15555059Y-11851131D01*
X15555059Y-11813036D01*
X15545536Y-11793988D01*
X15536012Y-11784464D01*
X15516964Y-11774940D01*
X15621726Y-11689226D02*
X15755059Y-11689226D01*
X15669345Y-11889226D01*
X15821726Y-11689226D02*
X15821726Y-11727321D01*
X15897917Y-11689226D02*
X15897917Y-11727321D01*
X16193155Y-11965417D02*
X16183631Y-11955893D01*
X16164583Y-11927321D01*
X16155059Y-11908274D01*
X16145536Y-11879702D01*
X16136012Y-11832083D01*
X16136012Y-11793988D01*
X16145536Y-11746369D01*
X16155059Y-11717798D01*
X16164583Y-11698750D01*
X16183631Y-11670178D01*
X16193155Y-11660655D01*
X16307440Y-11689226D02*
X16326488Y-11689226D01*
X16345536Y-11698750D01*
X16355059Y-11708274D01*
X16364583Y-11727321D01*
X16374107Y-11765417D01*
X16374107Y-11813036D01*
X16364583Y-11851131D01*
X16355059Y-11870178D01*
X16345536Y-11879702D01*
X16326488Y-11889226D01*
X16307440Y-11889226D01*
X16288393Y-11879702D01*
X16278869Y-11870178D01*
X16269345Y-11851131D01*
X16259821Y-11813036D01*
X16259821Y-11765417D01*
X16269345Y-11727321D01*
X16278869Y-11708274D01*
X16288393Y-11698750D01*
X16307440Y-11689226D01*
X16612202Y-11889226D02*
X16612202Y-11689226D01*
X16697917Y-11889226D02*
X16697917Y-11784464D01*
X16688393Y-11765417D01*
X16669345Y-11755893D01*
X16640774Y-11755893D01*
X16621726Y-11765417D01*
X16612202Y-11774940D01*
X16821726Y-11889226D02*
X16802679Y-11879702D01*
X16793155Y-11870178D01*
X16783631Y-11851131D01*
X16783631Y-11793988D01*
X16793155Y-11774940D01*
X16802679Y-11765417D01*
X16821726Y-11755893D01*
X16850298Y-11755893D01*
X16869345Y-11765417D01*
X16878869Y-11774940D01*
X16888393Y-11793988D01*
X16888393Y-11851131D01*
X16878869Y-11870178D01*
X16869345Y-11879702D01*
X16850298Y-11889226D01*
X16821726Y-11889226D01*
X17002679Y-11889226D02*
X16983631Y-11879702D01*
X16974107Y-11860655D01*
X16974107Y-11689226D01*
X17155060Y-11879702D02*
X17136012Y-11889226D01*
X17097917Y-11889226D01*
X17078869Y-11879702D01*
X17069345Y-11860655D01*
X17069345Y-11784464D01*
X17078869Y-11765417D01*
X17097917Y-11755893D01*
X17136012Y-11755893D01*
X17155060Y-11765417D01*
X17164583Y-11784464D01*
X17164583Y-11803512D01*
X17069345Y-11822559D01*
X17240774Y-11879702D02*
X17259821Y-11889226D01*
X17297917Y-11889226D01*
X17316964Y-11879702D01*
X17326488Y-11860655D01*
X17326488Y-11851131D01*
X17316964Y-11832083D01*
X17297917Y-11822559D01*
X17269345Y-11822559D01*
X17250298Y-11813036D01*
X17240774Y-11793988D01*
X17240774Y-11784464D01*
X17250298Y-11765417D01*
X17269345Y-11755893D01*
X17297917Y-11755893D01*
X17316964Y-11765417D01*
X17564583Y-11813036D02*
X17716964Y-11813036D01*
X17640774Y-11889226D02*
X17640774Y-11736845D01*
X17945536Y-11689226D02*
X18069345Y-11689226D01*
X18002679Y-11765417D01*
X18031250Y-11765417D01*
X18050298Y-11774940D01*
X18059821Y-11784464D01*
X18069345Y-11803512D01*
X18069345Y-11851131D01*
X18059821Y-11870178D01*
X18050298Y-11879702D01*
X18031250Y-11889226D01*
X17974107Y-11889226D01*
X17955060Y-11879702D01*
X17945536Y-11870178D01*
X18136012Y-11689226D02*
X18269345Y-11689226D01*
X18183631Y-11889226D01*
X18488393Y-11879702D02*
X18507440Y-11889226D01*
X18545536Y-11889226D01*
X18564583Y-11879702D01*
X18574107Y-11860655D01*
X18574107Y-11851131D01*
X18564583Y-11832083D01*
X18545536Y-11822559D01*
X18516964Y-11822559D01*
X18497917Y-11813036D01*
X18488393Y-11793988D01*
X18488393Y-11784464D01*
X18497917Y-11765417D01*
X18516964Y-11755893D01*
X18545536Y-11755893D01*
X18564583Y-11765417D01*
X18688393Y-11889226D02*
X18669345Y-11879702D01*
X18659821Y-11860655D01*
X18659821Y-11689226D01*
X18793155Y-11889226D02*
X18774107Y-11879702D01*
X18764583Y-11870178D01*
X18755060Y-11851131D01*
X18755060Y-11793988D01*
X18764583Y-11774940D01*
X18774107Y-11765417D01*
X18793155Y-11755893D01*
X18821726Y-11755893D01*
X18840774Y-11765417D01*
X18850298Y-11774940D01*
X18859821Y-11793988D01*
X18859821Y-11851131D01*
X18850298Y-11870178D01*
X18840774Y-11879702D01*
X18821726Y-11889226D01*
X18793155Y-11889226D01*
X18916964Y-11755893D02*
X18993155Y-11755893D01*
X18945536Y-11689226D02*
X18945536Y-11860655D01*
X18955060Y-11879702D01*
X18974107Y-11889226D01*
X18993155Y-11889226D01*
X19050298Y-11879702D02*
X19069345Y-11889226D01*
X19107440Y-11889226D01*
X19126488Y-11879702D01*
X19136012Y-11860655D01*
X19136012Y-11851131D01*
X19126488Y-11832083D01*
X19107440Y-11822559D01*
X19078869Y-11822559D01*
X19059821Y-11813036D01*
X19050298Y-11793988D01*
X19050298Y-11784464D01*
X19059821Y-11765417D01*
X19078869Y-11755893D01*
X19107440Y-11755893D01*
X19126488Y-11765417D01*
X19202679Y-11965417D02*
X19212202Y-11955893D01*
X19231250Y-11927321D01*
X19240774Y-11908274D01*
X19250298Y-11879702D01*
X19259821Y-11832083D01*
X19259821Y-11793988D01*
X19250298Y-11746369D01*
X19240774Y-11717798D01*
X19231250Y-11698750D01*
X19212202Y-11670178D01*
X19202679Y-11660655D01*
X19564583Y-11965417D02*
X19555060Y-11955893D01*
X19536012Y-11927321D01*
X19526488Y-11908274D01*
X19516964Y-11879702D01*
X19507440Y-11832083D01*
X19507440Y-11793988D01*
X19516964Y-11746369D01*
X19526488Y-11717798D01*
X19536012Y-11698750D01*
X19555060Y-11670178D01*
X19564583Y-11660655D01*
X19640774Y-11755893D02*
X19640774Y-11889226D01*
X19640774Y-11774940D02*
X19650298Y-11765417D01*
X19669345Y-11755893D01*
X19697917Y-11755893D01*
X19716964Y-11765417D01*
X19726488Y-11784464D01*
X19726488Y-11889226D01*
X19850298Y-11889226D02*
X19831250Y-11879702D01*
X19821726Y-11870178D01*
X19812202Y-11851131D01*
X19812202Y-11793988D01*
X19821726Y-11774940D01*
X19831250Y-11765417D01*
X19850298Y-11755893D01*
X19878869Y-11755893D01*
X19897917Y-11765417D01*
X19907440Y-11774940D01*
X19916964Y-11793988D01*
X19916964Y-11851131D01*
X19907440Y-11870178D01*
X19897917Y-11879702D01*
X19878869Y-11889226D01*
X19850298Y-11889226D01*
X19974107Y-11755893D02*
X20050298Y-11755893D01*
X20002679Y-11689226D02*
X20002679Y-11860655D01*
X20012202Y-11879702D01*
X20031250Y-11889226D01*
X20050298Y-11889226D01*
X20269345Y-11755893D02*
X20269345Y-11955893D01*
X20269345Y-11765417D02*
X20288393Y-11755893D01*
X20326488Y-11755893D01*
X20345536Y-11765417D01*
X20355060Y-11774940D01*
X20364583Y-11793988D01*
X20364583Y-11851131D01*
X20355060Y-11870178D01*
X20345536Y-11879702D01*
X20326488Y-11889226D01*
X20288393Y-11889226D01*
X20269345Y-11879702D01*
X20478869Y-11889226D02*
X20459821Y-11879702D01*
X20450298Y-11860655D01*
X20450298Y-11689226D01*
X20640774Y-11889226D02*
X20640774Y-11784464D01*
X20631250Y-11765417D01*
X20612202Y-11755893D01*
X20574107Y-11755893D01*
X20555060Y-11765417D01*
X20640774Y-11879702D02*
X20621726Y-11889226D01*
X20574107Y-11889226D01*
X20555060Y-11879702D01*
X20545536Y-11860655D01*
X20545536Y-11841607D01*
X20555060Y-11822559D01*
X20574107Y-11813036D01*
X20621726Y-11813036D01*
X20640774Y-11803512D01*
X20707440Y-11755893D02*
X20783631Y-11755893D01*
X20736012Y-11689226D02*
X20736012Y-11860655D01*
X20745536Y-11879702D01*
X20764583Y-11889226D01*
X20783631Y-11889226D01*
X20926488Y-11879702D02*
X20907440Y-11889226D01*
X20869345Y-11889226D01*
X20850298Y-11879702D01*
X20840774Y-11860655D01*
X20840774Y-11784464D01*
X20850298Y-11765417D01*
X20869345Y-11755893D01*
X20907440Y-11755893D01*
X20926488Y-11765417D01*
X20936012Y-11784464D01*
X20936012Y-11803512D01*
X20840774Y-11822559D01*
X21107440Y-11889226D02*
X21107440Y-11689226D01*
X21107440Y-11879702D02*
X21088393Y-11889226D01*
X21050298Y-11889226D01*
X21031250Y-11879702D01*
X21021726Y-11870178D01*
X21012202Y-11851131D01*
X21012202Y-11793988D01*
X21021726Y-11774940D01*
X21031250Y-11765417D01*
X21050298Y-11755893D01*
X21088393Y-11755893D01*
X21107440Y-11765417D01*
X21183631Y-11965417D02*
X21193155Y-11955893D01*
X21212202Y-11927321D01*
X21221726Y-11908274D01*
X21231250Y-11879702D01*
X21240774Y-11832083D01*
X21240774Y-11793988D01*
X21231250Y-11746369D01*
X21221726Y-11717798D01*
X21212202Y-11698750D01*
X21193155Y-11670178D01*
X21183631Y-11660655D01*
M02*
