M48
; FORMAT={-:-/ absolute / metric / decimal}
; #@! TF.GenerationSoftware,Kicad,Pcbnew,6.0.11+dfsg-1
; #@! TF.FileFunction,Plated,1,4,PTH
FMAT,2
METRIC
; #@! TA.AperFunction,Plated,PTH,ViaDrill
T1C0.300
; #@! TA.AperFunction,Plated,PTH,ComponentDrill
T2C4.200
%
G90
G05
T1
X127.262Y-73.037
X127.262Y-75.037
X127.262Y-77.037
X127.262Y-79.037
X127.262Y-81.037
X127.262Y-82.037
X127.262Y-100.037
X127.262Y-101.037
X127.262Y-103.037
X127.262Y-105.037
X127.262Y-107.037
X127.262Y-109.037
X128.262Y-72.037
X128.262Y-82.037
X128.262Y-100.037
X128.262Y-110.037
X130.262Y-82.037
X130.262Y-100.037
X132.262Y-72.037
X132.262Y-76.037
X132.262Y-82.037
X132.262Y-100.037
X132.262Y-104.037
X132.262Y-110.037
X134.262Y-82.037
X134.262Y-100.037
X136.262Y-72.037
X136.262Y-78.037
X136.262Y-82.037
X136.262Y-100.037
X136.262Y-103.037
X136.262Y-110.037
X137.262Y-82.037
X137.262Y-83.037
X137.262Y-99.037
X137.262Y-100.037
X137.762Y-102.037
X139.262Y-80.037
X139.262Y-98.037
X139.262Y-100.537
X140.262Y-72.037
X140.262Y-110.037
X141.262Y-96.037
X141.362Y-83.337
X141.499Y-98.608
X141.924Y-101.199
X142.327Y-103.731
X142.362Y-83.337
X143.262Y-94.037
X144.262Y-72.037
X144.262Y-86.037
X144.262Y-110.037
X146.162Y-98.737
X147.062Y-98.737
X147.262Y-86.037
X147.262Y-94.037
X148.262Y-72.037
X148.262Y-110.037
X148.562Y-82.213
X148.963Y-79.537
X149.262Y-85.037
X149.262Y-96.037
X150.262Y-97.037
X150.486Y-102.268
X151.262Y-80.037
X151.262Y-85.037
X151.262Y-94.037
X151.262Y-101.037
X152.262Y-72.037
X152.262Y-80.037
X152.262Y-110.037
X153.262Y-85.037
X153.262Y-97.269
X153.262Y-101.037
X153.262Y-102.037
X155.762Y-95.537
X156.262Y-72.037
X156.262Y-78.037
X156.262Y-102.037
X156.262Y-104.037
X156.262Y-110.037
X156.463Y-83.237
X156.463Y-84.737
X156.463Y-86.237
X156.762Y-84.037
X156.762Y-85.537
X156.762Y-87.037
X157.262Y-89.037
X157.562Y-83.837
X158.262Y-83.473
X158.262Y-93.037
X158.262Y-101.037
X158.634Y-78.509
X159.262Y-80.037
X160.262Y-72.037
X160.262Y-94.037
X160.262Y-102.037
X160.262Y-110.037
X160.762Y-83.537
X160.762Y-84.537
X160.762Y-85.537
X160.762Y-86.537
X161.262Y-72.037
X161.262Y-110.037
X161.862Y-81.237
X162.262Y-72.037
X162.262Y-105.037
X162.262Y-106.037
X162.463Y-79.638
X162.762Y-83.537
X162.762Y-84.537
X162.762Y-85.537
X162.762Y-86.537
X163.062Y-81.237
X164.024Y-81.576
X164.062Y-79.337
X165.062Y-81.638
X166.158Y-81.675
X166.262Y-72.037
X166.262Y-75.537
X167.262Y-79.337
X167.262Y-81.737
X168.062Y-79.337
X168.062Y-82.237
X168.262Y-82.938
X168.762Y-79.337
X168.762Y-83.537
X168.762Y-84.537
X168.762Y-85.537
X168.762Y-86.537
X170.062Y-80.037
X170.062Y-81.237
X170.262Y-72.037
X170.762Y-83.537
X170.762Y-84.537
X170.762Y-85.537
X170.762Y-86.537
X171.062Y-81.237
X173.163Y-84.237
X173.591Y-82.909
X174.062Y-80.037
X174.062Y-81.237
X174.262Y-72.037
X174.262Y-105.037
X174.262Y-106.037
X175.262Y-72.037
X175.262Y-81.237
X175.262Y-96.037
X175.262Y-101.037
X175.262Y-110.037
X175.762Y-83.537
X175.762Y-86.537
X176.262Y-72.037
X176.262Y-75.537
X176.262Y-81.537
X176.262Y-104.037
X176.262Y-110.037
X178.262Y-101.037
X178.762Y-80.037
X179.762Y-79.037
X179.762Y-84.037
X179.762Y-85.537
X179.762Y-87.037
X180.062Y-83.237
X180.062Y-84.737
X180.062Y-86.237
X180.262Y-72.037
X180.262Y-76.037
X180.262Y-77.037
X180.262Y-110.037
X182.262Y-101.037
X183.062Y-80.837
X183.062Y-82.237
X183.062Y-83.737
X183.062Y-85.237
X183.762Y-79.537
X184.262Y-72.037
X184.262Y-85.237
X184.262Y-110.037
X185.062Y-97.337
X185.262Y-80.037
X186.162Y-100.637
X186.262Y-82.237
X186.762Y-81.537
X186.762Y-83.037
X186.762Y-86.537
X186.862Y-85.237
X186.862Y-100.637
X187.262Y-92.037
X187.262Y-98.663
X187.562Y-83.438
X187.662Y-81.438
X187.713Y-100.489
X187.862Y-101.837
X188.262Y-72.037
X188.262Y-110.037
X188.462Y-97.337
X188.762Y-92.037
X189.562Y-83.337
X190.262Y-95.537
X190.362Y-83.337
X190.433Y-103.812
X192.262Y-72.037
X192.262Y-91.037
X192.262Y-110.037
X192.762Y-98.037
X193.262Y-84.037
X193.394Y-82.169
X194.162Y-98.737
X194.262Y-91.037
X194.317Y-82.092
X195.062Y-98.737
X195.262Y-84.037
X196.262Y-72.037
X196.262Y-91.037
X196.262Y-98.037
X196.262Y-110.037
X196.962Y-81.337
X197.262Y-102.037
X198.262Y-84.037
X198.262Y-91.037
X198.262Y-98.037
X198.762Y-80.037
X199.262Y-82.037
X199.262Y-83.037
X199.262Y-99.037
X199.262Y-100.037
X200.262Y-72.037
X200.262Y-79.037
X200.262Y-82.037
X200.262Y-100.037
X200.262Y-102.037
X200.262Y-104.037
X200.262Y-110.037
X202.262Y-82.037
X202.262Y-100.037
X204.262Y-72.037
X204.262Y-78.037
X204.262Y-82.037
X204.262Y-100.037
X204.262Y-105.037
X204.262Y-110.037
X206.262Y-82.037
X206.262Y-100.037
X208.262Y-72.037
X208.262Y-82.037
X208.262Y-100.037
X208.262Y-110.037
X209.262Y-73.037
X209.262Y-75.037
X209.262Y-77.037
X209.262Y-79.037
X209.262Y-81.037
X209.262Y-82.037
X209.262Y-100.037
X209.262Y-101.037
X209.262Y-103.037
X209.262Y-105.037
X209.262Y-107.037
X209.262Y-109.037
T2
X153.262Y-90.037
X183.262Y-90.037
T0
M30
